<svg width="16" height="16" viewBox="0 0 16 16" fill="none" xmlns="http://www.w3.org/2000/svg">
<g clip-path="url(#clip0_47_2576)">
<path d="M9.67149 16.002C10.2065 16.002 10.673 15.5354 10.673 15.0005V12.6615H11.3417C11.743 12.6615 12.0104 12.394 12.0104 11.9928V5.3125H3.99219V11.9929C3.99219 12.3941 4.25967 12.6616 4.6609 12.6616H5.32967V15.0005C5.32967 15.5355 5.79609 16.002 6.33117 16.002C6.86609 16.002 7.33256 15.5355 7.33256 15.0005V12.6616H8.67005V15.0005C8.66999 15.5354 9.13652 16.002 9.67149 16.002Z" fill="white"/>
<path d="M13.6812 11.9929C14.2162 11.9929 14.6826 11.5264 14.6826 10.9914V6.31357C14.6826 5.78143 14.2162 5.3125 13.6812 5.3125C13.1462 5.3125 12.6797 5.78143 12.6797 6.31357V10.9914C12.6797 11.5263 13.1461 11.9929 13.6812 11.9929Z" fill="white"/>
<path d="M2.3217 11.9929C2.85673 11.9929 3.3232 11.5264 3.3232 10.9914V6.31357C3.3232 5.78143 2.85678 5.3125 2.3217 5.3125C1.78673 5.3125 1.32031 5.78143 1.32031 6.31357V10.9914C1.32031 11.5263 1.78673 11.9929 2.3217 11.9929Z" fill="white"/>
<path d="M11.2079 0.100908C11.0742 -0.033636 10.8752 -0.033636 10.7415 0.100908L9.84458 0.994825L9.80321 1.03615C9.27138 0.769837 8.67512 0.636841 8.0111 0.63556C8.00784 0.63556 8.00464 0.635453 8.00138 0.635453H8.00128C7.99791 0.635453 7.99482 0.63556 7.99145 0.63556C7.32749 0.636841 6.73123 0.769837 6.19946 1.03615L6.15797 0.994825L5.26112 0.100908C5.12732 -0.033636 4.92839 -0.033636 4.7947 0.100908C4.6609 0.234704 4.6609 0.433264 4.7947 0.566953L5.66229 1.43471C5.38274 1.62136 5.12924 1.84977 4.90879 2.11101C4.38103 2.73658 4.0444 3.55073 3.99811 4.43285C3.99769 4.44203 3.99678 4.45111 3.99635 4.46029C3.99352 4.52036 3.99219 4.58074 3.99219 4.64134H12.0104C12.0104 4.58074 12.009 4.52036 12.0063 4.46029C12.0058 4.45111 12.0049 4.44203 12.0044 4.43285C11.9582 3.55073 11.6215 2.73653 11.0937 2.11106C10.8734 1.84982 10.6198 1.62142 10.3402 1.43476L11.2079 0.567007C11.3417 0.433264 11.3417 0.234704 11.2079 0.100908ZM6.32989 3.47374C6.05322 3.47374 5.82893 3.24945 5.82893 2.97278C5.82893 2.69611 6.05322 2.47182 6.32989 2.47182C6.60656 2.47182 6.83085 2.69611 6.83085 2.97278C6.83085 3.24945 6.60656 3.47374 6.32989 3.47374ZM9.67272 3.47374C9.39605 3.47374 9.17176 3.24945 9.17176 2.97278C9.17176 2.69611 9.39605 2.47182 9.67272 2.47182C9.94939 2.47182 10.1737 2.69611 10.1737 2.97278C10.1737 3.24945 9.94939 3.47374 9.67272 3.47374Z" fill="white"/>
</g>
<defs>
<clipPath id="clip0_47_2576">
<rect width="16" height="16" fill="white"/>
</clipPath>
</defs>
</svg>
