<svg width="16" height="16" viewBox="0 0 16 16" fill="none" xmlns="http://www.w3.org/2000/svg">
<path d="M10.9987 0C10.1457 0.0589997 9.14869 0.604996 8.56769 1.31599C8.0377 1.96099 7.6017 2.91898 7.7717 3.84998C8.70369 3.87898 9.66669 3.31998 10.2247 2.59698C10.7467 1.92399 11.1417 0.971994 10.9987 0Z" fill="white"/>
<path d="M14.3715 5.36518C13.5525 4.33818 12.4015 3.74219 11.3145 3.74219C9.87954 3.74219 9.27255 4.42918 8.27555 4.42918C7.24756 4.42918 6.46656 3.74419 5.22557 3.74419C4.00658 3.74419 2.70858 4.48918 1.88559 5.76318C0.728596 7.55717 0.926595 10.9301 2.80158 13.8031C3.47258 14.8311 4.36857 15.9871 5.54057 15.9971C6.58356 16.0071 6.87756 15.3281 8.29055 15.3211C9.70354 15.3131 9.97154 16.0061 11.0125 15.9951C12.1855 15.9861 13.1305 14.7051 13.8015 13.6771C14.2825 12.9401 14.4615 12.5691 14.8345 11.7371C12.1215 10.7041 11.6865 6.84617 14.3715 5.36518Z" fill="white"/>
</svg>
