<svg width="32" height="32" viewBox="0 0 32 32" fill="none" xmlns="http://www.w3.org/2000/svg">
<path d="M16 6.99382e-07C24.8366 1.08564e-06 32 7.16345 32 16C32 24.8366 24.8366 32 16 32C7.16344 32 3.13124e-07 24.8366 6.99382e-07 16C1.08564e-06 7.16344 7.16345 3.13124e-07 16 6.99382e-07Z" fill="url(#paint0_linear_47_2780)"/>
<path d="M16 16C17.6364 12.5385 19.4286 11.5 22 11.5C20.8571 12.4231 18.4857 14.6846 18.1429 16.3462C17.8 18.0077 16.5714 19.8077 16 20.5C15.4286 19.8077 14.2 18.0077 13.8571 16.3462C13.5143 14.6846 11.1429 12.4231 10 11.5C12.5714 11.5 14.3636 12.5385 16 16Z" fill="#F48955"/>
<defs>
<linearGradient id="paint0_linear_47_2780" x1="32" y1="16" x2="6.99382e-07" y2="16" gradientUnits="userSpaceOnUse">
<stop stop-color="#232735"/>
<stop offset="1" stop-color="#0C0C0F"/>
</linearGradient>
</defs>
</svg>
