<svg width="12" height="12" viewBox="0 0 12 12" fill="none" xmlns="http://www.w3.org/2000/svg">
<path d="M11.0762 6.09467C11.0251 6.10246 10.9716 6.11136 10.9171 6.12249C10.7669 6.15253 10.629 6.18924 10.5032 6.23041C10.3052 6.29494 10.1517 6.34946 10.0916 6.37283C9.67545 6.53193 9.25377 6.73554 9.0713 6.82566C8.81206 6.997 8.55171 7.16723 8.29247 7.33858C7.99095 7.58335 7.66718 7.89822 7.36232 8.29765C6.34762 9.62834 6.18406 11.0814 6.15736 11.8013C5.9582 8.80612 4.20583 6.47296 1.125 6.1058C4.18469 5.74642 5.98491 3.39102 6.15736 0.410319C6.17739 0.0720837 6.23302 2.23723 7.16984 3.74038C8.03657 5.13115 9.62316 5.77535 11.0762 6.09467Z" fill="url(#paint0_linear_47_717)"/>
<defs>
<linearGradient id="paint0_linear_47_717" x1="6.10062" y1="0.375" x2="6.10062" y2="11.8013" gradientUnits="userSpaceOnUse">
<stop offset="0.432692" stop-color="#FFBF58"/>
<stop offset="1" stop-color="#FDFFC6"/>
</linearGradient>
</defs>
</svg>
