<svg width="70" height="70" viewBox="0 0 70 70" fill="none" xmlns="http://www.w3.org/2000/svg">
<path d="M30.7259 30.0874H28.655C28.029 30.0874 27.5474 30.28 27.2584 30.9061L23.3093 39.912H26.1026C26.1026 39.912 26.5842 38.708 26.6805 38.419C26.9695 38.419 29.7146 38.419 30.0998 38.419C30.1961 38.7561 30.4369 39.8638 30.4369 39.8638H32.9412L30.7259 30.0874ZM27.4511 36.3963C27.6918 35.8184 28.5106 33.6512 28.5106 33.6512C28.5106 33.6994 28.7514 33.0733 28.8477 32.7362L29.0403 33.6031C29.0403 33.6031 29.5701 35.9629 29.6664 36.4445H27.4511V36.3963Z" fill="#3362AB"/>
<path d="M23.5019 36.6852C23.5019 38.7079 21.6718 40.0564 18.8304 40.0564C17.6264 40.0564 16.4706 39.8156 15.8445 39.5266L16.2298 37.3113L16.5669 37.4558C17.4337 37.841 18.0117 37.9855 19.0712 37.9855C19.8417 37.9855 20.6604 37.6966 20.6604 37.0223C20.6604 36.5889 20.3233 36.2999 19.2638 35.8183C18.2525 35.3367 16.904 34.5662 16.904 33.1696C16.904 31.2432 18.7822 29.9429 21.431 29.9429C22.4423 29.9429 23.3092 30.1355 23.839 30.3763L23.4537 32.4953L23.2611 32.3027C22.7795 32.1101 22.1534 31.9174 21.2384 31.9174C20.227 31.9656 19.7454 32.399 19.7454 32.7843C19.7454 33.2177 20.3233 33.5548 21.2384 33.9883C22.7795 34.7107 23.5019 35.5294 23.5019 36.6852Z" fill="#3362AB"/>
<path d="M0 30.1838L0.0481596 29.9912H4.18989C4.7678 29.9912 5.20124 30.1838 5.34572 30.8099L6.26075 35.1443C5.34572 32.8326 3.22669 30.9544 0 30.1838Z" fill="#F9B50B"/>
<path d="M12.088 30.0877L7.89808 39.8641H5.05666L2.64868 31.677C4.38243 32.7846 5.82722 34.5184 6.35697 35.7224L6.64593 36.7337L9.24655 30.0396H12.088V30.0877Z" fill="#3362AB"/>
<path d="M13.1958 30.0396H15.8446L14.159 39.8641H11.5103L13.1958 30.0396Z" fill="#3362AB"/>
<g clip-path="url(#clip0_47_827)">
<path d="M69.3267 47.4948V47.5616H69.3882C69.4018 47.5616 69.4135 47.5584 69.4219 47.5532C69.4297 47.548 69.4342 47.5389 69.4342 47.5279C69.4342 47.5169 69.4297 47.5084 69.4219 47.5032C69.4135 47.4974 69.4018 47.4948 69.3882 47.4948H69.3267ZM69.3889 47.4481C69.4206 47.4481 69.4452 47.4552 69.4627 47.4695C69.4802 47.4838 69.4886 47.5032 69.4886 47.5279C69.4886 47.5487 69.4821 47.5655 69.4679 47.5792C69.4543 47.5921 69.4348 47.6006 69.4089 47.6038L69.4905 47.6979H69.4271L69.3513 47.6045H69.3267V47.6979H69.2736V47.4481H69.3889ZM69.3727 47.7842C69.4018 47.7842 69.429 47.7784 69.4536 47.7673C69.4789 47.7563 69.5009 47.7414 69.5197 47.7226C69.5384 47.7037 69.5533 47.6817 69.5643 47.6557C69.5747 47.6304 69.5805 47.6032 69.5805 47.574C69.5805 47.5448 69.5747 47.5175 69.5643 47.4922C69.5533 47.4669 69.5384 47.4442 69.5197 47.4254C69.5009 47.4066 69.4789 47.3916 69.4536 47.3806C69.429 47.3702 69.4018 47.365 69.3727 47.365C69.3436 47.365 69.3157 47.3702 69.2905 47.3806C69.2646 47.3916 69.2419 47.4066 69.2231 47.4254C69.2044 47.4442 69.1895 47.4669 69.1791 47.4922C69.1681 47.5175 69.1629 47.5448 69.1629 47.574C69.1629 47.6032 69.1681 47.6304 69.1791 47.6557C69.1895 47.6817 69.2044 47.7037 69.2231 47.7226C69.2419 47.7414 69.2646 47.7563 69.2905 47.7673C69.3157 47.7784 69.3436 47.7842 69.3727 47.7842ZM69.3727 47.3047C69.4109 47.3047 69.4459 47.3118 69.4795 47.3261C69.5125 47.3397 69.541 47.3592 69.5663 47.3838C69.5909 47.4079 69.6103 47.4364 69.6245 47.4695C69.6388 47.5019 69.6459 47.537 69.6459 47.574C69.6459 47.611 69.6388 47.646 69.6245 47.6784C69.6103 47.7109 69.5909 47.7394 69.5663 47.7641C69.541 47.7881 69.5125 47.8076 69.4795 47.8218C69.4459 47.8361 69.4109 47.8433 69.3727 47.8433C69.3338 47.8433 69.2982 47.8361 69.2646 47.8218C69.2309 47.8076 69.2018 47.7881 69.1772 47.7641C69.1526 47.7394 69.1331 47.7109 69.1189 47.6784C69.1047 47.646 69.0975 47.611 69.0975 47.574C69.0975 47.537 69.1047 47.5019 69.1189 47.4695C69.1331 47.4364 69.1526 47.4079 69.1772 47.3838C69.2018 47.3592 69.2309 47.3397 69.2646 47.3261C69.2982 47.3118 69.3338 47.3047 69.3727 47.3047ZM44.1483 46.3424C44.1483 45.8661 44.4597 45.4748 44.9685 45.4748C45.4548 45.4748 45.783 45.8492 45.783 46.3424C45.783 46.8355 45.4548 47.2099 44.9685 47.2099C44.4597 47.2099 44.1483 46.8187 44.1483 46.3424ZM46.3372 46.3424V44.9875H45.7493V45.3165C45.5629 45.0725 45.28 44.9193 44.8954 44.9193C44.1372 44.9193 43.5429 45.515 43.5429 46.3424C43.5429 47.1704 44.1372 47.7654 44.8954 47.7654C45.28 47.7654 45.5629 47.6123 45.7493 47.3683V47.6973H46.3372V46.3424ZM66.2029 46.3424C66.2029 45.8661 66.5143 45.4748 67.0232 45.4748C67.51 45.4748 67.8376 45.8492 67.8376 46.3424C67.8376 46.8355 67.51 47.2099 67.0232 47.2099C66.5143 47.2099 66.2029 46.8187 66.2029 46.3424ZM68.3925 46.3424V43.8993H67.804V45.3165C67.6175 45.0725 67.3346 44.9193 66.95 44.9193C66.1919 44.9193 65.5975 45.515 65.5975 46.3424C65.5975 47.1704 66.1919 47.7654 66.95 47.7654C67.3346 47.7654 67.6175 47.6123 67.804 47.3683V47.6973H68.3925V46.3424ZM53.6344 45.4469C54.0131 45.4469 54.2565 45.685 54.3187 46.1042H52.9157C52.9785 45.7129 53.2155 45.4469 53.6344 45.4469ZM53.646 44.9193C52.8536 44.9193 52.2994 45.4975 52.2994 46.3424C52.2994 47.2041 52.8762 47.7654 53.6855 47.7654C54.0927 47.7654 54.4657 47.6635 54.7939 47.3858L54.5058 46.9491C54.2792 47.1301 53.9905 47.2327 53.7192 47.2327C53.3404 47.2327 52.9954 47.0568 52.9105 46.5688H54.9182C54.924 46.4955 54.9299 46.4215 54.9299 46.3424C54.924 45.4975 54.4035 44.9193 53.646 44.9193ZM60.7444 46.3424C60.7444 45.8661 61.0558 45.4748 61.5647 45.4748C62.0509 45.4748 62.3792 45.8492 62.3792 46.3424C62.3792 46.8355 62.0509 47.2099 61.5647 47.2099C61.0558 47.2099 60.7444 46.8187 60.7444 46.3424ZM62.9334 46.3424V44.9875H62.3455V45.3165C62.1584 45.0725 61.8761 44.9193 61.4916 44.9193C60.7334 44.9193 60.1391 45.515 60.1391 46.3424C60.1391 47.1704 60.7334 47.7654 61.4916 47.7654C61.8761 47.7654 62.1584 47.6123 62.3455 47.3683V47.6973H62.9334V46.3424ZM57.4244 46.3424C57.4244 47.1645 57.9954 47.7654 58.8669 47.7654C59.2741 47.7654 59.5454 47.6745 59.8393 47.4422L59.557 46.966C59.3363 47.1249 59.1045 47.2099 58.8494 47.2099C58.38 47.2041 58.0349 46.8641 58.0349 46.3424C58.0349 45.8207 58.38 45.4806 58.8494 45.4748C59.1045 45.4748 59.3363 45.5598 59.557 45.7188L59.8393 45.2425C59.5454 45.0102 59.2741 44.9193 58.8669 44.9193C57.9954 44.9193 57.4244 45.5202 57.4244 46.3424ZM65.0038 44.9193C64.6646 44.9193 64.4438 45.0783 64.291 45.3165V44.9875H63.7083V47.6973H64.2969V46.1782C64.2969 45.7298 64.4891 45.4806 64.8737 45.4806C64.9928 45.4806 65.1171 45.4975 65.2415 45.5488L65.4227 44.9933C65.2926 44.9421 65.123 44.9193 65.0038 44.9193ZM49.2448 45.2029C48.9619 45.016 48.5721 44.9193 48.1422 44.9193C47.4573 44.9193 47.0164 45.2483 47.0164 45.7869C47.0164 46.2288 47.3446 46.5014 47.9493 46.5864L48.227 46.6259C48.5495 46.6714 48.7016 46.7564 48.7016 46.9095C48.7016 47.1191 48.4867 47.2385 48.0853 47.2385C47.678 47.2385 47.3841 47.1081 47.186 46.9549L46.9089 47.4137C47.2313 47.6518 47.6385 47.7654 48.0794 47.7654C48.8602 47.7654 49.3128 47.3968 49.3128 46.881C49.3128 46.4047 48.9567 46.1555 48.3682 46.0705L48.0911 46.0303C47.8366 45.9965 47.6327 45.9459 47.6327 45.7642C47.6327 45.5656 47.825 45.4469 48.1474 45.4469C48.4925 45.4469 48.8266 45.5773 48.9904 45.6792L49.2448 45.2029ZM56.8301 44.9193C56.4908 44.9193 56.27 45.0783 56.1179 45.3165V44.9875H55.5352V47.6973H56.1231V46.1782C56.1231 45.7298 56.3154 45.4806 56.6999 45.4806C56.8191 45.4806 56.9434 45.4975 57.0677 45.5488L57.249 44.9933C57.1188 44.9421 56.9492 44.9193 56.8301 44.9193ZM51.8132 44.9875H50.8517V44.1653H50.2574V44.9875H49.709V45.5261H50.2574V46.7622C50.2574 47.391 50.5008 47.7654 51.1962 47.7654C51.4512 47.7654 51.7452 47.6862 51.9316 47.5558L51.762 47.051C51.5866 47.1528 51.3943 47.2041 51.2415 47.2041C50.9475 47.2041 50.8517 47.0224 50.8517 46.7505V45.5261H51.8132V44.9875ZM43.023 47.6973V45.9965C43.023 45.3561 42.6158 44.9252 41.9593 44.9193C41.6142 44.9135 41.2581 45.0212 41.0089 45.4015C40.8224 45.101 40.5285 44.9193 40.1154 44.9193C39.8267 44.9193 39.5444 45.0044 39.3236 45.3217V44.9875H38.7351V47.6973H39.3288V46.1951C39.3288 45.7246 39.5891 45.4748 39.9911 45.4748C40.3815 45.4748 40.579 45.7298 40.579 46.1892V47.6973H41.1733V46.1951C41.1733 45.7246 41.4446 45.4748 41.835 45.4748C42.2364 45.4748 42.4287 45.7298 42.4287 46.1892V47.6973H43.023Z" fill="#231F20"/>
<path d="M69.6891 38.6855V38.2897H69.5862L69.4671 38.5616L69.3486 38.2897H69.245V38.6855H69.3182V38.3871L69.4295 38.6447H69.5053L69.6166 38.3864V38.6855H69.6891ZM69.0359 38.6855V38.3572H69.168V38.2904H68.8313V38.3572H68.9634V38.6855H69.0359Z" fill="#F79410"/>
<path d="M57.9836 40.3883H49.074V24.3398H57.9836V40.3883Z" fill="#FF5F00"/>
<path d="M49.6448 32.3629C49.6448 29.1074 51.1656 26.2075 53.5339 24.3387C51.8021 22.9721 49.6163 22.1564 47.2409 22.1564C41.6174 22.1564 37.0588 26.7259 37.0588 32.3629C37.0588 37.9998 41.6174 42.5693 47.2409 42.5693C49.6163 42.5693 51.8021 41.7537 53.5339 40.3871C51.1656 38.5183 49.6448 35.6184 49.6448 32.3629Z" fill="#EB001B"/>
<path d="M69.9999 32.3629C69.9999 37.9998 65.4414 42.5693 59.8178 42.5693C57.4424 42.5693 55.2567 41.7537 53.5242 40.3871C55.8931 38.5183 57.4139 35.6184 57.4139 32.3629C57.4139 29.1074 55.8931 26.2075 53.5242 24.3387C55.2567 22.9721 57.4424 22.1564 59.8178 22.1564C65.4414 22.1564 69.9999 26.7259 69.9999 32.3629Z" fill="#F79E1B"/>
</g>
<defs>
<clipPath id="clip0_47_827">
<rect width="32.9412" height="32.9412" fill="white" transform="translate(37.0588 18.5293)"/>
</clipPath>
</defs>
</svg>
