<svg width="70" height="70" viewBox="0 0 70 70" fill="none" xmlns="http://www.w3.org/2000/svg">
<path fill-rule="evenodd" clip-rule="evenodd" d="M34.265 29.4304C34.755 29.6722 35.385 29.2232 35.28 30.7774L35.14 32.988C35.14 33.4715 35.07 33.6442 35.07 34.0587C35.07 34.3696 35.035 34.8877 34.965 35.1985C34.86 36.1311 34.965 36.4074 33.915 36.511V36.7873C34.16 36.9255 36.015 36.8564 36.435 36.8564C36.68 36.8564 36.47 36.8564 36.645 36.7873C36.61 36.4074 36.47 36.511 36.085 36.442C35.735 36.3729 35.665 36.3383 35.63 36.0275C35.49 35.3367 35.735 31.7791 35.735 30.8465C35.945 31.0538 36.015 31.2955 36.12 31.5719C36.26 31.8482 36.33 32.0209 36.47 32.2972C36.61 32.5735 36.68 32.7807 36.785 33.0571C36.96 33.3334 37.03 33.5061 37.17 33.8169C37.555 34.715 38.36 36.0275 38.57 36.9255C38.99 36.891 38.815 36.9255 39.095 36.3038C39.55 35.3367 39.83 34.8877 40.25 34.0242L41.755 31.0192C41.825 30.8811 41.79 30.9847 41.825 30.9156C41.825 31.6064 41.895 32.0209 41.895 32.7117C41.895 33.437 42.035 35.8202 41.755 36.3729C41.545 36.4074 41.195 36.511 40.95 36.511V36.8564H43.75C43.995 36.8564 43.96 36.7183 43.96 36.511C43.75 36.511 43.54 36.4765 43.365 36.4074C42.84 36.2693 42.945 35.4748 42.945 34.6113C42.945 34.0587 42.875 33.7479 42.875 33.2643V30.0867C42.875 29.7413 43.05 29.5686 43.365 29.534C43.89 29.4304 44.03 29.6376 43.89 29.085C43.505 29.1541 42.245 29.2577 41.895 29.085C41.86 29.5686 41.545 30.2594 41.335 30.6738C41.09 31.1919 40.845 31.6409 40.6 32.159L38.955 35.164C38.745 34.266 36.295 30.5011 36.295 29.085C35.945 29.2577 34.685 29.1541 34.3 29.085C34.265 29.2232 34.265 29.2232 34.265 29.4304ZM65.205 30.1557C65.205 33.6097 70 33.2298 70 30.5011C70 29.6722 70 29.1886 69.23 28.4978C68.46 27.807 67.13 27.6689 66.255 28.2906C65.66 28.7396 65.205 29.3613 65.205 30.1557ZM49.14 32.4699V32.7117C49.455 32.8153 49.63 33.0571 49.63 33.4715C49.63 33.886 49.7 35.9584 49.525 36.2693C49.42 36.4765 49.105 36.4765 48.895 36.511V36.8564H51.065C51.31 36.8564 51.1 36.8564 51.275 36.7873C51.24 36.4074 50.995 36.442 50.645 36.3729C50.505 35.7512 50.575 34.1969 50.575 33.4715C50.575 32.6771 51.975 32.3317 52.57 33.0916C52.885 33.5061 52.815 35.7166 52.71 36.1656C52.64 36.3729 52.57 36.4765 52.01 36.511V36.7873C52.29 36.9255 54.005 36.8564 54.425 36.8564V36.511C53.445 36.4074 53.655 36.062 53.655 34.0587C53.655 33.0571 53.725 32.0554 52.22 32.0554C51.765 32.0554 51.31 32.2281 50.96 32.4353C50.785 32.539 50.785 32.539 50.575 32.5735V31.9173C50.12 31.9173 49.63 32.3317 49.14 32.4699ZM1.365 29.4995C1.855 29.7067 2.38 29.4304 2.38 30.1557L2.45 33.1261H3.43V29.9485C3.43 29.4649 3.675 29.5686 4.165 29.5686C6.055 29.5686 6.44 32.09 5.075 32.9534C3.955 33.6442 1.225 33.1952 0 33.1952L0.28 33.2988C2.345 33.7824 7.035 34.266 7.035 31.2955C7.035 30.1212 6.195 29.3959 5.005 29.1886C3.92 28.9814 3.115 29.1541 2.1 29.1541C1.68 29.1541 1.4 29.085 1.365 29.4995ZM15.505 32.1936C15.365 32.2281 15.155 32.3317 15.015 32.4008C14.805 32.539 14.84 32.539 14.91 32.7807C15.82 32.7807 15.505 32.7117 15.505 33.1952C15.505 33.5406 15.61 36.2002 15.435 36.3729C15.085 36.5456 14.805 36.3383 14.77 36.7873C15.05 36.891 16.345 36.8219 16.905 36.8564C17.36 36.8564 17.29 36.9255 17.43 36.6492C17.08 36.1656 16.485 36.891 16.485 35.6821C16.485 31.5719 16.17 33.1607 18.06 32.7117C18.165 32.2972 18.13 32.608 18.06 32.1936C16.59 32.1936 16.485 32.3663 16.485 31.7791C16.485 30.8465 16.59 28.6014 17.885 29.1195C18.235 29.2577 18.41 29.7067 18.725 29.7067C19.145 29.7067 19.355 29.3613 19.215 29.0159C18.865 28.256 16.17 28.0488 15.68 30.7774C15.61 31.1574 15.505 31.8136 15.505 32.1936Z" fill="#F00F0F"/>
<path fill-rule="evenodd" clip-rule="evenodd" d="M46.2701 32.4699C48.1251 32.4699 48.1951 36.5802 46.4801 36.5802C44.9401 36.5802 44.6251 34.1969 45.2201 33.1607C45.3951 32.8153 45.7801 32.4699 46.2701 32.4699ZM43.8901 34.3351V34.8186C43.8901 37.6164 48.8251 37.8927 48.8251 34.4732C48.8251 31.1229 43.8901 31.4337 43.8901 34.3351ZM58.8701 32.539C59.4301 32.5736 59.5701 32.7117 59.7801 33.1607L60.6201 35.4404C61.1101 36.7183 61.1451 36.891 60.3751 38.2035C60.2001 38.4798 60.1651 38.6525 59.7451 38.6525C59.2551 38.6871 59.1501 38.7216 59.1501 39.2052C59.1501 39.6542 59.4301 39.6887 59.7451 39.6887C60.3751 39.6887 60.6551 38.7562 61.0051 37.9963L62.8951 34.0588C63.2801 33.2989 63.4551 32.5736 64.2601 32.539V32.1936H62.1251V32.539C62.3701 32.539 62.6151 32.6081 62.8251 32.6426C62.8251 32.988 62.4401 33.8515 62.3001 34.1624C62.1601 34.4387 61.7751 35.4404 61.6001 35.544L61.0751 34.1624C60.9701 33.817 60.6551 32.988 60.6201 32.6426C61.3201 32.5045 61.1801 32.539 61.1801 32.1936H59.0801C58.8351 32.1936 58.8701 32.2972 58.8701 32.539ZM19.4251 33.4716C18.2351 33.4716 19.7051 32.4699 20.2301 32.4699C20.7901 32.4699 21.0701 32.7463 21.0701 33.1953C21.0701 33.5061 20.6501 33.368 20.3351 33.4025C20.0551 33.4371 19.7751 33.4716 19.4251 33.4716ZM17.9901 34.5423C17.9901 37.2364 20.4401 37.3055 21.4201 36.6147C21.7351 36.4075 22.0851 36.0621 22.0151 35.6821C21.2451 35.7167 21.9101 36.2348 20.5101 36.2348C19.3551 36.2348 18.6551 34.7841 18.8651 33.8861C19.8101 33.8861 21.2101 33.9897 22.0151 33.817C22.0151 33.1262 22.0151 32.919 21.6651 32.539C20.8951 31.7446 19.3201 31.9864 18.6201 32.8153C18.2701 33.2298 17.9901 33.817 17.9901 34.5423ZM56.0001 33.4716H55.5801C55.5801 33.0917 55.7551 32.9535 55.9651 32.7808C56.5601 32.2972 57.6451 32.2972 57.6451 33.1953C57.6451 33.5061 57.2251 33.368 56.9101 33.4025C56.6301 33.4371 56.3501 33.4716 56.0001 33.4716ZM54.5651 34.5423C54.5651 35.3713 54.7051 35.993 55.3001 36.5111C56.0701 37.1328 57.3301 37.0983 58.0651 36.5802C58.1351 36.5111 59.0451 35.6821 58.4501 35.6821C57.9951 35.6821 58.3801 36.2348 57.0851 36.2348C56.0701 36.2348 55.5101 35.1986 55.3701 34.266C55.3001 33.7134 55.5451 33.8861 56.8051 33.8861C57.4001 33.8861 58.1001 33.9206 58.5901 33.817C58.5901 33.5061 58.7651 33.1262 58.2751 32.5736C57.5051 31.7101 55.8951 31.9864 55.1951 32.8153C54.8451 33.1953 54.5651 33.8515 54.5651 34.5423ZM7.73506 33.4716C7.80506 32.3663 9.83506 32.0555 9.83506 33.1262C9.83506 33.5752 8.19006 33.4716 7.73506 33.4716ZM6.75506 34.3351C6.75506 35.095 6.72006 35.8203 7.42006 36.442C8.29506 37.2364 9.94006 37.1673 10.6401 36.2002C10.8851 35.8203 10.8151 35.4749 10.3951 35.8548C9.17006 36.9256 7.59506 35.7512 7.59506 34.0588C7.59506 33.7479 8.57506 33.8861 9.24006 33.8861C10.6401 33.8861 10.8151 34.0242 10.8151 33.4025C10.8151 32.5736 10.0101 32.0555 9.03006 32.0555C7.80506 32.0555 6.75506 33.1607 6.75506 34.3351ZM22.3651 34.4042V34.8877C22.3651 36.8219 24.6051 37.4437 25.9001 36.6147C26.1101 36.4765 26.6001 36.0621 26.6001 35.7512C26.6001 35.5094 26.6001 35.7512 26.5301 35.544C26.1451 35.5785 26.3201 35.6821 26.0051 35.9239C25.0951 36.6492 23.2401 36.1657 23.2401 34.1969C23.2401 33.2989 23.8701 32.539 24.8151 32.539C25.6201 32.539 25.8301 33.1953 26.1101 33.1953C26.3551 33.1953 26.5651 32.8153 26.3551 32.4009C26.1801 32.0209 25.4451 32.0555 25.0251 32.0555C24.2201 32.0555 23.5901 32.3318 23.1701 32.7117C22.7501 33.0571 22.3651 33.7134 22.3651 34.4042ZM26.8801 32.7117C27.0551 32.8153 27.1601 32.7808 27.4751 32.7808V35.544C27.4751 37.8236 29.9951 36.8565 29.9951 36.3729C29.9951 36.0275 29.7501 36.2348 29.6101 36.3038C29.4001 36.4075 29.2951 36.442 28.9801 36.3729C28.5951 36.2348 28.4201 35.8203 28.4201 35.3022V32.7808C30.0651 32.7808 30.1701 32.9535 29.9951 32.1936C28.3501 32.1936 28.4551 32.3318 28.4201 31.7791C28.4201 31.5374 28.4201 31.3301 28.2101 31.3992C27.9651 31.5028 28.0001 32.0555 27.1601 32.3663C26.8451 32.4699 26.8801 32.3663 26.8801 32.7117ZM11.2701 32.5736C11.2701 32.919 11.6901 32.7808 11.6901 33.1262C11.6901 33.9206 11.7601 35.7167 11.6201 36.3729C11.4101 36.4075 11.2351 36.4765 10.9901 36.5111V36.8565H13.4051C13.6151 36.8565 13.5801 36.7183 13.6151 36.5111C13.4751 36.5111 13.0551 36.442 12.9501 36.4075C12.7401 36.3729 12.6351 36.2348 12.6351 35.9584V33.6788C12.6351 33.3334 12.8101 32.8499 13.1951 32.8499C13.4751 32.8499 13.7901 33.1262 13.8601 33.1262C14.9451 33.1262 14.5951 31.3992 13.1601 32.2972C12.9851 32.4354 12.8801 32.6081 12.6351 32.6426V31.9173C12.2851 31.9173 11.9701 32.1591 11.5501 32.3318C11.3751 32.4009 11.2701 32.3663 11.2701 32.5736ZM1.43506 36.5111V36.8565H4.58506V36.5111C3.22006 36.4765 3.43006 35.993 3.43006 33.9551C2.87006 33.9551 2.94006 33.9897 2.45006 33.8861C2.45006 34.5423 2.38006 35.0604 2.38006 35.6131C2.38006 36.4075 2.13506 36.442 1.43506 36.5111Z" fill="#F00F0F"/>
<path fill-rule="evenodd" clip-rule="evenodd" d="M44.1699 40.3452C44.1699 39.5853 45.0449 39.5853 45.0449 40.3452C45.0449 41.0359 44.1699 41.1396 44.1699 40.3452ZM43.6099 42.1067H44.1699V41.1741C45.7099 42.1757 46.1299 39.3435 44.8349 39.3435C44.1699 39.3435 44.4849 39.4471 44.0999 39.5507V39.3435H43.6099V42.1067ZM47.0399 39.758H47.1099C47.3199 39.758 47.3549 39.9307 47.4249 40.0688H46.6899C46.7249 39.8961 46.8299 39.758 47.0399 39.758ZM46.1299 40.1379C46.1299 40.6905 46.1299 41.3468 47.1799 41.3468C47.4249 41.3468 47.6699 41.3123 47.8449 41.2432L47.7749 40.8287C47.3549 40.9323 46.7249 41.0705 46.6899 40.4833H47.9149C47.9149 39.7234 47.8799 39.3435 46.9699 39.3435C46.5499 39.3435 46.1299 39.758 46.1299 40.1379ZM36.2949 40.5524C36.2949 41.8304 37.4849 41.2086 37.5549 41.2086L38.0799 41.2777V39.3435H37.5199C37.5199 39.9998 37.6949 40.8978 37.2049 40.8978C36.7149 40.8978 36.8549 39.8961 36.8549 39.3435H36.2949V40.5524ZM52.7099 39.758H52.7799C52.9899 39.758 53.0599 39.8961 53.1299 40.0688H52.3599C52.3949 39.8961 52.4999 39.758 52.7099 39.758ZM51.8349 40.2761C51.8349 41.8304 53.5149 41.3468 53.5149 41.1741C53.5149 40.6905 53.3399 40.8978 52.9549 40.9323C52.6399 40.9323 52.3949 40.8287 52.3599 40.4833H53.6549C53.6549 38.7909 51.8349 39.1363 51.8349 40.2761ZM50.4349 39.3435H50.1899V39.8271H50.4349V41.2777H50.9949V39.8271H51.4149V39.3435H50.9949L51.0649 38.9981C51.2399 38.8945 51.2399 38.929 51.5549 38.929V38.4455C51.0649 38.4455 50.4699 38.4109 50.4349 39.3435ZM40.8799 38.9981V39.3435H40.5999V39.8271H40.8799C40.8799 41.0359 40.7749 41.3468 41.6849 41.3468C41.9649 41.3468 41.8949 41.2086 41.8949 40.8978C41.3349 40.8978 41.4399 40.8287 41.4399 39.8271H41.8949V39.3435H41.4399V38.86C41.1949 38.929 41.1249 38.9636 40.8799 38.9981ZM56.4549 38.9981V39.3435H56.2099V39.8271H56.4549C56.4549 40.8978 56.3499 41.3468 57.2949 41.3468C57.5399 41.3468 57.5049 41.2086 57.5049 40.8978C56.9449 40.8978 57.2599 40.9323 57.0849 40.8287C56.9799 40.3452 57.0149 40.3797 57.0149 39.8271H57.5049V39.3435H57.0149V38.86C56.8049 38.929 56.6999 38.9636 56.4549 38.9981ZM38.8149 39.8616C38.8149 40.656 39.3399 40.3452 39.6549 40.7596C39.4099 41.105 39.4099 40.9669 38.8149 40.8287C38.7799 41.0359 38.5349 41.3468 39.3749 41.3468C40.2499 41.3468 40.4249 40.5524 39.8649 40.207C39.7249 40.1379 39.4799 40.1034 39.4099 39.9998C39.2349 39.8271 39.4099 39.758 39.6199 39.758C39.8299 39.758 39.7249 39.7925 40.0049 39.8271C40.0749 39.6544 40.0399 39.5507 40.1099 39.4126C39.8299 39.378 38.8149 39.1017 38.8149 39.8616ZM54.1449 40.3452C54.1449 41.0014 54.5649 41.3468 55.2299 41.3468C55.4749 41.3468 55.5099 41.3123 55.7199 41.2777V40.8287C54.2499 41.1741 54.6349 39.758 55.2999 39.758C55.4749 39.758 55.3699 39.7925 55.6499 39.8271C55.8949 39.2744 55.6849 39.3435 55.0199 39.3435C54.5299 39.3435 54.1449 39.8271 54.1449 40.3452ZM34.9999 40.4142C34.9999 41.0705 34.4749 40.8632 34.2649 40.8287C34.2649 41.105 34.2299 41.105 34.1949 41.2777C35.8749 41.6922 35.5599 40.4142 35.5599 38.6527H34.9999V40.4142ZM48.6149 41.2777H49.1399C49.1399 40.2761 48.9999 39.9998 49.5249 39.8616C49.6999 39.7925 49.6999 40.0688 49.6999 39.3435C49.3149 39.3435 49.3149 39.378 49.0699 39.5507V39.3435H48.6149V41.2777Z" fill="black"/>
<path fill-rule="evenodd" clip-rule="evenodd" d="M67.27 29.5338C67.445 29.5338 67.445 29.4302 67.445 29.9828C67.445 30.1555 67.445 30.8463 67.375 30.9499C67.34 31.019 67.235 31.019 67.13 31.019V31.0881H67.76V31.019C67.515 31.019 67.515 31.0535 67.515 30.5354V29.7756C67.585 29.8792 67.655 29.9828 67.69 30.121C67.725 30.1555 67.76 30.2246 67.795 30.2591L68.215 31.0881C68.25 31.1226 68.25 31.0535 68.285 31.019L68.74 30.121C68.775 30.0864 68.915 29.8101 68.915 29.7756V30.8118C68.915 31.019 68.88 30.9845 68.705 31.019V31.0881H69.335V31.019C69.125 31.019 69.125 30.9845 69.125 30.7772V29.6374C69.125 29.4993 69.195 29.5338 69.3 29.5338V29.4302H68.915C68.915 29.4302 68.915 29.4647 68.88 29.4647L68.845 29.6029C68.81 29.6374 68.775 29.7065 68.74 29.7756C68.74 29.8101 68.705 29.8792 68.67 29.9137C68.635 29.9828 68.635 30.0519 68.6 30.0864C68.53 30.19 68.495 30.3282 68.425 30.4318C68.425 30.5009 68.39 30.5354 68.355 30.6045C68.355 30.6391 68.285 30.7427 68.285 30.7772L67.62 29.4302H67.27V29.5338Z" fill="#FEFDFD"/>
<path fill-rule="evenodd" clip-rule="evenodd" d="M66.115 29.5338H66.29C66.325 29.5338 66.325 29.6029 66.325 29.6374V30.2591C66.36 30.2937 66.5 30.2591 66.535 30.2591V29.4993C66.745 29.4993 66.85 29.4993 66.955 29.6029C67.06 29.672 67.095 29.8101 67.095 29.9828C67.06 30.121 66.99 30.2246 66.85 30.2591C66.675 30.3627 66.22 30.3627 66.01 30.3282C65.975 30.2937 65.905 30.2937 65.87 30.2937C65.94 30.3282 66.08 30.3627 66.15 30.3627C66.29 30.3973 66.43 30.3973 66.535 30.3973C66.85 30.3973 67.2 30.3627 67.305 30.0519C67.34 29.9483 67.34 29.8447 67.305 29.741C67.235 29.5683 67.06 29.4647 66.85 29.4302H66.115V29.5338ZM66.115 31.019V31.0881H66.745V31.019C66.5 31.019 66.535 31.019 66.535 30.6391V30.4664H66.325V30.8118C66.325 31.019 66.29 30.9845 66.115 31.019Z" fill="#FEFDFD"/>
</svg>
