<svg width="101" height="42" viewBox="0 0 101 42" fill="none" xmlns="http://www.w3.org/2000/svg">
<path fill-rule="evenodd" clip-rule="evenodd" d="M35.9155 8.05636C35.9155 8.05636 30.3771 0 17.9578 0C7.72016 0 0 5.70659 0 9.06341C0 12.9237 7.72016 14.9378 7.72016 20.9801H20.9787C20.9787 17.4555 9.39845 15.6092 9.39845 8.05636C9.39845 1.17489 27.3562 1.67841 35.9155 8.05636Z" fill="#F4F4F4"/>
<path fill-rule="evenodd" clip-rule="evenodd" d="M35.9155 33.9032C35.9155 33.9032 30.3771 41.9596 17.9578 41.9596C7.72016 41.9596 0 36.253 0 32.8962C0 29.0359 7.72016 26.8539 7.72016 20.9795H20.9787C20.9787 24.5042 9.39845 26.3504 9.39845 33.9032C9.39845 40.7847 27.3562 40.2812 35.9155 33.9032Z" fill="#F4F4F4"/>
<path fill-rule="evenodd" clip-rule="evenodd" d="M0.16783 7.88867C0 8.39219 0 8.72788 0 9.06356C0 12.9239 7.72016 14.938 7.72016 20.9803C7.72016 26.8547 0 29.0366 0 32.897C0 33.2327 0 33.5683 0.16783 33.904C-0.839148 30.2115 12.5872 27.0225 18.7969 23.6657C20.1396 22.8265 20.9787 21.9873 20.9787 20.9803C20.9787 19.9732 20.1396 19.134 18.7969 18.2948C12.5872 14.938 -0.839148 11.749 0.16783 7.88867Z" fill="#F4F4F4"/>
<path d="M30.2094 22.4901H31.552C31.3842 23.1615 31.0486 23.665 30.3772 24.0007C29.8737 24.3364 29.2024 24.6721 28.1955 24.6721C27.1885 24.6721 26.3493 24.3364 25.8458 23.665C25.1745 23.1615 24.8389 22.3223 24.8389 21.1474C24.8389 20.1404 25.1745 19.3012 25.8458 18.6298C26.3493 18.1263 27.1885 17.7906 28.1955 17.7906C29.3703 17.7906 30.2094 18.1263 30.8807 18.6298C31.3842 19.3012 31.7199 20.1404 31.7199 21.1474C31.7199 21.3152 31.7199 21.3152 31.7199 21.3152C31.7199 21.4831 31.7199 21.4831 31.7199 21.4831C31.7199 21.6509 31.7199 21.6509 31.7199 21.6509H26.8528C26.8528 22.1544 27.0206 22.4901 27.3563 22.8258C27.5241 22.9937 27.8598 23.1615 28.3633 23.1615C28.6989 23.1615 28.8668 23.1615 29.2024 22.9937C29.2024 22.9937 29.2024 22.9937 29.3703 22.9937C29.3703 22.8258 29.3703 22.8258 29.5381 22.8258C29.5381 22.658 29.5381 22.658 29.7059 22.658C29.8737 22.4901 30.0416 22.4901 30.2094 22.4901ZM26.8528 20.476H29.7059C29.7059 20.1404 29.5381 19.8047 29.3703 19.6368C29.0346 19.3012 28.6989 19.3012 28.3633 19.3012C27.8598 19.3012 27.5241 19.3012 27.3563 19.6368C27.0206 19.8047 26.8528 20.1404 26.8528 20.476ZM39.9435 24.5042H38.9365C38.7687 24.5042 38.433 24.3364 38.2652 24.1685C38.0974 24.1685 38.0974 23.8329 38.0974 23.665V20.3082C38.0974 19.9725 37.9296 19.6368 37.5939 19.469C37.4261 19.3012 37.0904 19.1333 36.7548 19.1333C36.4191 19.1333 36.0834 19.3012 35.9156 19.469C35.5799 19.6368 35.5799 19.9725 35.5799 20.3082V24.5042H33.566V20.6439C33.566 19.469 33.9017 18.7976 34.573 18.4619C35.2443 17.9584 35.9156 17.7906 36.7548 17.7906C37.5939 17.7906 38.2652 17.9584 38.9365 18.2941C39.6079 18.7976 39.9435 19.469 39.9435 20.6439V24.5042ZM46.6567 15.9443H47.6637C47.9993 15.9443 48.1672 16.1122 48.335 16.28C48.5028 16.4479 48.6706 16.6157 48.6706 16.7835V21.6509C48.6706 22.8258 48.1672 23.665 47.4958 24.0007C46.6567 24.3364 45.9854 24.6721 44.9784 24.6721C44.4749 24.6721 44.1392 24.5042 43.6358 24.3364C43.1323 24.3364 42.7966 24.0007 42.461 23.665C41.9575 23.1615 41.7896 22.3223 41.7896 21.3152C41.7896 20.1404 41.9575 19.3012 42.461 18.7976C43.1323 18.1263 43.8036 17.7906 44.6427 17.7906C45.1462 17.7906 45.4819 17.9584 45.8175 18.1263C46.1532 18.2941 46.4889 18.4619 46.6567 18.7976V15.9443ZM43.6358 21.1474C43.6358 21.8188 43.8036 22.3223 43.9714 22.658C44.3071 22.9937 44.6427 23.1615 45.1462 23.1615C45.6497 23.1615 46.1532 22.9937 46.321 22.658C46.6567 22.3223 46.6567 21.8188 46.6567 21.1474C46.6567 20.6439 46.6567 20.1404 46.321 19.8047C45.9854 19.469 45.6497 19.3012 45.1462 19.3012C44.6427 19.3012 44.3071 19.469 43.9714 19.8047C43.8036 20.1404 43.6358 20.6439 43.6358 21.1474ZM51.5237 23.8329C51.0203 23.665 50.8524 23.1615 50.6846 22.658C50.5168 22.1544 50.3489 21.6509 50.3489 21.1474C50.3489 20.6439 50.5168 20.3082 50.5168 19.8047C50.6846 19.3012 50.8524 18.9655 51.1881 18.6298C51.6916 18.2941 52.3629 17.9584 53.0342 17.7906C53.8734 17.7906 54.5447 17.7906 55.0482 17.9584C55.8873 18.2941 56.3908 18.6298 56.7265 19.3012C57.0621 19.8047 57.0621 20.476 57.0621 21.1474C57.0621 21.6509 57.0621 22.1544 56.8943 22.4901C56.8943 22.8258 56.7265 23.1615 56.3908 23.4972C56.0551 24.0007 55.3838 24.3364 54.7125 24.5042C54.209 24.6721 53.5377 24.6721 52.8664 24.5042C52.3629 24.3364 51.8594 24.1685 51.5237 23.8329ZM52.6985 19.6368C52.3629 19.9725 52.1951 20.476 52.1951 21.3152C52.3629 21.9866 52.3629 22.4901 52.6985 22.8258C52.8664 22.9937 53.0342 22.9937 53.3699 23.1615C53.5377 23.1615 53.8734 23.1615 54.209 23.1615C54.3768 23.1615 54.7125 22.9937 54.8803 22.658C55.0482 22.3223 55.216 21.8188 55.216 21.1474C55.216 20.6439 55.216 20.1404 54.8803 19.8047C54.7125 19.6368 54.5447 19.3012 54.209 19.3012C53.8734 19.1333 53.7055 19.1333 53.3699 19.3012C53.0342 19.3012 52.8664 19.469 52.6985 19.6368ZM59.0761 24.5042V21.3152C59.0761 20.6439 59.0761 20.1404 59.4117 19.6368C59.5796 19.3012 59.9152 18.9655 60.2509 18.6298C60.5865 18.4619 60.9222 18.2941 61.4257 18.1263C61.9292 17.9584 62.4327 17.9584 62.9361 17.9584C62.9361 17.9584 62.9361 17.9584 63.104 17.9584V19.6368H62.6005C61.9292 19.6368 61.5935 19.8047 61.4257 19.9725C61.09 20.3082 60.9222 20.6439 60.9222 21.1474V24.5042H59.0761ZM66.7962 26.0148C66.7962 26.3505 66.7962 26.5183 66.6284 26.6861C66.2927 26.854 66.1249 26.854 65.9571 26.854H64.9501V20.8117C64.9501 19.6368 65.2858 18.7976 66.1249 18.4619C66.7962 17.9584 67.6354 17.7906 68.4745 17.7906C68.978 17.7906 69.4815 17.9584 69.985 17.9584C70.4885 18.1263 70.8241 18.4619 70.992 18.6298C71.6633 19.3012 71.8311 20.1404 71.8311 21.1474C71.8311 22.1544 71.6633 22.9937 70.992 23.665C70.4885 24.3364 69.8171 24.6721 68.978 24.6721C68.4745 24.6721 68.1389 24.5042 67.6354 24.3364C67.2997 24.1685 67.1319 24.0007 66.7962 23.665V26.0148ZM69.985 21.3152C69.985 20.6439 69.8171 20.1404 69.6493 19.8047C69.3137 19.469 68.978 19.3012 68.3067 19.3012C67.8032 19.3012 67.4675 19.469 67.2997 19.8047C66.964 20.1404 66.7962 20.6439 66.7962 21.3152C66.7962 21.8188 66.964 22.3223 67.2997 22.658C67.4675 22.9937 67.971 23.1615 68.4745 23.1615C68.978 23.1615 69.3137 22.9937 69.6493 22.658C69.8171 22.3223 69.985 21.8188 69.985 21.3152ZM78.3764 19.8047C78.2086 19.469 77.7051 19.3012 77.3695 19.3012C76.6982 19.3012 76.3625 19.469 76.0268 19.8047C75.859 20.1404 75.6912 20.476 75.6912 21.1474V24.5042H73.8451V16.1122H74.6842C75.0199 16.1122 75.1877 16.1122 75.3555 16.28C75.5233 16.4479 75.6912 16.6157 75.6912 16.7835V18.7976C76.0268 18.2941 76.5303 17.9584 77.0338 17.9584C77.7051 17.7906 78.2086 17.7906 78.8799 17.9584C79.3834 18.1263 79.7191 18.4619 80.0547 18.9655C80.5582 19.3012 80.7261 19.9725 80.7261 20.6439V24.5042H78.8799V21.1474C78.8799 20.8117 78.7121 20.6439 78.7121 20.476C78.7121 20.1404 78.5443 19.9725 78.3764 19.8047ZM82.74 17.9584H83.747C83.9148 17.9584 84.2505 17.9584 84.4183 18.1263C84.5861 18.2941 84.754 18.6298 84.754 18.7976V24.5042H82.74V17.9584ZM82.74 16.1122H83.747C83.9148 16.1122 84.2505 16.1122 84.4183 16.28C84.5861 16.4479 84.754 16.6157 84.754 16.7835V17.4549H82.74V16.1122ZM92.8098 24.5042H91.8028C91.4671 24.5042 91.2993 24.3364 91.1315 24.1685C90.9636 24.1685 90.7958 23.8329 90.7958 23.665V20.3082C90.7958 19.9725 90.7958 19.6368 90.4602 19.469C90.1245 19.3012 89.9567 19.1333 89.621 19.1333C89.2854 19.1333 88.9497 19.3012 88.614 19.469C88.4462 19.6368 88.2784 19.9725 88.2784 20.3082V24.5042H86.4323V20.6439C86.4323 19.469 86.6001 18.7976 87.2714 18.4619C87.9427 17.9584 88.7819 17.7906 89.4532 17.7906C90.2923 17.7906 91.1315 17.9584 91.8028 18.2941C92.4741 18.7976 92.8098 19.469 92.8098 20.6439V24.5042ZM98.8516 21.1474C98.6838 21.3152 98.3481 21.4831 97.8447 21.4831C97.3412 21.6509 97.1733 21.6509 97.1733 21.6509C96.8377 21.6509 96.6698 21.8188 96.502 21.9866C96.3342 22.1544 96.3342 22.3223 96.3342 22.4901C96.3342 22.658 96.3342 22.9937 96.502 23.1615C96.6698 23.1615 97.0055 23.3293 97.1733 23.3293C97.8447 23.3293 98.1803 23.1615 98.516 22.8258C98.6838 22.658 98.8516 22.3223 98.8516 21.8188V21.1474ZM99.3551 24.1685C99.0195 24.3364 98.516 24.5042 98.1803 24.5042C97.6768 24.5042 97.3412 24.6721 97.0055 24.6721C96.3342 24.6721 95.6629 24.5042 95.1594 24.1685C94.6559 23.8329 94.4881 23.3293 94.4881 22.4901C94.4881 21.8188 94.6559 21.3152 95.1594 21.1474C95.6629 20.8117 96.1664 20.6439 96.8377 20.476C97.0055 20.476 97.0055 20.476 97.1733 20.476C97.3412 20.476 97.509 20.476 97.6768 20.3082C98.516 20.3082 98.8516 20.1404 98.8516 19.8047C98.8516 19.469 98.6838 19.3012 98.516 19.3012C98.1803 19.1333 97.8447 19.1333 97.6768 19.1333C97.3412 19.1333 97.1733 19.1333 97.0055 19.3012C96.8377 19.3012 96.6698 19.469 96.502 19.6368H94.6559C94.8237 19.1333 94.9916 18.6298 95.495 18.2941C95.9985 17.9584 96.6698 17.7906 97.509 17.7906C98.6838 17.7906 99.3551 17.9584 99.8586 18.2941C100.362 18.6298 100.698 19.1333 100.698 19.6368V21.8188C100.698 22.4901 100.53 22.9937 100.362 23.4972C100.026 23.8329 99.6908 24.0007 99.3551 24.1685Z" fill="#F4F4F4"/>
</svg>
