<svg width="40" height="40" viewBox="0 0 40 40" fill="none" xmlns="http://www.w3.org/2000/svg">
<rect width="40" height="40" rx="20" fill="#E53D40"/>
<path d="M8.378 16.506V14.28H12.256V24.5H9.764V16.506H8.378ZM15.5737 19.012C14.6963 18.5453 14.2577 17.8127 14.2577 16.814C14.2577 16.31 14.3883 15.8527 14.6497 15.442C14.911 15.022 15.3077 14.6907 15.8397 14.448C16.3717 14.196 17.025 14.07 17.7997 14.07C18.5743 14.07 19.223 14.196 19.7457 14.448C20.2777 14.6907 20.6743 15.022 20.9357 15.442C21.197 15.8527 21.3277 16.31 21.3277 16.814C21.3277 17.318 21.2063 17.7567 20.9637 18.13C20.7303 18.5033 20.413 18.7973 20.0117 19.012C20.5157 19.2547 20.903 19.5907 21.1737 20.02C21.4443 20.44 21.5797 20.9347 21.5797 21.504C21.5797 22.1667 21.4117 22.7407 21.0757 23.226C20.7397 23.702 20.2823 24.066 19.7037 24.318C19.1343 24.57 18.4997 24.696 17.7997 24.696C17.0997 24.696 16.4603 24.57 15.8817 24.318C15.3123 24.066 14.8597 23.702 14.5237 23.226C14.1877 22.7407 14.0197 22.1667 14.0197 21.504C14.0197 20.9253 14.155 20.426 14.4257 20.006C14.6963 19.5767 15.079 19.2453 15.5737 19.012ZM19.0037 17.178C19.0037 16.7953 18.8917 16.5013 18.6677 16.296C18.453 16.0813 18.1637 15.974 17.7997 15.974C17.4357 15.974 17.1417 16.0813 16.9177 16.296C16.703 16.5107 16.5957 16.8093 16.5957 17.192C16.5957 17.556 16.7077 17.8453 16.9317 18.06C17.1557 18.2653 17.445 18.368 17.7997 18.368C18.1543 18.368 18.4437 18.2607 18.6677 18.046C18.8917 17.8313 19.0037 17.542 19.0037 17.178ZM17.7997 20.048C17.361 20.048 17.0063 20.1693 16.7357 20.412C16.465 20.6453 16.3297 20.972 16.3297 21.392C16.3297 21.784 16.4603 22.106 16.7217 22.358C16.9923 22.61 17.3517 22.736 17.7997 22.736C18.2477 22.736 18.5977 22.61 18.8497 22.358C19.111 22.106 19.2417 21.784 19.2417 21.392C19.2417 20.9813 19.1063 20.6547 18.8357 20.412C18.5743 20.1693 18.229 20.048 17.7997 20.048ZM30.3078 20.678H27.8718V23.17H25.6038V20.678H23.1678V18.536H25.6038V16.03H27.8718V18.536H30.3078V20.678Z" fill="#F4F4F4"/>
</svg>
