<svg width="126" height="32" viewBox="0 0 126 32" fill="none" xmlns="http://www.w3.org/2000/svg">
<path d="M15.7234 0C24.3189 0 31.2372 6.9188 31.2372 15.7245C31.2372 24.3206 24.3189 31.2394 15.7234 31.2394C10.063 31.2394 5.45079 28.5138 2.51575 24.111C5.24115 20.3371 7.7569 16.1439 10.063 11.741C10.063 11.741 9.43407 25.5786 14.2559 25.7882C18.0295 26.6269 22.8514 14.8859 22.8514 14.8859C22.4321 14.8859 26.4154 21.8047 27.4636 21.1757C27.8829 20.9661 26.8347 19.4984 25.9961 17.6115C25.1575 15.7245 24.7382 13.2086 24.5286 12.1603C24.3189 10.483 24.5286 9.85405 23.2707 9.64439C22.2225 9.43472 21.8032 10.2734 21.1742 11.741C19.2874 15.9342 15.7234 23.2723 14.4656 23.0627C12.5788 22.6433 12.998 6.9188 12.998 5.66084C13.2077 4.40287 12.998 3.77389 12.1595 3.35457C10.6919 3.35457 10.063 5.03185 9.64371 6.08016C6.49902 11.5313 3.56398 16.5632 0.628938 20.3371C0.209646 18.8694 0 17.1922 0 15.7245C0 6.9188 6.91831 0 15.7234 0Z" fill="#F4F4F4"/>
<path d="M119.917 16.562C119.917 17.82 120.127 18.6586 120.546 19.078C120.966 19.4973 121.385 19.9166 122.223 19.9166C122.852 19.9166 123.272 19.4973 123.691 19.078C124.32 18.6586 124.53 17.82 124.53 16.7717C124.53 15.7234 124.32 14.8848 123.691 14.4654C123.272 13.8365 122.852 13.6268 122.014 13.6268C121.385 13.6268 120.966 13.8365 120.546 14.2558C120.127 14.8848 119.917 15.7234 119.917 16.562ZM118.659 21.8035H120.127C120.127 22.4325 120.337 22.6422 120.546 22.8518C120.966 23.0615 121.385 23.2712 122.014 23.2712C122.643 23.2712 123.062 23.0615 123.481 22.8518C123.901 22.6422 124.11 22.2229 124.32 21.8035C124.32 21.3842 124.32 20.7552 124.32 19.9166C123.691 20.5456 122.852 20.9649 122.014 20.9649C120.756 20.9649 119.917 20.5456 119.288 19.7069C118.659 18.8683 118.45 17.82 118.45 16.7717C118.45 15.9331 118.45 15.3041 118.869 14.4654C119.079 13.8365 119.498 13.4171 120.127 12.9978C120.546 12.5785 121.175 12.3688 122.014 12.3688C123.062 12.3688 123.901 12.7882 124.53 13.6268V12.5785H125.787V19.9166C125.787 21.1746 125.578 22.0132 125.368 22.6422C125.158 23.2712 124.739 23.6905 124.11 23.9001C123.481 24.3195 122.852 24.3195 122.014 24.3195C120.966 24.3195 120.127 24.1098 119.498 23.6905C118.869 23.2712 118.659 22.6422 118.659 21.8035ZM109.854 20.9649V12.5785H111.112V13.8365C111.741 12.7882 112.58 12.3688 113.838 12.3688C114.257 12.3688 114.886 12.5785 115.305 12.5785C115.724 12.7882 115.934 12.9978 116.144 13.4171C116.353 13.6268 116.563 14.0461 116.563 14.4654C116.773 14.6751 116.773 15.0944 116.773 15.9331V20.9649H115.305V15.9331C115.305 15.3041 115.305 14.8848 115.095 14.6751C115.095 14.2558 114.886 14.0461 114.467 13.8365C114.257 13.6268 113.838 13.6268 113.628 13.6268C112.999 13.6268 112.37 13.8365 111.951 14.2558C111.531 14.6751 111.322 15.3041 111.322 16.3524V20.9649H109.854ZM106.29 20.9649V12.5785H107.758V20.9649H106.29ZM106.29 10.9012V9.43359H107.758V10.9012H106.29ZM92.6633 20.9649V12.5785H94.1309V13.8365C94.3405 13.4171 94.5501 12.9978 95.1791 12.7882C95.5984 12.5785 96.0177 12.3688 96.6466 12.3688C97.2755 12.3688 97.6948 12.5785 98.1141 12.7882C98.5334 12.9978 98.7431 13.4171 98.9527 13.8365C99.5816 12.7882 100.42 12.3688 101.468 12.3688C102.307 12.3688 103.146 12.5785 103.565 12.9978C103.984 13.6268 104.194 14.2558 104.194 15.3041V20.9649H102.726V15.7234C102.726 15.0944 102.726 14.6751 102.517 14.4654C102.517 14.2558 102.307 14.0461 102.097 13.8365C101.888 13.6268 101.468 13.6268 101.259 13.6268C100.63 13.6268 100.211 13.8365 99.7913 14.2558C99.372 14.6751 99.1624 15.3041 99.1624 16.1427V20.9649H97.6948V15.5137C97.6948 14.8848 97.6948 14.4654 97.4852 14.0461C97.0659 13.8365 96.8563 13.6268 96.2273 13.6268C95.808 13.6268 95.3887 13.8365 95.1791 14.0461C94.7598 14.2558 94.5501 14.4654 94.3405 14.8848C94.3405 15.3041 94.1309 15.9331 94.1309 16.562V20.9649H92.6633ZM76.1013 16.562C76.1013 17.82 76.311 18.6586 76.7302 19.078C77.1495 19.4973 77.7785 19.9166 78.4074 19.9166C79.0364 19.9166 79.6653 19.4973 80.0846 19.078C80.5039 18.6586 80.7135 17.82 80.7135 16.7717C80.7135 15.7234 80.5039 14.8848 80.0846 14.4654C79.4556 13.8365 79.0364 13.6268 78.4074 13.6268C77.7785 13.6268 77.1495 13.8365 76.7302 14.2558C76.311 14.8848 76.1013 15.7234 76.1013 16.562ZM74.8434 21.8035H76.311C76.311 22.4325 76.5206 22.6422 76.7302 22.8518C77.1495 23.0615 77.5688 23.2712 78.1978 23.2712C78.8267 23.2712 79.4556 23.0615 79.6653 22.8518C80.0846 22.6422 80.2942 22.2229 80.5039 21.8035C80.5039 21.3842 80.5039 20.7552 80.5039 19.9166C79.8749 20.5456 79.246 20.9649 78.1978 20.9649C77.1495 20.9649 76.1013 20.5456 75.4724 19.7069C74.8434 18.8683 74.6338 17.82 74.6338 16.7717C74.6338 15.9331 74.8434 15.3041 75.0531 14.4654C75.2627 13.8365 75.682 13.4171 76.311 12.9978C76.9399 12.5785 77.5688 12.3688 78.1978 12.3688C79.246 12.3688 80.0846 12.7882 80.7135 13.6268V12.5785H81.9714V19.9166C81.9714 21.1746 81.9714 22.0132 81.5521 22.6422C81.3425 23.2712 80.9232 23.6905 80.2942 23.9001C79.8749 24.3195 79.0364 24.3195 78.1978 24.3195C77.1495 24.3195 76.311 24.1098 75.8917 23.6905C75.2627 23.2712 74.8434 22.6422 74.8434 21.8035ZM67.0865 16.7717C67.0865 17.82 67.2962 18.6586 67.7155 19.2876C68.1348 19.7069 68.7637 19.9166 69.6023 19.9166C70.2312 19.9166 70.8602 19.7069 71.2794 19.2876C71.6987 18.6586 72.118 17.82 72.118 16.7717C72.118 15.7234 71.6987 14.8848 71.2794 14.4654C70.8602 13.8365 70.2312 13.6268 69.6023 13.6268C68.7637 13.6268 68.1348 13.8365 67.7155 14.4654C67.2962 14.8848 67.0865 15.7234 67.0865 16.7717ZM65.619 16.7717C65.619 15.3041 66.0383 14.0461 66.8769 13.4171C67.7155 12.7882 68.5541 12.3688 69.6023 12.3688C70.6505 12.3688 71.6987 12.7882 72.3277 13.6268C73.1663 14.2558 73.5856 15.3041 73.5856 16.7717C73.5856 17.82 73.3759 18.6586 72.9566 19.2876C72.747 19.9166 72.118 20.3359 71.4891 20.7552C70.8602 20.9649 70.2312 21.1746 69.6023 21.1746C68.3444 21.1746 67.5058 20.7552 66.6672 20.1263C66.0383 19.2876 65.619 18.2393 65.619 16.7717ZM60.7972 20.9649V12.5785H62.055V13.8365C62.2647 13.2075 62.684 12.7882 62.8936 12.7882C63.1033 12.5785 63.5226 12.3688 63.7322 12.3688C64.3611 12.3688 64.7804 12.5785 65.1997 12.7882L64.7804 14.2558C64.3611 14.0461 64.1515 13.8365 63.7322 13.8365C63.5226 13.8365 63.1033 14.0461 62.8936 14.2558C62.684 14.2558 62.4743 14.6751 62.2647 14.8848C62.2647 15.5137 62.055 15.9331 62.055 16.562V20.9649H60.7972ZM58.0718 17.82L59.5393 18.0297C59.3296 19.078 58.9103 19.9166 58.2814 20.3359C57.6525 20.9649 56.8139 21.1746 55.9753 21.1746C54.9271 21.1746 53.8788 20.7552 53.2499 20.1263C52.621 19.2876 52.2017 18.2393 52.2017 16.7717C52.2017 15.9331 52.4113 15.0944 52.621 14.4654C52.8306 13.8365 53.4595 13.2075 54.0885 12.9978C54.7174 12.5785 55.3464 12.3688 55.9753 12.3688C57.0235 12.3688 57.6525 12.5785 58.2814 12.9978C58.9103 13.6268 59.12 14.2558 59.3296 15.0944L58.0718 15.3041C57.8621 14.6751 57.6525 14.2558 57.2332 14.0461C57.0235 13.6268 56.6042 13.6268 55.9753 13.6268C55.3464 13.6268 54.7174 13.8365 54.2981 14.2558C53.8788 14.8848 53.6692 15.7234 53.6692 16.7717C53.6692 17.82 53.8788 18.6586 54.2981 19.2876C54.7174 19.7069 55.3464 19.9166 55.9753 19.9166C56.6042 19.9166 57.0235 19.9166 57.4428 19.4973C57.8621 19.078 58.0718 18.6586 58.0718 17.82ZM49.057 20.9649V12.5785H50.3149V20.9649H49.057ZM49.057 10.9012V9.43359H50.3149V10.9012H49.057ZM35.6396 20.9649V9.43359H37.9458L40.6712 17.6103C40.8808 18.449 41.0904 18.8683 41.3001 19.2876C41.3001 18.8683 41.5097 18.2393 41.929 17.4007L44.6544 9.43359H46.7509V20.9649H45.2834V11.3205L41.7194 20.9649H40.4615L37.1072 11.1109V20.9649H35.6396ZM84.9064 16.562C84.9064 17.82 85.1161 18.6586 85.5354 19.078C85.9547 19.4973 86.5836 19.9166 87.2125 19.9166C87.8415 19.9166 88.2608 19.4973 88.8897 19.078C89.309 18.6586 89.5186 17.82 89.5186 16.7717C89.5186 15.7234 89.309 14.8848 88.6801 14.4654C88.2608 13.8365 87.8415 13.6268 87.2125 13.6268C86.5836 13.6268 85.9547 13.8365 85.5354 14.2558C85.1161 14.8848 84.9064 15.7234 84.9064 16.562ZM89.5186 19.9166C89.309 20.1263 88.4704 20.7552 87.6318 20.9649C87.4222 20.9649 87.2125 20.9649 87.0029 20.9649C85.9547 20.9649 84.9064 20.5456 84.2775 19.7069C83.6486 18.8683 83.4389 17.82 83.4389 16.7717C83.4389 15.9331 83.4389 15.3041 83.8582 14.4654C84.0679 13.8365 84.4871 13.4171 85.1161 12.9978C85.5354 12.5785 86.374 12.3688 87.0029 12.3688C88.0511 12.3688 88.8897 12.7882 89.5186 13.6268V12.5785H90.7765V15.5137V17.6103C90.7765 18.8683 90.7765 19.7069 90.7765 19.9166C90.9862 20.3359 90.9862 20.7552 91.1958 20.9649H89.7283C89.5186 20.7552 89.5186 20.3359 89.5186 19.9166Z" fill="#F4F4F4"/>
</svg>
