<svg width="70" height="70" viewBox="0 0 70 70" fill="none" xmlns="http://www.w3.org/2000/svg">
<g clip-path="url(#clip0_47_842)">
<path d="M14.4054 36.7685C13.4231 40.6703 9.47138 43.0661 5.54246 42.085C1.63639 41.1038 -0.762076 37.1564 0.220153 33.2317C1.20238 29.3299 5.15414 26.9341 9.08306 27.9152C12.9891 28.8964 15.3876 32.8666 14.4054 36.7685Z" fill="#F7931A"/>
<path d="M10.5223 33.9617C10.6593 32.9805 9.92835 32.4785 8.92327 32.1135L9.24308 30.79L8.44359 30.5847L8.12379 31.8625C7.9182 31.8168 7.68978 31.7712 7.4842 31.7027L7.80399 30.4021L7.0045 30.1968L6.68471 31.5202C6.50197 31.4746 6.34207 31.4517 6.18217 31.4061L5.08573 31.1323L4.88015 31.9994C4.88015 31.9994 5.47406 32.1363 5.45121 32.1363C5.77101 32.2275 5.83954 32.4329 5.8167 32.5926L5.45121 34.0986C5.47406 34.0986 5.4969 34.1214 5.54258 34.1214C5.51974 34.1214 5.4969 34.0986 5.45121 34.0986L4.92583 36.1978C4.88015 36.2891 4.78878 36.4488 4.56036 36.3804C4.56036 36.4032 3.96645 36.2434 3.96645 36.2434L3.57812 37.1562L4.62888 37.4071C4.83447 37.4528 5.01721 37.4984 5.19995 37.5441L4.85731 38.8675L5.6568 39.0728L5.97659 37.7494C6.20502 37.8179 6.4106 37.8635 6.61618 37.9091L6.29638 39.2097L7.09587 39.4151L7.43851 38.0917C8.80906 38.3427 9.83698 38.2514 10.271 37.0192C10.6136 36.0153 10.2481 35.4448 9.54003 35.0798C10.0426 35.0341 10.4309 34.669 10.5223 33.9617ZM8.69485 36.5401C8.44358 37.5441 6.77608 36.9964 6.22786 36.8595L6.66187 35.1026C7.21009 35.2395 8.96896 35.4905 8.69485 36.5401ZM8.94612 33.9617C8.71769 34.8744 7.3243 34.418 6.86745 34.3039L7.25577 32.7067C7.73547 32.798 9.17454 33.0033 8.94612 33.9617Z" fill="#F4F4F4"/>
<path d="M37.6819 38.1603C37.6819 37.316 37.819 36.5402 38.0931 35.7873C38.3672 35.0571 38.7555 34.3954 39.2581 33.8478C39.7606 33.3001 40.3774 32.8666 41.1083 32.5472C41.8164 32.2277 42.6388 32.068 43.5296 32.068C44.0778 32.068 44.5804 32.1136 45.0144 32.2277C45.4484 32.3418 45.8596 32.4787 46.2022 32.6384L45.2656 34.7833C45.0144 34.692 44.7631 34.6008 44.489 34.5095C44.2149 34.4182 43.8951 34.3954 43.5068 34.3954C42.5931 34.3954 41.8621 34.7148 41.3367 35.3309C40.8114 35.9698 40.5373 36.8141 40.5373 37.8637C40.5373 38.5026 40.6743 39.0046 40.9484 39.3925C41.2225 39.7803 41.7251 39.9629 42.456 39.9629C42.8215 39.9629 43.1641 39.9173 43.4839 39.8488C43.8266 39.7803 44.1235 39.6891 44.3748 39.575L44.5804 41.7655C44.2377 41.9024 43.8494 42.0165 43.4382 42.1306C43.0271 42.2218 42.5245 42.2903 41.9306 42.2903C41.1768 42.2903 40.5144 42.1762 39.989 41.948C39.4636 41.7198 39.0296 41.4232 38.687 41.0581C38.3444 40.6702 38.0931 40.2367 37.9332 39.7347C37.7505 39.2555 37.6819 38.7307 37.6819 38.1603ZM49.8342 42.3131C49.1717 42.3131 48.6235 42.2218 48.121 42.0165C47.6413 41.8111 47.253 41.5373 46.9332 41.195C46.6134 40.83 46.3849 40.4192 46.225 39.9401C46.0651 39.4609 45.9966 38.9133 45.9966 38.32C45.9966 37.5899 46.1108 36.8369 46.3621 36.1067C46.5905 35.3766 46.956 34.692 47.4357 34.1216C47.8925 33.5283 48.4864 33.0492 49.1489 32.6613C49.8342 32.2962 50.6108 32.0908 51.4788 32.0908C52.1184 32.0908 52.6895 32.1821 53.1692 32.3874C53.6489 32.5928 54.06 32.8666 54.3798 33.2089C54.6996 33.574 54.928 33.9847 55.0879 34.4638C55.2478 34.943 55.3392 35.4906 55.3392 36.0839C55.3392 36.8141 55.225 37.567 54.9966 38.2972C54.7681 39.0274 54.4255 39.6891 53.9687 40.2823C53.5118 40.8756 52.9407 41.3548 52.2555 41.7427C51.5473 42.1306 50.7479 42.3131 49.8342 42.3131ZM21.418 32.1136C22.012 32.1136 22.5145 32.2277 22.9485 32.4331C23.3825 32.6384 23.748 32.9351 24.0221 33.2773C24.2962 33.6424 24.5246 34.0531 24.6617 34.5323C24.7987 35.0115 24.8673 35.5363 24.8673 36.0839C24.8673 36.9281 24.7074 37.7496 24.3876 38.5026C24.0678 39.2555 23.6338 39.9173 23.1084 40.4877C22.5602 41.0581 21.9206 41.4917 21.1896 41.8111C20.4587 42.1306 19.6592 42.2903 18.7912 42.2903C18.6769 42.2903 18.4942 42.2903 18.1972 42.2903C17.9231 42.2903 17.6033 42.2446 17.2379 42.199C16.8724 42.1534 16.5069 42.0849 16.0957 41.9708C15.6846 41.8796 15.3191 41.7427 14.9536 41.5601L18.1516 28.1205L21.0069 27.687L19.8648 32.4559C20.116 32.3418 20.3673 32.2505 20.5957 32.2049C20.8698 32.1593 21.1439 32.1136 21.418 32.1136ZM34.7352 32.319H37.7961L37.2479 34.5779H34.187L33.3647 37.9778C33.2962 38.2516 33.2505 38.5254 33.2276 38.7764C33.2048 39.0274 33.2505 39.2327 33.319 39.4153C33.3875 39.5978 33.5246 39.7347 33.7073 39.826C33.8901 39.9173 34.1642 39.9857 34.5297 39.9857C34.8266 39.9857 35.1236 39.9629 35.3977 39.8944C35.6718 39.8488 35.9459 39.7575 36.2428 39.6663L36.4484 41.7655C36.083 41.9024 35.6718 42.0165 35.2378 42.1077C34.8038 42.199 34.3012 42.2447 33.7073 42.2447C32.8622 42.2447 32.1997 42.1077 31.72 41.8568C31.2403 41.6058 30.9205 41.2635 30.715 40.83C30.5094 40.3964 30.4408 39.8944 30.4637 39.324C30.4865 38.7536 30.5779 38.1603 30.715 37.5214L32.5195 29.8775L35.3977 29.444L34.7352 32.319ZM27.8368 42.0393H25.0957L27.4028 32.319H30.1667L27.8368 42.0393ZM58.3087 42.0393H55.5676L57.8747 32.319H60.6387L58.3087 42.0393ZM62.6031 32.7753C62.8087 32.7069 63.0371 32.6384 63.2884 32.57C63.5397 32.5015 63.8138 32.4103 64.1336 32.3418C64.4534 32.2734 64.796 32.2277 65.1843 32.1821C65.5727 32.1364 66.0067 32.1136 66.5092 32.1136C67.9483 32.1136 68.9534 32.5243 69.5016 33.3686C70.0498 34.2129 70.1412 35.3537 69.7985 36.8141L68.5422 42.0621H65.7782L66.9889 36.9281C67.0574 36.6087 67.1259 36.2893 67.1716 35.9926C67.2173 35.696 67.2173 35.4222 67.1716 35.194C67.1259 34.9658 67.0117 34.7833 66.829 34.6464C66.6463 34.5095 66.3722 34.441 66.0067 34.441C65.6412 34.441 65.2757 34.4867 64.9102 34.5551L63.1057 42.0849H60.3646L62.6031 32.7753ZM19.0196 40.0313C19.4536 40.0313 19.8648 39.9173 20.2302 39.7119C20.6186 39.5065 20.9384 39.2327 21.2125 38.8676C21.4866 38.5254 21.715 38.1147 21.8749 37.6811C22.0348 37.2476 22.1262 36.7684 22.1262 36.2893C22.1262 35.696 22.0348 35.2396 21.8292 34.8974C21.6236 34.5551 21.2581 34.3954 20.7328 34.3954C20.55 34.3954 20.3444 34.4182 20.0475 34.4867C19.7734 34.5551 19.5221 34.6692 19.2937 34.8746L18.083 39.9401C18.1516 39.9629 18.2201 39.9629 18.2886 39.9857C18.3343 40.0085 18.4028 40.0085 18.4714 40.0085C18.5399 40.0085 18.6084 40.0085 18.6998 40.0085C18.7912 40.0085 18.8825 40.0313 19.0196 40.0313ZM51.2047 34.3954C50.7935 34.3954 50.4509 34.5095 50.1311 34.7377C49.8113 34.9658 49.56 35.2625 49.3545 35.6275C49.1489 35.9926 48.989 36.3805 48.8748 36.7912C48.7606 37.2248 48.7149 37.6127 48.7149 38.0006C48.7149 38.6166 48.8062 39.0958 49.0118 39.4381C49.2174 39.7804 49.56 39.9629 50.0854 39.9629C50.4966 39.9629 50.8392 39.8488 51.159 39.6206C51.456 39.3925 51.7301 39.0958 51.9357 38.7307C52.1413 38.3657 52.3012 37.9778 52.4154 37.567C52.5296 37.1335 52.5753 36.7456 52.5753 36.3577C52.5753 35.7416 52.4839 35.2625 52.2783 34.9202C52.0956 34.5779 51.7301 34.3954 51.2047 34.3954ZM29.1617 31.1553C28.7733 31.1553 28.4307 31.0412 28.1337 30.813C27.814 30.5848 27.6769 30.2426 27.6769 29.7634C27.6769 29.5124 27.7226 29.2614 27.8368 29.0333C27.951 28.8051 28.0881 28.5997 28.248 28.44C28.4307 28.2803 28.6134 28.1434 28.8419 28.0521C29.0703 27.9608 29.3216 27.9152 29.5728 27.9152C29.9612 27.9152 30.3038 28.0293 30.6007 28.2575C30.8977 28.4856 31.0576 28.8279 31.0576 29.3071C31.0576 29.5581 31.0119 29.8091 30.8977 30.0372C30.7835 30.2654 30.6464 30.4708 30.4865 30.6305C30.3038 30.7902 30.1211 30.9271 29.8926 31.0184C29.6642 31.1097 29.4358 31.1553 29.1617 31.1553ZM59.6336 31.1553C59.2453 31.1553 58.9026 31.0412 58.6057 30.813C58.2859 30.5848 58.1488 30.2426 58.1488 29.7634C58.1488 29.5124 58.1945 29.2614 58.3087 29.0333C58.423 28.8051 58.56 28.5997 58.7199 28.44C58.9026 28.2803 59.0854 28.1434 59.3138 28.0521C59.5422 27.9608 59.7935 27.9152 60.0448 27.9152C60.4331 27.9152 60.7757 28.0293 61.0727 28.2575C61.3696 28.4856 61.5295 28.8279 61.5295 29.3071C61.5295 29.5581 61.4839 29.8091 61.3696 30.0372C61.2554 30.2654 61.1184 30.4708 60.9585 30.6305C60.7757 30.7902 60.593 30.9271 60.3646 31.0184C60.1361 31.1097 59.8849 31.1553 59.6336 31.1553Z" fill="#4D4D4D"/>
</g>
<defs>
<clipPath id="clip0_47_842">
<rect width="70" height="70" fill="white"/>
</clipPath>
</defs>
</svg>
