<svg width="70" height="70" viewBox="0 0 70 70" fill="none" xmlns="http://www.w3.org/2000/svg">
<path d="M26.658 33.7759C26.4767 35.136 25.3886 35.136 24.3912 35.136H23.8472L24.3005 32.5064C24.3005 32.3251 24.4819 32.2344 24.6632 32.2344H24.9353C25.6606 32.2344 26.2954 32.2344 26.658 32.5971C26.658 32.9598 26.658 33.3225 26.658 33.7759ZM26.2047 30.1489H22.3057C22.0337 30.1489 21.8524 30.3303 21.7617 30.6023L20.2202 40.5764C20.2202 40.7577 20.3109 40.9391 20.5829 40.9391H22.3964C22.6684 40.9391 22.8497 40.7577 22.9404 40.4857L23.3938 37.7655C23.3938 37.4935 23.6658 37.3121 23.9378 37.3121H25.2073C27.7461 37.3121 29.1969 36.0427 29.6503 33.5945C29.8316 32.5064 29.6503 31.6904 29.1969 31.0557C28.4715 30.5116 27.4741 30.1489 26.2047 30.1489Z" fill="#263577"/>
<path d="M35.1814 37.4025C35 38.4906 34.184 39.216 33.0959 39.216C32.5519 39.216 32.0985 39.0347 31.8265 38.672C31.5545 38.3093 31.4638 37.8559 31.5545 37.4025C31.7358 36.3144 32.5519 35.5891 33.64 35.5891C34.184 35.5891 34.6374 35.7704 34.9094 36.1331C35.0907 36.4051 35.2721 36.8585 35.1814 37.4025ZM37.7203 33.7756H35.9068C35.7255 33.7756 35.6348 33.8663 35.5441 34.0476L35.4534 34.5916L35.3628 34.4103C35.0001 33.8663 34.0933 33.5942 33.1866 33.5942C31.1011 33.5942 29.3783 35.1357 29.0156 37.3119C28.8343 38.3999 29.1063 39.3973 29.741 40.1227C30.285 40.7575 31.1011 41.0295 32.0985 41.0295C33.7306 41.0295 34.6373 39.9414 34.6373 39.9414L34.5467 40.4854C34.5467 40.6668 34.6374 40.8481 34.9094 40.8481H36.5415C36.8135 40.8481 36.9949 40.6668 37.0855 40.3948L38.083 34.0476C38.083 33.9569 37.9923 33.7756 37.7203 33.7756Z" fill="#263577"/>
<path d="M47.6037 33.7759H45.6995C45.5182 33.7759 45.3368 33.8666 45.2462 34.0479L42.7073 37.8562L41.6192 34.2292C41.5286 33.9572 41.3472 33.8666 41.0752 33.8666H39.2617C39.0804 33.8666 38.899 34.0479 38.9897 34.3199L41.0752 40.3044L39.171 43.0246C38.9897 43.2059 39.171 43.5686 39.4431 43.5686H41.3472C41.5286 43.5686 41.7099 43.478 41.8006 43.2966L47.9664 34.3199C48.057 34.0479 47.8757 33.7759 47.6037 33.7759Z" fill="#263577"/>
<path d="M54.2227 33.7759C54.0414 35.136 52.9533 35.136 51.9559 35.136H51.4119L51.8652 32.5064C51.8652 32.3251 52.0466 32.2344 52.2279 32.2344H52.4999C53.2253 32.2344 53.86 32.2344 54.2227 32.5971C54.3134 32.9598 54.3134 33.3225 54.2227 33.7759ZM53.7694 30.1489H49.8704C49.5984 30.1489 49.417 30.3303 49.3264 30.6023L47.7849 40.5764C47.7849 40.7577 47.8756 40.9391 48.1476 40.9391H50.1424C50.3238 40.9391 50.5051 40.8484 50.5051 40.5764L50.9585 37.7655C50.9585 37.4935 51.2305 37.3121 51.5025 37.3121H52.772C55.3108 37.3121 56.7616 36.0427 57.215 33.5945C57.3963 32.5064 57.215 31.6904 56.7616 31.0557C56.1269 30.5116 55.1295 30.1489 53.7694 30.1489Z" fill="#2199D6"/>
<path d="M62.8369 37.4025C62.6556 38.4906 61.8395 39.216 60.7514 39.216C60.2074 39.216 59.754 39.0347 59.482 38.672C59.21 38.3093 59.1193 37.8559 59.21 37.4025C59.3913 36.3144 60.2074 35.5891 61.2955 35.5891C61.8395 35.5891 62.2929 35.7704 62.5649 36.1331C62.7463 36.4051 62.9276 36.8585 62.8369 37.4025ZM65.3758 33.7756H63.5623C63.381 33.7756 63.2903 33.8663 63.1996 34.0476L63.109 34.5916L63.0183 34.4103C62.6556 33.8663 61.7488 33.5942 60.8421 33.5942C58.7566 33.5942 57.0338 35.1357 56.6711 37.3119C56.4898 38.3999 56.7618 39.3973 57.3965 40.1227C57.9405 40.7575 58.7566 41.0295 59.754 41.0295C61.3861 41.0295 62.2929 39.9414 62.2929 39.9414L62.2022 40.4854C62.2022 40.6668 62.2929 40.8481 62.5649 40.8481H64.197C64.469 40.8481 64.6504 40.6668 64.7411 40.3948L65.7385 34.0476C65.7385 33.9569 65.5571 33.7756 65.3758 33.7756Z" fill="#2199D6"/>
<path d="M67.5518 30.4209L65.9197 40.5764C65.9197 40.7577 66.0104 40.9391 66.2824 40.9391H67.9145C68.1865 40.9391 68.3679 40.7577 68.4586 40.4857L70 30.5116C70 30.3303 69.9093 30.1489 69.6373 30.1489H67.8238C67.7332 30.1489 67.6425 30.3303 67.5518 30.4209Z" fill="#2199D6"/>
<path d="M4.08022 42.843L4.35223 40.9388H3.71752H0.543945L2.72012 27.0658C2.72012 27.0658 2.72011 26.9751 2.81079 26.9751H2.90146H8.2512C9.974 26.9751 11.2434 27.3378 11.8781 28.0632C12.1502 28.4259 12.3315 28.7886 12.4222 29.1513C12.5129 29.6046 12.5129 30.058 12.4222 30.6927V31.0554L12.6942 31.2368C12.9662 31.3274 13.1476 31.5088 13.3289 31.6901C13.6009 31.9621 13.7823 32.3248 13.7823 32.7782C13.873 33.2316 13.873 33.7756 13.6916 34.4103C13.5103 35.1357 13.3289 35.6798 13.0569 36.2238C12.7849 36.6772 12.4222 37.0399 12.0595 37.4026C11.6968 37.6746 11.1528 37.8559 10.6994 38.0373C10.1553 38.1279 9.61131 38.2186 8.97659 38.2186H8.52322C8.2512 38.2186 7.97919 38.3093 7.70717 38.4906C7.52582 38.672 7.34447 38.944 7.2538 39.216V39.3974L6.70975 42.7523V42.843V42.9337C6.70975 42.9337 6.70975 42.9337 6.61907 42.9337H4.08022V42.843Z" fill="#263577"/>
<path d="M13.0571 30.6929C13.0571 30.7835 13.0571 30.8742 12.9664 30.9649C12.241 34.5918 9.88353 35.7706 6.80063 35.7706H5.25917C4.89648 35.7706 4.53379 36.0426 4.53379 36.4053L3.71772 41.483L3.53638 42.9338C3.53638 43.2058 3.71772 43.3872 3.89907 43.3872H6.70995C7.07265 43.3872 7.34467 43.1152 7.34467 42.8431V42.6618L7.88871 39.3975V39.2162C7.97939 38.8535 8.2514 38.6722 8.52342 38.6722H8.97679C11.697 38.6722 13.7825 37.5841 14.3265 34.4105C14.5985 33.0504 14.4172 31.9623 13.7825 31.2369C13.6011 31.0556 13.3291 30.8742 13.0571 30.6929Z" fill="#2199D6"/>
<path d="M12.3316 30.4209C12.2409 30.4209 12.1503 30.3303 11.9689 30.3303C11.8783 30.3303 11.6969 30.2396 11.6062 30.2396C11.1529 30.1489 10.6995 30.1489 10.2461 30.1489H6.07514C5.98447 30.1489 5.89379 30.1489 5.80312 30.2396C5.62177 30.3303 5.44043 30.5116 5.44043 30.693L4.53369 36.3147V36.4961C4.62437 36.1334 4.89637 35.8614 5.25907 35.8614H6.80053C9.88343 35.8614 12.2409 34.5919 12.9663 31.0557C12.9663 30.965 12.9663 30.8743 13.057 30.7836C12.8757 30.693 12.6943 30.6023 12.513 30.5116C12.4223 30.4209 12.3316 30.4209 12.3316 30.4209Z" fill="#252C5E"/>
<path d="M5.44042 30.6928C5.44042 30.5115 5.62176 30.3301 5.8031 30.2394C5.89378 30.2394 5.98445 30.1488 6.07513 30.1488H10.2461C10.6995 30.1488 11.2435 30.1488 11.6062 30.2394C11.6969 30.2394 11.8782 30.2394 11.9689 30.3301C12.0596 30.3301 12.1503 30.4208 12.3316 30.4208C12.4223 30.4208 12.4223 30.4208 12.5129 30.5115C12.6943 30.6021 12.8756 30.6928 13.057 30.7835C13.2383 29.4234 13.057 28.5166 12.3316 27.7006C11.5155 26.7938 10.0648 26.4312 8.25129 26.4312H2.90155C2.53886 26.4312 2.17616 26.7032 2.17616 27.0659L0 41.0296C0 41.3016 0.181347 41.5736 0.453368 41.5736H3.71761L4.53368 36.3146L5.44042 30.6928Z" fill="#263577"/>
</svg>
