<svg width="98" height="33" viewBox="0 0 98 33" fill="none" xmlns="http://www.w3.org/2000/svg">
<path d="M24.8562 0.360352H35.4965L35.7591 3.95772H35.1296C34.8814 2.4792 34.849 2.15904 34.3094 1.58705C33.7699 1.01507 32.6979 1.05105 31.831 1.05105H29.1116C29.0209 1.0447 28.9298 1.05742 28.8443 1.0884C28.7588 1.11938 28.6808 1.16793 28.6152 1.23091C28.4912 1.38358 28.4307 1.57806 28.4461 1.77412V6.35716H29.6368C29.9299 6.36696 30.2215 6.31061 30.4899 6.19228C30.7583 6.07396 30.9966 5.8967 31.1871 5.67366C31.5828 5.218 31.7962 4.51651 31.8274 3.5692H32.4749V9.9977H31.8274C31.7962 8.93288 31.5792 8.17144 31.1763 7.71337C30.9712 7.48292 30.7171 7.30128 30.4326 7.18177C30.1482 7.06226 29.8406 7.0079 29.5325 7.02268H28.4533V12.1813C28.4479 12.2685 28.4634 12.3558 28.4984 12.4359C28.5334 12.5159 28.587 12.5865 28.6548 12.6418C28.8546 12.7661 29.0895 12.8217 29.3238 12.8001H31.4821C33.813 12.8001 35.1583 12.0374 35.5145 9.05879H36.1907L35.9353 13.5015H24.8562V12.7821H25.4425C25.7156 12.8083 25.9896 12.7411 26.2195 12.5914C26.296 12.5211 26.3558 12.4345 26.3944 12.338C26.433 12.2415 26.4495 12.1375 26.4425 12.0338V1.77412C26.4524 1.67573 26.4411 1.57637 26.4095 1.48269C26.3779 1.38901 26.3266 1.30317 26.2591 1.23091C26.0821 1.09659 25.8617 1.03252 25.6404 1.05105H24.8562V0.360352Z" fill="#F4F4F4"/>
<path d="M35.2734 4.7041H40.0756V5.34444C39.7021 5.32303 39.3281 5.3756 38.9749 5.49912C38.9019 5.53413 38.8403 5.58932 38.7976 5.65816C38.7549 5.727 38.7328 5.80663 38.7339 5.88764C38.7348 6.03068 38.7667 6.17182 38.8274 6.30134L41.1584 11.5103L43.2807 6.47401C43.3111 6.38977 43.3269 6.30096 43.3275 6.2114C43.3275 5.75574 42.8778 5.47154 41.9785 5.35882V4.7041H45.6189V5.34444C45.3035 5.36251 44.999 5.4657 44.7376 5.64302C44.5177 5.81472 44.3475 6.04197 44.2447 6.30134L41.0073 13.7659H40.5037L37.0504 6.09629C36.9584 5.86349 36.7994 5.66319 36.5936 5.52071C36.1668 5.39876 35.7244 5.34058 35.2806 5.34803L35.2734 4.7041Z" fill="#F4F4F4"/>
<path d="M49.0112 4.44312C49.5702 4.43231 50.1251 4.54096 50.6387 4.76181C51.1524 4.98267 51.613 5.31063 51.9897 5.72378C52.8189 6.64663 53.2518 7.85872 53.1948 9.09812C53.2198 9.95136 53.0345 10.7976 52.6552 11.5623C52.3035 12.2325 51.7699 12.7899 51.1156 13.1704C50.4641 13.5621 49.7175 13.7674 48.9573 13.7639C48.4126 13.7681 47.8735 13.6545 47.3768 13.431C46.8801 13.2075 46.4376 12.8793 46.0795 12.4689C45.2657 11.5437 44.8404 10.34 44.8925 9.10891C44.8413 7.88073 45.2651 6.68003 46.0759 5.75616C46.441 5.33784 46.8925 5.00378 47.3993 4.77708C47.9061 4.55037 48.4561 4.43643 49.0112 4.44312ZM49.0112 5.10863C48.6663 5.10856 48.327 5.19597 48.025 5.36269C47.7231 5.52941 47.4683 5.76999 47.2846 6.06194C46.8337 6.69747 46.6083 7.69994 46.6083 9.06934C46.6083 10.4387 46.8325 11.4592 47.281 12.1307C47.4625 12.4266 47.7169 12.6709 48.0199 12.8403C48.3228 13.0097 48.6641 13.0986 49.0112 13.0984C49.3653 13.1014 49.7142 13.0142 50.0251 12.8449C50.3361 12.6755 50.5987 12.4298 50.7882 12.1307C51.2415 11.4856 51.4681 10.4315 51.4681 8.96862C51.4681 7.61121 51.2439 6.62912 50.7954 6.02237C50.5964 5.73505 50.3292 5.50154 50.0179 5.34271C49.7065 5.18389 49.3607 5.1047 49.0112 5.11223V5.10863Z" fill="#F4F4F4"/>
<path d="M56.1152 0.186523V12.2054C56.1102 12.28 56.1218 12.3549 56.1492 12.4246C56.1765 12.4942 56.219 12.5569 56.2734 12.6083C56.4364 12.7355 56.6387 12.8017 56.8454 12.7953H57.4101V13.5148H53.1655V12.7953H53.6871C53.9155 12.811 54.1412 12.7375 54.3166 12.5903C54.3901 12.5129 54.4469 12.4213 54.4834 12.321C54.5199 12.2207 54.5354 12.114 54.5288 12.0075V2.03558C54.5399 1.91012 54.5231 1.78376 54.4796 1.66558C54.436 1.5474 54.3669 1.44033 54.277 1.35207C54.0403 1.14891 53.7363 1.04119 53.4245 1.04989H52.6367V0.359198L56.1152 0.186523Z" fill="#F4F4F4"/>
<path d="M60.5828 4.5459V10.3773C60.5444 10.9765 60.7375 11.5676 61.1224 12.0285C61.2984 12.2206 61.514 12.3723 61.7544 12.4729C61.9947 12.5736 62.2541 12.6207 62.5145 12.6112C62.8589 12.615 63.1998 12.5406 63.5113 12.3935C63.8229 12.2465 64.097 12.0306 64.313 11.7623C64.8071 11.1667 65.0634 10.4094 65.0324 9.6362V6.34099C65.039 6.20663 65.013 6.07267 64.9566 5.95053C64.9003 5.82839 64.8152 5.72168 64.7087 5.6395C64.3282 5.43182 63.8968 5.33581 63.4641 5.3625V4.70418L66.5504 4.5459V11.7658C66.5416 11.9063 66.5624 12.0471 66.6113 12.1791C66.6603 12.3111 66.7363 12.4313 66.8346 12.5321C67.0521 12.7208 67.335 12.8164 67.6224 12.7983H68.1763V13.4278L65.2195 13.4926L65.0324 11.7658C64.5849 12.3171 64.0489 12.79 63.4461 13.1652C62.9613 13.4644 62.4043 13.6261 61.8346 13.6329C61.4651 13.6421 61.0976 13.576 60.7544 13.4387C60.4112 13.3014 60.0995 13.0958 59.8382 12.8343C59.2939 12.3091 59.0217 11.4169 59.0217 10.1578V6.34099C59.0307 6.18929 58.9996 6.03788 58.9313 5.90207C58.8631 5.76627 58.7603 5.65087 58.6332 5.56756C58.2707 5.40616 57.8744 5.33577 57.4785 5.3625V4.70418L60.5828 4.5459Z" fill="#F4F4F4"/>
<path d="M69.9571 1.12207H70.5866V4.71945H75.9392V5.58282H70.5866V11.2127C70.5623 11.6186 70.6906 12.0189 70.9464 12.3351C71.0555 12.4608 71.1912 12.5608 71.3435 12.628C71.4959 12.6952 71.6612 12.7278 71.8277 12.7236C72.0417 12.719 72.2514 12.663 72.4392 12.5604C72.627 12.4577 72.7874 12.3113 72.9068 12.1336C73.2066 11.7403 73.3816 11.0892 73.432 10.1803H74.0615C74.0231 11.3506 73.7569 12.2188 73.2629 12.7848C73.026 13.0611 72.7301 13.2808 72.3971 13.4278C72.064 13.5747 71.7023 13.6451 71.3384 13.6337C71.0289 13.6519 70.7188 13.6084 70.4261 13.5059C70.1335 13.4034 69.864 13.2439 69.6334 13.0366C69.428 12.8334 69.2673 12.5896 69.1614 12.3208C69.0555 12.0519 69.0067 11.764 69.0183 11.4753V5.56843H67.4895V4.9137C68.1063 4.83202 68.6693 4.51967 69.0651 4.03954C69.6166 3.34405 69.914 2.37156 69.9571 1.12207Z" fill="#F4F4F4"/>
<path d="M74.0505 4.70446L77.5506 4.60014V12.1546C77.5425 12.2349 77.5518 12.316 77.5779 12.3923C77.6039 12.4687 77.6462 12.5385 77.7017 12.5971C77.8532 12.7247 78.0468 12.7914 78.2448 12.7842H78.8779V13.5036H74.6009V12.7842H75.18C75.2892 12.7936 75.3991 12.7806 75.5031 12.746C75.607 12.7114 75.7027 12.6558 75.7844 12.5827C75.9231 12.42 75.9928 12.2096 75.9786 11.9963V6.63985C75.9895 6.49415 75.9683 6.34784 75.9168 6.21115C75.8652 6.07445 75.7844 5.95066 75.6801 5.84843C75.4255 5.65309 75.1079 5.55833 74.788 5.58222H74.0685L74.0505 4.70446ZM76.4894 0.545898C76.6282 0.545919 76.7656 0.574332 76.893 0.629391C77.0204 0.68445 77.1353 0.764991 77.2304 0.866065C77.3323 0.962872 77.4133 1.07953 77.4684 1.20884C77.5234 1.33815 77.5514 1.47737 77.5506 1.61792C77.5499 1.75245 77.5221 1.88548 77.469 2.00907C77.4158 2.13267 77.3384 2.24432 77.2412 2.33739C77.1454 2.43685 77.0302 2.51561 76.9028 2.56882C76.7753 2.62203 76.6383 2.64856 76.5002 2.64676C76.3607 2.64844 76.2224 2.62154 76.0937 2.56771C75.965 2.51389 75.8487 2.43428 75.752 2.33379C75.6544 2.2409 75.5763 2.12937 75.5226 2.00578C75.4688 1.8822 75.4404 1.74908 75.439 1.61432C75.4393 1.47553 75.4678 1.33824 75.5228 1.21083C75.5779 1.08342 75.6583 0.968557 75.7592 0.873259C75.8524 0.772347 75.9653 0.691569 76.0908 0.635891C76.2164 0.580212 76.3521 0.550811 76.4894 0.549496V0.545898Z" fill="#F4F4F4"/>
<path d="M83.2954 4.44312C83.8544 4.43231 84.4092 4.54096 84.9229 4.76181C85.4365 4.98267 85.8971 5.31063 86.2738 5.72378C87.1044 6.64607 87.5385 7.85822 87.4825 9.09812C87.5075 9.95136 87.3222 10.7976 86.9429 11.5623C86.5911 12.2324 86.0575 12.7897 85.4033 13.1704C84.7517 13.562 84.0052 13.7673 83.245 13.7639C82.7004 13.7683 82.1612 13.6549 81.6645 13.4314C81.1677 13.2078 80.7252 12.8795 80.3673 12.4689C79.5531 11.5439 79.1278 10.3401 79.1803 9.10892C79.1271 7.88171 79.5483 6.68113 80.3565 5.75616C80.722 5.33738 81.1741 5.00304 81.6815 4.77632C82.189 4.5496 82.7396 4.43591 83.2954 4.44312ZM83.2954 5.10863C82.9505 5.10856 82.6112 5.19597 82.3092 5.36269C82.0072 5.52941 81.7525 5.76999 81.5688 6.06194C81.1179 6.69747 80.8925 7.69994 80.8925 9.06934C80.8925 10.4387 81.1167 11.4592 81.5652 12.1307C81.7467 12.4266 82.0011 12.6709 82.304 12.8403C82.607 13.0097 82.9483 13.0986 83.2954 13.0984C83.65 13.1021 83.9997 13.0151 84.3113 12.8457C84.6229 12.6764 84.8861 12.4303 85.076 12.1307C85.5292 11.4856 85.7558 10.4316 85.7558 8.96862C85.7558 7.61121 85.5316 6.62912 85.0832 6.02237C84.8838 5.73453 84.6161 5.5007 84.304 5.34185C83.992 5.183 83.6454 5.1041 83.2954 5.11223V5.10863Z" fill="#F4F4F4"/>
<path d="M87.2986 4.70428L90.2195 4.52441C90.3505 5.16168 90.4382 5.80709 90.482 6.45621C90.8237 5.87044 91.3027 5.37659 91.8777 5.01726C92.4226 4.69719 93.0444 4.53177 93.6763 4.5388C94.1876 4.52648 94.6929 4.65065 95.1403 4.89854C95.5591 5.15348 95.8904 5.52991 96.09 5.97776C96.3344 6.49729 96.4574 7.06563 96.4497 7.63975V11.9206C96.4374 12.0427 96.4502 12.166 96.4873 12.2829C96.5244 12.3998 96.5851 12.5079 96.6655 12.6005C96.8724 12.7539 97.1285 12.8256 97.3849 12.802H97.6403V13.5215H93.7446V12.802H93.8202C94.1217 12.8302 94.4243 12.7609 94.6835 12.6041C94.7674 12.5309 94.8332 12.4392 94.8757 12.3361C94.9181 12.2331 94.9361 12.1217 94.9281 12.0106V8.24411C94.9757 7.61594 94.8514 6.98665 94.5684 6.42383C94.4039 6.1523 94.1688 5.93056 93.8882 5.78229C93.6075 5.63402 93.2918 5.56481 92.9749 5.58204C92.634 5.5777 92.2969 5.65242 91.9898 5.80035C91.6827 5.94828 91.4141 6.16539 91.2051 6.43462C90.7073 7.0673 90.4522 7.85708 90.4856 8.6614V11.917C90.4732 12.0394 90.4862 12.163 90.524 12.28C90.5618 12.397 90.6234 12.505 90.7051 12.5969C90.9132 12.7476 91.1683 12.819 91.4245 12.7984H91.6727V13.5179H87.7482V12.7984H87.9928C88.2398 12.8158 88.4855 12.7499 88.6907 12.6113C88.7653 12.5584 88.8262 12.4882 88.8681 12.4069C88.9101 12.3255 88.9319 12.2352 88.9317 12.1437V6.4742C88.9425 6.31866 88.9209 6.16256 88.8683 6.0158C88.8157 5.86904 88.7331 5.73481 88.6259 5.62162C88.3828 5.41335 88.0677 5.30873 87.7482 5.33023H87.2986V4.70428Z" fill="#F4F4F4"/>
<path d="M39.9281 16.3964L40.6979 15.0078H41.3274L41.6871 20.5478H41.0756C40.596 18.9553 40.0432 17.803 39.4173 17.0907C39.0794 16.6733 38.6539 16.3352 38.1709 16.1002C37.688 15.8652 37.1593 15.7392 36.6223 15.7309C35.8479 15.7233 35.0915 15.9641 34.464 16.418C33.7791 16.9393 33.2676 17.6552 32.9964 18.4721C32.6583 19.3858 32.4856 20.3068 32.4856 21.9651C32.4324 23.1231 32.6059 24.2804 32.9964 25.3719C33.2555 26.1657 33.7467 26.8637 34.4065 27.3756C35.024 27.8088 35.7639 28.0332 36.518 28.0159C36.9813 28.0452 37.4457 27.9785 37.8821 27.82C38.3184 27.6615 38.7174 27.4147 39.054 27.095C39.3543 26.7791 39.5883 26.4063 39.7421 25.9985C39.896 25.5907 39.9665 25.1563 39.9497 24.7207V23.4149C39.954 23.3215 39.9345 23.2286 39.8929 23.1449C39.8514 23.0612 39.7892 22.9895 39.7123 22.9364C39.4731 22.8043 39.2004 22.7455 38.9281 22.7674H37.7554V22.109H43.1656V22.7674H42.7411C42.4771 22.7439 42.2128 22.8084 41.9893 22.9508C41.914 23.0159 41.8547 23.0975 41.816 23.1892C41.7773 23.2809 41.7603 23.3803 41.7663 23.4796V28.7786H41.1512C40.9257 27.9536 40.6859 27.1622 40.4317 26.4043C40.0237 27.1102 39.448 27.7045 38.7554 28.1346C38.0885 28.5256 37.327 28.7259 36.554 28.7138C35.4126 28.7179 34.2923 28.4067 33.3165 27.8145C32.3026 27.2067 31.478 26.3285 30.9352 25.2783C30.3512 24.2657 30.0563 23.1122 30.0827 21.9436C30.0595 20.7672 30.3607 19.6073 30.9532 18.5908C31.5076 17.5275 32.3312 16.6282 33.3417 15.9827C34.248 15.3701 35.3127 15.0339 36.4065 15.015C36.9819 15.0122 37.5532 15.1121 38.0936 15.31C38.7562 15.5779 39.3747 15.9441 39.9281 16.3964Z" fill="#F4F4F4"/>
<path d="M52.518 27.7563L52.6655 28.0153C52.6655 28.5117 52.0684 28.4577 51.5109 28.4577C51.0864 28.4577 50.2339 28.4362 49.9389 28.2131C49.644 27.9901 49.5253 27.7347 49.3058 27.1519C48.858 27.6664 48.3205 28.0955 47.7195 28.4182C47.208 28.6393 46.6543 28.7461 46.0972 28.7311C45.3645 28.7821 44.6369 28.576 44.0397 28.1484C43.8121 27.9725 43.6286 27.746 43.5038 27.4868C43.3789 27.2277 43.3161 26.9431 43.3203 26.6555C43.3203 25.7417 43.8574 24.9827 44.9318 24.3783C46.2667 23.6988 47.7225 23.2893 49.2159 23.1732V21.8278C49.2171 21.5948 49.1664 21.3644 49.0675 21.1535C48.9686 20.9425 48.8239 20.7563 48.644 20.6082C48.2443 20.2657 47.7312 20.0848 47.2051 20.101C46.7147 20.0878 46.2295 20.2045 45.7987 20.4392C45.5181 20.6094 45.3778 20.7749 45.3778 20.9356C45.4113 21.1001 45.4897 21.252 45.6044 21.3745C45.7627 21.5638 45.8582 21.7976 45.8778 22.0436C45.8827 22.1714 45.8609 22.2988 45.8138 22.4177C45.7668 22.5367 45.6954 22.6445 45.6044 22.7343C45.5089 22.8252 45.3958 22.8957 45.2721 22.9414C45.1484 22.9872 45.0167 23.0073 44.885 23.0005C44.7395 23.0045 44.5948 22.9785 44.4599 22.924C44.325 22.8695 44.2027 22.7878 44.1008 22.6839C43.9963 22.5759 43.9148 22.4479 43.861 22.3076C43.8072 22.1673 43.7823 22.0175 43.7879 21.8673C43.7879 21.2462 44.1368 20.6802 44.8346 20.1694C45.6427 19.6238 46.6053 19.3537 47.5792 19.3995C48.6248 19.3995 49.4221 19.625 49.9713 20.0758C50.2283 20.27 50.4368 20.5212 50.5804 20.8095C50.7239 21.0979 50.7986 21.4157 50.7986 21.7378V26.5403C50.7829 26.8309 50.8557 27.1194 51.0073 27.3677C51.0604 27.4583 51.1315 27.5369 51.2163 27.5988C51.3011 27.6607 51.3977 27.7045 51.5001 27.7275C51.8382 27.7618 52.1785 27.7714 52.518 27.7563ZM49.2483 23.7811C47.6584 24.0018 46.5325 24.3615 45.8706 24.8604C45.6264 25.0462 45.4313 25.2888 45.3022 25.5671C45.173 25.8455 45.1138 26.1512 45.1296 26.4576C45.1049 26.87 45.2431 27.2757 45.5145 27.5872C45.6433 27.7224 45.7994 27.8286 45.9724 27.8987C46.1455 27.9688 46.3315 28.0012 46.5181 27.9937C46.8791 27.996 47.2365 27.9226 47.5673 27.7782C47.8982 27.6338 48.1951 27.4217 48.4389 27.1555C48.7081 26.876 48.9187 26.5456 49.0583 26.1836C49.1979 25.8215 49.2637 25.4353 49.2519 25.0474L49.2483 23.7811Z" fill="#F4F4F4"/>
<path d="M52.1947 19.6583L54.7127 19.5C54.8435 20.1157 54.9336 20.7394 54.9825 21.367C55.3549 20.791 55.8453 20.3006 56.4213 19.9281C56.8972 19.6473 57.4407 19.5018 57.9932 19.5072C58.5344 19.486 59.066 19.6539 59.4968 19.982C59.9495 20.3968 60.2666 20.9384 60.4069 21.5361C60.7548 20.9316 61.2313 20.4109 61.8025 20.0108C62.2987 19.6799 62.8824 19.5045 63.4788 19.5072C63.8135 19.4834 64.1492 19.5357 64.4607 19.6603C64.7722 19.785 65.0514 19.9786 65.2773 20.2267C65.8115 20.9176 66.0841 21.7751 66.0471 22.6477V27.0005C66.0346 27.0992 66.046 27.1994 66.0805 27.2927C66.1149 27.386 66.1713 27.4697 66.245 27.5365C66.4726 27.6961 66.7483 27.7723 67.0255 27.7524H67.4644V28.4719H63.04V27.7524H63.4824C63.7584 27.7785 64.0353 27.7127 64.2702 27.5653C64.3483 27.4946 64.4094 27.4069 64.4486 27.3091C64.4879 27.2112 64.5044 27.1057 64.4968 27.0005V22.6297C64.535 22.0843 64.3683 21.5442 64.0292 21.1152C63.8723 20.9389 63.6785 20.7993 63.4615 20.7067C63.2444 20.614 63.0096 20.5705 62.7738 20.5792C62.3908 20.5725 62.0146 20.6816 61.6946 20.8922C61.3651 21.1151 61.1057 21.4269 60.9464 21.7915C60.7101 22.2301 60.5726 22.7151 60.5436 23.2125V27.0005C60.5345 27.1045 60.5481 27.2091 60.5835 27.3073C60.6189 27.4054 60.6753 27.4947 60.7486 27.5689C60.9326 27.706 61.1602 27.7712 61.3889 27.7524H61.9896V28.4719H57.5004V27.7524H58.0076C58.2616 27.7724 58.515 27.7065 58.727 27.5653C58.8014 27.5099 58.8617 27.4376 58.903 27.3545C58.9442 27.2714 58.9653 27.1797 58.9644 27.0869V23.0218C58.9644 22.1633 58.8122 21.5409 58.5076 21.1548C58.3646 20.9667 58.1786 20.8156 57.9652 20.7142C57.7518 20.6128 57.5171 20.5641 57.281 20.572C56.9908 20.557 56.7012 20.6112 56.4361 20.73C56.1709 20.8488 55.9378 21.0289 55.7558 21.2555C55.2511 21.8895 54.9828 22.6793 54.9968 23.4895V27.0005C54.9849 27.1004 54.9948 27.2016 55.0259 27.2973C55.0569 27.393 55.1084 27.4807 55.1767 27.5545C55.4108 27.7045 55.6873 27.7739 55.9645 27.7524H56.4141V28.4719H51.9717V27.7524H52.6371C52.8471 27.767 53.0545 27.7 53.2163 27.5653C53.2821 27.5046 53.3342 27.4305 53.3689 27.348C53.4037 27.2654 53.4203 27.1764 53.4177 27.0869V21.3311C53.4289 21.2007 53.4129 21.0695 53.3708 20.9457C53.3287 20.8219 53.2614 20.7081 53.1731 20.6116C52.8864 20.4115 52.5443 20.3058 52.1947 20.3094V19.6583Z" fill="#F4F4F4"/>
<path d="M67.6511 19.6589L70.7879 19.5546V27.1091C70.7798 27.1894 70.7891 27.2705 70.8152 27.3468C70.8412 27.4232 70.8835 27.493 70.939 27.5516C71.0918 27.6794 71.2866 27.746 71.4857 27.7387H72.4822V28.4581H67.1116V27.7387H68.403C68.5121 27.7483 68.6221 27.7355 68.7261 27.7008C68.83 27.6661 68.9258 27.6105 69.0073 27.5372C69.1454 27.3744 69.2138 27.1637 69.1979 26.9508V21.4252C69.2091 21.279 69.1881 21.1321 69.1365 20.9947C69.085 20.8574 69.004 20.733 68.8994 20.6302C68.645 20.4346 68.3273 20.3398 68.0073 20.364H67.6475L67.6511 19.6589ZM69.7267 15.5004C69.8656 15.5002 70.003 15.5285 70.1304 15.5836C70.2579 15.6386 70.3727 15.7193 70.4677 15.8205C70.5698 15.9172 70.6509 16.0338 70.706 16.1632C70.761 16.2925 70.7889 16.4318 70.7879 16.5724C70.7872 16.7069 70.7594 16.8399 70.7063 16.9635C70.6531 17.0871 70.5757 17.1988 70.4785 17.2919C70.3561 17.4124 70.2061 17.5011 70.0415 17.5502C69.8768 17.5992 69.7027 17.6072 69.5343 17.5733C69.3659 17.5394 69.2084 17.4648 69.0755 17.3558C68.9427 17.2469 68.8386 17.1071 68.7723 16.9486C68.7061 16.7901 68.6797 16.6178 68.6955 16.4467C68.7113 16.2757 68.7689 16.1111 68.8631 15.9675C68.9573 15.8238 69.0853 15.7054 69.2358 15.6228C69.3864 15.5401 69.555 15.4956 69.7267 15.4932V15.5004Z" fill="#F4F4F4"/>
<path d="M72.2231 19.6594L75.1439 19.4795C75.2747 20.1168 75.3624 20.7622 75.4065 21.4113C75.7482 20.8255 76.2272 20.3317 76.8022 19.9723C77.3524 19.6493 77.9808 19.4837 78.6188 19.4939C79.1301 19.4816 79.6354 19.6057 80.0828 19.8536C80.502 20.108 80.8334 20.4846 81.0324 20.9328C81.2765 21.4525 81.3995 22.0207 81.3921 22.5948V26.8757C81.3798 26.9978 81.3926 27.121 81.4298 27.238C81.4669 27.3549 81.5275 27.463 81.608 27.5556C81.8147 27.7093 82.0709 27.781 82.3274 27.7571H82.5828V28.4765H78.6691V27.7571H78.7447C79.0462 27.7853 79.3488 27.7159 79.608 27.5592C79.6906 27.4878 79.7558 27.3986 79.7988 27.2982C79.8418 27.1979 79.8614 27.0891 79.8562 26.98V23.1992C79.9037 22.5699 79.7794 21.9394 79.4965 21.3753C79.3319 21.1028 79.0963 20.8802 78.815 20.7313C78.5337 20.5824 78.2172 20.5128 77.8993 20.5299C77.5586 20.5259 77.2215 20.6007 76.9144 20.7486C76.6074 20.8965 76.3388 21.1135 76.1295 21.3825C75.6321 22.0153 75.377 22.805 75.4101 23.6093V26.8649C75.3977 26.9872 75.4107 27.1108 75.4485 27.2279C75.4863 27.3449 75.5479 27.4528 75.6295 27.5448C75.8377 27.6955 76.0928 27.7669 76.349 27.7463H76.5972V28.4657H72.3022V27.7463H72.9137C73.1606 27.7631 73.4062 27.6973 73.6116 27.5592C73.6867 27.5059 73.7479 27.4352 73.7899 27.3531C73.8318 27.2711 73.8533 27.1801 73.8526 27.0879V21.4149C73.8636 21.2593 73.8422 21.1032 73.7895 20.9564C73.7369 20.8096 73.6542 20.6754 73.5468 20.5623C73.3039 20.3537 72.9886 20.249 72.6691 20.2709H72.2195L72.2231 19.6594Z" fill="#F4F4F4"/>
<path d="M89.2411 20.1448C89.8671 19.5116 91.6153 18.5871 92.1728 18.5655C92.3312 18.5439 92.4922 18.5547 92.6462 18.5974C92.8002 18.6401 92.9439 18.7137 93.0685 18.8137C93.2736 19.0152 92.9031 19.4649 92.9031 19.7527C92.9098 19.9648 92.8337 20.1713 92.6908 20.3282C92.6303 20.4001 92.5549 20.4579 92.4698 20.4976C92.3847 20.5374 92.2919 20.5581 92.198 20.5585C91.8407 20.5585 91.6009 20.339 91.4786 19.9001C91.4282 19.7131 91.3431 19.6196 91.2232 19.6196C90.6565 19.8189 90.1328 20.1241 89.68 20.5189C89.9068 20.8129 90.0931 21.1359 90.234 21.4794C90.3361 21.7607 90.3872 22.0579 90.385 22.3572C90.3938 22.8648 90.2565 23.3643 89.9894 23.7961C89.6567 24.2712 89.2052 24.6508 88.68 24.8969C88.1436 25.1964 87.5423 25.3606 86.9282 25.3754H85.9066C85.4157 25.3346 84.9223 25.4123 84.4677 25.602C84.3526 25.6747 84.2587 25.7765 84.1955 25.8972C84.1324 26.0178 84.1022 26.153 84.108 26.2891C84.1032 26.4004 84.1276 26.5111 84.1787 26.6102C84.2298 26.7092 84.3059 26.7932 84.3994 26.8539C84.7414 27.0148 85.1198 27.083 85.4965 27.0517L87.8131 27.005C88.9833 27.005 89.8227 27.2004 90.3311 27.5913C90.5814 27.776 90.7827 28.019 90.9175 28.2993C91.0523 28.5796 91.1165 28.8886 91.1045 29.1994C91.1088 29.5612 91.0319 29.9194 90.8794 30.2475C90.7268 30.5756 90.5026 30.8653 90.2232 31.0952C89.403 31.8147 88.1788 32.1744 86.5505 32.1744C85.2051 32.1744 84.2075 31.9274 83.5576 31.4333C83.3338 31.2936 83.1469 31.102 83.0129 30.8747C82.8789 30.6473 82.8017 30.391 82.7878 30.1275C82.7984 29.9363 82.849 29.7494 82.9363 29.579C83.0237 29.4085 83.1459 29.2584 83.295 29.1382C83.7758 28.7646 84.3489 28.5284 84.9533 28.4547C84.4386 28.3553 83.9574 28.1277 83.554 27.7928C83.4045 27.656 83.2855 27.4891 83.2049 27.3032C83.1243 27.1172 83.084 26.9163 83.0864 26.7136C83.075 26.3291 83.2056 25.9539 83.4533 25.6595C83.819 25.2934 84.2741 25.0292 84.7735 24.8933C84.2892 24.6396 83.8761 24.2685 83.572 23.8141C83.2989 23.3846 83.1587 22.884 83.1691 22.3751C83.167 21.9693 83.2561 21.5683 83.4298 21.2015C83.6036 20.8348 83.8574 20.5117 84.1728 20.2563C84.9068 19.6584 85.8349 19.3511 86.7807 19.3929C87.2098 19.3914 87.6366 19.4545 88.0469 19.58C88.4708 19.708 88.8732 19.8984 89.2411 20.1448ZM87.3275 28.4511C86.1764 28.4511 85.355 28.6106 84.8634 28.9296C84.6502 29.0407 84.4699 29.2058 84.3405 29.4085C84.2111 29.6111 84.1371 29.8442 84.126 30.0843C84.1219 30.2856 84.1709 30.4843 84.2682 30.6606C84.3654 30.8368 84.5075 30.9842 84.68 31.088C85.3117 31.4506 86.0356 31.6206 86.7627 31.5772C87.8395 31.5772 88.65 31.3986 89.1944 31.0412C89.7388 30.6839 90.0121 30.2894 90.0145 29.8577C90.0126 29.596 89.9226 29.3426 89.7591 29.1382C89.5485 28.8893 89.2656 28.712 88.9498 28.631C88.4198 28.4979 87.8735 28.441 87.3275 28.4619V28.4511ZM86.7735 19.9829C86.512 19.9765 86.2524 20.0284 86.0135 20.1348C85.7746 20.2412 85.5624 20.3994 85.3922 20.598C85.0042 21.0855 84.8107 21.6994 84.849 22.3212C84.8083 22.9776 85.0007 23.6274 85.3922 24.1558C85.5614 24.3585 85.7728 24.5218 86.0115 24.6344C86.2503 24.7471 86.5107 24.8063 86.7747 24.808C87.0387 24.8097 87.2999 24.7539 87.5401 24.6444C87.7803 24.5348 87.9938 24.3743 88.1656 24.1738C88.553 23.6572 88.7443 23.0197 88.7052 22.3751C88.7396 21.7482 88.5439 21.1303 88.1548 20.6376C87.9879 20.4332 87.777 20.2691 87.5378 20.1576C87.2987 20.0461 87.0374 19.99 86.7735 19.9937V19.9829Z" fill="#F4F4F4"/>
<path d="M92.5074 18.6309C92.7904 18.6356 93.0603 18.7514 93.2588 18.9532C93.4573 19.1551 93.5685 19.4269 93.5685 19.7101C93.568 19.8447 93.5403 19.9777 93.4872 20.1014C93.434 20.225 93.3564 20.3366 93.2591 20.4296C93.1367 20.5502 92.9864 20.639 92.8216 20.688C92.6569 20.7371 92.4826 20.7449 92.314 20.7109C92.1455 20.6768 91.9879 20.6019 91.8551 20.4928C91.7223 20.3836 91.6183 20.2435 91.5522 20.0847C91.4862 19.926 91.4602 19.7534 91.4764 19.5822C91.4926 19.4111 91.5505 19.2465 91.6452 19.1029C91.7398 18.9594 91.8683 18.8413 92.0192 18.759C92.1702 18.6767 92.339 18.6327 92.5109 18.6309H92.5074Z" fill="#F4F4F4"/>
<path d="M19.1727 27.0366H18.9425H18.8238V26.4646H18.9821C19.1034 26.4518 19.2261 26.4653 19.3418 26.5042C19.3879 26.5266 19.4265 26.5621 19.4527 26.6062C19.4789 26.6503 19.4916 26.7011 19.4893 26.7524C19.4896 26.7937 19.4811 26.8347 19.4642 26.8725C19.4474 26.9103 19.4226 26.9439 19.3915 26.9713C19.3604 26.9986 19.3238 27.0189 19.2842 27.0308C19.2446 27.0426 19.2029 27.0459 19.1619 27.0402L19.1727 27.0366ZM19.8418 26.7596C19.8454 26.6718 19.8285 26.5845 19.7922 26.5045C19.756 26.4245 19.7015 26.3542 19.6331 26.2991C19.4643 26.1851 19.2593 26.1377 19.0576 26.166H18.4785V28.0223H18.8382V27.3388H19.1475L19.5072 28.0294H19.9029L19.4893 27.274C19.5973 27.2407 19.6912 27.1724 19.7563 27.08C19.8214 26.9876 19.854 26.8761 19.8489 26.7632L19.8418 26.7596ZM19.1296 28.5619C18.845 28.5619 18.5668 28.4775 18.3302 28.3194C18.0936 28.1612 17.9092 27.9365 17.8003 27.6736C17.6914 27.4106 17.6629 27.1213 17.7184 26.8422C17.7739 26.5631 17.9109 26.3067 18.1122 26.1054C18.3134 25.9042 18.5698 25.7671 18.8489 25.7116C19.128 25.6561 19.4172 25.6846 19.6802 25.7935C19.9431 25.9024 20.1678 26.0868 20.3259 26.3235C20.484 26.5601 20.5683 26.8383 20.5683 27.1229C20.5683 27.5045 20.4168 27.8705 20.1469 28.1404C19.8771 28.4103 19.5111 28.5619 19.1296 28.5619ZM19.1296 25.3242C18.7738 25.3242 18.4261 25.4297 18.1304 25.6274C17.8346 25.825 17.6041 26.1059 17.468 26.4346C17.3318 26.7632 17.2962 27.1249 17.3656 27.4738C17.435 27.8227 17.6063 28.1432 17.8578 28.3948C18.1093 28.6463 18.4298 28.8176 18.7787 28.887C19.1276 28.9564 19.4892 28.9208 19.8178 28.7847C20.1464 28.6485 20.4273 28.418 20.6249 28.1222C20.8226 27.8264 20.928 27.4787 20.928 27.1229C20.928 26.6459 20.7386 26.1884 20.4013 25.851C20.064 25.5137 19.6065 25.3242 19.1296 25.3242Z" fill="#F4F4F4"/>
<path d="M0.0322266 1.72567C8.66538 -2.89336 19.8525 1.97749 20.6943 13.7373C4.65097 14.9964 2.7193 7.77286 0.0322266 1.72567Z" fill="#F4F4F4"/>
<path d="M0.0324707 26.9393C8.66557 31.5583 19.8526 26.6875 20.6944 14.9277C4.65118 13.6686 2.71952 20.8885 0.0324707 26.9393Z" fill="#F4F4F4"/>
<path d="M20.6618 13.7475C19.8201 1.98769 8.63307 -2.87957 0 1.73587C2.68704 7.78307 4.61869 15.0066 20.6618 13.7475ZM0 26.9499C8.63307 31.569 19.8201 26.6981 20.6618 14.9383C4.61869 13.6684 2.68704 20.8991 0 26.9499Z" fill="#F4F4F4"/>
</svg>
