<svg width="70" height="70" viewBox="0 0 70 70" fill="none" xmlns="http://www.w3.org/2000/svg">
<path fill-rule="evenodd" clip-rule="evenodd" d="M50.2812 28.7747C51.8681 28.7747 53.1544 27.486 53.1544 25.8968C53.1544 24.3066 51.8681 23.0166 50.2812 23.0166C48.6961 23.0166 47.4105 24.3066 47.4105 25.8968C47.4105 27.486 48.6961 28.7747 50.2812 28.7747ZM28.2763 30.329C28.1467 30.6554 27.2135 33.2976 24.9568 36.0361V24.327L18.9437 25.5183V46.7423H24.9568V40.1818C26.6984 42.8002 27.5583 46.7423 27.5583 46.7423H34.7608C34.0483 43.7733 30.9319 38.2989 30.9319 38.2989C33.7289 34.7442 34.9574 30.9565 35.1528 30.329H28.2763ZM44.0845 30.1074C38.6986 30.2807 35.9646 32.7029 35.9646 37.5179V46.7423H41.8404V39.2201C41.8404 36.3368 42.2169 35.101 45.63 34.9831V30.1919C45.0556 30.0697 44.0845 30.1074 44.0845 30.1074ZM8.85912 32.6661C8.12261 32.6175 6.41746 32.5071 6.41746 30.9683C6.41746 29.1114 8.87239 29.1114 9.79318 29.1114C11.4122 29.1114 13.5091 29.591 15.0065 30.04C15.0065 30.04 15.8418 30.3352 16.5527 30.6375L16.6187 30.6554V25.57L16.528 25.5431C14.7608 24.9233 12.7059 24.327 8.89616 24.327C2.32745 24.327 0 28.163 0 31.4491C0 33.3434 0.809977 37.8017 8.33282 38.3159C8.97055 38.3552 10.663 38.453 10.663 40.0432C10.663 41.3561 9.27738 42.1303 6.94685 42.1303C4.39283 42.1303 1.91536 41.4774 0.410545 40.8582V46.0959C2.66329 46.6878 5.2028 46.9836 8.1791 46.9836C14.6018 46.9836 17.4784 43.3544 17.4784 39.7573C17.4784 35.6787 14.2595 33.0288 8.85912 32.6661ZM47.3685 46.7423H53.1967V30.3476H47.3685V46.7423ZM64.1709 25.3723V46.7423H70V24.327L64.1709 25.3723ZM55.6655 25.3723L61.4891 24.327V46.7423H55.6655V25.3723Z" fill="url(#paint0_linear_47_837)"/>
<defs>
<linearGradient id="paint0_linear_47_837" x1="18.9308" y1="23.0166" x2="24.2154" y2="52.5742" gradientUnits="userSpaceOnUse">
<stop stop-color="#6B195F"/>
<stop offset="1" stop-color="#4C255B"/>
</linearGradient>
</defs>
</svg>
