<svg width="19" height="29" viewBox="0 0 19 29" fill="none" xmlns="http://www.w3.org/2000/svg">
<path d="M18.1113 10.0106L9.54287 0.115814C9.50873 0.0792664 9.46744 0.0501266 9.42157 0.0302037C9.3757 0.0102808 9.32622 0 9.27621 0C9.22619 0 9.17671 0.0102808 9.13084 0.0302037C9.08497 0.0501266 9.04368 0.0792664 9.00954 0.115814L0.441118 10.0106C0.217363 10.2632 0.0712098 10.5749 0.0201778 10.9085C-0.0308542 11.2421 0.015401 11.5833 0.153399 11.8913C0.290908 12.1982 0.514727 12.4584 0.797576 12.6404C1.08042 12.8223 1.41009 12.918 1.74638 12.9158H5.12884V24.6421C5.12884 25.7365 5.56357 26.786 6.33741 27.5599C7.11124 28.3337 8.16079 28.7684 9.25515 28.7684C10.3495 28.7684 11.3991 28.3337 12.1729 27.5599C12.9467 26.786 13.3815 25.7365 13.3815 24.6421V12.9158H16.785C17.1248 12.9221 17.459 12.8283 17.746 12.6462C18.033 12.464 18.2601 12.2015 18.399 11.8913C18.537 11.5833 18.5833 11.2421 18.5322 10.9085C18.4812 10.5749 18.335 10.2632 18.1113 10.0106ZM12.7008 24.6421C12.7008 25.5504 12.34 26.4214 11.6977 27.0637C11.0555 27.7059 10.1845 28.0667 9.27621 28.0667C8.36796 28.0667 7.4969 27.7059 6.85468 27.0637C6.21245 26.4214 5.85165 25.5504 5.85165 24.6421V10.9439C5.85165 10.8508 5.81468 10.7616 5.74887 10.6958C5.68307 10.63 5.59383 10.593 5.50077 10.593H3.00954L9.27621 3.35792L15.5429 10.593H13.0516C12.9586 10.593 12.8693 10.63 12.8035 10.6958C12.7377 10.7616 12.7008 10.8508 12.7008 10.9439V24.6421ZM17.7394 11.5755C17.659 11.7611 17.5255 11.9188 17.3557 12.0287C17.1858 12.1386 16.9873 12.1958 16.785 12.193H13.4025V11.2948H16.2938C16.3605 11.2951 16.4258 11.2761 16.4819 11.2399C16.538 11.2038 16.5823 11.1521 16.6095 11.0913C16.6366 11.0308 16.6463 10.964 16.6376 10.8983C16.6289 10.8327 16.6022 10.7707 16.5604 10.7193L9.54287 2.59301C9.50873 2.55646 9.46744 2.52732 9.42157 2.5074C9.3757 2.48747 9.32622 2.47719 9.27621 2.47719C9.22619 2.47719 9.17671 2.48747 9.13084 2.5074C9.08497 2.52732 9.04368 2.55646 9.00954 2.59301L1.992 10.7193C1.95019 10.7707 1.92347 10.8327 1.9148 10.8983C1.90612 10.964 1.91584 11.0308 1.94287 11.0913C1.9701 11.1521 2.01445 11.2038 2.07052 11.2399C2.12659 11.2761 2.19196 11.2951 2.25866 11.2948H5.17094V12.2141H1.76743C1.56277 12.2151 1.36247 12.1549 1.19237 12.041C1.02226 11.9272 0.890148 11.7651 0.813049 11.5755C0.725458 11.3934 0.694033 11.1894 0.722777 10.9895C0.751521 10.7895 0.839132 10.6026 0.974452 10.4527L9.27621 0.880727L17.578 10.4737C17.709 10.6218 17.7941 10.8049 17.8227 11.0005C17.8514 11.1962 17.8224 11.396 17.7394 11.5755Z" fill="#1B1C20"/>
</svg>
