<svg width="32" height="32" viewBox="0 0 32 32" fill="none" xmlns="http://www.w3.org/2000/svg">
<path d="M21.9974 0C20.2914 0.117999 18.2974 1.20999 17.1354 2.63198C16.0754 3.92198 15.2034 5.83797 15.5434 7.69995C17.4074 7.75795 19.3334 6.63996 20.4494 5.19397C21.4934 3.84798 22.2834 1.94399 21.9974 0Z" fill="white"/>
<path d="M28.743 10.7304C27.105 8.67637 24.8031 7.48438 22.6291 7.48438C19.7591 7.48438 18.5451 8.85837 16.5511 8.85837C14.4951 8.85837 12.9331 7.48838 10.4511 7.48838C8.01315 7.48838 5.41717 8.97837 3.77118 11.5264C1.45719 15.1143 1.85319 21.8603 5.60317 27.6063C6.94516 29.6622 8.73715 31.9742 11.0811 31.9942C13.1671 32.0142 13.7551 30.6562 16.5811 30.6422C19.4071 30.6262 19.9431 32.0122 22.0251 31.9902C24.3711 31.9722 26.261 29.4102 27.603 27.3543C28.565 25.8803 28.923 25.1383 29.669 23.4743C24.2431 21.4083 23.3731 13.6923 28.743 10.7304Z" fill="white"/>
</svg>
