<svg width="20" height="20" viewBox="0 0 20 20" fill="none" xmlns="http://www.w3.org/2000/svg">
<path d="M2.90438 17.0711C3.1388 17.3055 3.45674 17.4372 3.78826 17.4372C4.11978 17.4372 4.43773 17.3055 4.67215 17.0711L9.82813 11.9151C9.8672 11.876 9.92019 11.8541 9.97545 11.8541C10.0307 11.8541 10.0837 11.876 10.1228 11.9151L15.2787 17.0711C15.5132 17.3055 15.8311 17.4372 16.1626 17.4372C16.4942 17.4372 16.8121 17.3055 17.0465 17.0711C17.2809 16.8366 17.4126 16.5187 17.4126 16.1872C17.4126 15.8557 17.2809 15.5377 17.0465 15.3033L11.8905 10.1473C11.8515 10.1082 11.8295 10.0553 11.8295 10C11.8295 9.94475 11.8515 9.89176 11.8905 9.85269L17.0465 4.6967C17.2809 4.46228 17.4126 4.14434 17.4126 3.81282C17.4126 3.4813 17.2809 3.16335 17.0465 2.92893C16.8121 2.69451 16.4942 2.56282 16.1626 2.56282C15.8311 2.56282 15.5132 2.69451 15.2787 2.92893L10.1228 8.08492C10.0837 8.12399 10.0307 8.14594 9.97545 8.14594C9.92019 8.14594 9.8672 8.12399 9.82813 8.08492L4.67215 2.92893C4.43773 2.69451 4.11978 2.56282 3.78826 2.56282C3.45674 2.56282 3.1388 2.69451 2.90438 2.92893C2.66996 3.16335 2.53826 3.4813 2.53826 3.81282C2.53826 4.14434 2.66996 4.46228 2.90438 4.6967L8.06037 9.85269C8.09944 9.89176 8.12139 9.94475 8.12139 10C8.12139 10.0553 8.09944 10.1082 8.06037 10.1473L2.90438 15.3033C2.66996 15.5377 2.53826 15.8557 2.53826 16.1872C2.53826 16.5187 2.66996 16.8366 2.90438 17.0711V17.0711Z" fill="#FCF4FF"/>
</svg>
