<svg width="86" height="26" viewBox="0 0 86 26" fill="none" xmlns="http://www.w3.org/2000/svg">
<g clip-path="url(#clip0_679_1615)">
<path d="M0 0.410526C0 0.752632 0.302162 0.912281 1.34811 1.11754C3.04486 1.50526 6.20595 2.66842 7.0427 3.2386C7.39135 3.48947 7.80973 3.96842 7.99568 4.28772C8.15838 4.62983 9.52973 9.64737 11.0638 15.4632L13.8297 26L17.5254 25.9544L21.2211 25.886L26.66 13.2281C29.6351 6.27193 32.0757 0.501755 32.0757 0.38772C32.0757 0.296492 30.4719 0.228071 28.5427 0.228071H24.9865L21.5 8.89474C19.5941 13.6614 17.967 17.5614 17.8973 17.5614C17.8276 17.5614 17.107 14.0947 16.3168 9.85263C15.48 5.49649 14.6665 1.87018 14.4573 1.50526C14.2481 1.14035 13.6903 0.661404 13.2486 0.433334C12.5281 0.0456142 11.8541 0 6.22919 0C0.325405 0 0 0.0228081 0 0.410526Z" fill="#1A1F71"/>
<path d="M35.2135 0.273685C35.1438 0.433334 33.8654 6.29474 32.3546 13.2737L29.6119 26H33.0519C34.9346 26 36.4919 25.9544 36.4919 25.9088C36.4919 25.7719 41.8146 1.20877 42.0005 0.501755L42.1167 0H38.7232C36.213 0 35.2832 0.0684223 35.2135 0.273685Z" fill="#1A1F71"/>
<path d="M50.7865 0.319529C48.1135 1.16339 45.8589 2.89672 44.8595 4.90374C44.4411 5.72479 44.2551 6.52304 44.2087 7.82304C44.1157 9.37391 44.1854 9.73883 44.72 10.8336C45.4638 12.2932 46.8351 13.5476 48.8573 14.5967C53.7384 17.1055 54.6449 18.2687 52.9249 19.9564C51.4606 21.3932 47.8811 21.4844 44.1854 20.1844C43.3487 19.888 42.6281 19.6827 42.5584 19.7283C42.4422 19.8651 41.3962 24.4037 41.373 24.8827C41.373 25.1564 41.7914 25.3844 42.8373 25.6581C44.0227 25.9546 45.1384 26.023 49.1595 25.9546L54.0406 25.8862L55.5978 25.1336C58.8054 23.6055 60.7114 20.8458 60.7346 17.7213C60.7578 14.7564 59.34 12.8406 55.7606 10.9248C52.9249 9.39672 51.7627 8.62128 51.3676 7.91427C51.0654 7.3669 51.0654 7.23006 51.3676 6.65988C52.2741 5.06339 55.8768 4.63006 59.1773 5.72479L60.8508 6.29497L61.3854 3.76339C61.6876 2.39497 61.9433 1.16339 61.9433 1.02655C61.9433 0.912512 61.3622 0.638828 60.6649 0.410757C59.0611 -0.0681896 52.2741 -0.136612 50.7865 0.319529Z" fill="#1A1F71"/>
<path d="M72.4027 0.319441C72.0308 0.47909 71.5427 0.821196 71.3335 1.04926C71.1011 1.30014 68.7768 6.56856 66.127 12.7721C63.4773 18.9756 61.1297 24.4949 60.8973 25.0194L60.4557 26.0001H64.0119H67.5914L68.2422 24.13L68.9162 22.237L73.3557 22.1686L77.7719 22.1229L78.2368 23.9931L78.7016 25.8861L81.886 25.9545L85.0935 26.0229L84.9308 25.3844C84.8379 25.0422 83.5827 19.2037 82.1649 12.43L79.5616 0.114178L76.3308 0.0685635C74.0297 0.0229492 72.8908 0.0913715 72.4027 0.319441ZM75.6335 11.9738C76.1216 14.2317 76.54 16.2615 76.6097 16.4668C76.726 16.8317 76.4935 16.8773 73.9368 16.8773C72.3795 16.8773 71.1243 16.8089 71.1243 16.7405C71.1243 16.2387 74.4946 7.54926 74.6108 7.68611C74.727 7.77734 75.1687 9.71593 75.6335 11.9738Z" fill="#1A1F71"/>
</g>
<defs>
<clipPath id="clip0_679_1615">
<rect width="86" height="26" fill="white"/>
</clipPath>
</defs>
</svg>
