<svg width="52" height="42" viewBox="0 0 52 42" fill="none" xmlns="http://www.w3.org/2000/svg">
<g clip-path="url(#clip0_679_1622)">
<path d="M50.9371 40.914V41.0205H51.0342C51.0557 41.0205 51.0741 41.0153 51.0873 41.007C51.0996 40.9988 51.1068 40.9843 51.1068 40.9667C51.1068 40.9491 51.0996 40.9357 51.0873 40.9274C51.0741 40.9181 51.0557 40.914 51.0342 40.914H50.9371ZM51.0352 40.8395C51.0853 40.8395 51.1241 40.8508 51.1517 40.8736C51.1793 40.8964 51.1926 40.9274 51.1926 40.9667C51.1926 40.9998 51.1824 41.0266 51.1599 41.0484C51.1384 41.0691 51.1078 41.0825 51.0669 41.0877L51.1957 41.2376H51.0955L50.9759 41.0887H50.9371V41.2376H50.8533V40.8395H51.0352ZM51.0097 41.3752C51.0557 41.3752 51.0986 41.3659 51.1374 41.3483C51.1773 41.3307 51.212 41.3069 51.2416 41.2769C51.2713 41.2469 51.2948 41.2118 51.3122 41.1704C51.3286 41.1301 51.3377 41.0866 51.3377 41.0401C51.3377 40.9936 51.3286 40.9501 51.3122 40.9098C51.2948 40.8695 51.2713 40.8333 51.2416 40.8033C51.212 40.7733 51.1773 40.7495 51.1374 40.7319C51.0986 40.7154 51.0557 40.7071 51.0097 40.7071C50.9637 40.7071 50.9198 40.7154 50.8799 40.7319C50.839 40.7495 50.8032 40.7733 50.7736 40.8033C50.7439 40.8333 50.7204 40.8695 50.7041 40.9098C50.6867 40.9501 50.6786 40.9936 50.6786 41.0401C50.6786 41.0866 50.6867 41.1301 50.7041 41.1704C50.7204 41.2118 50.7439 41.2469 50.7736 41.2769C50.8032 41.3069 50.839 41.3307 50.8799 41.3483C50.9198 41.3659 50.9637 41.3752 51.0097 41.3752ZM51.0097 40.6109C51.07 40.6109 51.1252 40.6223 51.1783 40.645C51.2304 40.6668 51.2754 40.6978 51.3152 40.7371C51.3541 40.7754 51.3848 40.8208 51.4073 40.8736C51.4297 40.9253 51.4409 40.9812 51.4409 41.0401C51.4409 41.0991 51.4297 41.1549 51.4073 41.2066C51.3848 41.2583 51.3541 41.3038 51.3152 41.3432C51.2754 41.3814 51.2304 41.4124 51.1783 41.4352C51.1252 41.4579 51.07 41.4693 51.0097 41.4693C50.9484 41.4693 50.8921 41.4579 50.839 41.4352C50.7859 41.4124 50.7398 41.3814 50.701 41.3432C50.6622 41.3038 50.6316 41.2583 50.6091 41.2066C50.5866 41.1549 50.5753 41.0991 50.5753 41.0401C50.5753 40.9812 50.5866 40.9253 50.6091 40.8736C50.6316 40.8208 50.6622 40.7754 50.701 40.7371C50.7398 40.6978 50.7859 40.6668 50.839 40.645C50.8921 40.6223 50.9484 40.6109 51.0097 40.6109ZM11.1911 39.0773C11.1911 38.3182 11.6827 37.6945 12.486 37.6945C13.2535 37.6945 13.7717 38.2913 13.7717 39.0773C13.7717 39.8632 13.2535 40.46 12.486 40.46C11.6827 40.46 11.1911 39.8363 11.1911 39.0773ZM14.6465 39.0773V36.9179H13.7185V37.4422C13.4242 37.0534 12.9776 36.8093 12.3705 36.8093C11.1737 36.8093 10.2355 37.7587 10.2355 39.0773C10.2355 40.3968 11.1737 41.3452 12.3705 41.3452C12.9776 41.3452 13.4242 41.1011 13.7185 40.7123V41.2366H14.6465V39.0773ZM46.0059 39.0773C46.0059 38.3182 46.4975 37.6945 47.3008 37.6945C48.0693 37.6945 48.5865 38.2913 48.5865 39.0773C48.5865 39.8632 48.0693 40.46 47.3008 40.46C46.4975 40.46 46.0059 39.8363 46.0059 39.0773ZM49.4623 39.0773V35.1836H48.5334V37.4422C48.239 37.0534 47.7924 36.8093 47.1853 36.8093C45.9885 36.8093 45.0503 37.7587 45.0503 39.0773C45.0503 40.3968 45.9885 41.3452 47.1853 41.3452C47.7924 41.3452 48.239 41.1011 48.5334 40.7123V41.2366H49.4623V39.0773ZM26.1656 37.6501C26.7635 37.6501 27.1478 38.0296 27.2459 38.6977H25.0312C25.1303 38.0741 25.5044 37.6501 26.1656 37.6501ZM26.184 36.8093C24.9331 36.8093 24.0582 37.7308 24.0582 39.0773C24.0582 40.4507 24.9688 41.3452 26.2464 41.3452C26.8892 41.3452 27.4778 41.1828 27.996 40.7402L27.5412 40.0442C27.1835 40.3327 26.7277 40.4961 26.2995 40.4961C25.7016 40.4961 25.1569 40.2158 25.023 39.4382H28.1923C28.2014 39.3213 28.2106 39.2035 28.2106 39.0773C28.2014 37.7308 27.3798 36.8093 26.184 36.8093ZM37.3893 39.0773C37.3893 38.3182 37.8809 37.6945 38.6842 37.6945C39.4517 37.6945 39.9699 38.2913 39.9699 39.0773C39.9699 39.8632 39.4517 40.46 38.6842 40.46C37.8809 40.46 37.3893 39.8363 37.3893 39.0773ZM40.8448 39.0773V36.9179H39.9168V37.4422C39.6214 37.0534 39.1758 36.8093 38.5687 36.8093C37.3719 36.8093 36.4337 37.7587 36.4337 39.0773C36.4337 40.3968 37.3719 41.3452 38.5687 41.3452C39.1758 41.3452 39.6214 41.1011 39.9168 40.7123V41.2366H40.8448V39.0773ZM32.1485 39.0773C32.1485 40.3875 33.0499 41.3452 34.4255 41.3452C35.0683 41.3452 35.4966 41.2004 35.9605 40.8302L35.515 40.0711C35.1664 40.3245 34.8005 40.46 34.3979 40.46C33.6569 40.4507 33.1122 39.9087 33.1122 39.0773C33.1122 38.2458 33.6569 37.7039 34.3979 37.6945C34.8005 37.6945 35.1664 37.8301 35.515 38.0834L35.9605 37.3243C35.4966 36.9541 35.0683 36.8093 34.4255 36.8093C33.0499 36.8093 32.1485 37.767 32.1485 39.0773ZM44.1132 36.8093C43.5776 36.8093 43.2291 37.0627 42.9879 37.4422V36.9179H42.0681V41.2366H42.9971V38.8156C42.9971 38.101 43.3007 37.7039 43.9077 37.7039C44.0957 37.7039 44.292 37.7308 44.4882 37.8125L44.7744 36.9272C44.5689 36.8455 44.3012 36.8093 44.1132 36.8093ZM19.2364 37.2612C18.7897 36.9634 18.1745 36.8093 17.4959 36.8093C16.4146 36.8093 15.7186 37.3337 15.7186 38.192C15.7186 38.8963 16.2367 39.3306 17.1913 39.4661L17.6298 39.5292C18.1387 39.6016 18.3789 39.7371 18.3789 39.9811C18.3789 40.3151 18.0396 40.5055 17.406 40.5055C16.7631 40.5055 16.2991 40.2976 15.9864 40.0535L15.549 40.7847C16.0579 41.1642 16.7008 41.3452 17.3967 41.3452C18.6293 41.3452 19.3437 40.7578 19.3437 39.9356C19.3437 39.1765 18.7816 38.7794 17.8526 38.6439L17.4151 38.5798C17.0135 38.5261 16.6915 38.4454 16.6915 38.1558C16.6915 37.8394 16.9951 37.6501 17.504 37.6501C18.0488 37.6501 18.5762 37.8579 18.8347 38.0203L19.2364 37.2612ZM31.2103 36.8093C30.6747 36.8093 30.3262 37.0627 30.086 37.4422V36.9179H29.1662V41.2366H30.0942V38.8156C30.0942 38.101 30.3978 37.7039 31.0048 37.7039C31.1928 37.7039 31.3891 37.7308 31.5853 37.8125L31.8715 36.9272C31.6661 36.8455 31.3983 36.8093 31.2103 36.8093ZM23.2907 36.9179H21.773V35.6076H20.8348V36.9179H19.9692V37.7762H20.8348V39.7464C20.8348 40.7485 21.2191 41.3452 22.3167 41.3452C22.7194 41.3452 23.1834 41.2191 23.4777 41.0112L23.2099 40.2066C22.933 40.369 22.6294 40.4507 22.3883 40.4507C21.9242 40.4507 21.773 40.1611 21.773 39.7277V37.7762H23.2907V36.9179ZM9.41486 41.2366V38.5261C9.41486 37.5053 8.77201 36.8186 7.73565 36.8093C7.19095 36.8 6.62883 36.9717 6.23536 37.5777C5.94102 37.0989 5.47703 36.8093 4.82499 36.8093C4.36917 36.8093 3.92357 36.9448 3.57507 37.4505V36.9179H2.64606V41.2366H3.58324V38.8425C3.58324 38.0928 3.99409 37.6945 4.62876 37.6945C5.24503 37.6945 5.55674 38.101 5.55674 38.8332V41.2366H6.49495V38.8425C6.49495 38.0928 6.92315 37.6945 7.53948 37.6945C8.1731 37.6945 8.47665 38.101 8.47665 38.8332V41.2366H9.41486Z" fill="#231F20"/>
<path d="M51.5093 26.874V26.2432H51.3468L51.1588 26.6765L50.9717 26.2432H50.8082V26.874H50.9237V26.3983L51.0995 26.8089H51.2191L51.3948 26.3973V26.874H51.5093ZM50.4781 26.874V26.3507H50.6866V26.2442H50.1552V26.3507H50.3637V26.874H50.4781Z" fill="#F79410"/>
<path d="M33.0314 29.5879H18.9669V4.01074H33.0314V29.5879Z" fill="#FF5F00"/>
<path d="M19.8679 16.7973C19.8679 11.6088 22.2686 6.9871 26.0072 4.00869C23.2733 1.83072 19.8229 0.530762 16.0732 0.530762C7.19596 0.530762 0 7.81339 0 16.7973C0 25.7812 7.19596 33.0638 16.0732 33.0638C19.8229 33.0638 23.2733 31.7639 26.0072 29.5859C22.2686 26.6075 19.8679 21.9858 19.8679 16.7973Z" fill="#EB001B"/>
<path d="M52 16.7973C52 25.7812 44.804 33.0638 35.9268 33.0638C32.177 33.0638 28.7268 31.7639 25.9918 29.5859C29.7314 26.6075 32.1321 21.9858 32.1321 16.7973C32.1321 11.6088 29.7314 6.9871 25.9918 4.00869C28.7268 1.83072 32.177 0.530762 35.9268 0.530762C44.804 0.530762 52 7.81339 52 16.7973Z" fill="#F79E1B"/>
</g>
<defs>
<clipPath id="clip0_679_1622">
<rect width="52" height="42" fill="white"/>
</clipPath>
</defs>
</svg>
