<svg width="20" height="20" viewBox="0 0 20 20" fill="none" xmlns="http://www.w3.org/2000/svg">
<path d="M9.97635 4.14139C9.70379 4.14105 9.43429 4.19885 9.18584 4.31094C8.93739 4.42302 8.71571 4.58681 8.53558 4.79136L0.360088 14.0843C0.10169 14.3923 -0.0259707 14.7891 0.00440276 15.1899C0.0347762 15.5908 0.220773 15.9638 0.522623 16.2293C0.824472 16.4948 1.21822 16.6317 1.61966 16.6106C2.0211 16.5896 2.39838 16.4123 2.67083 16.1167L9.81969 7.9904C9.83925 7.96809 9.86334 7.95022 9.89035 7.93797C9.91737 7.92572 9.94669 7.91939 9.97635 7.91939C10.006 7.91939 10.0353 7.92572 10.0624 7.93797C10.0894 7.95022 10.1135 7.96809 10.133 7.9904L17.2819 16.1167C17.4137 16.2739 17.5757 16.4031 17.7582 16.4967C17.9407 16.5904 18.1401 16.6466 18.3446 16.6621C18.5492 16.6776 18.7547 16.6521 18.9493 16.587C19.1438 16.5219 19.3234 16.4186 19.4774 16.2831C19.6314 16.1476 19.7568 15.9827 19.8462 15.7981C19.9356 15.6134 19.9872 15.4128 19.9979 15.208C20.0086 15.0031 19.9783 14.7982 19.9087 14.6052C19.8391 14.4122 19.7316 14.2351 19.5926 14.0843L11.4196 4.7947C11.2392 4.58963 11.0172 4.42532 10.7683 4.31268C10.5195 4.20004 10.2495 4.14165 9.97635 4.14139Z" fill="white"/>
</svg>
