<svg width="14" height="14" viewBox="0 0 14 14" fill="none" xmlns="http://www.w3.org/2000/svg">
<g clip-path="url(#clip0_26_544)">
<path d="M14 3.53487V1.0207C14 0.845703 13.895 0.688204 13.7375 0.618204C13.6792 0.594871 13.6208 0.583203 13.5625 0.583203C13.4517 0.583203 13.3467 0.624038 13.265 0.699871L7 6.5157L0.735 0.699871C0.606667 0.583204 0.42 0.548203 0.2625 0.618204C0.105 0.688204 0 0.845703 0 1.0207V3.53487L7 10.0332L14 3.53487Z" fill="white"/>
<path d="M14 6.85406V3.53489L7 10.0332L0 3.53489V6.85406C0 6.97656 0.0525 7.09323 0.14 7.17489L6.7025 13.2999C6.87167 13.458 7.12775 13.458 7.2975 13.2999L13.86 7.17489C13.9475 7.09323 14 6.97656 14 6.85406Z" fill="white"/>
<path d="M7 10.0332L0 3.53487V1.0207C0 0.845703 0.105 0.688204 0.2625 0.618204C0.31675 0.594287 0.375083 0.58262 0.432833 0.58262C0.541917 0.58262 0.651 0.624037 0.735 0.700454L7 6.5157V10.0332Z" fill="white"/>
<path d="M7 13.4185C6.89383 13.4185 6.78708 13.3788 6.7025 13.3L0.14 7.17504C0.0525 7.09337 0 6.97671 0 6.85421V3.53504L7 10.0334V13.4185Z" fill="white"/>
</g>
<defs>
<clipPath id="clip0_26_544">
<rect width="14" height="14" fill="white" transform="matrix(1 0 0 -1 0 14)"/>
</clipPath>
</defs>
</svg>
