<svg width="80" height="57" viewBox="0 0 80 57" fill="none" xmlns="http://www.w3.org/2000/svg">
<path d="M13.4202 37.0889L13.4868 36.0659L3.97879e-06 39.756L1.35023 40.3181L1.35031 40.3179L13.4202 37.0889Z" fill="#FCEE0A"/>
<path d="M77.9987 39.0015L80 14.8519L79.1819 14.1326L77.1805 38.2822L11.6775 55.8059L13.0404 56.3816L13.0404 56.3814L77.9987 39.0015Z" fill="#FCEE0A"/>
<path d="M13.6788 31.6564L79.1819 14.1326L77.1805 38.2822L11.6775 55.8059L13.6788 31.6564Z" fill="black"/>
<path d="M60.2279 23.6435L62.1873 0L1.95926 16.1126L3.97879e-06 39.756L60.2279 23.6435Z" fill="black"/>
<path d="M60.5801 19.1197L79.1819 14.1326L72.9103 12.5229L66.9067 14.1344L64.0031 16.9524L64.8747 5.94845L62.1873 0L60.5801 19.1197Z" fill="#D9D9D9"/>
<path d="M60.5801 19.1197L79.1819 14.1326L72.9103 12.5229L66.9067 14.1344L64.0031 16.9524L64.8747 5.94845L62.1873 0L60.5801 19.1197Z" fill="url(#paint0_linear_26_386)"/>
<path d="M47.2051 17.1791L43.8083 10.8634L42.4116 9.96559L47.0786 8.71702L49.1975 12.3114L51.8806 7.43237L56.5477 6.1838L51.0628 16.147L50.5535 21.8027L46.6957 22.8348L47.2051 17.1791Z" fill="white"/>
<path d="M29.4881 27.4383L28.7316 26.3403L31.6527 14.1443L30.8692 13.0535L40.7429 10.412L41.7423 11.445L41.5356 13.6965L34.9532 15.4575L32.2668 26.6949L29.4881 27.4383ZM37.8241 25.2082L36.8518 24.1679L37.099 21.0964L34.4283 21.8109L34.7488 18.2575L37.4196 17.543L37.619 15.2645L41.4768 14.2324L40.6028 24.4648L37.8241 25.2082Z" fill="white"/>
<path d="M21.4239 16.8806L20.4515 15.8403L24.3093 14.8083L25.2817 15.8485L24.4555 25.2879L29.3115 23.9888L30.2838 25.029L30.0772 27.2805L21.3635 29.6117L20.3911 28.5714L21.4239 16.8806Z" fill="white"/>
<path d="M7.74312 33.2556L6.77075 32.2154L7.80351 20.5245L6.83114 19.4843L18.7821 16.2871L19.7815 17.3201L19.5748 19.5716L11.4546 21.744L11.2233 24.5511L15.4588 23.418L15.6582 21.1396L19.5159 20.1075L19.1369 24.6303L17.9169 26.2281L10.9028 28.1046L10.5218 32.5122L7.74312 33.2556Z" fill="white"/>
<path d="M60.8652 38.17L59.8494 37.0834L60.6791 27.7751L64.709 26.697L64.5824 28.0289L73.065 25.7596L72.7377 29.4998L64.2551 31.7691L64.0952 33.6533L72.5778 31.384L72.3694 33.7641L71.095 35.4333L60.8652 38.17ZM73.2249 23.8754L60.7124 27.2228L60.9283 24.8708L59.9125 23.7841L72.3968 20.4443L73.4408 21.5234L73.2249 23.8754Z" fill="url(#paint1_linear_26_386)"/>
<path d="M53.2431 29.7645L58.9639 28.234L51.502 37.0224L57.1383 35.5145L58.154 36.6012L57.9945 38.9381L46.6093 41.9839L45.5935 40.8973L45.7812 38.5528L53.2431 29.7645ZM45.6566 27.598L58.1409 24.2582L59.1849 25.3373L58.969 27.6893L46.4565 31.0367L46.6724 28.6847L45.6566 27.598Z" fill="url(#paint2_linear_26_386)"/>
<path d="M44.7408 31.4957L36.2582 33.765L36.0166 36.6974L40.441 35.5137L40.6493 33.1336L44.6793 32.0555L43.7663 42.7445L40.8636 43.521L39.8479 42.4343L40.1061 39.2258L35.6817 40.4094L35.2837 45.0138L32.3811 45.7903L31.3653 44.7037L32.4441 32.4911L31.4284 31.4044L43.9127 28.0645L44.9566 29.1437L44.7408 31.4957Z" fill="url(#paint3_linear_26_386)"/>
<path d="M29.7125 31.8634L30.7283 32.9501L30.3414 37.3704L29.1158 38.9963L29.1027 39.0602L30.1034 40.0905L29.6495 45.1626L28.3825 46.86L18.1527 49.5967L17.137 48.5101L17.9666 39.2018L21.9966 38.1237L21.8795 39.604L26.304 38.4203L26.4825 36.3802L18 38.6495L18.2083 36.2693L17.2001 35.2108L29.7125 31.8634ZM25.8949 43.2087L26.0453 41.1762L21.6208 42.3598L21.4423 44.3999L25.8949 43.2087Z" fill="url(#paint4_linear_26_386)"/>
<defs>
<linearGradient id="paint0_linear_26_386" x1="57.9393" y1="-15.5674" x2="40.4814" y2="10.025" gradientUnits="userSpaceOnUse">
<stop stop-color="#FFFD3E"/>
<stop offset="1" stop-color="#F5AA07"/>
</linearGradient>
<linearGradient id="paint1_linear_26_386" x1="22.6425" y1="28.3176" x2="36.9744" y2="51.8837" gradientUnits="userSpaceOnUse">
<stop stop-color="#FFFD3E"/>
<stop offset="1" stop-color="#F5B607"/>
</linearGradient>
<linearGradient id="paint2_linear_26_386" x1="22.6425" y1="28.3176" x2="36.9744" y2="51.8837" gradientUnits="userSpaceOnUse">
<stop stop-color="#FFFD3E"/>
<stop offset="1" stop-color="#F5B607"/>
</linearGradient>
<linearGradient id="paint3_linear_26_386" x1="22.6425" y1="28.3176" x2="36.9744" y2="51.8837" gradientUnits="userSpaceOnUse">
<stop stop-color="#FFFD3E"/>
<stop offset="1" stop-color="#F5B607"/>
</linearGradient>
<linearGradient id="paint4_linear_26_386" x1="22.6425" y1="28.3176" x2="36.9744" y2="51.8837" gradientUnits="userSpaceOnUse">
<stop stop-color="#FFFD3E"/>
<stop offset="1" stop-color="#F5B607"/>
</linearGradient>
</defs>
</svg>
