<svg width="30" height="42" viewBox="0 0 30 42" fill="none" xmlns="http://www.w3.org/2000/svg">
<path d="M28.1261 22.8808C29.7824 24.2865 29.983 26.7685 28.5773 28.4229C27.1716 30.0792 24.6914 30.2817 23.0341 28.8741L18.6892 25.184V38.067C18.6892 40.2384 16.9286 41.9989 14.7572 41.9989C12.5857 41.9989 10.8251 40.2384 10.8251 38.067V25.184L6.48023 28.877C5.741 29.5052 4.83565 29.8099 3.9362 29.8099C2.82147 29.8099 1.71362 29.339 0.936061 28.4229C-0.470623 26.7675 -0.269107 24.2865 1.38726 22.8808L12.2112 13.6879C13.6788 12.4405 15.8345 12.4396 17.3031 13.6879L28.1261 22.8808ZM3.9362 17.0576C4.83664 17.0576 5.741 16.7499 6.48023 16.1228L14.7572 9.09151L23.0341 16.1218C24.6924 17.5265 27.1716 17.324 28.5782 15.6706C29.9849 14.0153 29.7844 11.5342 28.127 10.1286L17.3041 0.934699C15.8365 -0.312709 13.6798 -0.311726 12.2121 0.934699L1.38923 10.1286C-0.266158 11.5342 -0.467674 14.0163 0.938027 15.6706C1.7146 16.5858 2.82245 17.0576 3.9362 17.0576Z" fill="#00ABC2"/>
</svg>
