<svg width="32" height="32" viewBox="0 0 32 32" fill="none" xmlns="http://www.w3.org/2000/svg">
<path d="M31.5213 19.8727C29.3841 28.4452 20.7016 33.6623 12.1281 31.5245C3.55818 29.3874 -1.65886 20.7043 0.479231 12.1325C2.61545 3.55911 11.298 -1.65833 19.8688 0.478829C28.4417 2.61599 33.6584 11.3 31.521 19.8729L31.5212 19.8727H31.5213Z" fill="#F7931A"/>
<path d="M23.0561 13.7219C23.3746 11.5924 21.7534 10.4477 19.5364 9.68406L20.2556 6.79948L18.4997 6.36194L17.7996 9.17058C17.338 9.05545 16.8639 8.94696 16.3927 8.83942L17.0979 6.01224L15.3431 5.57471L14.6235 8.45835C14.2415 8.37138 13.8663 8.28542 13.5023 8.19484L13.5043 8.18577L11.0828 7.58109L10.6157 9.45654C10.6157 9.45654 11.9185 9.75516 11.891 9.77354C12.6021 9.95101 12.7307 10.4217 12.7093 10.7948L11.8901 14.081C11.9391 14.0935 12.0026 14.1114 12.0726 14.1396C12.0141 14.1251 11.9517 14.1092 11.887 14.0937L10.7388 18.6972C10.6519 18.9132 10.4313 19.2374 9.93416 19.1143C9.95176 19.1398 8.65792 18.7958 8.65792 18.7958L7.78613 20.8058L10.0712 21.3755C10.4963 21.4821 10.9129 21.5936 11.3231 21.6985L10.5965 24.6162L12.3504 25.0537L13.07 22.167C13.5491 22.2971 14.0141 22.4171 14.4693 22.5302L13.7522 25.4032L15.5082 25.8408L16.2347 22.9286C19.229 23.4953 21.4804 23.2668 22.4281 20.5585C23.1917 18.378 22.39 17.1203 20.8148 16.3001C21.9621 16.0355 22.8263 15.2809 23.0567 13.7221L23.0562 13.7217L23.0561 13.7219ZM19.0442 19.3476C18.5016 21.5281 14.8303 20.3494 13.64 20.0538L14.6042 16.1884C15.7944 16.4855 19.6114 17.0735 19.0443 19.3476H19.0442ZM19.5873 13.6903C19.0922 15.6736 16.0366 14.666 15.0454 14.4189L15.9196 10.9132C16.9108 11.1603 20.1029 11.6215 19.5874 13.6903H19.5873Z" fill="white"/>
</svg>
