<svg width="40" height="40" viewBox="0 0 40 40" fill="none" xmlns="http://www.w3.org/2000/svg">
<path d="M20 1.25C16.2916 1.25 12.6665 2.34967 9.58307 4.40994C6.49964 6.47022 4.09641 9.39857 2.67727 12.8247C1.25812 16.2508 0.886812 20.0208 1.61028 23.6579C2.33376 27.2951 4.11952 30.636 6.74176 33.2583C9.36399 35.8805 12.7049 37.6663 16.3421 38.3897C19.9792 39.1132 23.7492 38.7419 27.1753 37.3227C30.6014 35.9036 33.5298 33.5004 35.5901 30.4169C37.6503 27.3335 38.75 23.7084 38.75 20C38.7444 15.0289 36.7671 10.263 33.252 6.74796C29.737 3.23287 24.9711 1.25562 20 1.25ZM8.26632 17.684L18.5492 5.12388C18.7262 4.91085 18.948 4.73941 19.1987 4.62175C19.4495 4.50409 19.723 4.4431 20 4.4431C20.277 4.4431 20.5506 4.50409 20.8013 4.62175C21.052 4.73941 21.2738 4.91085 21.4508 5.12388L31.7334 17.684C31.8329 17.8127 31.8783 17.9752 31.8599 18.1369C31.8415 18.2986 31.7608 18.4467 31.6349 18.5498C31.509 18.6529 31.3478 18.7029 31.1857 18.689C31.0236 18.6751 30.8732 18.5986 30.7666 18.4756L20.4837 5.9155C20.4247 5.84454 20.3508 5.78744 20.2672 5.74826C20.1836 5.70907 20.0925 5.68876 20.0002 5.68876C19.9079 5.68876 19.8167 5.70907 19.7331 5.74826C19.6496 5.78744 19.5757 5.84454 19.5166 5.9155L9.2337 18.4756C9.12853 18.6033 8.97704 18.6841 8.81241 18.7003C8.64779 18.7165 8.48346 18.6667 8.35544 18.562C8.22742 18.4572 8.14615 18.306 8.12945 18.1414C8.11274 17.9768 8.16196 17.8123 8.26632 17.684ZM30.8881 23.9661L24.375 22.9227V31.2097C24.375 32.37 23.9141 33.4828 23.0936 34.3033C22.2731 35.1237 21.1603 35.5847 20 35.5847C18.8397 35.5847 17.7269 35.1237 16.9064 34.3033C16.0859 33.4828 15.625 32.37 15.625 31.2097V22.9227L9.11251 23.9661C8.86424 24.0021 8.61085 23.9631 8.38495 23.854C8.15905 23.7448 7.97096 23.5706 7.84487 23.3537C7.71878 23.1369 7.66047 22.8872 7.67742 22.6369C7.69437 22.3866 7.78582 22.1471 7.94001 21.9492L18.5381 8.75181C18.715 8.5348 18.938 8.35988 19.1908 8.23975C19.4437 8.11963 19.7201 8.0573 20.0001 8.0573C20.2801 8.0573 20.5565 8.11963 20.8094 8.23975C21.0622 8.35988 21.2852 8.5348 21.4621 8.75181L32.0602 21.9492C32.2143 22.1471 32.3056 22.3865 32.3226 22.6368C32.3395 22.887 32.2812 23.1366 32.1552 23.3534C32.0292 23.5703 31.8412 23.7445 31.6154 23.8536C31.3896 23.9628 31.1363 24.002 30.8881 23.9661Z" fill="#EC622B"/>
</svg>
