<svg width="48" height="48" viewBox="0 0 48 48" fill="none" xmlns="http://www.w3.org/2000/svg">
<path d="M43.8395 7.01486C43.6555 7.45728 43.4004 7.86667 43.0843 8.22686L42.9455 8.39829C42.6353 8.80223 42.1122 8.9795 41.6203 8.84743C41.1168 8.70983 40.7451 8.28335 40.6775 7.76571C40.2643 4.69714 37.4966 1.65343 35.7412 0C35.8501 5.22857 34.0801 8.28857 33.2752 9.40286C33.0344 9.73753 32.6478 9.93644 32.2355 9.93771C31.8275 9.93555 31.4452 9.73833 31.2069 9.40714C30.7584 8.87648 30.1861 8.46437 29.5406 8.20714C29.5143 9.6401 29.2264 11.0562 28.6912 12.3857C27.6421 14.5346 27.0626 17.7806 30.2426 21.0429C30.6506 21.4655 31.1013 21.8446 31.5875 22.1743C31.0953 20.7522 31.2379 19.1871 31.9792 17.8774C32.5725 16.5414 32.837 15.0827 32.7506 13.6234C32.7272 13.2219 32.8908 12.832 33.1938 12.5674C33.4834 12.3157 33.8739 12.2133 34.2498 12.2906C35.1467 12.4741 35.9634 12.9346 36.5846 13.6071C36.7419 12.7491 36.8083 11.8768 36.7826 11.0049C36.7662 10.438 37.1264 9.92854 37.6663 9.75514C38.1912 9.58906 38.7626 9.78955 39.0686 10.2471C40.3166 12.102 42.4218 15.6163 42.4218 18.414C42.4031 19.6938 42.0982 20.9531 41.5295 22.0997C44.1772 20.1364 45.7714 17.0618 45.8503 13.7666C45.6929 11.394 45.0057 9.08695 43.8395 7.01486Z" fill="#F5B607"/>
<path d="M44.1356 46.5594V25.988C44.1356 25.5146 43.7518 25.1309 43.2785 25.1309H5.56417C5.09079 25.1309 4.70703 25.5146 4.70703 25.988V46.5594C4.70703 47.0328 5.09079 47.4166 5.56417 47.4166H43.2785C43.7518 47.4166 44.1356 47.0328 44.1356 46.5594ZM42.4213 41.4166C42.4213 41.89 42.0376 42.2737 41.5642 42.2737C40.144 42.2737 38.9927 43.425 38.9927 44.8451C38.9927 45.3185 38.609 45.7023 38.1356 45.7023H10.707C10.2336 45.7023 9.84989 45.3185 9.84989 44.8451C9.84989 43.425 8.69862 42.2737 7.27846 42.2737C6.80507 42.2737 6.42132 41.89 6.42132 41.4166V31.1309C6.42132 30.6575 6.80507 30.2737 7.27846 30.2737C8.69862 30.2737 9.84989 29.1224 9.84989 27.7023C9.84989 27.2289 10.2336 26.8451 10.707 26.8451H38.1356C38.609 26.8451 38.9927 27.2289 38.9927 27.7023C38.9927 29.1224 40.144 30.2737 41.5642 30.2737C42.0376 30.2737 42.4213 30.6575 42.4213 31.1309V41.4166Z" fill="#F5B607"/>
<path d="M37.3199 23.417C37.3482 23.417 37.3747 23.4119 37.4056 23.4119C39.4542 23.3467 40.7099 20.4805 40.7099 18.4156C40.7099 16.9585 39.899 14.837 38.453 12.4688C38.4015 13.357 38.2364 14.235 37.9619 15.0813C37.8007 15.5584 37.3724 15.8948 36.8707 15.9385C36.3806 15.987 35.9106 15.7311 35.6853 15.293C35.4192 14.79 34.9917 14.3909 34.4716 14.1599C34.4763 15.6903 34.1549 17.2042 33.5288 18.6007C32.8979 19.9722 32.825 21.0462 33.3119 21.8073C34.1476 23.1153 36.5313 23.417 37.3199 23.417Z" fill="#F5B607"/>
<path d="M37.3653 28.5586H11.4796C11.1335 30.2408 9.81894 31.5554 8.13672 31.9015V40.6443C9.81894 40.9904 11.1335 42.3049 11.4796 43.9872H37.3653C37.7114 42.3049 39.0259 40.9904 40.7081 40.6443V31.9015C39.0259 31.5554 37.7114 30.2408 37.3653 28.5586ZM12.4224 38.8443C11.0023 38.8443 9.851 37.693 9.851 36.2729C9.851 34.8527 11.0023 33.7015 12.4224 33.7015C13.8426 33.7015 14.9939 34.8527 14.9939 36.2729C14.9939 37.693 13.8426 38.8443 12.4224 38.8443ZM24.4224 42.2729C21.1087 42.2729 18.4224 39.5866 18.4224 36.2729C18.4224 32.9592 21.1087 30.2729 24.4224 30.2729C27.7361 30.2729 30.4224 32.9592 30.4224 36.2729C30.4182 39.5848 27.7344 42.2686 24.4224 42.2729ZM36.4224 38.8443C35.0023 38.8443 33.851 37.693 33.851 36.2729C33.851 34.8527 35.0023 33.7015 36.4224 33.7015C37.8426 33.7015 38.9939 34.8527 38.9939 36.2729C38.9939 37.693 37.8426 38.8443 36.4224 38.8443Z" fill="#F5B607"/>
<path d="M12.4216 37.1303C12.895 37.1303 13.2787 36.7465 13.2787 36.2732C13.2787 35.7998 12.895 35.416 12.4216 35.416C11.9482 35.416 11.5645 35.7998 11.5645 36.2732C11.5645 36.7465 11.9482 37.1303 12.4216 37.1303Z" fill="#F5B607"/>
<path d="M13.9594 13.2212C13.5657 13.0277 13.2978 12.6467 13.2489 12.2107C13.0217 10.2761 11.5997 8.26781 10.5343 7.00781C10.5731 9.17162 10.146 11.3185 9.28201 13.3027C9.08836 13.72 8.68469 14.0005 8.22601 14.0364C7.76177 14.0685 7.31604 13.8489 7.05858 13.4612C6.84208 13.1375 6.57763 12.8484 6.2743 12.6041C6.04701 13.6096 5.72056 14.5901 5.29973 15.5312C4.2101 17.6055 4.66408 20.1544 6.40287 21.725C6.73091 22.0679 7.10032 22.3688 7.50258 22.6207C6.8743 20.8575 7.69887 18.4764 9.99773 15.5192C10.3555 15.0652 10.912 14.8139 11.4892 14.8455C12.0611 14.873 12.5836 15.1779 12.8889 15.6624C13.8489 17.2181 14.994 19.3884 14.994 20.9252C14.9902 21.3289 14.9367 21.7305 14.8346 22.121C16.5109 20.6351 17.4991 18.5229 17.5654 16.2838C17.4815 14.8151 17.14 13.3726 16.5566 12.0221C16.2012 12.4819 15.7514 12.8601 15.2374 13.1312C14.8567 13.3833 14.3718 13.4174 13.9594 13.2212Z" fill="#F5B607"/>
<path d="M11.3503 16.5724C9.39343 19.089 8.61772 21.093 9.16543 22.2158C9.65057 23.2075 11.1591 23.4158 11.4369 23.4158C12.816 23.4158 13.2797 21.7015 13.2797 20.9241C13.2797 20.0533 12.606 18.465 11.4309 16.5664L11.3503 16.5724Z" fill="#F5B607"/>
<path d="M36.4216 37.1303C36.895 37.1303 37.2787 36.7465 37.2787 36.2732C37.2787 35.7998 36.895 35.416 36.4216 35.416C35.9482 35.416 35.5645 35.7998 35.5645 36.2732C35.5645 36.7465 35.9482 37.1303 36.4216 37.1303Z" fill="#F5B607"/>
<path d="M24.4224 40.5597C26.7894 40.5597 28.7081 38.6409 28.7081 36.274C28.7081 33.9071 26.7894 31.9883 24.4224 31.9883C22.0555 31.9883 20.1367 33.9071 20.1367 36.274C20.1367 38.6409 22.0555 40.5597 24.4224 40.5597Z" fill="#F5B607"/>
<path d="M16.117 4.32769C16.7894 4.59074 17.5276 4.63483 18.2265 4.45369C18.548 4.37512 18.8212 4.16394 18.9782 3.87255C19.2706 3.33768 19.3531 2.713 19.2096 2.12055C18.9067 1.37529 18.4234 0.716984 17.803 0.204834C17.5805 1.29833 17.0297 2.29794 16.2242 3.07026C15.9708 3.29337 15.8369 3.62249 15.8625 3.95912C15.8885 4.11362 15.9818 4.24861 16.117 4.32769Z" fill="#F5B607"/>
<path d="M4.56971 1.98828C4.34408 2.8503 3.89975 3.63947 3.27971 4.27942C3.08617 4.46003 2.98418 4.71816 3.002 4.98228C3.01534 5.09291 3.07847 5.19139 3.17343 5.24971C3.68811 5.44847 4.25307 5.47641 4.78486 5.32942C5.01015 5.26808 5.19965 5.11555 5.30771 4.90857C5.55211 4.44902 5.62271 3.91679 5.50657 3.40942C5.30874 2.86946 4.988 2.38292 4.56971 1.98828Z" fill="#F5B607"/>
<path d="M27.7421 2.76851C28.4055 2.90909 29.4864 2.87566 29.5618 2.54394C29.549 2.37733 29.4642 2.22458 29.3295 2.12566C28.7092 1.58548 28.2515 0.883258 28.0078 0.0976562C27.5915 0.41393 27.2594 0.827821 27.0409 1.3028C26.9475 1.65764 26.9951 2.03487 27.1738 2.35537C27.2933 2.56989 27.5011 2.72098 27.7421 2.76851Z" fill="#F5B607"/>
</svg>
