<svg width="48" height="48" viewBox="0 0 48 48" fill="none" xmlns="http://www.w3.org/2000/svg">
<g clip-path="url(#clip0_445_977)">
<path d="M17.2131 46.9133C28.7095 50.6624 41.0683 44.3819 44.8173 32.8855C48.5664 21.3892 42.2859 9.03036 30.7895 5.28134C29.9407 5.0066 29.0756 4.78498 28.1992 4.61776L27.4051 6.1866C28.3689 6.35263 29.32 6.58561 30.2514 6.88387H30.2666C30.2716 6.88387 30.2775 6.89145 30.2834 6.89313C34.2877 8.19803 37.7787 10.7322 40.2599 14.1352C40.2984 14.1644 40.3342 14.1971 40.3668 14.2329C40.3935 14.2792 40.4155 14.328 40.4325 14.3786C41.0212 15.1947 41.5492 16.0528 42.0123 16.9462C45.4659 23.709 44.8212 31.8396 40.3449 37.9735C40.3407 37.9803 40.3399 37.9879 40.3348 37.9946C40.3297 38.0013 40.3272 38.0005 40.3239 38.0039C37.8227 41.4139 34.3194 43.958 30.3028 45.2813C30.2771 45.2981 30.2504 45.3133 30.2228 45.3268C30.1898 45.3342 30.1563 45.3395 30.1226 45.3428C26.0929 46.6387 21.7568 46.6281 17.7335 45.3125C13.6948 43.9991 10.1758 41.4403 7.68133 38.003C7.66869 37.987 7.64848 37.9811 7.63585 37.9643C7.62322 37.9474 7.6207 37.9239 7.60891 37.9045C2.49181 30.8504 2.50439 21.3021 7.64006 14.2615C7.65185 14.243 7.65438 14.2211 7.66785 14.2026C7.68133 14.1841 7.70491 14.1714 7.72175 14.1529C10.2161 10.762 13.7036 8.23109 17.7007 6.91081C17.7276 6.89902 17.7479 6.87797 17.7756 6.86871C17.8107 6.86201 17.8461 6.85779 17.8817 6.85608C18.7716 6.57181 19.6802 6.3498 20.6009 6.19166L19.8026 4.61523C10.0153 6.52565 2.75606 14.8093 2.14672 24.7627C1.53738 34.716 7.73195 43.8233 17.2131 46.9133Z" fill="#F5B607"/>
<path d="M9.54297 14.5256L19.7905 21.9858C20.2596 21.5064 20.8066 21.11 21.4082 20.8136L17.5076 8.77148C14.3853 9.94161 11.6346 11.9289 9.54297 14.5256Z" fill="#F5B607"/>
<path d="M21.023 3.34326L22.5868 6.40937C22.6052 6.44096 22.6218 6.47357 22.6365 6.50705L24.0015 9.17989L28.207 0.869997C28.2168 0.854899 28.2168 0.83541 28.207 0.820312L19.748 0.843049L20.9371 3.17568C20.972 3.22809 21.0008 3.28431 21.023 3.34326Z" fill="#F5B607"/>
<path d="M8.53135 36.2748L18.7865 28.8424C18.773 28.8171 18.7579 28.7953 18.7452 28.77C18.4544 28.1953 18.2598 27.5769 18.1692 26.9393L5.49219 26.9258C5.64898 30.2582 6.69865 33.4872 8.53135 36.2748Z" fill="#F5B607"/>
<path d="M25.4569 10.039C25.1856 10.5952 24.621 10.948 24.0022 10.948C23.3833 10.948 22.8187 10.5952 22.5474 10.039L21.403 7.77627C20.6287 7.8847 19.8619 8.04193 19.1074 8.24701L23.0097 20.295C23.6723 20.1796 24.3497 20.1796 25.0123 20.295L28.9365 8.2529C28.1707 8.04165 27.3921 7.88018 26.6055 7.76953L25.4569 10.039Z" fill="#F5B607"/>
<path d="M39.4664 15.9297L29.2129 23.3604C29.5246 23.9556 29.7328 24.5994 29.8285 25.2644L42.4971 25.2787C42.3819 22.6451 41.7043 20.0666 40.5097 17.7166C40.1952 17.1022 39.8469 16.5056 39.4664 15.9297Z" fill="#F5B607"/>
<path d="M41.6182 31.8419C42.1292 30.2606 42.4252 28.6178 42.4982 26.9576L29.8296 26.9492C29.7393 27.6183 29.529 28.2655 29.209 28.86L39.4532 36.3185C40.3728 34.9304 41.1011 33.4246 41.6182 31.8419Z" fill="#F5B607"/>
<path d="M38.461 37.6756L28.2117 30.2129C27.7435 30.6925 27.197 31.0889 26.5957 31.3851L30.498 43.4339C33.6199 42.2618 36.3699 40.2732 38.461 37.6756Z" fill="#F5B607"/>
<path d="M1.26398 48.0006H15.2817C14.1023 47.5321 12.9629 46.9689 11.8745 46.3164H1.26398C0.798898 46.3164 0.421875 46.6934 0.421875 47.1585C0.421875 47.6236 0.798898 48.0006 1.26398 48.0006Z" fill="#F5B607"/>
<path d="M32.6777 48.0006H46.7367C47.2018 48.0006 47.5788 47.6236 47.5788 47.1585C47.5788 46.6934 47.2018 46.3164 46.7367 46.3164H36.1043C35.0089 46.9685 33.8631 47.5317 32.6777 48.0006Z" fill="#F5B607"/>
<path d="M30.5322 8.78906L26.6113 20.8211C27.2135 21.1166 27.7604 21.5134 28.2282 21.9941L38.485 14.5592C36.4084 11.948 33.6587 9.953 30.5322 8.78906Z" fill="#F5B607"/>
<path d="M20.2484 28.0073C21.257 30.0238 23.6705 30.8942 25.7341 29.9855C27.7976 29.0768 28.785 26.7088 27.9784 24.6032C27.1718 22.4977 24.8549 21.3956 22.7124 22.0982H22.7057C21.5337 22.4756 20.5862 23.3479 20.1134 24.4846C19.6405 25.6214 19.6899 26.9084 20.2484 28.0056V28.0073ZM21.6 25.3125C21.9401 24.2743 22.9091 23.5723 24.0017 23.5727C24.4668 23.5727 24.8438 23.9498 24.8438 24.4148C24.8438 24.8799 24.4668 25.2569 24.0017 25.2569C23.637 25.2579 23.3145 25.4935 23.2025 25.8405C23.1311 26.0526 23.1491 26.2845 23.2522 26.483C23.4445 26.8954 23.2744 27.386 22.8681 27.5908C22.4618 27.7957 21.9663 27.6407 21.749 27.2409C21.4467 26.6445 21.3931 25.9526 21.6 25.3167V25.3125Z" fill="#F5B607"/>
<path d="M6.3834 20.3538C5.86896 21.9345 5.56985 23.5774 5.49414 25.238L18.1704 25.2515C18.2176 24.9181 18.2931 24.5893 18.396 24.2687C18.5019 23.9489 18.6354 23.639 18.7952 23.3424L8.55519 15.8906C7.63328 17.2736 6.90273 18.7749 6.3834 20.3538Z" fill="#F5B607"/>
<path d="M28.8952 43.9588L24.992 31.9041C24.3318 32.0264 23.6548 32.0264 22.9946 31.9041L19.0645 43.9588C22.2808 44.8499 25.6789 44.8499 28.8952 43.9588Z" fill="#F5B607"/>
<path d="M17.4617 43.4326L21.3893 31.3804C20.7854 31.0864 20.2369 30.6901 19.7683 30.209L9.51562 37.6431C11.5902 40.2579 14.3369 42.2592 17.4617 43.4326Z" fill="#F5B607"/>
</g>
<defs>
<clipPath id="clip0_445_977">
<rect width="48" height="48" fill="white"/>
</clipPath>
</defs>
</svg>
