<svg width="70" height="70" viewBox="0 0 70 70" fill="none" xmlns="http://www.w3.org/2000/svg">
<path d="M26.6585 33.7754C26.4772 35.1355 25.3891 35.1355 24.3917 35.1355H23.8476L24.301 32.5059C24.301 32.3246 24.4824 32.2339 24.6637 32.2339H24.9357C25.6611 32.2339 26.2958 32.2339 26.6585 32.5966C26.6585 32.9593 26.6585 33.322 26.6585 33.7754ZM26.2052 30.1484H22.3062C22.0342 30.1484 21.8528 30.3298 21.7622 30.6018L20.2207 40.5759C20.2207 40.7572 20.3114 40.9386 20.5834 40.9386H22.3969C22.6689 40.9386 22.8502 40.7573 22.9409 40.4852L23.3943 37.765C23.3943 37.493 23.6663 37.3117 23.9383 37.3117H25.2078C27.7466 37.3117 29.1974 36.0422 29.6508 33.594C29.8321 32.506 29.6508 31.6899 29.1974 31.0552C28.472 30.5111 27.4746 30.1484 26.2052 30.1484Z" fill="#263577"/>
<path d="M35.1809 37.403C34.9996 38.4911 34.1835 39.2165 33.0954 39.2165C32.5514 39.2165 32.098 39.0351 31.826 38.6724C31.554 38.3098 31.4633 37.8564 31.554 37.403C31.7353 36.3149 32.5514 35.5895 33.6395 35.5895C34.1835 35.5895 34.6369 35.7709 34.9089 36.1336C35.0902 36.4056 35.2716 36.859 35.1809 37.403ZM37.7198 33.7761H35.9063C35.725 33.7761 35.6343 33.8667 35.5436 34.0481L35.4529 34.5921L35.3623 34.4108C34.9996 33.8667 34.0928 33.5947 33.1861 33.5947C31.1006 33.5947 29.3778 35.1362 29.0151 37.3123C28.8338 38.4004 29.1058 39.3978 29.7405 40.1232C30.2845 40.7579 31.1006 41.03 32.098 41.03C33.7301 41.03 34.6369 39.9419 34.6369 39.9419L34.5462 40.4859C34.5462 40.6673 34.6369 40.8486 34.9089 40.8486H36.541C36.813 40.8486 36.9944 40.6673 37.0851 40.3952L38.0825 34.0481C38.0825 33.9574 37.9918 33.7761 37.7198 33.7761Z" fill="#263577"/>
<path d="M47.6039 33.7754H45.6998C45.5184 33.7754 45.3371 33.8661 45.2464 34.0474L42.7076 37.8557L41.6195 34.2288C41.5288 33.9567 41.3474 33.8661 41.0754 33.8661H39.2619C39.0806 33.8661 38.8993 34.0474 38.9899 34.3194L41.0754 40.3039L39.1713 43.0241C38.9899 43.2054 39.1713 43.5681 39.4433 43.5681H41.3475C41.5288 43.5681 41.7102 43.4775 41.8008 43.2961L47.9666 34.3194C48.0573 34.0474 47.876 33.7754 47.6039 33.7754Z" fill="#263577"/>
<path d="M54.2227 33.7759C54.0414 35.136 52.9533 35.136 51.9559 35.136H51.4119L51.8652 32.5064C51.8652 32.3251 52.0466 32.2344 52.2279 32.2344H52.4999C53.2253 32.2344 53.86 32.2344 54.2227 32.5971C54.3134 32.9598 54.3134 33.3225 54.2227 33.7759ZM53.7694 30.1489H49.8704C49.5984 30.1489 49.417 30.3303 49.3264 30.6023L47.7849 40.5764C47.7849 40.7577 47.8756 40.9391 48.1476 40.9391H50.1424C50.3238 40.9391 50.5051 40.8484 50.5051 40.5764L50.9585 37.7655C50.9585 37.4935 51.2305 37.3121 51.5025 37.3121H52.772C55.3108 37.3121 56.7616 36.0427 57.215 33.5945C57.3963 32.5064 57.215 31.6904 56.7616 31.0557C56.1269 30.5116 55.1295 30.1489 53.7694 30.1489Z" fill="#2199D6"/>
<path d="M62.8372 37.403C62.6558 38.4911 61.8398 39.2165 60.7517 39.2165C60.2076 39.2165 59.7543 39.0351 59.4823 38.6724C59.2102 38.3098 59.1195 37.8564 59.2102 37.403C59.3916 36.3149 60.2076 35.5895 61.2957 35.5895C61.8398 35.5895 62.2931 35.7709 62.5651 36.1336C62.7465 36.4056 62.9278 36.859 62.8372 37.403ZM65.376 33.7761H63.5626C63.3812 33.7761 63.2905 33.8667 63.1998 34.0481L63.1092 34.5921L63.0185 34.4108C62.6558 33.8667 61.7491 33.5947 60.8424 33.5947C58.7569 33.5947 57.0341 35.1362 56.6714 37.3123C56.49 38.4004 56.762 39.3978 57.3967 40.1232C57.9408 40.7579 58.7569 41.03 59.7543 41.03C61.3864 41.03 62.2931 39.9419 62.2931 39.9419L62.2025 40.4859C62.2025 40.6673 62.2931 40.8486 62.5651 40.8486H64.1973C64.4693 40.8486 64.6506 40.6673 64.7413 40.3952L65.7387 34.0481C65.7387 33.9574 65.5574 33.7761 65.376 33.7761Z" fill="#2199D6"/>
<path d="M67.5521 30.4205L65.9199 40.5759C65.9199 40.7572 66.0106 40.9386 66.2826 40.9386H67.9147C68.1868 40.9386 68.3681 40.7573 68.4588 40.4852L70.0002 30.5111C70.0002 30.3298 69.9096 30.1484 69.6375 30.1484H67.8241C67.7334 30.1484 67.6427 30.3298 67.5521 30.4205Z" fill="#2199D6"/>
<path d="M4.08035 42.843L4.35236 40.9388H3.71764H0.544067L2.72024 27.0658C2.72024 27.0658 2.72023 26.9751 2.81091 26.9751H2.90159H8.25132C9.97412 26.9751 11.2436 27.3378 11.8783 28.0632C12.1503 28.4259 12.3316 28.7886 12.4223 29.1513C12.513 29.6046 12.513 30.058 12.4223 30.6927V31.0554L12.6943 31.2368C12.9664 31.3274 13.1477 31.5088 13.3291 31.6901C13.6011 31.9621 13.7824 32.3248 13.7824 32.7782C13.8731 33.2316 13.8731 33.7756 13.6917 34.4103C13.5104 35.1357 13.329 35.6798 13.057 36.2238C12.785 36.6772 12.4223 37.0399 12.0596 37.4026C11.6969 37.6746 11.1529 37.8559 10.6995 38.0373C10.1555 38.1279 9.61143 38.2186 8.97671 38.2186H8.52335C8.25133 38.2186 7.97931 38.3093 7.70729 38.4906C7.52594 38.672 7.3446 38.944 7.25392 39.216V39.3974L6.70987 42.7523V42.843V42.9337C6.70987 42.9337 6.70987 42.9337 6.6192 42.9337H4.08035V42.843Z" fill="#263577"/>
<path d="M13.057 30.6929C13.057 30.7835 13.057 30.8742 12.9663 30.9649C12.2409 34.5918 9.88341 35.7706 6.80051 35.7706H5.25905C4.89635 35.7706 4.53367 36.0426 4.53367 36.4053L3.7176 41.483L3.53625 42.9338C3.53625 43.2058 3.7176 43.3872 3.89894 43.3872H6.70983C7.07253 43.3872 7.34454 43.1152 7.34454 42.8431V42.6618L7.88859 39.3975V39.2162C7.97926 38.8535 8.25128 38.6722 8.5233 38.6722H8.97667C11.6969 38.6722 13.7824 37.5841 14.3264 34.4105C14.5984 33.0504 14.4171 31.9623 13.7824 31.2369C13.601 31.0556 13.329 30.8742 13.057 30.6929Z" fill="#2199D6"/>
<path d="M12.3311 30.4205C12.2405 30.4205 12.1498 30.3298 11.9684 30.3298C11.8778 30.3298 11.6964 30.2391 11.6057 30.2391C11.1524 30.1484 10.699 30.1484 10.2456 30.1484H6.07465C5.98398 30.1484 5.8933 30.1484 5.80263 30.2391C5.62128 30.3298 5.43994 30.5111 5.43994 30.6925L4.5332 36.3142V36.4956C4.62388 36.1329 4.89589 35.8609 5.25858 35.8609H6.80004C9.88295 35.8609 12.2404 34.5914 12.9658 31.0552C12.9658 30.9645 12.9658 30.8738 13.0565 30.7832C12.8752 30.6925 12.6938 30.6018 12.5125 30.5111C12.4218 30.4205 12.3311 30.4205 12.3311 30.4205Z" fill="#252C5E"/>
<path d="M5.44042 30.6928C5.44042 30.5115 5.62176 30.3301 5.8031 30.2394C5.89378 30.2394 5.98445 30.1488 6.07513 30.1488H10.2461C10.6995 30.1488 11.2435 30.1488 11.6062 30.2394C11.6969 30.2394 11.8782 30.2394 11.9689 30.3301C12.0596 30.3301 12.1503 30.4208 12.3316 30.4208C12.4223 30.4208 12.4223 30.4208 12.5129 30.5115C12.6943 30.6021 12.8756 30.6928 13.057 30.7835C13.2383 29.4234 13.057 28.5166 12.3316 27.7006C11.5155 26.7938 10.0648 26.4312 8.25129 26.4312H2.90155C2.53886 26.4312 2.17616 26.7032 2.17616 27.0659L0 41.0296C0 41.3016 0.181347 41.5736 0.453368 41.5736H3.71761L4.53368 36.3146L5.44042 30.6928Z" fill="#263577"/>
</svg>
