<svg width="70" height="70" viewBox="0 0 70 70" fill="none" xmlns="http://www.w3.org/2000/svg">
<path d="M30.7258 30.0874H28.6549C28.0288 30.0874 27.5472 30.28 27.2583 30.9061L23.3092 39.912H26.1025C26.1025 39.912 26.5841 38.708 26.6804 38.419C26.9693 38.419 29.7144 38.419 30.0997 38.419C30.196 38.7561 30.4368 39.8638 30.4368 39.8638H32.9411L30.7258 30.0874ZM27.4509 36.3963C27.6917 35.8184 28.5104 33.6512 28.5104 33.6512C28.5104 33.6994 28.7512 33.0733 28.8476 32.7362L29.0402 33.6031C29.0402 33.6031 29.57 35.9629 29.6663 36.4445H27.4509V36.3963Z" fill="#3362AB"/>
<path d="M23.5019 36.6852C23.5019 38.7079 21.6718 40.0564 18.8304 40.0564C17.6264 40.0564 16.4706 39.8156 15.8445 39.5266L16.2298 37.3113L16.5669 37.4558C17.4337 37.841 18.0117 37.9855 19.0712 37.9855C19.8417 37.9855 20.6604 37.6966 20.6604 37.0223C20.6604 36.5889 20.3233 36.2999 19.2638 35.8183C18.2525 35.3367 16.904 34.5662 16.904 33.1696C16.904 31.2432 18.7822 29.9429 21.431 29.9429C22.4423 29.9429 23.3092 30.1355 23.839 30.3763L23.4537 32.4953L23.2611 32.3027C22.7795 32.1101 22.1534 31.9174 21.2384 31.9174C20.227 31.9656 19.7454 32.399 19.7454 32.7843C19.7454 33.2177 20.3233 33.5548 21.2384 33.9883C22.7795 34.7107 23.5019 35.5294 23.5019 36.6852Z" fill="#3362AB"/>
<path d="M0 30.1838L0.0481596 29.9912H4.18989C4.7678 29.9912 5.20124 30.1838 5.34572 30.8099L6.26075 35.1443C5.34572 32.8326 3.22669 30.9544 0 30.1838Z" fill="#F9B50B"/>
<path d="M12.0881 30.0877L7.8982 39.8641H5.05678L2.6488 31.677C4.38255 32.7846 5.82734 34.5184 6.35709 35.7224L6.64605 36.7337L9.24667 30.0396H12.0881V30.0877Z" fill="#3362AB"/>
<path d="M13.1957 30.0396H15.8445L14.1589 39.8641H11.5101L13.1957 30.0396Z" fill="#3362AB"/>
<g clip-path="url(#clip0_342_426)">
<path d="M69.3267 47.4938V47.5607H69.3882C69.4018 47.5607 69.4135 47.5574 69.4219 47.5522C69.4297 47.547 69.4342 47.538 69.4342 47.5269C69.4342 47.5159 69.4297 47.5075 69.4219 47.5023C69.4135 47.4964 69.4018 47.4938 69.3882 47.4938H69.3267ZM69.3889 47.4471C69.4206 47.4471 69.4452 47.4542 69.4627 47.4685C69.4802 47.4828 69.4886 47.5023 69.4886 47.5269C69.4886 47.5477 69.4821 47.5646 69.4679 47.5782C69.4543 47.5912 69.4348 47.5996 69.4089 47.6028L69.4905 47.6969H69.4271L69.3513 47.6035H69.3267V47.6969H69.2736V47.4471H69.3889ZM69.3727 47.7832C69.4018 47.7832 69.429 47.7774 69.4536 47.7664C69.4789 47.7553 69.5009 47.7404 69.5197 47.7216C69.5384 47.7028 69.5533 47.6807 69.5643 47.6548C69.5747 47.6294 69.5805 47.6022 69.5805 47.573C69.5805 47.5438 69.5747 47.5165 69.5643 47.4912C69.5533 47.4659 69.5384 47.4432 69.5197 47.4244C69.5009 47.4056 69.4789 47.3907 69.4536 47.3796C69.429 47.3692 69.4018 47.3641 69.3727 47.3641C69.3436 47.3641 69.3157 47.3692 69.2905 47.3796C69.2646 47.3907 69.2419 47.4056 69.2231 47.4244C69.2044 47.4432 69.1895 47.4659 69.1791 47.4912C69.1681 47.5165 69.1629 47.5438 69.1629 47.573C69.1629 47.6022 69.1681 47.6294 69.1791 47.6548C69.1895 47.6807 69.2044 47.7028 69.2231 47.7216C69.2419 47.7404 69.2646 47.7553 69.2905 47.7664C69.3157 47.7774 69.3436 47.7832 69.3727 47.7832ZM69.3727 47.3037C69.4109 47.3037 69.4459 47.3108 69.4795 47.3251C69.5125 47.3387 69.541 47.3582 69.5663 47.3829C69.5909 47.4069 69.6103 47.4354 69.6245 47.4685C69.6388 47.501 69.6459 47.536 69.6459 47.573C69.6459 47.61 69.6388 47.645 69.6245 47.6775C69.6103 47.7099 69.5909 47.7385 69.5663 47.7631C69.541 47.7871 69.5125 47.8066 69.4795 47.8209C69.4459 47.8351 69.4109 47.8423 69.3727 47.8423C69.3338 47.8423 69.2982 47.8351 69.2646 47.8209C69.2309 47.8066 69.2018 47.7871 69.1772 47.7631C69.1526 47.7385 69.1331 47.7099 69.1189 47.6775C69.1047 47.645 69.0975 47.61 69.0975 47.573C69.0975 47.536 69.1047 47.501 69.1189 47.4685C69.1331 47.4354 69.1526 47.4069 69.1772 47.3829C69.2018 47.3582 69.2309 47.3387 69.2646 47.3251C69.2982 47.3108 69.3338 47.3037 69.3727 47.3037ZM44.1483 46.3414C44.1483 45.8651 44.4597 45.4738 44.9685 45.4738C45.4548 45.4738 45.783 45.8482 45.783 46.3414C45.783 46.8346 45.4548 47.209 44.9685 47.209C44.4597 47.209 44.1483 46.8177 44.1483 46.3414ZM46.3372 46.3414V44.9865H45.7493V45.3155C45.5629 45.0715 45.28 44.9184 44.8954 44.9184C44.1372 44.9184 43.5429 45.5141 43.5429 46.3414C43.5429 47.1694 44.1372 47.7644 44.8954 47.7644C45.28 47.7644 45.5629 47.6113 45.7493 47.3673V47.6963H46.3372V46.3414ZM66.2029 46.3414C66.2029 45.8651 66.5143 45.4738 67.0232 45.4738C67.51 45.4738 67.8376 45.8482 67.8376 46.3414C67.8376 46.8346 67.51 47.209 67.0232 47.209C66.5143 47.209 66.2029 46.8177 66.2029 46.3414ZM68.3925 46.3414V43.8983H67.804V45.3155C67.6175 45.0715 67.3346 44.9184 66.95 44.9184C66.1919 44.9184 65.5975 45.5141 65.5975 46.3414C65.5975 47.1694 66.1919 47.7644 66.95 47.7644C67.3346 47.7644 67.6175 47.6113 67.804 47.3673V47.6963H68.3925V46.3414ZM53.6344 45.4459C54.0131 45.4459 54.2565 45.6841 54.3187 46.1033H52.9157C52.9785 45.712 53.2155 45.4459 53.6344 45.4459ZM53.646 44.9184C52.8536 44.9184 52.2994 45.4965 52.2994 46.3414C52.2994 47.2031 52.8762 47.7644 53.6855 47.7644C54.0927 47.7644 54.4657 47.6625 54.7939 47.3848L54.5058 46.9481C54.2792 47.1292 53.9905 47.2317 53.7192 47.2317C53.3404 47.2317 52.9954 47.0558 52.9105 46.5679H54.9182C54.924 46.4945 54.9299 46.4206 54.9299 46.3414C54.924 45.4965 54.4035 44.9184 53.646 44.9184ZM60.7444 46.3414C60.7444 45.8651 61.0558 45.4738 61.5647 45.4738C62.0509 45.4738 62.3792 45.8482 62.3792 46.3414C62.3792 46.8346 62.0509 47.209 61.5647 47.209C61.0558 47.209 60.7444 46.8177 60.7444 46.3414ZM62.9334 46.3414V44.9865H62.3455V45.3155C62.1584 45.0715 61.8761 44.9184 61.4916 44.9184C60.7334 44.9184 60.1391 45.5141 60.1391 46.3414C60.1391 47.1694 60.7334 47.7644 61.4916 47.7644C61.8761 47.7644 62.1584 47.6113 62.3455 47.3673V47.6963H62.9334V46.3414ZM57.4244 46.3414C57.4244 47.1635 57.9954 47.7644 58.8669 47.7644C59.2741 47.7644 59.5454 47.6736 59.8393 47.4413L59.557 46.965C59.3363 47.124 59.1045 47.209 58.8494 47.209C58.38 47.2031 58.0349 46.8631 58.0349 46.3414C58.0349 45.8197 58.38 45.4797 58.8494 45.4738C59.1045 45.4738 59.3363 45.5588 59.557 45.7178L59.8393 45.2415C59.5454 45.0092 59.2741 44.9184 58.8669 44.9184C57.9954 44.9184 57.4244 45.5192 57.4244 46.3414ZM65.0038 44.9184C64.6646 44.9184 64.4438 45.0774 64.291 45.3155V44.9865H63.7083V47.6963H64.2969V46.1772C64.2969 45.7288 64.4891 45.4797 64.8737 45.4797C64.9928 45.4797 65.1171 45.4965 65.2415 45.5478L65.4227 44.9923C65.2926 44.9411 65.123 44.9184 65.0038 44.9184ZM49.2448 45.2019C48.9619 45.0151 48.5721 44.9184 48.1422 44.9184C47.4573 44.9184 47.0164 45.2474 47.0164 45.7859C47.0164 46.2278 47.3446 46.5004 47.9493 46.5854L48.227 46.625C48.5495 46.6704 48.7016 46.7554 48.7016 46.9085C48.7016 47.1181 48.4867 47.2375 48.0853 47.2375C47.678 47.2375 47.3841 47.1071 47.186 46.954L46.9089 47.4127C47.2313 47.6509 47.6385 47.7644 48.0794 47.7644C48.8602 47.7644 49.3128 47.3958 49.3128 46.88C49.3128 46.4037 48.9567 46.1545 48.3682 46.0695L48.0911 46.0293C47.8366 45.9955 47.6327 45.9449 47.6327 45.7632C47.6327 45.5647 47.825 45.4459 48.1474 45.4459C48.4925 45.4459 48.8266 45.5764 48.9904 45.6782L49.2448 45.2019ZM56.8301 44.9184C56.4908 44.9184 56.27 45.0774 56.1179 45.3155V44.9865H55.5352V47.6963H56.1231V46.1772C56.1231 45.7288 56.3154 45.4797 56.6999 45.4797C56.8191 45.4797 56.9434 45.4965 57.0677 45.5478L57.249 44.9923C57.1188 44.9411 56.9492 44.9184 56.8301 44.9184ZM51.8132 44.9865H50.8517V44.1644H50.2574V44.9865H49.709V45.5251H50.2574V46.7612C50.2574 47.39 50.5008 47.7644 51.1962 47.7644C51.4512 47.7644 51.7452 47.6853 51.9316 47.5548L51.762 47.05C51.5866 47.1519 51.3943 47.2031 51.2415 47.2031C50.9475 47.2031 50.8517 47.0214 50.8517 46.7495V45.5251H51.8132V44.9865ZM43.023 47.6963V45.9955C43.023 45.3551 42.6158 44.9242 41.9593 44.9184C41.6142 44.9125 41.2581 45.0202 41.0089 45.4005C40.8224 45.1001 40.5285 44.9184 40.1154 44.9184C39.8267 44.9184 39.5444 45.0034 39.3236 45.3207V44.9865H38.7351V47.6963H39.3288V46.1941C39.3288 45.7236 39.5891 45.4738 39.9911 45.4738C40.3815 45.4738 40.579 45.7288 40.579 46.1883V47.6963H41.1733V46.1941C41.1733 45.7236 41.4446 45.4738 41.835 45.4738C42.2364 45.4738 42.4287 45.7288 42.4287 46.1883V47.6963H43.023Z" fill="#231F20"/>
<path d="M69.6891 38.6846V38.2887H69.5862L69.4671 38.5606L69.3486 38.2887H69.245V38.6846H69.3182V38.3861L69.4295 38.6437H69.5053L69.6166 38.3854V38.6846H69.6891ZM69.0359 38.6846V38.3562H69.168V38.2894H68.8313V38.3562H68.9634V38.6846H69.0359Z" fill="#F79410"/>
<path d="M57.9836 40.3873H49.074V24.3389H57.9836V40.3873Z" fill="#FF5F00"/>
<path d="M49.6448 32.3619C49.6448 29.1064 51.1656 26.2065 53.5339 24.3377C51.8021 22.9711 49.6163 22.1555 47.2409 22.1555C41.6174 22.1555 37.0588 26.725 37.0588 32.3619C37.0588 37.9989 41.6174 42.5684 47.2409 42.5684C49.6163 42.5684 51.8021 41.7527 53.5339 40.3861C51.1656 38.5173 49.6448 35.6174 49.6448 32.3619Z" fill="#EB001B"/>
<path d="M69.9999 32.3619C69.9999 37.9989 65.4414 42.5684 59.8178 42.5684C57.4424 42.5684 55.2567 41.7527 53.5242 40.3861C55.8931 38.5173 57.4139 35.6174 57.4139 32.3619C57.4139 29.1064 55.8931 26.2065 53.5242 24.3377C55.2567 22.9711 57.4424 22.1555 59.8178 22.1555C65.4414 22.1555 69.9999 26.725 69.9999 32.3619Z" fill="#F79E1B"/>
</g>
<defs>
<clipPath id="clip0_342_426">
<rect width="32.9412" height="32.9412" fill="white" transform="translate(37.0588 18.5293)"/>
</clipPath>
</defs>
</svg>
