<svg width="12" height="12" viewBox="0 0 12 12" fill="none" xmlns="http://www.w3.org/2000/svg">
<g clip-path="url(#clip0_1145_46439)">
<path d="M6.01419 9.51507C6.17773 9.51527 6.33942 9.48059 6.48849 9.41334C6.63756 9.34609 6.77058 9.24782 6.87865 9.12509L11.7839 3.54932C11.939 3.36455 12.0156 3.12646 11.9974 2.88595C11.9791 2.64545 11.8675 2.42161 11.6864 2.26232C11.5053 2.10302 11.2691 2.02091 11.0282 2.03353C10.7873 2.04616 10.561 2.15252 10.3975 2.32987L6.10818 7.20567C6.09645 7.21905 6.082 7.22977 6.06579 7.23712C6.04958 7.24447 6.03199 7.24827 6.01419 7.24827C5.99639 7.24827 5.9788 7.24447 5.96259 7.23712C5.94638 7.22977 5.93192 7.21905 5.92019 7.20567L1.63087 2.32987C1.55176 2.23559 1.45459 2.15807 1.34509 2.10187C1.23559 2.04568 1.11596 2.01194 0.993236 2.00264C0.870509 1.99334 0.747161 2.00867 0.630443 2.04772C0.513724 2.08678 0.40599 2.14877 0.313572 2.23005C0.221154 2.31134 0.145919 2.41028 0.0922871 2.52106C0.0386544 2.63184 0.00770763 2.75222 0.0012665 2.87513C-0.00517558 2.99804 0.0130177 3.121 0.0547762 3.23678C0.0965347 3.35255 0.161015 3.45882 0.24443 3.54932L5.14822 9.12308C5.25649 9.24612 5.3897 9.34471 5.53901 9.41229C5.68832 9.47988 5.8503 9.51491 6.01419 9.51507Z" fill="white"/>
</g>
<defs>
<clipPath id="clip0_1145_46439">
<rect width="12" height="12" fill="white" transform="matrix(-1 -8.74228e-08 -8.74228e-08 1 12 1.04907e-06)"/>
</clipPath>
</defs>
</svg>
