<svg width="24" height="24" viewBox="0 0 24 24" fill="none" xmlns="http://www.w3.org/2000/svg">
<path d="M11.1515 19.1303V12.8484H4.86964C4.40083 12.8484 4.02112 12.4687 4.02112 11.9999C4.02112 11.5311 4.40083 11.1514 4.86964 11.1514H11.1515V4.86952C11.1515 4.40071 11.5312 4.021 12 4.021C12.4689 4.021 12.8486 4.40071 12.8486 4.86952V11.1514H19.1304C19.5993 11.1514 19.979 11.5311 19.979 11.9999C19.979 12.4687 19.5993 12.8484 19.1304 12.8484H12.8486V19.1303C12.8486 19.5991 12.4689 19.9789 12 19.9789C11.5312 19.9789 11.1515 19.5991 11.1515 19.1303Z" fill="white"/>
</svg>
