<svg width="40" height="40" viewBox="0 0 40 40" fill="none" xmlns="http://www.w3.org/2000/svg">
<rect width="40" height="40" rx="20" fill="#FE5151"/>
<path d="M13.7832 26H11.6709V20.2168C11.6709 20.0573 11.6732 19.8613 11.6777 19.6289C11.6823 19.3919 11.6891 19.1504 11.6982 18.9043C11.7074 18.6536 11.7165 18.4281 11.7256 18.2275C11.6755 18.2868 11.5729 18.3893 11.418 18.5352C11.2676 18.6764 11.1263 18.804 10.9941 18.918L9.8457 19.8408L8.82715 18.5693L12.0469 16.0059H13.7832V26ZM20.0176 15.876C20.5918 15.876 21.1204 15.9648 21.6035 16.1426C22.0911 16.3203 22.4808 16.5892 22.7725 16.9492C23.0641 17.3047 23.21 17.7513 23.21 18.2891C23.21 18.6901 23.1302 19.041 22.9707 19.3418C22.8158 19.6426 22.6038 19.9069 22.335 20.1348C22.0661 20.3581 21.7607 20.554 21.4189 20.7227C21.7744 20.9095 22.1117 21.1283 22.4307 21.3789C22.7497 21.625 23.0094 21.9144 23.21 22.2471C23.415 22.5798 23.5176 22.9671 23.5176 23.4092C23.5176 23.9652 23.3695 24.4482 23.0732 24.8584C22.777 25.264 22.3669 25.5785 21.8428 25.8018C21.3187 26.0251 20.7103 26.1367 20.0176 26.1367C19.2702 26.1367 18.6344 26.0296 18.1104 25.8154C17.5863 25.6012 17.1875 25.2959 16.9141 24.8994C16.6406 24.4984 16.5039 24.0199 16.5039 23.4639C16.5039 23.0081 16.5882 22.6117 16.7568 22.2744C16.93 21.9372 17.1624 21.6478 17.4541 21.4062C17.7458 21.1602 18.0671 20.9505 18.418 20.7773C18.1217 20.5905 17.8506 20.3786 17.6045 20.1416C17.363 19.9046 17.1693 19.6335 17.0234 19.3281C16.8822 19.0228 16.8115 18.6719 16.8115 18.2754C16.8115 17.7467 16.9596 17.3047 17.2559 16.9492C17.5566 16.5938 17.9508 16.3271 18.4385 16.1494C18.9261 15.9671 19.4525 15.876 20.0176 15.876ZM18.459 23.3408C18.459 23.7008 18.5866 23.9993 18.8418 24.2363C19.1016 24.4688 19.4844 24.585 19.9902 24.585C20.5143 24.585 20.9062 24.4733 21.166 24.25C21.4258 24.0221 21.5557 23.7236 21.5557 23.3545C21.5557 23.0993 21.4805 22.876 21.3301 22.6846C21.1842 22.4932 20.9997 22.3223 20.7764 22.1719C20.5531 22.0169 20.3275 21.8734 20.0996 21.7412L19.915 21.6455C19.6234 21.7777 19.3682 21.9258 19.1494 22.0898C18.9352 22.2539 18.7666 22.4385 18.6436 22.6436C18.5205 22.8486 18.459 23.0811 18.459 23.3408ZM20.0039 17.4209C19.6576 17.4209 19.3704 17.5098 19.1426 17.6875C18.9147 17.8652 18.8008 18.1159 18.8008 18.4395C18.8008 18.6673 18.8555 18.8678 18.9648 19.041C19.0788 19.2096 19.2269 19.3577 19.4092 19.4854C19.596 19.613 19.7988 19.7314 20.0176 19.8408C20.2272 19.7406 20.4232 19.6289 20.6055 19.5059C20.7878 19.3828 20.9359 19.2347 21.0498 19.0615C21.1637 18.8883 21.2207 18.681 21.2207 18.4395C21.2207 18.1159 21.1045 17.8652 20.8721 17.6875C20.6442 17.5098 20.3548 17.4209 20.0039 17.4209ZM28.7676 20.3193H31.4131V21.8164H28.7676V24.4482H27.2705V21.8164H24.625V20.3193H27.2705V17.6533H28.7676V20.3193Z" fill="white"/>
</svg>
