<svg width="24" height="24" viewBox="0 0 24 24" fill="none" xmlns="http://www.w3.org/2000/svg">
<path d="M16.498 0C15.2185 0.0884995 13.723 0.907495 12.8515 1.97399C12.0565 2.94148 11.4025 4.37847 11.6575 5.77497C13.0555 5.81847 14.5 4.97997 15.337 3.89548C16.12 2.88598 16.7125 1.45799 16.498 0Z" fill="white"/>
<path d="M21.5573 8.04777C20.3288 6.50728 18.6023 5.61328 16.9718 5.61328C14.8193 5.61328 13.9088 6.64378 12.4133 6.64378C10.8713 6.64378 9.69984 5.61628 7.83835 5.61628C6.00987 5.61628 4.06288 6.73377 2.82838 8.64476C1.09289 11.3357 1.38989 16.3952 4.20238 20.7047C5.20887 22.2467 6.55286 23.9807 8.31085 23.9957C9.87534 24.0107 10.3163 22.9922 12.4358 22.9817C14.5553 22.9697 14.9573 24.0092 16.5188 23.9927C18.2783 23.9792 19.6958 22.0577 20.7023 20.5157C21.4238 19.4102 21.6923 18.8537 22.2518 17.6057C18.1823 16.0562 17.5298 10.2693 21.5573 8.04777Z" fill="white"/>
</svg>
