<svg width="40" height="40" viewBox="0 0 40 40" fill="none" xmlns="http://www.w3.org/2000/svg">
<g clip-path="url(#clip0_1901_8983)">
<path d="M31.4047 9.35641H29.4781C30.2096 8.38086 30.6435 7.17 30.6435 5.85961V5.84055C30.6435 2.62008 28.0235 0 24.803 0H24.7839C22.8424 0 21.1202 0.953125 20.0576 2.41523C18.9951 0.953125 17.2728 0 15.3313 0H15.3122C12.0917 0 9.47166 2.62008 9.47166 5.84055V5.85961C9.47166 7.17 9.90557 8.38086 10.6371 9.35641H8.5951C6.41377 9.35641 4.63916 11.1311 4.63916 13.3124V36.0441C4.63916 38.2255 6.41377 40.0001 8.5951 40.0001H31.4047C33.586 40.0001 35.3606 38.2255 35.3606 36.0441V13.3123C35.3606 11.1311 33.586 9.35641 31.4047 9.35641ZM21.6099 11.7002V20.7245H18.3899V11.7002H21.6099ZM32.978 23.0681V26.2882H7.02189V23.0681H32.978ZM33.0169 13.3123V20.7244H23.9537V11.7002H31.4047C32.2937 11.7002 33.0169 12.4234 33.0169 13.3123ZM21.2872 5.84055C21.2872 3.91242 22.8559 2.34375 24.784 2.34375H24.8031C26.7312 2.34375 28.2999 3.91242 28.2999 5.84055V5.85961C28.2999 7.78773 26.7312 9.35641 24.8031 9.35641H21.2872V5.84055ZM11.8154 5.85961V5.84055C11.8154 3.91242 13.3841 2.34375 15.3122 2.34375H15.3313C17.2594 2.34375 18.8281 3.91242 18.8281 5.84055V9.35641H15.3122C13.3841 9.35641 11.8154 7.78773 11.8154 5.85961ZM8.59518 11.7002H16.0462V20.7245H6.98299V13.3124C6.98299 12.4234 7.70619 11.7002 8.59518 11.7002ZM6.98299 36.0441V28.632H16.0462V37.6562H8.59518C7.70619 37.6562 6.98299 36.933 6.98299 36.0441ZM18.3899 37.6562V28.632H21.61V37.6562H18.3899ZM31.4047 37.6562H23.9537V28.632H33.0169V36.0441C33.0169 36.933 32.2937 37.6562 31.4047 37.6562Z" fill="#4DA534"/>
</g>
<defs>
<clipPath id="clip0_1901_8983">
<rect width="40" height="40" fill="white"/>
</clipPath>
</defs>
</svg>
