<svg width="64" height="40" viewBox="0 0 64 40" fill="none" xmlns="http://www.w3.org/2000/svg">
<g clip-path="url(#clip0_1901_8278)">
<path d="M64 37.6419C64 38.2673 63.7492 38.8671 63.3029 39.3093C62.8565 39.7516 62.2511 40 61.6198 40H2.38017C1.74891 40 1.1435 39.7516 0.697134 39.3093C0.250767 38.8671 0 38.2673 0 37.6419L0 2.35808C0 1.73268 0.250767 1.13289 0.697134 0.690665C1.1435 0.24844 1.74891 0 2.38017 0L61.6198 0C62.2511 0 62.8565 0.24844 63.3029 0.690665C63.7492 1.13289 64 1.73268 64 2.35808V37.6419Z" fill="#1A1F71"/>
<path d="M24.3256 11.6136L17.1851 28.4695H12.513L8.98679 15.0197C8.94782 14.7049 8.83082 14.4046 8.64624 14.1456C8.46166 13.8865 8.21523 13.6767 7.92893 13.535C6.55558 12.8874 5.1038 12.4178 3.60938 12.1376L3.69753 11.6136H11.1906C11.6856 11.6094 12.1649 11.7847 12.5384 12.1064C12.9119 12.4282 13.1537 12.8741 13.2182 13.3603L15.0694 23.142L19.6535 11.7009H24.3256V11.6136ZM42.5736 22.9673C42.5736 18.5131 36.4028 18.2511 36.4028 16.3297C36.4028 15.7184 37.0198 15.107 38.254 14.9323C39.7404 14.7716 41.2418 15.0448 42.5736 15.7184L43.367 12.1376C42.0416 11.6419 40.6401 11.3761 39.2237 11.3516C34.9041 11.3516 31.8187 13.6223 31.8187 16.9411C31.8187 19.3865 34.0226 20.6965 35.6975 21.4826C37.3725 22.2686 37.9895 22.7926 37.9895 23.5786C37.9895 24.714 36.6672 25.238 35.3449 25.238C33.7833 25.2491 32.2418 24.8897 30.849 24.19L30.0557 27.8581C31.6045 28.4398 33.2477 28.7358 34.9041 28.7315C39.4882 28.7315 42.4854 26.4607 42.5736 22.9673ZM54.0336 28.4695H58.0887L54.5625 11.6136H50.7719C50.374 11.6045 49.9829 11.717 49.6517 11.9358C49.3205 12.1545 49.0653 12.4689 48.9207 12.8363L42.3091 28.4695H46.8931L47.7747 25.9367H53.4165L54.0336 28.4695ZM49.097 22.5306L51.389 16.2424L52.7113 22.5306H49.097ZM30.5846 11.6136L26.9703 28.4695H22.5625L26.1769 11.6136H30.5846Z" fill="white"/>
</g>
<defs>
<clipPath id="clip0_1901_8278">
<rect width="64" height="40" fill="white"/>
</clipPath>
</defs>
</svg>
