<svg width="48" height="48" viewBox="0 0 48 48" fill="none" xmlns="http://www.w3.org/2000/svg">
<g clip-path="url(#clip0_445_1033)">
<path d="M36.011 33.1718C36.0316 33.1932 36.047 33.2189 36.0668 33.2412C36.1595 33.3486 36.2435 33.4632 36.3179 33.5841C36.347 33.6304 36.3719 33.6775 36.3976 33.7255C36.4568 33.836 36.5081 33.9506 36.551 34.0684C36.569 34.1172 36.5888 34.1652 36.6042 34.2149C36.6576 34.3823 36.6944 34.5546 36.7139 34.7292L42.7139 31.3375C42.0254 30.8484 41.1409 30.7277 40.3465 31.0144L35.5996 32.8092C35.6099 32.8169 35.6176 32.8272 35.6279 32.8341C35.7659 32.9344 35.8942 33.0475 36.011 33.1718Z" fill="#F5B607"/>
<path d="M28.5802 39.3228L31.4259 37.7148H25.1602L27.771 39.3357C28.0259 39.467 28.3296 39.4622 28.5802 39.3228Z" fill="#F5B607"/>
<path d="M0.857143 44.5717H6C6.47339 44.5717 6.85714 44.188 6.85714 43.7146V43.1754L6.84857 32.444C6.84857 32.4243 6.85543 32.4063 6.85714 32.3866V31.7146C6.85714 31.2412 6.47339 30.8574 6 30.8574H0.857143C0.383756 30.8574 0 31.2412 0 31.7146V43.7146C0 44.188 0.383756 44.5717 0.857143 44.5717ZM2.57143 32.5717H4.28571C4.7591 32.5717 5.14286 32.9555 5.14286 33.4289C5.14286 33.9022 4.7591 34.286 4.28571 34.286H2.57143C2.09804 34.286 1.71429 33.9022 1.71429 33.4289C1.71429 32.9555 2.09804 32.5717 2.57143 32.5717ZM2.57143 41.1431H4.28571C4.7591 41.1431 5.14286 41.5269 5.14286 42.0003C5.14286 42.4737 4.7591 42.8574 4.28571 42.8574H2.57143C2.09804 42.8574 1.71429 42.4737 1.71429 42.0003C1.71429 41.5269 2.09804 41.1431 2.57143 41.1431Z" fill="#F5B607"/>
<path d="M46.524 31.1503L44.5791 32.25L44.5723 32.2543L29.418 40.8171C29.225 40.9247 29.019 41.007 28.8051 41.0623C28.7554 41.0751 28.704 41.0717 28.6534 41.082C28.4934 41.1178 28.3304 41.1385 28.1666 41.1437H28.1623C28.0928 41.1437 28.0251 41.1231 27.9566 41.1171C27.8079 41.1103 27.6601 41.0899 27.5151 41.0563C27.2998 41 27.0924 40.9168 26.898 40.8085L21.9128 37.7134H18.7294C18.256 37.7134 17.8723 37.3296 17.8723 36.8563C17.8723 36.3829 18.256 35.9991 18.7294 35.9991H34.0208C34.288 35.9977 34.5439 35.8912 34.7331 35.7025C34.9162 35.5167 35.0177 35.2657 35.0151 35.0048C35.0096 34.5175 34.6551 34.1045 34.1743 34.0251L32.7437 33.7825C32.7236 33.7811 32.7035 33.7785 32.6837 33.7748L16.0208 30.9291C14.8855 30.7481 13.7229 30.856 12.6403 31.2428L8.57227 32.9991V42.162H8.59541C8.93284 42.1617 9.26835 42.2126 9.59055 42.3128L27.0394 47.8945C27.8337 48.1265 28.691 47.9647 29.346 47.4591L47.6185 32.8097C47.8592 32.619 47.9999 32.329 48.0008 32.022C48 31.8506 47.9568 31.6822 47.8748 31.5317C47.6056 31.0553 47.0026 30.8851 46.524 31.1503Z" fill="#F5B607"/>
<path d="M25.7143 18.8563V15.4277H24.8571H24V18.8563H24.8571H25.7143Z" fill="#F5B607"/>
<path d="M17.9997 24.0008H20.5711V20.5723H17.9997C17.5263 20.5723 17.1426 20.956 17.1426 21.4294V23.1437C17.1426 23.6171 17.5263 24.0008 17.9997 24.0008Z" fill="#F5B607"/>
<path d="M23.9994 20.5723H23.1423H22.2852V24.0008H23.9994V20.5723Z" fill="#F5B607"/>
<path d="M38.5714 3.42857C39.0448 3.42857 39.4286 3.04482 39.4286 2.57143V0.857143C39.4286 0.383756 39.0448 0 38.5714 0H36V3.42857H38.5714Z" fill="#F5B607"/>
<path d="M17.9997 13.7137H20.5711V10.2852H17.9997C17.5263 10.2852 17.1426 10.6689 17.1426 11.1423V12.8566C17.1426 13.33 17.5263 13.7137 17.9997 13.7137Z" fill="#F5B607"/>
<path d="M37.7148 5.14258V8.57115H40.2863C40.7597 8.57115 41.1434 8.18739 41.1434 7.71401V5.99972C41.1434 5.52633 40.7597 5.14258 40.2863 5.14258H37.7148Z" fill="#F5B607"/>
<path d="M17.9997 3.42857H20.5711V0H17.9997C17.5263 0 17.1426 0.383756 17.1426 0.857143V2.57143C17.1426 3.04482 17.5263 3.42857 17.9997 3.42857Z" fill="#F5B607"/>
<path d="M34.2852 8.57115H35.1423H35.9994V5.14258H35.1423H34.2852V8.57115Z" fill="#F5B607"/>
<path d="M18.8574 5.99972V7.71401C18.8574 8.18739 19.2412 8.57115 19.7146 8.57115H22.286V5.14258H19.7146C19.2412 5.14258 18.8574 5.52633 18.8574 5.99972Z" fill="#F5B607"/>
<path d="M27.4277 8.57115H31.7134H32.5706V5.14258H31.7134H27.4277V8.57115Z" fill="#F5B607"/>
<path d="M24 8.57115H24.8571H25.7143V5.14258H24.8571H24V8.57115Z" fill="#F5B607"/>
<path d="M22.286 15.4277H19.7146C19.2412 15.4277 18.8574 15.8115 18.8574 16.2849V17.9992C18.8574 18.4725 19.2412 18.8563 19.7146 18.8563H22.286V15.4277Z" fill="#F5B607"/>
<path d="M34.2866 10.2852H33.4294H32.5723V13.7137H33.4294H34.2866V10.2852Z" fill="#F5B607"/>
<path d="M30.8577 3.42857V0H25.7148V3.42857H26.572H30.8577Z" fill="#F5B607"/>
<path d="M37.7148 15.4277V18.8563H40.2863C40.7597 18.8563 41.1434 18.4725 41.1434 17.9992V16.2849C41.1434 15.8115 40.7597 15.4277 40.2863 15.4277H37.7148Z" fill="#F5B607"/>
<path d="M34.2866 3.42857V0H32.5723V3.42857H33.4294H34.2866Z" fill="#F5B607"/>
<path d="M23.9994 3.42857V0H22.2852V3.42857H23.1423H23.9994Z" fill="#F5B607"/>
<path d="M23.9994 10.2852H23.1423H22.2852V13.7137H23.1423H23.9994V10.2852Z" fill="#F5B607"/>
<path d="M36 24.0008H38.5714C39.0448 24.0008 39.4286 23.6171 39.4286 23.1437V21.4294C39.4286 20.956 39.0448 20.5723 38.5714 20.5723H36V24.0008Z" fill="#F5B607"/>
<path d="M38.5714 10.2852H36V13.7137H38.5714C39.0448 13.7137 39.4286 13.33 39.4286 12.8566V11.1423C39.4286 10.6689 39.0448 10.2852 38.5714 10.2852Z" fill="#F5B607"/>
<path d="M32.5706 18.8563V15.4277H31.7134H27.4277V18.8563H31.7134H32.5706Z" fill="#F5B607"/>
<path d="M34.2866 20.5723H33.4294H32.5723V24.0008H34.2866V20.5723Z" fill="#F5B607"/>
<path d="M30.8577 20.5723H26.572H25.7148V24.0008H30.8577V20.5723Z" fill="#F5B607"/>
<path d="M35.9994 18.8563V15.4277H35.1423H34.2852V18.8563H35.1423H35.9994Z" fill="#F5B607"/>
<path d="M30.8577 13.7137V10.2852H26.572H25.7148V13.7137H26.572H30.8577Z" fill="#F5B607"/>
</g>
<defs>
<clipPath id="clip0_445_1033">
<rect width="48" height="48" fill="white"/>
</clipPath>
</defs>
</svg>
