<svg width="48" height="48" viewBox="0 0 48 48" fill="none" xmlns="http://www.w3.org/2000/svg">
<path d="M47.142 0H28.2849C27.8115 0 27.4277 0.383756 27.4277 0.857143V27.3523L29.142 25.7897V6C29.142 5.52661 29.5258 5.14286 29.9992 5.14286C31.4193 5.14286 32.5706 3.99159 32.5706 2.57143C32.5706 2.09804 32.9543 1.71429 33.4277 1.71429H41.9992C42.4726 1.71429 42.8563 2.09804 42.8563 2.57143C42.8563 3.99159 44.0076 5.14286 45.4277 5.14286C45.9011 5.14286 46.2849 5.52661 46.2849 6V30C46.2849 30.4734 45.9011 30.8571 45.4277 30.8571C44.0076 30.8571 42.8563 32.0084 42.8563 33.4286C42.8563 33.902 42.4726 34.2857 41.9992 34.2857H35.2637L33.8332 36H47.142C47.6154 36 47.9992 35.6162 47.9992 35.1429V0.857143C47.9992 0.383756 47.6154 0 47.142 0Z" fill="#F5B607"/>
<path d="M25.7137 17.5078L17.3206 19.8392C16.0023 20.2084 14.9384 21.1829 14.4551 22.4638L10.874 32.0158C10.387 33.308 9.47064 34.3934 8.27855 35.0904L7.57227 35.5035L17.5794 45.5141C20.721 43.5725 23.9661 41.8036 27.3003 40.2152C28.1739 39.7939 28.9466 39.1893 29.5657 38.4427L40.9348 24.8141C41.2574 24.4055 41.1963 23.8143 40.7968 23.4804C38.9177 21.9214 36.2028 21.8935 34.292 23.4135L25.4343 31.4904C25.0844 31.8094 24.5422 31.7845 24.2231 31.4347C23.9041 31.0848 23.929 30.5426 24.2788 30.2235L25.7137 28.9155V28.4233V23.6184V17.5078Z" fill="#F5B607"/>
<path d="M0.857143 47.9996H13.8977C14.0971 48.0031 14.2908 47.9333 14.442 47.8033C14.9814 47.3346 15.5454 46.8948 16.1314 46.4859L6.042 36.3965L0.850286 39.4282C0.325552 39.7354 0.00220899 40.297 0 40.9051V47.1425C0 47.6159 0.383756 47.9996 0.857143 47.9996Z" fill="#F5B607"/>
<path d="M36.6946 32.5706H41.2288C41.5749 30.8884 42.8895 29.5738 44.5717 29.2277V6.77059C42.8895 6.42451 41.5749 5.10995 41.2288 3.42773H34.2003C33.8542 5.10995 32.5396 6.42451 30.8574 6.77059V24.2263L33.1794 22.1092C33.6773 21.7107 34.228 21.383 34.8157 21.1354C33.5004 19.9306 33.0689 18.037 33.7324 16.3812C34.3958 14.7254 36.0155 13.6537 37.7989 13.6904C39.5823 13.7272 41.1564 14.8647 41.7511 16.5464C42.3458 18.2281 41.8367 20.1023 40.4728 21.252C40.9828 21.4941 41.4605 21.7991 41.8948 22.1597C43.014 23.1 43.1759 24.7626 42.2591 25.9012L36.6946 32.5706ZM37.7146 11.142C36.2944 11.142 35.1431 9.99075 35.1431 8.57059C35.1431 7.15043 36.2944 5.99916 37.7146 5.99916C39.1347 5.99916 40.286 7.15043 40.286 8.57059C40.286 9.25258 40.0151 9.90663 39.5328 10.3889C39.0506 10.8711 38.3966 11.142 37.7146 11.142Z" fill="#F5B607"/>
<path d="M37.714 20.5706C39.1342 20.5706 40.2854 19.4193 40.2854 17.9992C40.2854 16.579 39.1342 15.4277 37.714 15.4277C36.2938 15.4277 35.1426 16.579 35.1426 17.9992C35.1426 19.4193 36.2938 20.5706 37.714 20.5706Z" fill="#F5B607"/>
<path d="M37.7146 9.42913C38.188 9.42913 38.5717 9.04537 38.5717 8.57199C38.5717 8.0986 38.188 7.71484 37.7146 7.71484C37.2412 7.71484 36.8574 8.0986 36.8574 8.57199C36.8574 9.04537 37.2412 9.42913 37.7146 9.42913Z" fill="#F5B607"/>
</svg>
