<svg width="48" height="48" viewBox="0 0 48 48" fill="none" xmlns="http://www.w3.org/2000/svg">
<g clip-path="url(#clip0_445_1012)">
<path d="M12.8574 10.2852H18.0003V11.9994H12.8574V10.2852Z" fill="#F5B607"/>
<path d="M15.4292 36C13.6069 36 12.0212 36.7286 11.416 37.7143H19.4423C18.8372 36.7286 17.2514 36 15.4292 36Z" fill="#F5B607"/>
<path d="M28.2857 0H2.57143C1.15127 0 0 1.15127 0 2.57143V3.42857H6.85714C7.80392 3.42857 8.57143 4.19608 8.57143 5.14286H22.2857C22.2857 4.19608 23.0532 3.42857 24 3.42857H30.8571V2.57143C30.8571 1.15127 29.7059 0 28.2857 0ZM12 3.42857H11.1429C10.6695 3.42857 10.2857 3.04482 10.2857 2.57143C10.2857 2.09804 10.6695 1.71429 11.1429 1.71429H12C12.4734 1.71429 12.8571 2.09804 12.8571 2.57143C12.8571 3.04482 12.4734 3.42857 12 3.42857ZM19.7143 3.42857H15.4286C14.9552 3.42857 14.5714 3.04482 14.5714 2.57143C14.5714 2.09804 14.9552 1.71429 15.4286 1.71429H19.7143C20.1877 1.71429 20.5714 2.09804 20.5714 2.57143C20.5714 3.04482 20.1877 3.42857 19.7143 3.42857Z" fill="#F5B607"/>
<path d="M12.8574 42.8574H18.0003V44.5717H12.8574V42.8574Z" fill="#F5B607"/>
<path d="M15.428 30.8566C16.9866 30.8507 18.3452 29.7943 18.7348 28.2852H12.1211C12.5107 29.7943 13.8693 30.8507 15.428 30.8566Z" fill="#F5B607"/>
<path d="M7.71484 44.5706H11.1434V42.8563C11.1434 41.9095 11.9109 41.142 12.8577 41.142H18.0006C18.9473 41.142 19.7148 41.9095 19.7148 42.8563V44.5706H23.1434V39.4277H7.71484V44.5706Z" fill="#F5B607"/>
<path d="M22.2857 6.85686H8.57143C7.62465 6.85686 6.85714 6.08935 6.85714 5.14258H0V45.4283C0 46.8485 1.15127 47.9997 2.57143 47.9997H28.2857C29.7059 47.9997 30.8571 46.8485 30.8571 45.4283V5.14258H24C24 6.08935 23.2325 6.85686 22.2857 6.85686ZM29.1429 10.2854V44.5712C29.1429 45.5179 28.3753 46.2854 27.4286 46.2854H3.42857C2.4818 46.2854 1.71429 45.5179 1.71429 44.5712V10.2854C1.71429 9.33866 2.4818 8.57115 3.42857 8.57115H27.4286C28.3753 8.57115 29.1429 9.33866 29.1429 10.2854Z" fill="#F5B607"/>
<path d="M21.3112 17.1423C20.7694 19.1214 18.3797 20.5709 15.4277 20.5709C12.4757 20.5709 10.086 19.1214 9.54431 17.1423H7.71345C6.76667 17.1423 5.99916 16.3748 5.99916 15.428V10.2852H3.42773V26.5709H10.362C10.778 24.0974 12.9195 22.286 15.4277 22.286C17.936 22.286 20.0775 24.0974 20.4934 26.5709H27.4277V10.2852H24.8563V15.428C24.8563 16.3748 24.0888 17.1423 23.142 17.1423H21.3112Z" fill="#F5B607"/>
<path d="M15.4277 32.5709C12.9209 32.5662 10.7819 30.7566 10.362 28.2852H3.42773V44.5709H5.99916V39.428C5.99916 38.4812 6.76667 37.7137 7.71345 37.7137H9.54431C10.086 35.7346 12.4757 34.2852 15.4277 34.2852C18.3797 34.2852 20.7694 35.7346 21.3112 37.7137H23.142C24.0888 37.7137 24.8563 38.4812 24.8563 39.428V44.5709H27.4277V28.2852H20.4934C20.0736 30.7566 17.9345 32.5662 15.4277 32.5709Z" fill="#F5B607"/>
<path d="M15.428 24C13.8693 24.0058 12.5107 25.0623 12.1211 26.5714H18.7348C18.3452 25.0623 16.9866 24.0058 15.428 24Z" fill="#F5B607"/>
<path d="M15.4292 18.8569C17.2514 18.8569 18.8372 18.1283 19.4423 17.1426H11.416C12.0212 18.1283 13.6069 18.8569 15.4292 18.8569Z" fill="#F5B607"/>
<path d="M23.1434 10.2852H19.7148V11.9994C19.7148 12.9462 18.9473 13.7137 18.0006 13.7137H12.8577C11.9109 13.7137 11.1434 12.9462 11.1434 11.9994V10.2852H7.71484V15.428H23.1434V10.2852Z" fill="#F5B607"/>
<path d="M47.1429 42.8574H36.8571C36.3838 42.8574 36 43.2412 36 43.7146C36 44.188 36.3838 44.5717 36.8571 44.5717H47.1429C47.6162 44.5717 48 44.188 48 43.7146C48 43.2412 47.6162 42.8574 47.1429 42.8574Z" fill="#F5B607"/>
<path d="M47.1429 39.4277H36.8571C36.3838 39.4277 36 39.8115 36 40.2849C36 40.7583 36.3838 41.142 36.8571 41.142H47.1429C47.6162 41.142 48 40.7583 48 40.2849C48 39.8115 47.6162 39.4277 47.1429 39.4277Z" fill="#F5B607"/>
<path d="M36.8574 29.1429C36.8574 31.9832 39.16 34.2857 42.0003 34.2857C44.8406 34.2857 47.1431 31.9832 47.1431 29.1429C47.1431 26.3025 44.8406 24 42.0003 24C39.1611 24.0028 36.8603 26.3037 36.8574 29.1429ZM42.3286 25.7794C42.6488 25.9122 42.8575 26.2248 42.8574 26.5714V30.8571C43.3308 30.8571 43.7146 31.2409 43.7146 31.7143C43.7146 32.1877 43.3308 32.5714 42.8574 32.5714H41.1431C40.6697 32.5714 40.286 32.1877 40.286 31.7143C40.286 31.2409 40.6697 30.8571 41.1431 30.8571V28.2857C40.7965 28.2856 40.484 28.0768 40.3514 27.7566C40.2188 27.4363 40.2921 27.0677 40.5371 26.8226L41.3943 25.9654C41.6394 25.7201 42.0082 25.6467 42.3286 25.7794Z" fill="#F5B607"/>
<path d="M47.1429 46.2852H36.8571C36.3838 46.2852 36 46.6689 36 47.1423C36 47.6157 36.3838 47.9994 36.8571 47.9994H47.1429C47.6162 47.9994 48 47.6157 48 47.1423C48 46.6689 47.6162 46.2852 47.1429 46.2852Z" fill="#F5B607"/>
<path d="M47.1429 36H36.8571C36.3838 36 36 36.3838 36 36.8571C36 37.3305 36.3838 37.7143 36.8571 37.7143H47.1429C47.6162 37.7143 48 37.3305 48 36.8571C48 36.3838 47.6162 36 47.1429 36Z" fill="#F5B607"/>
</g>
<defs>
<clipPath id="clip0_445_1012">
<rect width="48" height="48" fill="white"/>
</clipPath>
</defs>
</svg>
