<svg width="70" height="70" viewBox="0 0 70 70" fill="none" xmlns="http://www.w3.org/2000/svg">
<path d="M17.2753 44.2098V25.79H18.2036V44.2098H17.2753ZM27.0746 28.192V28.1036H30.8028V37.3134C30.8028 39.8627 28.7103 41.9257 26.1315 41.9257C23.5527 41.9257 21.4603 39.8627 21.4603 37.3134H25.2031C25.2031 37.8292 25.6157 38.2418 26.1315 38.2418C26.6473 38.2418 27.0599 37.8292 27.0599 37.3134V28.192H27.0746ZM40.5431 33.0401C40.9557 33.4821 41.2799 34.0126 41.4862 34.6315C41.6925 35.2357 41.8104 35.9283 41.8104 36.6798C41.8104 36.8566 41.8104 37.0187 41.7957 37.1661C41.7809 37.3576 41.7515 37.4461 41.722 37.5197L41.6188 37.726H35.1646C35.194 37.8734 35.2382 38.006 35.3119 38.1386C35.4298 38.3744 35.5772 38.5955 35.7687 38.7723C35.9603 38.9491 36.1813 39.0817 36.4318 39.1849C36.6823 39.288 36.9476 39.3322 37.2276 39.3322C37.7875 39.3322 38.2296 39.2144 38.5096 38.9639L38.6569 38.8312L41.3978 39.5828L41.1031 40.0101C40.8378 40.3932 40.5284 40.7174 40.1453 40.9974C39.7621 41.2774 39.3348 41.4984 38.8485 41.6605C38.3622 41.8226 37.817 41.8963 37.2423 41.8963C36.5792 41.8963 35.9308 41.7784 35.3266 41.5426C34.7225 41.3068 34.1773 40.9679 33.7204 40.5258C33.2636 40.0838 32.8952 39.5385 32.6153 38.8902C32.3353 38.2565 32.2027 37.5197 32.2027 36.7093C32.2027 35.9577 32.3353 35.2504 32.6005 34.6315C32.8658 34.0126 33.2194 33.4821 33.6615 33.0253C34.1036 32.5832 34.6193 32.2296 35.194 31.9938C35.7687 31.7433 36.3876 31.6254 37.0065 31.6254C37.7433 31.6254 38.4212 31.7433 39.0253 31.9791C39.6148 32.2443 40.1305 32.598 40.5431 33.0401ZM35.253 35.4273H38.8338C38.819 35.3388 38.7896 35.2652 38.7601 35.1767C38.6864 34.9852 38.5685 34.8231 38.4212 34.6757C38.2738 34.5284 38.0822 34.4105 37.8465 34.3073C37.6254 34.2189 37.3455 34.1747 37.0213 34.1747C36.7413 34.1747 36.4908 34.2189 36.2697 34.3221C36.0487 34.4252 35.8571 34.5431 35.7098 34.7052C35.5477 34.8673 35.4298 35.0441 35.3266 35.2504C35.2972 35.2946 35.2677 35.3683 35.253 35.4273ZM58.3735 33.1137C58.8303 33.5705 59.1839 34.1158 59.4492 34.7347C59.6997 35.3536 59.8323 36.0314 59.8323 36.7682C59.8323 37.505 59.6997 38.1829 59.4492 38.8165C59.1987 39.4501 58.8303 39.9954 58.3735 40.4522C57.9166 40.909 57.3714 41.2774 56.7673 41.5279C56.1483 41.7784 55.4705 41.911 54.7337 41.911C54.0117 41.911 53.3338 41.7784 52.7149 41.5279C52.096 41.2774 51.5508 40.909 51.094 40.4522C50.6519 39.9954 50.2835 39.4501 50.033 38.8165C49.7825 38.1976 49.6498 37.505 49.6498 36.7682C49.6498 36.0314 49.7825 35.3536 50.033 34.7347C50.2835 34.1158 50.6372 33.5705 51.094 33.1137C51.5508 32.6569 52.0813 32.2885 52.7149 32.038C53.3338 31.7875 54.0117 31.6549 54.7337 31.6549C55.4705 31.6549 56.1483 31.7875 56.7673 32.038C57.3714 32.2885 57.9166 32.6569 58.3735 33.1137ZM56.723 37.8734C56.8409 37.5639 56.8999 37.1956 56.8999 36.7682C56.8999 36.3556 56.8409 35.9872 56.723 35.6778C56.6052 35.383 56.4431 35.1178 56.2368 34.9115C56.0452 34.7052 55.8094 34.5578 55.5589 34.4694C55.2937 34.3663 55.0137 34.3221 54.7337 34.3221C54.439 34.3221 54.1737 34.3663 53.9085 34.4694C53.658 34.5726 53.437 34.7199 53.2454 34.9115C53.0538 35.1178 52.8917 35.3683 52.7591 35.6778C52.6412 35.9872 52.5675 36.3409 52.5675 36.7682C52.5675 37.1808 52.6265 37.5492 52.7591 37.8734C52.877 38.1829 53.0391 38.4481 53.2454 38.6544C53.437 38.8607 53.658 39.0081 53.9232 39.1112C54.1885 39.2144 54.4537 39.2733 54.7484 39.2733C55.0284 39.2733 55.3084 39.2144 55.5736 39.1112C55.8242 39.0081 56.0599 38.8607 56.2515 38.6544C56.4431 38.4334 56.6052 38.1829 56.723 37.8734ZM69.779 34.101C69.9263 34.5726 70 35.0736 70 35.5893V41.631H67.0823V35.9577C67.0823 35.4862 66.9644 35.0883 66.7287 34.7641C66.5224 34.4842 66.154 34.3368 65.5793 34.3368C65.0782 34.3368 64.7098 34.4842 64.4741 34.8084C64.2088 35.162 64.0762 35.5746 64.0762 36.0904V41.631H61.1585V31.9201H64.0173V32.4506C64.2088 32.2885 64.4299 32.1412 64.6656 32.038C65.2109 31.7875 65.7708 31.6696 66.3308 31.6696C66.935 31.6696 67.4802 31.7728 67.937 31.9791C68.3938 32.1854 68.7917 32.4801 69.0864 32.8485C69.3958 33.2021 69.6316 33.6295 69.779 34.101ZM47.8521 39.0817C48.0437 39.0523 48.0879 39.0523 48.1026 39.0375L48.5741 38.9196V41.41L48.3384 41.4984C48.2794 41.5131 48.191 41.5574 47.8816 41.631C47.631 41.69 47.3069 41.7194 46.8648 41.7194C45.9217 41.7194 45.1554 41.4542 44.6102 40.909C44.065 40.408 43.7703 39.6417 43.7703 38.6986V34.5578H42.6503V31.9201H43.7703V29.1793H46.6585V31.9201H48.5447V34.5578H46.6585V38.3449C46.6585 38.6249 46.7174 38.8312 46.8206 38.9344C46.9385 39.0375 47.1448 39.0965 47.4395 39.0965C47.5868 39.1112 47.7195 39.0965 47.8521 39.0817ZM0.96274 31.8317C0.88906 31.8465 0.815381 31.7728 0.859589 31.6991C1.74374 30.0929 3.26153 28.8404 5.19192 28.3393C7.12231 27.8236 9.06743 28.1625 10.6442 29.1203C10.7178 29.1645 10.7031 29.2677 10.6147 29.2824L0.96274 31.8317ZM12.8103 31.1391C13.2377 31.758 13.5619 32.4506 13.7682 33.2021C13.9745 33.9537 14.0481 34.7199 13.9892 35.4567C13.9892 35.5009 13.9597 35.5304 13.9155 35.5451L1.30166 38.8902C1.25746 38.9049 1.22798 38.8902 1.19851 38.846C0.78591 38.2271 0.446986 37.5345 0.240685 36.783C0.0343836 36.0314 -0.0392955 35.2652 0.0196477 34.5284C0.0196477 34.4842 0.0491194 34.4547 0.0933268 34.44L12.7072 31.1097C12.7514 31.0949 12.7956 31.1097 12.8103 31.1391ZM13.0461 38.1681C13.1198 38.1534 13.1935 38.2271 13.1493 38.3007C12.2651 39.9069 10.7473 41.1595 8.81693 41.6605C6.88653 42.1763 4.94141 41.8373 3.36468 40.8795C3.291 40.8353 3.30573 40.7321 3.39415 40.7174L13.0461 38.1681Z" fill="#FF6300"/>
</svg>
