<svg width="40" height="40" viewBox="0 0 40 40" fill="none" xmlns="http://www.w3.org/2000/svg">
<rect width="40" height="40" fill="#FF2F71"/>
<path d="M13.255 13.8182V24H11.1023V15.8615H11.0426L8.71094 17.3232V15.4141L11.2315 13.8182H13.255ZM19.4732 24.1392C18.7076 24.1392 18.0265 24.0149 17.4299 23.7663C16.8366 23.5144 16.3709 23.1714 16.0328 22.7372C15.6948 22.303 15.5257 21.8108 15.5257 21.2607C15.5257 20.8364 15.6219 20.447 15.8141 20.0923C16.0096 19.7344 16.2748 19.4377 16.6096 19.2024C16.9443 18.9638 17.3188 18.8113 17.7331 18.745V18.6754C17.1896 18.5661 16.7488 18.3026 16.4107 17.8849C16.0726 17.464 15.9036 16.9751 15.9036 16.4183C15.9036 15.8913 16.0577 15.4223 16.3659 15.0114C16.6742 14.5971 17.0968 14.2723 17.6337 14.0369C18.1739 13.7983 18.7871 13.679 19.4732 13.679C20.1593 13.679 20.7708 13.7983 21.3077 14.0369C21.848 14.2756 22.2722 14.602 22.5804 15.0163C22.8887 15.4273 23.0444 15.8946 23.0478 16.4183C23.0444 16.9785 22.8721 17.4673 22.5307 17.8849C22.1893 18.3026 21.7518 18.5661 21.2182 18.6754V18.745C21.6259 18.8113 21.9954 18.9638 22.3269 19.2024C22.6616 19.4377 22.9268 19.7344 23.1223 20.0923C23.3212 20.447 23.4223 20.8364 23.4256 21.2607C23.4223 21.8108 23.2516 22.303 22.9135 22.7372C22.5755 23.1714 22.1081 23.5144 21.5115 23.7663C20.9183 24.0149 20.2388 24.1392 19.4732 24.1392ZM19.4732 22.5582C19.8146 22.5582 20.1129 22.4969 20.3681 22.3743C20.6233 22.2483 20.8221 22.076 20.9647 21.8572C21.1105 21.6352 21.1834 21.38 21.1834 21.0916C21.1834 20.7966 21.1088 20.5365 20.9597 20.3111C20.8105 20.0824 20.6084 19.9034 20.3532 19.7741C20.098 19.6416 19.8046 19.5753 19.4732 19.5753C19.1451 19.5753 18.8517 19.6416 18.5932 19.7741C18.3347 19.9034 18.1309 20.0824 17.9817 20.3111C17.8359 20.5365 17.763 20.7966 17.763 21.0916C17.763 21.38 17.8342 21.6352 17.9767 21.8572C18.1193 22.076 18.3198 22.2483 18.5783 22.3743C18.8368 22.4969 19.1351 22.5582 19.4732 22.5582ZM19.4732 18.0092C19.7582 18.0092 20.0118 17.9512 20.2338 17.8352C20.4559 17.7192 20.6299 17.5585 20.7559 17.353C20.8818 17.1475 20.9448 16.9105 20.9448 16.642C20.9448 16.3769 20.8818 16.1449 20.7559 15.946C20.6299 15.7438 20.4576 15.5864 20.2388 15.4737C20.0201 15.3577 19.7649 15.2997 19.4732 15.2997C19.1848 15.2997 18.9296 15.3577 18.7076 15.4737C18.4855 15.5864 18.3115 15.7438 18.1855 15.946C18.0629 16.1449 18.0016 16.3769 18.0016 16.642C18.0016 16.9105 18.0646 17.1475 18.1905 17.353C18.3165 17.5585 18.4905 17.7192 18.7125 17.8352C18.9346 17.9512 19.1882 18.0092 19.4732 18.0092ZM27.9734 22.4489V15.4091H29.7532V22.4489H27.9734ZM25.3434 19.8189V18.0391H32.3832V19.8189H25.3434Z" fill="white"/>
</svg>
