<svg width="32" height="32" viewBox="0 0 32 32" fill="none" xmlns="http://www.w3.org/2000/svg">
<g clip-path="url(#clip0_679_1254)">
<path d="M24.1165 10.5646H7.8833C7.5222 10.5646 7.22949 10.8573 7.22949 11.2184V24.8313C7.22949 25.1924 7.5222 25.4851 7.8833 25.4851H10.7773V30.0727C10.7773 31.1371 11.6402 32 12.7046 32C13.769 32 14.632 31.1371 14.632 30.0727V25.4851H17.3277V30.0727C17.3277 31.1371 18.1905 32 19.255 32C20.3194 32 21.1824 31.1371 21.1824 30.0727V25.4851H24.1166C24.4777 25.4851 24.7704 25.1924 24.7704 24.8313V11.2184C24.7703 10.8573 24.4776 10.5646 24.1165 10.5646Z" fill="white"/>
<path d="M4.4813 10.5614C3.41689 10.5614 2.55396 11.4243 2.55396 12.4888V20.3169C2.55396 21.3813 3.41682 22.2442 4.4813 22.2442C5.5457 22.2442 6.40864 21.3814 6.40864 20.3169V12.4888C6.40856 11.4244 5.5457 10.5614 4.4813 10.5614Z" fill="white"/>
<path d="M27.5186 10.5614C26.4542 10.5614 25.5913 11.4243 25.5913 12.4888V20.3169C25.5913 21.3813 26.4542 22.2442 27.5186 22.2442C28.5831 22.2442 29.446 21.3814 29.446 20.3169V12.4888C29.446 11.4244 28.5831 10.5614 27.5186 10.5614Z" fill="white"/>
<path d="M8.01484 9.6099H23.9469C24.3626 9.6099 24.6726 9.22703 24.5872 8.82023C24.0602 6.30848 22.461 4.19176 20.2911 2.96896L21.6531 0.51151C21.7453 0.345134 21.6852 0.135461 21.5188 0.0432879C21.352 -0.0491173 21.1426 0.011221 21.0505 0.177597L19.6782 2.65356C18.5542 2.13197 17.3016 1.84066 15.9809 1.84066C14.6601 1.84066 13.4075 2.13197 12.2835 2.65356L10.9112 0.177519C10.819 0.0110661 10.6093 -0.0489624 10.443 0.0432104C10.2766 0.135383 10.2165 0.345057 10.3087 0.511433L11.6707 2.96888C9.50076 4.19176 7.9016 6.30841 7.37458 8.82023C7.28915 9.22703 7.59913 9.6099 8.01484 9.6099ZM20.7348 5.94754C20.7348 6.35666 20.4032 6.68841 19.994 6.68841C19.5848 6.68841 19.2531 6.35674 19.2531 5.94754C19.2531 5.53842 19.5848 5.20667 19.994 5.20667C20.4032 5.20667 20.7348 5.53842 20.7348 5.94754ZM11.9677 5.20667C12.3768 5.20667 12.7085 5.53834 12.7085 5.94754C12.7085 6.35666 12.3769 6.68841 11.9677 6.68841C11.5585 6.68841 11.2268 6.35674 11.2268 5.94754C11.2268 5.53842 11.5585 5.20667 11.9677 5.20667Z" fill="white"/>
</g>
<defs>
<clipPath id="clip0_679_1254">
<rect width="32" height="32" fill="white"/>
</clipPath>
</defs>
</svg>
