<svg width="12" height="12" viewBox="0 0 12 12" fill="none" xmlns="http://www.w3.org/2000/svg">
<path d="M5.98581 2.48493C5.82228 2.48473 5.66058 2.51941 5.51151 2.58666C5.36244 2.65391 5.22942 2.75218 5.12135 2.87492L0.216053 8.45068C0.0610142 8.63545 -0.0155824 8.87354 0.00264165 9.11405C0.0208657 9.35455 0.132464 9.57839 0.313574 9.73768C0.494683 9.89698 0.730929 9.97909 0.971795 9.96647C1.21266 9.95385 1.43903 9.84749 1.6025 9.67013L5.89182 4.79433C5.90355 4.78095 5.918 4.77023 5.93421 4.76288C5.95042 4.75553 5.96801 4.75173 5.98581 4.75173C6.00361 4.75173 6.0212 4.75553 6.03741 4.76288C6.05362 4.77023 6.06808 4.78095 6.07981 4.79433L10.3691 9.67013C10.4482 9.76441 10.5454 9.84193 10.6549 9.89813C10.7644 9.95432 10.884 9.98806 11.0068 9.99736C11.1295 10.0067 11.2528 9.99133 11.3696 9.95228C11.4863 9.91322 11.594 9.85123 11.6864 9.76995C11.7788 9.68866 11.8541 9.58972 11.9077 9.47894C11.9613 9.36816 11.9923 9.24778 11.9987 9.12487C12.0052 9.00196 11.987 8.879 11.9452 8.76322C11.9035 8.64745 11.839 8.54118 11.7556 8.45068L6.85178 2.87692C6.74351 2.75388 6.6103 2.65529 6.46099 2.58771C6.31168 2.52012 6.1497 2.48509 5.98581 2.48493Z" fill="#101D2C"/>
</svg>
