<svg width="40" height="40" viewBox="0 0 40 40" fill="none" xmlns="http://www.w3.org/2000/svg">
<path d="M34.9047 17.9028L33.4707 16.4689L34.9049 15.0347C36.9903 12.9484 36.9903 9.55375 34.9044 7.46694C33.7554 6.31901 32.1737 5.75592 30.5362 5.93279C30.7081 4.34186 30.1826 2.74613 29.0015 1.56409C26.9151 -0.52139 23.5205 -0.52139 21.4341 1.56425L20.0001 2.99831L18.566 1.56409C16.4796 -0.52139 13.085 -0.52139 10.9982 1.56456C9.85022 2.71351 9.2872 4.29526 9.464 5.93279C7.87307 5.76094 6.27735 6.28639 5.09538 7.46749C3.0099 9.55375 3.0099 12.9484 5.09554 15.0348L6.52952 16.4689L5.0953 17.903C3.00982 19.9894 3.00982 23.3839 5.09577 25.4707C6.24472 26.6188 7.8264 27.1819 9.46392 27.005C8.90867 32.0084 15.0295 34.914 18.5661 31.3734L18.8235 31.1161V31.7641C18.8235 35.0079 16.1845 37.6469 12.9407 37.6469H4.70484V40H12.9407C17.4821 40 21.1766 36.3054 21.1766 31.7641V31.1161L21.4342 31.3736C23.5206 33.459 26.9151 33.459 29.0019 31.3731C30.1499 30.2242 30.713 28.6426 30.5362 27.005C32.1271 27.1769 33.7228 26.6513 34.9048 25.4703C36.9903 23.3839 36.9903 19.9894 34.9047 17.9028ZM12.6622 3.22821C13.8309 2.06005 15.7328 2.0595 16.9022 3.22805L20 6.326L23.0977 3.22821C24.2668 2.05997 26.1689 2.05966 27.3373 3.22774C28.5066 4.39786 28.5115 6.29274 27.3369 7.46733L20 14.8049C19.952 14.7568 20.6865 15.4913 12.6488 7.45368C11.4909 6.27964 11.4962 4.39511 12.6622 3.22821ZM6.75942 23.8068C5.59094 22.6377 5.59094 20.7356 6.75926 19.5667L9.85713 16.4689L6.75942 13.3711C5.59094 12.2023 5.59094 10.3 6.75895 9.13153C7.92915 7.96219 9.82387 7.95741 10.9985 9.132L18.336 16.4689C18.2879 16.517 19.0226 15.7824 10.9848 23.8201C9.81061 24.9781 7.92625 24.9726 6.75942 23.8068ZM27.3379 29.7095C26.1689 30.878 24.2668 30.8778 23.0979 29.7096L20 26.6118L16.9023 29.7095C15.7333 30.8778 13.8312 30.8782 12.6627 29.7099C11.4933 28.5398 11.4885 26.6451 12.6632 25.4703L20 18.1329C20.0481 18.181 19.3136 17.4463 27.3513 25.4841C28.5092 26.658 28.5039 28.5425 27.3379 29.7095ZM33.2411 23.8061C32.0709 24.9756 30.1762 24.9804 29.0015 23.8057L21.6641 16.4689C21.7122 16.4208 20.9775 17.1554 29.0153 9.11757C30.1893 7.95968 32.0738 7.96509 33.2407 9.13106C34.4091 10.2999 34.4091 12.2022 33.2408 13.371L30.143 16.4689L33.2407 19.5665C34.4091 20.7356 34.4091 22.6377 33.2411 23.8061Z" fill="#4DA534"/>
</svg>
