<svg width="70" height="70" viewBox="0 0 70 70" fill="none" xmlns="http://www.w3.org/2000/svg">
<g clip-path="url(#clip0_342_441)">
<path d="M14.4054 36.7685C13.4231 40.6703 9.47138 43.0661 5.54246 42.085C1.63639 41.1038 -0.762076 37.1564 0.220153 33.2317C1.20238 29.3299 5.15414 26.9341 9.08306 27.9152C12.9891 28.8964 15.3876 32.8666 14.4054 36.7685Z" fill="#F7931A"/>
<path d="M10.5223 33.9617C10.6593 32.9805 9.92835 32.4785 8.92327 32.1135L9.24308 30.79L8.44359 30.5847L8.12379 31.8625C7.9182 31.8168 7.68978 31.7712 7.4842 31.7027L7.80399 30.4021L7.0045 30.1968L6.68471 31.5202C6.50197 31.4746 6.34207 31.4517 6.18217 31.4061L5.08573 31.1323L4.88015 31.9994C4.88015 31.9994 5.47406 32.1363 5.45121 32.1363C5.77101 32.2275 5.83954 32.4329 5.8167 32.5926L5.45121 34.0986C5.47406 34.0986 5.4969 34.1214 5.54258 34.1214C5.51974 34.1214 5.4969 34.0986 5.45121 34.0986L4.92583 36.1978C4.88015 36.2891 4.78878 36.4488 4.56036 36.3804C4.56036 36.4032 3.96645 36.2434 3.96645 36.2434L3.57812 37.1562L4.62888 37.4071C4.83447 37.4528 5.01721 37.4984 5.19995 37.5441L4.85731 38.8675L5.6568 39.0728L5.97659 37.7494C6.20502 37.8179 6.4106 37.8635 6.61618 37.9091L6.29638 39.2097L7.09587 39.4151L7.43851 38.0917C8.80906 38.3427 9.83698 38.2514 10.271 37.0192C10.6136 36.0153 10.2481 35.4448 9.54003 35.0798C10.0426 35.0341 10.4309 34.669 10.5223 33.9617ZM8.69485 36.5401C8.44358 37.5441 6.77608 36.9964 6.22786 36.8595L6.66187 35.1026C7.21009 35.2395 8.96896 35.4905 8.69485 36.5401ZM8.94612 33.9617C8.71769 34.8744 7.3243 34.418 6.86745 34.3039L7.25577 32.7067C7.73547 32.798 9.17454 33.0033 8.94612 33.9617Z" fill="white"/>
<path d="M37.6824 38.1603C37.6824 37.316 37.8195 36.5402 38.0936 35.7873C38.3677 35.0571 38.756 34.3954 39.2586 33.8478C39.7611 33.3001 40.3778 32.8666 41.1088 32.5472C41.8169 32.2277 42.6392 32.068 43.5301 32.068C44.0783 32.068 44.5809 32.1136 45.0149 32.2277C45.4489 32.3418 45.86 32.4787 46.2027 32.6384L45.2661 34.7833C45.0149 34.692 44.7636 34.6008 44.4895 34.5095C44.2154 34.4182 43.8956 34.3954 43.5073 34.3954C42.5936 34.3954 41.8626 34.7148 41.3372 35.3309C40.8118 35.9698 40.5377 36.8141 40.5377 37.8637C40.5377 38.5026 40.6748 39.0046 40.9489 39.3925C41.223 39.7803 41.7255 39.9629 42.4565 39.9629C42.822 39.9629 43.1646 39.9173 43.4844 39.8488C43.8271 39.7803 44.124 39.6891 44.3753 39.575L44.5809 41.7655C44.2382 41.9024 43.8499 42.0165 43.4387 42.1306C43.0276 42.2218 42.525 42.2903 41.9311 42.2903C41.1773 42.2903 40.5149 42.1762 39.9895 41.948C39.4641 41.7198 39.0301 41.4232 38.6875 41.0581C38.3449 40.6702 38.0936 40.2367 37.9337 39.7347C37.7509 39.2555 37.6824 38.7307 37.6824 38.1603ZM49.8346 42.3131C49.1722 42.3131 48.624 42.2218 48.1215 42.0165C47.6418 41.8111 47.2534 41.5373 46.9336 41.195C46.6139 40.83 46.3854 40.4192 46.2255 39.9401C46.0656 39.4609 45.9971 38.9133 45.9971 38.32C45.9971 37.5899 46.1113 36.8369 46.3626 36.1067C46.591 35.3766 46.9565 34.692 47.4362 34.1216C47.893 33.5283 48.4869 33.0492 49.1494 32.6613C49.8346 32.2962 50.6113 32.0908 51.4793 32.0908C52.1189 32.0908 52.69 32.1821 53.1697 32.3874C53.6493 32.5928 54.0605 32.8666 54.3803 33.2089C54.7001 33.574 54.9285 33.9847 55.0884 34.4638C55.2483 34.943 55.3397 35.4906 55.3397 36.0839C55.3397 36.8141 55.2255 37.567 54.9971 38.2972C54.7686 39.0274 54.426 39.6891 53.9691 40.2823C53.5123 40.8756 52.9412 41.3548 52.256 41.7427C51.5478 42.1306 50.7483 42.3131 49.8346 42.3131ZM21.4185 32.1136C22.0124 32.1136 22.515 32.2277 22.949 32.4331C23.383 32.6384 23.7485 32.9351 24.0226 33.2773C24.2967 33.6424 24.5251 34.0531 24.6622 34.5323C24.7992 35.0115 24.8678 35.5363 24.8678 36.0839C24.8678 36.9281 24.7079 37.7496 24.3881 38.5026C24.0683 39.2555 23.6343 39.9173 23.1089 40.4877C22.5607 41.0581 21.9211 41.4917 21.1901 41.8111C20.4591 42.1306 19.6597 42.2903 18.7916 42.2903C18.6774 42.2903 18.4947 42.2903 18.1977 42.2903C17.9236 42.2903 17.6038 42.2446 17.2384 42.199C16.8729 42.1534 16.5074 42.0849 16.0962 41.9708C15.6851 41.8796 15.3196 41.7427 14.9541 41.5601L18.1521 28.1205L21.0074 27.687L19.8652 32.4559C20.1165 32.3418 20.3678 32.2505 20.5962 32.2049C20.8703 32.1593 21.1444 32.1136 21.4185 32.1136ZM34.7357 32.319H37.7966L37.2484 34.5779H34.1875L33.3652 37.9778C33.2966 38.2516 33.251 38.5254 33.2281 38.7764C33.2053 39.0274 33.251 39.2327 33.3195 39.4153C33.388 39.5978 33.5251 39.7347 33.7078 39.826C33.8906 39.9173 34.1647 39.9857 34.5301 39.9857C34.8271 39.9857 35.1241 39.9629 35.3982 39.8944C35.6723 39.8488 35.9464 39.7575 36.2433 39.6663L36.4489 41.7655C36.0834 41.9024 35.6723 42.0165 35.2383 42.1077C34.8043 42.199 34.3017 42.2447 33.7078 42.2447C32.8626 42.2447 32.2002 42.1077 31.7205 41.8568C31.2408 41.6058 30.921 41.2635 30.7154 40.83C30.5099 40.3964 30.4413 39.8944 30.4642 39.324C30.487 38.7536 30.5784 38.1603 30.7154 37.5214L32.52 29.8775L35.3982 29.444L34.7357 32.319ZM27.8373 42.0393H25.0962L27.4033 32.319H30.1672L27.8373 42.0393ZM58.3092 42.0393H55.5681L57.8752 32.319H60.6392L58.3092 42.0393ZM62.6036 32.7753C62.8092 32.7069 63.0376 32.6384 63.2889 32.57C63.5402 32.5015 63.8143 32.4103 64.1341 32.3418C64.4539 32.2734 64.7965 32.2277 65.1848 32.1821C65.5731 32.1364 66.0072 32.1136 66.5097 32.1136C67.9488 32.1136 68.9538 32.5243 69.5021 33.3686C70.0503 34.2129 70.1417 35.3537 69.799 36.8141L68.5427 42.0621H65.7787L66.9894 36.9281C67.0579 36.6087 67.1264 36.2893 67.1721 35.9926C67.2178 35.696 67.2178 35.4222 67.1721 35.194C67.1264 34.9658 67.0122 34.7833 66.8295 34.6464C66.6467 34.5095 66.3726 34.441 66.0072 34.441C65.6417 34.441 65.2762 34.4867 64.9107 34.5551L63.1062 42.0849H60.3651L62.6036 32.7753ZM19.0201 40.0313C19.4541 40.0313 19.8652 39.9173 20.2307 39.7119C20.619 39.5065 20.9388 39.2327 21.213 38.8676C21.4871 38.5254 21.7155 38.1147 21.8754 37.6811C22.0353 37.2476 22.1267 36.7684 22.1267 36.2893C22.1267 35.696 22.0353 35.2396 21.8297 34.8974C21.6241 34.5551 21.2586 34.3954 20.7333 34.3954C20.5505 34.3954 20.3449 34.4182 20.048 34.4867C19.7739 34.5551 19.5226 34.6692 19.2942 34.8746L18.0835 39.9401C18.1521 39.9629 18.2206 39.9629 18.2891 39.9857C18.3348 40.0085 18.4033 40.0085 18.4719 40.0085C18.5404 40.0085 18.6089 40.0085 18.7003 40.0085C18.7916 40.0085 18.883 40.0313 19.0201 40.0313ZM51.2052 34.3954C50.794 34.3954 50.4514 34.5095 50.1316 34.7377C49.8118 34.9658 49.5605 35.2625 49.3549 35.6275C49.1494 35.9926 48.9895 36.3805 48.8753 36.7912C48.7611 37.2248 48.7154 37.6127 48.7154 38.0006C48.7154 38.6166 48.8067 39.0958 49.0123 39.4381C49.2179 39.7804 49.5605 39.9629 50.0859 39.9629C50.4971 39.9629 50.8397 39.8488 51.1595 39.6206C51.4565 39.3925 51.7306 39.0958 51.9362 38.7307C52.1417 38.3657 52.3016 37.9778 52.4159 37.567C52.5301 37.1335 52.5757 36.7456 52.5757 36.3577C52.5757 35.7416 52.4844 35.2625 52.2788 34.9202C52.0961 34.5779 51.7306 34.3954 51.2052 34.3954ZM29.1622 31.1553C28.7738 31.1553 28.4312 31.0412 28.1342 30.813C27.8144 30.5848 27.6774 30.2426 27.6774 29.7634C27.6774 29.5124 27.7231 29.2614 27.8373 29.0333C27.9515 28.8051 28.0886 28.5997 28.2485 28.44C28.4312 28.2803 28.6139 28.1434 28.8424 28.0521C29.0708 27.9608 29.3221 27.9152 29.5733 27.9152C29.9616 27.9152 30.3043 28.0293 30.6012 28.2575C30.8982 28.4856 31.0581 28.8279 31.0581 29.3071C31.0581 29.5581 31.0124 29.8091 30.8982 30.0372C30.784 30.2654 30.6469 30.4708 30.487 30.6305C30.3043 30.7902 30.1215 30.9271 29.8931 31.0184C29.6647 31.1097 29.4363 31.1553 29.1622 31.1553ZM59.6341 31.1553C59.2458 31.1553 58.9031 31.0412 58.6062 30.813C58.2864 30.5848 58.1493 30.2426 58.1493 29.7634C58.1493 29.5124 58.195 29.2614 58.3092 29.0333C58.4234 28.8051 58.5605 28.5997 58.7204 28.44C58.9031 28.2803 59.0859 28.1434 59.3143 28.0521C59.5427 27.9608 59.794 27.9152 60.0453 27.9152C60.4336 27.9152 60.7762 28.0293 61.0732 28.2575C61.3701 28.4856 61.53 28.8279 61.53 29.3071C61.53 29.5581 61.4843 29.8091 61.3701 30.0372C61.2559 30.2654 61.1189 30.4708 60.959 30.6305C60.7762 30.7902 60.5935 30.9271 60.3651 31.0184C60.1366 31.1097 59.8854 31.1553 59.6341 31.1553Z" fill="#4D4D4D"/>
</g>
<defs>
<clipPath id="clip0_342_441">
<rect width="70" height="70" fill="white"/>
</clipPath>
</defs>
</svg>
