<svg width="40" height="40" viewBox="0 0 40 40" fill="none" xmlns="http://www.w3.org/2000/svg">
<rect x="1" y="1" width="38" height="38" rx="19" stroke="#C94D4D" stroke-width="2"/>
<path d="M10.058 25V16.04L11.038 17.02H8.098V15.2H12.326V25H10.058ZM18.0884 25.168C17.2671 25.168 16.5484 25.0467 15.9324 24.804C15.3164 24.552 14.8358 24.202 14.4904 23.754C14.1451 23.2967 13.9724 22.7647 13.9724 22.158C13.9724 21.5513 14.1404 21.038 14.4764 20.618C14.8218 20.1887 15.3024 19.8667 15.9184 19.652C16.5344 19.428 17.2578 19.316 18.0884 19.316C18.9284 19.316 19.6564 19.428 20.2724 19.652C20.8978 19.8667 21.3784 20.1887 21.7144 20.618C22.0598 21.038 22.2324 21.5513 22.2324 22.158C22.2324 22.7647 22.0598 23.2967 21.7144 23.754C21.3691 24.202 20.8838 24.552 20.2584 24.804C19.6424 25.0467 18.9191 25.168 18.0884 25.168ZM18.0884 23.502C18.6578 23.502 19.1058 23.376 19.4324 23.124C19.7684 22.872 19.9364 22.5267 19.9364 22.088C19.9364 21.6493 19.7684 21.3087 19.4324 21.066C19.1058 20.814 18.6578 20.688 18.0884 20.688C17.5284 20.688 17.0851 20.814 16.7584 21.066C16.4318 21.3087 16.2684 21.6493 16.2684 22.088C16.2684 22.5267 16.4318 22.872 16.7584 23.124C17.0851 23.376 17.5284 23.502 18.0884 23.502ZM18.0884 20.464C17.3324 20.464 16.6698 20.3613 16.1004 20.156C15.5404 19.9507 15.1018 19.652 14.7844 19.26C14.4764 18.8587 14.3224 18.3827 14.3224 17.832C14.3224 17.2533 14.4811 16.7587 14.7984 16.348C15.1158 15.928 15.5591 15.606 16.1284 15.382C16.6978 15.1487 17.3511 15.032 18.0884 15.032C18.8444 15.032 19.5024 15.1487 20.0624 15.382C20.6318 15.606 21.0751 15.928 21.3924 16.348C21.7191 16.7587 21.8824 17.2533 21.8824 17.832C21.8824 18.3827 21.7238 18.8587 21.4064 19.26C21.0984 19.652 20.6598 19.9507 20.0904 20.156C19.5211 20.3613 18.8538 20.464 18.0884 20.464ZM18.0884 19.134C18.5644 19.134 18.9378 19.0267 19.2084 18.812C19.4884 18.5973 19.6284 18.3033 19.6284 17.93C19.6284 17.538 19.4838 17.2347 19.1944 17.02C18.9144 16.8053 18.5458 16.698 18.0884 16.698C17.6404 16.698 17.2764 16.8053 16.9964 17.02C16.7164 17.2347 16.5764 17.538 16.5764 17.93C16.5764 18.3033 16.7118 18.5973 16.9824 18.812C17.2531 19.0267 17.6218 19.134 18.0884 19.134ZM26.0146 23.334V16.866H27.8206V23.334H26.0146ZM23.5926 20.954V19.246H30.2566V20.954H23.5926Z" fill="#C94D4D"/>
</svg>
