<svg width="70" height="70" viewBox="0 0 70 70" fill="none" xmlns="http://www.w3.org/2000/svg">
<path fill-rule="evenodd" clip-rule="evenodd" d="M34.265 29.4304C34.755 29.6722 35.385 29.2232 35.28 30.7774L35.14 32.988C35.14 33.4715 35.07 33.6442 35.07 34.0587C35.07 34.3696 35.035 34.8877 34.965 35.1985C34.86 36.1311 34.965 36.4074 33.915 36.511V36.7873C34.16 36.9255 36.015 36.8564 36.435 36.8564C36.68 36.8564 36.47 36.8564 36.645 36.7873C36.61 36.4074 36.47 36.511 36.085 36.442C35.735 36.3729 35.665 36.3383 35.63 36.0275C35.49 35.3367 35.735 31.7791 35.735 30.8465C35.945 31.0538 36.015 31.2955 36.12 31.5719C36.26 31.8482 36.33 32.0209 36.47 32.2972C36.61 32.5735 36.68 32.7807 36.785 33.0571C36.96 33.3334 37.03 33.5061 37.17 33.8169C37.555 34.715 38.36 36.0275 38.57 36.9255C38.99 36.891 38.815 36.9255 39.095 36.3038C39.55 35.3367 39.83 34.8877 40.25 34.0242L41.755 31.0192C41.825 30.8811 41.79 30.9847 41.825 30.9156C41.825 31.6064 41.895 32.0209 41.895 32.7117C41.895 33.437 42.035 35.8202 41.755 36.3729C41.545 36.4074 41.195 36.511 40.95 36.511V36.8564H43.75C43.995 36.8564 43.96 36.7183 43.96 36.511C43.75 36.511 43.54 36.4765 43.365 36.4074C42.84 36.2693 42.945 35.4748 42.945 34.6113C42.945 34.0587 42.875 33.7479 42.875 33.2643V30.0867C42.875 29.7413 43.05 29.5686 43.365 29.534C43.89 29.4304 44.03 29.6376 43.89 29.085C43.505 29.1541 42.245 29.2577 41.895 29.085C41.86 29.5686 41.545 30.2594 41.335 30.6738C41.09 31.1919 40.845 31.6409 40.6 32.159L38.955 35.164C38.745 34.266 36.295 30.5011 36.295 29.085C35.945 29.2577 34.685 29.1541 34.3 29.085C34.265 29.2232 34.265 29.2232 34.265 29.4304ZM65.205 30.1557C65.205 33.6097 70 33.2298 70 30.5011C70 29.6722 70 29.1886 69.23 28.4978C68.46 27.807 67.13 27.6689 66.255 28.2906C65.66 28.7396 65.205 29.3613 65.205 30.1557ZM49.14 32.4699V32.7117C49.455 32.8153 49.63 33.0571 49.63 33.4715C49.63 33.886 49.7 35.9584 49.525 36.2693C49.42 36.4765 49.105 36.4765 48.895 36.511V36.8564H51.065C51.31 36.8564 51.1 36.8564 51.275 36.7873C51.24 36.4074 50.995 36.442 50.645 36.3729C50.505 35.7512 50.575 34.1969 50.575 33.4715C50.575 32.6771 51.975 32.3317 52.57 33.0916C52.885 33.5061 52.815 35.7166 52.71 36.1656C52.64 36.3729 52.57 36.4765 52.01 36.511V36.7873C52.29 36.9255 54.005 36.8564 54.425 36.8564V36.511C53.445 36.4074 53.655 36.062 53.655 34.0587C53.655 33.0571 53.725 32.0554 52.22 32.0554C51.765 32.0554 51.31 32.2281 50.96 32.4353C50.785 32.539 50.785 32.539 50.575 32.5735V31.9173C50.12 31.9173 49.63 32.3317 49.14 32.4699ZM1.365 29.4995C1.855 29.7067 2.38 29.4304 2.38 30.1557L2.45 33.1261H3.43V29.9485C3.43 29.4649 3.675 29.5686 4.165 29.5686C6.055 29.5686 6.44 32.09 5.075 32.9534C3.955 33.6442 1.225 33.1952 0 33.1952L0.28 33.2988C2.345 33.7824 7.035 34.266 7.035 31.2955C7.035 30.1212 6.195 29.3959 5.005 29.1886C3.92 28.9814 3.115 29.1541 2.1 29.1541C1.68 29.1541 1.4 29.085 1.365 29.4995ZM15.505 32.1936C15.365 32.2281 15.155 32.3317 15.015 32.4008C14.805 32.539 14.84 32.539 14.91 32.7807C15.82 32.7807 15.505 32.7117 15.505 33.1952C15.505 33.5406 15.61 36.2002 15.435 36.3729C15.085 36.5456 14.805 36.3383 14.77 36.7873C15.05 36.891 16.345 36.8219 16.905 36.8564C17.36 36.8564 17.29 36.9255 17.43 36.6492C17.08 36.1656 16.485 36.891 16.485 35.6821C16.485 31.5719 16.17 33.1607 18.06 32.7117C18.165 32.2972 18.13 32.608 18.06 32.1936C16.59 32.1936 16.485 32.3663 16.485 31.7791C16.485 30.8465 16.59 28.6014 17.885 29.1195C18.235 29.2577 18.41 29.7067 18.725 29.7067C19.145 29.7067 19.355 29.3613 19.215 29.0159C18.865 28.256 16.17 28.0488 15.68 30.7774C15.61 31.1574 15.505 31.8136 15.505 32.1936Z" fill="#F00F0F"/>
<path fill-rule="evenodd" clip-rule="evenodd" d="M46.2696 32.4699C48.1246 32.4699 48.1946 36.5802 46.4796 36.5802C44.9396 36.5802 44.6246 34.1969 45.2196 33.1607C45.3946 32.8153 45.7796 32.4699 46.2696 32.4699ZM43.8896 34.3351V34.8186C43.8896 37.6164 48.8246 37.8927 48.8246 34.4732C48.8246 31.1229 43.8896 31.4337 43.8896 34.3351ZM58.8696 32.539C59.4296 32.5736 59.5696 32.7117 59.7796 33.1607L60.6196 35.4404C61.1096 36.7183 61.1446 36.891 60.3746 38.2035C60.1996 38.4798 60.1646 38.6525 59.7446 38.6525C59.2546 38.6871 59.1496 38.7216 59.1496 39.2052C59.1496 39.6542 59.4296 39.6887 59.7446 39.6887C60.3746 39.6887 60.6546 38.7562 61.0046 37.9963L62.8946 34.0588C63.2796 33.2989 63.4546 32.5736 64.2596 32.539V32.1936H62.1246V32.539C62.3696 32.539 62.6146 32.6081 62.8246 32.6426C62.8246 32.988 62.4396 33.8515 62.2996 34.1624C62.1596 34.4387 61.7746 35.4404 61.5996 35.544L61.0746 34.1624C60.9696 33.817 60.6546 32.988 60.6196 32.6426C61.3196 32.5045 61.1796 32.539 61.1796 32.1936H59.0796C58.8346 32.1936 58.8696 32.2972 58.8696 32.539ZM19.4246 33.4716C18.2346 33.4716 19.7046 32.4699 20.2296 32.4699C20.7896 32.4699 21.0696 32.7463 21.0696 33.1953C21.0696 33.5061 20.6496 33.368 20.3346 33.4025C20.0546 33.4371 19.7746 33.4716 19.4246 33.4716ZM17.9896 34.5423C17.9896 37.2364 20.4396 37.3055 21.4196 36.6147C21.7346 36.4075 22.0846 36.0621 22.0146 35.6821C21.2446 35.7167 21.9096 36.2348 20.5096 36.2348C19.3546 36.2348 18.6546 34.7841 18.8646 33.8861C19.8096 33.8861 21.2096 33.9897 22.0146 33.817C22.0146 33.1262 22.0146 32.919 21.6646 32.539C20.8946 31.7446 19.3196 31.9864 18.6196 32.8153C18.2696 33.2298 17.9896 33.817 17.9896 34.5423ZM55.9996 33.4716H55.5796C55.5796 33.0917 55.7546 32.9535 55.9646 32.7808C56.5596 32.2972 57.6446 32.2972 57.6446 33.1953C57.6446 33.5061 57.2246 33.368 56.9096 33.4025C56.6296 33.4371 56.3496 33.4716 55.9996 33.4716ZM54.5646 34.5423C54.5646 35.3713 54.7046 35.993 55.2996 36.5111C56.0696 37.1328 57.3296 37.0983 58.0646 36.5802C58.1346 36.5111 59.0446 35.6821 58.4496 35.6821C57.9946 35.6821 58.3796 36.2348 57.0846 36.2348C56.0696 36.2348 55.5096 35.1986 55.3696 34.266C55.2996 33.7134 55.5446 33.8861 56.8046 33.8861C57.3996 33.8861 58.0996 33.9206 58.5896 33.817C58.5896 33.5061 58.7646 33.1262 58.2746 32.5736C57.5046 31.7101 55.8946 31.9864 55.1946 32.8153C54.8446 33.1953 54.5646 33.8515 54.5646 34.5423ZM7.73457 33.4716C7.80457 32.3663 9.83457 32.0555 9.83457 33.1262C9.83457 33.5752 8.18957 33.4716 7.73457 33.4716ZM6.75457 34.3351C6.75457 35.095 6.71957 35.8203 7.41957 36.442C8.29457 37.2364 9.93957 37.1673 10.6396 36.2002C10.8846 35.8203 10.8146 35.4749 10.3946 35.8548C9.16957 36.9256 7.59457 35.7512 7.59457 34.0588C7.59457 33.7479 8.57457 33.8861 9.23957 33.8861C10.6396 33.8861 10.8146 34.0242 10.8146 33.4025C10.8146 32.5736 10.0096 32.0555 9.02957 32.0555C7.80457 32.0555 6.75457 33.1607 6.75457 34.3351ZM22.3646 34.4042V34.8877C22.3646 36.8219 24.6046 37.4437 25.8996 36.6147C26.1096 36.4765 26.5996 36.0621 26.5996 35.7512C26.5996 35.5094 26.5996 35.7512 26.5296 35.544C26.1446 35.5785 26.3196 35.6821 26.0046 35.9239C25.0946 36.6492 23.2396 36.1657 23.2396 34.1969C23.2396 33.2989 23.8696 32.539 24.8146 32.539C25.6196 32.539 25.8296 33.1953 26.1096 33.1953C26.3546 33.1953 26.5646 32.8153 26.3546 32.4009C26.1796 32.0209 25.4446 32.0555 25.0246 32.0555C24.2196 32.0555 23.5896 32.3318 23.1696 32.7117C22.7496 33.0571 22.3646 33.7134 22.3646 34.4042ZM26.8796 32.7117C27.0546 32.8153 27.1596 32.7808 27.4746 32.7808V35.544C27.4746 37.8236 29.9946 36.8565 29.9946 36.3729C29.9946 36.0275 29.7496 36.2348 29.6096 36.3038C29.3996 36.4075 29.2946 36.442 28.9796 36.3729C28.5946 36.2348 28.4196 35.8203 28.4196 35.3022V32.7808C30.0646 32.7808 30.1696 32.9535 29.9946 32.1936C28.3496 32.1936 28.4546 32.3318 28.4196 31.7791C28.4196 31.5374 28.4196 31.3301 28.2096 31.3992C27.9646 31.5028 27.9996 32.0555 27.1596 32.3663C26.8446 32.4699 26.8796 32.3663 26.8796 32.7117ZM11.2696 32.5736C11.2696 32.919 11.6896 32.7808 11.6896 33.1262C11.6896 33.9206 11.7596 35.7167 11.6196 36.3729C11.4096 36.4075 11.2346 36.4765 10.9896 36.5111V36.8565H13.4046C13.6146 36.8565 13.5796 36.7183 13.6146 36.5111C13.4746 36.5111 13.0546 36.442 12.9496 36.4075C12.7396 36.3729 12.6346 36.2348 12.6346 35.9584V33.6788C12.6346 33.3334 12.8096 32.8499 13.1946 32.8499C13.4746 32.8499 13.7896 33.1262 13.8596 33.1262C14.9446 33.1262 14.5946 31.3992 13.1596 32.2972C12.9846 32.4354 12.8796 32.6081 12.6346 32.6426V31.9173C12.2846 31.9173 11.9696 32.1591 11.5496 32.3318C11.3746 32.4009 11.2696 32.3663 11.2696 32.5736ZM1.43457 36.5111V36.8565H4.58457V36.5111C3.21957 36.4765 3.42957 35.993 3.42957 33.9551C2.86957 33.9551 2.93957 33.9897 2.44957 33.8861C2.44957 34.5423 2.37957 35.0604 2.37957 35.6131C2.37957 36.4075 2.13457 36.442 1.43457 36.5111Z" fill="#F00F0F"/>
<path fill-rule="evenodd" clip-rule="evenodd" d="M44.1703 40.3452C44.1703 39.5853 45.0453 39.5853 45.0453 40.3452C45.0453 41.0359 44.1703 41.1396 44.1703 40.3452ZM43.6103 42.1067H44.1703V41.1741C45.7103 42.1757 46.1303 39.3435 44.8353 39.3435C44.1703 39.3435 44.4853 39.4471 44.1003 39.5507V39.3435H43.6103V42.1067ZM47.0403 39.758H47.1103C47.3203 39.758 47.3553 39.9307 47.4253 40.0688H46.6903C46.7253 39.8961 46.8303 39.758 47.0403 39.758ZM46.1303 40.1379C46.1303 40.6905 46.1303 41.3468 47.1803 41.3468C47.4253 41.3468 47.6703 41.3123 47.8453 41.2432L47.7753 40.8287C47.3553 40.9323 46.7253 41.0705 46.6903 40.4833H47.9153C47.9153 39.7234 47.8803 39.3435 46.9703 39.3435C46.5503 39.3435 46.1303 39.758 46.1303 40.1379ZM36.2953 40.5524C36.2953 41.8304 37.4853 41.2086 37.5553 41.2086L38.0803 41.2777V39.3435H37.5203C37.5203 39.9998 37.6953 40.8978 37.2053 40.8978C36.7153 40.8978 36.8553 39.8961 36.8553 39.3435H36.2953V40.5524ZM52.7103 39.758H52.7803C52.9903 39.758 53.0603 39.8961 53.1303 40.0688H52.3603C52.3953 39.8961 52.5003 39.758 52.7103 39.758ZM51.8353 40.2761C51.8353 41.8304 53.5153 41.3468 53.5153 41.1741C53.5153 40.6905 53.3403 40.8978 52.9553 40.9323C52.6403 40.9323 52.3953 40.8287 52.3603 40.4833H53.6553C53.6553 38.7909 51.8353 39.1363 51.8353 40.2761ZM50.4353 39.3435H50.1903V39.8271H50.4353V41.2777H50.9953V39.8271H51.4153V39.3435H50.9953L51.0653 38.9981C51.2403 38.8945 51.2403 38.929 51.5553 38.929V38.4455C51.0653 38.4455 50.4703 38.4109 50.4353 39.3435ZM40.8803 38.9981V39.3435H40.6003V39.8271H40.8803C40.8803 41.0359 40.7753 41.3468 41.6853 41.3468C41.9653 41.3468 41.8953 41.2086 41.8953 40.8978C41.3353 40.8978 41.4403 40.8287 41.4403 39.8271H41.8953V39.3435H41.4403V38.86C41.1953 38.929 41.1253 38.9636 40.8803 38.9981ZM56.4553 38.9981V39.3435H56.2103V39.8271H56.4553C56.4553 40.8978 56.3503 41.3468 57.2953 41.3468C57.5403 41.3468 57.5053 41.2086 57.5053 40.8978C56.9453 40.8978 57.2603 40.9323 57.0853 40.8287C56.9803 40.3452 57.0153 40.3797 57.0153 39.8271H57.5053V39.3435H57.0153V38.86C56.8053 38.929 56.7003 38.9636 56.4553 38.9981ZM38.8153 39.8616C38.8153 40.656 39.3403 40.3452 39.6553 40.7596C39.4103 41.105 39.4103 40.9669 38.8153 40.8287C38.7803 41.0359 38.5353 41.3468 39.3753 41.3468C40.2503 41.3468 40.4253 40.5524 39.8653 40.207C39.7253 40.1379 39.4803 40.1034 39.4103 39.9998C39.2353 39.8271 39.4103 39.758 39.6203 39.758C39.8303 39.758 39.7253 39.7925 40.0053 39.8271C40.0753 39.6544 40.0403 39.5507 40.1103 39.4126C39.8303 39.378 38.8153 39.1017 38.8153 39.8616ZM54.1453 40.3452C54.1453 41.0014 54.5653 41.3468 55.2303 41.3468C55.4753 41.3468 55.5103 41.3123 55.7203 41.2777V40.8287C54.2503 41.1741 54.6353 39.758 55.3003 39.758C55.4753 39.758 55.3703 39.7925 55.6503 39.8271C55.8953 39.2744 55.6853 39.3435 55.0203 39.3435C54.5303 39.3435 54.1453 39.8271 54.1453 40.3452ZM35.0003 40.4142C35.0003 41.0705 34.4753 40.8632 34.2653 40.8287C34.2653 41.105 34.2303 41.105 34.1953 41.2777C35.8753 41.6922 35.5603 40.4142 35.5603 38.6527H35.0003V40.4142ZM48.6153 41.2777H49.1403C49.1403 40.2761 49.0003 39.9998 49.5253 39.8616C49.7003 39.7925 49.7003 40.0688 49.7003 39.3435C49.3153 39.3435 49.3153 39.378 49.0703 39.5507V39.3435H48.6153V41.2777Z" fill="black"/>
<path fill-rule="evenodd" clip-rule="evenodd" d="M67.27 29.5338C67.445 29.5338 67.445 29.4302 67.445 29.9828C67.445 30.1555 67.445 30.8463 67.375 30.9499C67.34 31.019 67.235 31.019 67.13 31.019V31.0881H67.76V31.019C67.515 31.019 67.515 31.0535 67.515 30.5354V29.7756C67.585 29.8792 67.655 29.9828 67.69 30.121C67.725 30.1555 67.76 30.2246 67.795 30.2591L68.215 31.0881C68.25 31.1226 68.25 31.0535 68.285 31.019L68.74 30.121C68.775 30.0864 68.915 29.8101 68.915 29.7756V30.8118C68.915 31.019 68.88 30.9845 68.705 31.019V31.0881H69.335V31.019C69.125 31.019 69.125 30.9845 69.125 30.7772V29.6374C69.125 29.4993 69.195 29.5338 69.3 29.5338V29.4302H68.915C68.915 29.4302 68.915 29.4647 68.88 29.4647L68.845 29.6029C68.81 29.6374 68.775 29.7065 68.74 29.7756C68.74 29.8101 68.705 29.8792 68.67 29.9137C68.635 29.9828 68.635 30.0519 68.6 30.0864C68.53 30.19 68.495 30.3282 68.425 30.4318C68.425 30.5009 68.39 30.5354 68.355 30.6045C68.355 30.6391 68.285 30.7427 68.285 30.7772L67.62 29.4302H67.27V29.5338Z" fill="#FEFDFD"/>
<path fill-rule="evenodd" clip-rule="evenodd" d="M66.115 29.5338H66.29C66.325 29.5338 66.325 29.6029 66.325 29.6374V30.2591C66.36 30.2937 66.5 30.2591 66.535 30.2591V29.4993C66.745 29.4993 66.85 29.4993 66.955 29.6029C67.06 29.672 67.095 29.8101 67.095 29.9828C67.06 30.121 66.99 30.2246 66.85 30.2591C66.675 30.3627 66.22 30.3627 66.01 30.3282C65.975 30.2937 65.905 30.2937 65.87 30.2937C65.94 30.3282 66.08 30.3627 66.15 30.3627C66.29 30.3973 66.43 30.3973 66.535 30.3973C66.85 30.3973 67.2 30.3627 67.305 30.0519C67.34 29.9483 67.34 29.8447 67.305 29.741C67.235 29.5683 67.06 29.4647 66.85 29.4302H66.115V29.5338ZM66.115 31.019V31.0881H66.745V31.019C66.5 31.019 66.535 31.019 66.535 30.6391V30.4664H66.325V30.8118C66.325 31.019 66.29 30.9845 66.115 31.019Z" fill="#FEFDFD"/>
</svg>
