<svg width="29" height="41" viewBox="0 0 29 41" fill="none" xmlns="http://www.w3.org/2000/svg">
<path d="M28.168 15.3349C27.6955 16.4756 26.6342 17.1844 25.3983 17.1844H20.3595L16.1409 38.0445C16.1395 38.0508 16.1382 38.057 16.1368 38.0633C15.7349 39.7892 15.1017 40.6721 14.2549 40.6873C14.2476 40.6873 14.2403 40.6875 14.2331 40.6875C12.979 40.6875 12.4466 38.7253 12.2709 38.0779C12.2672 38.0641 12.2639 38.0502 12.261 38.0362L8.04404 17.1844H3.00519C1.76931 17.1844 0.707986 16.4756 0.235486 15.3349C-0.237014 14.1942 0.0123609 12.9428 0.88624 12.069L12.0829 0.87232C12.6454 0.309832 13.3979 0 14.2017 0C15.0055 0 15.758 0.30975 16.3205 0.87232L27.5173 12.069C28.3911 12.9428 28.6404 14.1942 28.168 15.3349Z" fill="#03E5E9"/>
</svg>
