<svg width="32" height="32" viewBox="0 0 32 32" fill="none" xmlns="http://www.w3.org/2000/svg">
<g clip-path="url(#clip0_155_2111)">
<path d="M19.343 32.0039C20.4129 32.0039 21.346 31.0709 21.346 30.0009V25.3231H22.6834C23.486 25.3231 24.0208 24.788 24.0208 23.9856V10.625H7.98438V23.9858C7.98438 24.7882 8.51935 25.3232 9.32181 25.3232H10.6593V30.001C10.6593 31.071 11.5922 32.004 12.6623 32.004C13.7322 32.004 14.6651 31.071 14.6651 30.001V25.3232H17.3401V30.001C17.34 31.0709 18.273 32.0039 19.343 32.0039Z" fill="white"/>
<path d="M27.3624 23.9857C28.4323 23.9857 29.3652 23.0528 29.3652 21.9828V12.6271C29.3652 11.5629 28.4323 10.625 27.3624 10.625C26.2923 10.625 25.3594 11.5629 25.3594 12.6271V21.9828C25.3594 23.0527 26.2922 23.9857 27.3624 23.9857Z" fill="white"/>
<path d="M4.64341 23.9857C5.71346 23.9857 6.6464 23.0528 6.6464 21.9828V12.6271C6.6464 11.5629 5.71357 10.625 4.64341 10.625C3.57346 10.625 2.64062 11.5629 2.64062 12.6271V21.9828C2.64062 23.0527 3.57346 23.9857 4.64341 23.9857Z" fill="white"/>
<path d="M22.4158 0.201816C22.1484 -0.067272 21.7504 -0.067272 21.483 0.201816L19.6892 1.98965L19.6064 2.0723C18.5428 1.53967 17.3502 1.27368 16.0222 1.27112C16.0157 1.27112 16.0093 1.27091 16.0028 1.27091H16.0026C15.9958 1.27091 15.9896 1.27112 15.9829 1.27112C14.655 1.27368 13.4625 1.53967 12.3989 2.0723L12.3159 1.98965L10.5222 0.201816C10.2546 -0.067272 9.85678 -0.067272 9.5894 0.201816C9.32181 0.469409 9.32181 0.866527 9.5894 1.13391L11.3246 2.86942C10.7655 3.24272 10.2585 3.69953 9.81759 4.22201C8.76206 5.47316 8.08881 7.10147 7.99623 8.8657C7.99537 8.88407 7.99356 8.90222 7.9927 8.92059C7.98704 9.04071 7.98438 9.16148 7.98438 9.28268H24.0208C24.0208 9.16148 24.018 9.04071 24.0125 8.92059C24.0117 8.90222 24.0098 8.88407 24.0088 8.8657C23.9164 7.10147 23.2429 5.47306 22.1874 4.22212C21.7467 3.69964 21.2395 3.24283 20.6804 2.86952L22.4158 1.13401C22.6834 0.866527 22.6834 0.469409 22.4158 0.201816ZM12.6598 6.94749C12.1064 6.94749 11.6579 6.4989 11.6579 5.94556C11.6579 5.39222 12.1064 4.94364 12.6598 4.94364C13.2131 4.94364 13.6617 5.39222 13.6617 5.94556C13.6617 6.4989 13.2131 6.94749 12.6598 6.94749ZM19.3454 6.94749C18.7921 6.94749 18.3435 6.4989 18.3435 5.94556C18.3435 5.39222 18.7921 4.94364 19.3454 4.94364C19.8988 4.94364 20.3474 5.39222 20.3474 5.94556C20.3474 6.4989 19.8988 6.94749 19.3454 6.94749Z" fill="white"/>
</g>
<defs>
<clipPath id="clip0_155_2111">
<rect width="32" height="32" fill="white"/>
</clipPath>
</defs>
</svg>
