<svg width="20" height="20" viewBox="0 0 20 20" fill="none" xmlns="http://www.w3.org/2000/svg">
<g clip-path="url(#clip0_131_905)">
<path d="M10.7898 13.8247C10.5804 14.0342 10.2963 14.1519 10.0001 14.1519C9.70383 14.1519 9.41974 14.0342 9.21027 13.8247L5.02425 9.63871C4.32749 8.94195 4.82113 7.75066 5.80628 7.75066H8.12574C8.12574 7.74148 8.12503 7.73242 8.12503 7.72332C8.12503 7.22604 8.32258 6.74913 8.67421 6.3975C9.02584 6.04587 9.50275 5.84832 10 5.84832C10.4973 5.84832 10.9742 6.04587 11.3259 6.3975C11.6775 6.74913 11.875 7.22604 11.875 7.72332C11.875 7.7325 11.8745 7.74156 11.8743 7.75066H14.1938C15.1791 7.75066 15.6726 8.94207 14.9758 9.63871L10.7898 13.8247Z" fill="white"/>
<path d="M10 20C4.47734 20 0 15.5227 0 10C0 4.47734 4.47734 0 10 0C15.5227 0 20 4.47734 20 10C20 15.5227 15.5227 20 10 20ZM10 1.25C5.16758 1.25 1.25 5.16758 1.25 10C1.25 14.8324 5.16758 18.75 10 18.75C14.8324 18.75 18.75 14.8324 18.75 10C18.75 5.16758 14.8324 1.25 10 1.25Z" fill="white"/>
</g>
<defs>
<clipPath id="clip0_131_905">
<rect width="20" height="20" fill="white" transform="matrix(1 0 0 -1 0 20)"/>
</clipPath>
</defs>
</svg>
