<svg width="104" height="32" viewBox="0 0 104 32" fill="none" xmlns="http://www.w3.org/2000/svg">
<path fill-rule="evenodd" clip-rule="evenodd" d="M36.7018 31.4879L41.9198 0.539792H50.3765L45.1585 31.4879H36.7018ZM75.5668 1.25952C73.9474 0.719723 71.4284 0 68.0097 0C59.7329 0 53.9751 4.13841 53.7952 10.2561C53.7952 14.5744 58.1135 17.0934 61.1724 18.5329C64.591 20.1523 65.6706 21.0519 65.6706 22.4914C65.6706 24.4706 62.9717 25.3702 60.6326 25.3702C57.2139 25.3702 55.4146 25.0104 52.7156 23.7509L51.4561 23.391L50.3765 30.2284C52.3558 31.128 55.9544 31.8478 59.7329 31.8478C68.5495 31.8478 74.3073 27.7093 74.4872 21.4118C74.4872 17.8132 72.1481 15.1142 67.29 12.955C64.4111 11.5156 62.6118 10.6159 62.6118 9.17647C62.6118 7.91696 64.2312 6.47751 67.4699 6.47751C70.1689 6.47751 72.1481 7.0173 73.7675 7.55709L74.4872 7.91696L75.5668 1.25952ZM97.3385 0.539792H90.681C88.7018 0.539792 87.2623 1.07958 86.3627 3.05882L73.7675 31.4879H82.5841C82.5841 31.4879 84.0236 27.7093 84.3834 26.8097H95.1793C95.5391 27.8893 96.2589 31.4879 96.2589 31.4879H103.996L97.3385 0.539792ZM86.9025 20.5121C87.6222 18.7128 90.1412 11.8754 90.1412 11.8754C90.1412 11.8754 90.8609 10.0761 91.4007 8.81661L91.9405 11.5156C91.9405 11.5156 93.5599 18.8927 93.9198 20.5121H86.9025ZM29.5045 0.539792L21.4077 21.5917L20.508 17.2734C18.8886 12.4152 14.2104 7.0173 8.8125 4.31834L16.3696 31.4879H25.1862L38.5011 0.539792H29.5045Z" fill="#01549A"/>
<path fill-rule="evenodd" clip-rule="evenodd" d="M13.6747 0.540039H0.179931L0 1.25976C10.6159 3.77879 17.6332 9.89644 20.5121 17.2736L17.4533 3.239C17.0934 1.25976 15.474 0.540039 13.6747 0.540039Z" fill="#F7A707"/>
</svg>
