<svg width="48" height="32" viewBox="0 0 48 32" fill="none" xmlns="http://www.w3.org/2000/svg">
<g clip-path="url(#clip0_946_336)">
<path d="M30.4759 4.17578H17.4863V27.5128H30.4759V4.17578Z" fill="#FF5A00"/>
<path d="M18.3507 15.8439C18.3507 11.1025 20.5797 6.89431 24 4.17534C21.4828 2.19616 18.3074 1 14.8439 1C6.63891 1 0 7.63891 0 15.8439C0 24.0488 6.63891 30.6877 14.8439 30.6877C18.3074 30.6877 21.4828 29.4916 24 27.5124C20.5749 24.8319 18.3507 20.5853 18.3507 15.8439Z" fill="#EB001B"/>
<path d="M48 15.8439C48 24.0488 41.3611 30.6877 33.1561 30.6877C29.6926 30.6877 26.5172 29.4916 24 27.5124C27.4636 24.7886 29.6493 20.5853 29.6493 15.8439C29.6493 11.1025 27.4203 6.89431 24 4.17534C26.5124 2.19616 29.6877 1 33.1513 1C41.3611 1 48 7.68215 48 15.8439Z" fill="#F79E1B"/>
</g>
<defs>
<clipPath id="clip0_946_336">
<rect width="48" height="32" fill="white"/>
</clipPath>
</defs>
</svg>
