<svg width="32" height="32" viewBox="0 0 32 32" fill="none" xmlns="http://www.w3.org/2000/svg">
<path d="M23.6064 16.8868C23.5747 13.3635 26.4912 11.6495 26.6246 11.5697C24.9729 9.16143 22.4127 8.83239 21.513 8.80615C19.3628 8.57987 17.277 10.0928 16.1817 10.0928C15.0644 10.0928 13.3777 8.82801 11.5598 8.86518C9.22041 8.90126 7.03191 10.2557 5.83162 12.3589C3.35452 16.6474 5.20196 22.9495 7.57521 26.4159C8.76238 28.1135 10.1496 30.0091 11.9653 29.9424C13.7417 29.8692 14.4053 28.8099 16.549 28.8099C18.673 28.8099 19.2961 29.9424 21.1479 29.8998C23.0544 29.8692 24.2546 28.1944 25.4003 26.4815C26.7722 24.5356 27.3231 22.6193 27.345 22.5209C27.3002 22.5056 23.6425 21.1097 23.6064 16.8868Z" fill="white"/>
<path d="M20.1083 6.52581C21.0637 5.33098 21.7174 3.70546 21.5359 2.05588C20.1531 2.11709 18.4237 3.01239 17.4278 4.18098C16.5468 5.21074 15.7597 6.89858 15.963 8.48584C17.5164 8.60172 19.1113 7.70205 20.1083 6.52581Z" fill="white"/>
</svg>
