<svg width="40" height="40" viewBox="0 0 40 40" fill="none" xmlns="http://www.w3.org/2000/svg">
<rect width="40" height="40" rx="20" fill="#F04E34"/>
<path d="M13.291 14.8286V25.5H10.9985V17.436L8.52295 18.1904V16.418L13.064 14.8286H13.291ZM23.9404 22.5703C23.9404 23.2441 23.7817 23.8105 23.4644 24.2695C23.147 24.7285 22.7124 25.0728 22.1606 25.3022C21.6138 25.5317 20.9888 25.6465 20.2856 25.6465C19.5874 25.6465 18.96 25.5317 18.4033 25.3022C17.8516 25.0728 17.4146 24.7285 17.0923 24.2695C16.77 23.8105 16.6089 23.2441 16.6089 22.5703C16.6089 22.1113 16.6992 21.6987 16.8799 21.3325C17.0654 20.9663 17.3218 20.6538 17.6489 20.395C17.981 20.1362 18.3691 19.9385 18.8135 19.8018C19.2627 19.665 19.7485 19.5967 20.271 19.5967C20.9741 19.5967 21.6016 19.7188 22.1533 19.9629C22.71 20.2021 23.147 20.5439 23.4644 20.9883C23.7817 21.4326 23.9404 21.96 23.9404 22.5703ZM21.6406 22.4019C21.6406 22.0894 21.582 21.8257 21.4648 21.6108C21.3525 21.3911 21.1938 21.2227 20.9888 21.1055C20.7837 20.9834 20.5444 20.9224 20.271 20.9224C19.9976 20.9224 19.7583 20.9834 19.5532 21.1055C19.3481 21.2227 19.187 21.3911 19.0698 21.6108C18.9575 21.8257 18.9014 22.0894 18.9014 22.4019C18.9014 22.7046 18.96 22.9683 19.0771 23.1929C19.1943 23.4126 19.3555 23.5811 19.5605 23.6982C19.7656 23.8105 20.0073 23.8667 20.2856 23.8667C20.564 23.8667 20.8032 23.8105 21.0034 23.6982C21.2036 23.5811 21.3599 23.4126 21.4722 23.1929C21.5845 22.9683 21.6406 22.7046 21.6406 22.4019ZM23.7134 17.6704C23.7134 18.2222 23.5669 18.708 23.2739 19.1279C22.9858 19.543 22.583 19.8677 22.0654 20.1021C21.5479 20.3315 20.9546 20.4463 20.2856 20.4463C19.6167 20.4463 19.021 20.3315 18.4985 20.1021C17.981 19.8677 17.5732 19.543 17.2754 19.1279C16.9824 18.708 16.8359 18.2222 16.8359 17.6704C16.8359 17.0259 16.9824 16.4814 17.2754 16.0371C17.5732 15.5928 17.981 15.2559 18.4985 15.0264C19.0161 14.7969 19.6069 14.6821 20.271 14.6821C20.9448 14.6821 21.5405 14.7969 22.0581 15.0264C22.5757 15.2559 22.981 15.5928 23.2739 16.0371C23.5669 16.4814 23.7134 17.0259 23.7134 17.6704ZM21.4282 17.7876C21.4282 17.519 21.3818 17.2871 21.2891 17.0918C21.2012 16.8916 21.0718 16.7378 20.9009 16.6304C20.73 16.5181 20.52 16.4619 20.271 16.4619C20.0317 16.4619 19.8267 16.5156 19.6558 16.623C19.4849 16.7256 19.353 16.877 19.2603 17.0771C19.1724 17.2725 19.1284 17.5093 19.1284 17.7876C19.1284 18.061 19.1724 18.3003 19.2603 18.5054C19.353 18.7056 19.4849 18.8643 19.6558 18.9814C19.8315 19.0938 20.0415 19.1499 20.2856 19.1499C20.5347 19.1499 20.7422 19.0938 20.9082 18.9814C21.0791 18.8643 21.2085 18.7056 21.2964 18.5054C21.3843 18.3003 21.4282 18.061 21.4282 17.7876ZM32.2827 19.5015V21.4863H24.9731V19.5015H32.2827ZM29.7192 16.667V24.4307H27.5659V16.667H29.7192Z" fill="white"/>
</svg>
