<svg width="26" height="26" viewBox="0 0 26 26" fill="none" xmlns="http://www.w3.org/2000/svg">
<g clip-path="url(#clip0_342_727)">
<path d="M15.7162 26.0032C16.5855 26.0032 17.3436 25.2451 17.3436 24.3758V20.575H18.4303C19.0824 20.575 19.5169 20.1402 19.5169 19.4883V8.63281H6.4873V19.4884C6.4873 20.1404 6.92197 20.5751 7.57397 20.5751H8.66072V24.3758C8.66072 25.2452 9.41865 26.0033 10.2882 26.0033C11.1574 26.0033 11.9154 25.2452 11.9154 24.3758V20.5751H14.0888V24.3758C14.0887 25.2451 14.8468 26.0032 15.7162 26.0032Z" fill="#101D2C"/>
<path d="M22.2319 19.4884C23.1013 19.4884 23.8592 18.7304 23.8592 17.861V10.2596C23.8592 9.39482 23.1013 8.63281 22.2319 8.63281C21.3625 8.63281 20.6045 9.39482 20.6045 10.2596V17.861C20.6045 18.7303 21.3624 19.4884 22.2319 19.4884Z" fill="#101D2C"/>
<path d="M3.77277 19.4884C4.64219 19.4884 5.4002 18.7304 5.4002 17.861V10.2596C5.4002 9.39482 4.64227 8.63281 3.77277 8.63281C2.90344 8.63281 2.14551 9.39482 2.14551 10.2596V17.861C2.14551 18.7303 2.90344 19.4884 3.77277 19.4884Z" fill="#101D2C"/>
<path d="M18.2129 0.163975C17.9956 -0.0546585 17.6722 -0.0546585 17.4549 0.163975L15.9974 1.61659L15.9302 1.68374C15.066 1.25099 14.0971 1.03487 13.018 1.03279C13.0127 1.03279 13.0075 1.03261 13.0022 1.03261H13.0021C12.9966 1.03261 12.9916 1.03279 12.9861 1.03279C11.9072 1.03487 10.9382 1.25099 10.0741 1.68374L10.0067 1.61659L8.54932 0.163975C8.3319 -0.0546585 8.00863 -0.0546585 7.79139 0.163975C7.57397 0.381395 7.57397 0.704053 7.79139 0.921299L9.20123 2.3314C8.74696 2.63471 8.33502 3.00587 7.97679 3.43038C7.11917 4.44695 6.57216 5.76994 6.49693 7.20338C6.49624 7.2183 6.49477 7.23305 6.49407 7.24798C6.48947 7.34558 6.4873 7.4437 6.4873 7.54218H19.5169C19.5169 7.4437 19.5146 7.34558 19.5102 7.24798C19.5095 7.23305 19.508 7.2183 19.5071 7.20338C19.4321 5.76994 18.8849 4.44686 18.0273 3.43047C17.6692 3.00596 17.2571 2.6348 16.8028 2.33149L18.2129 0.921386C18.4303 0.704053 18.4303 0.381395 18.2129 0.163975ZM10.2861 5.64483C9.83648 5.64483 9.47201 5.28036 9.47201 4.83077C9.47201 4.38118 9.83648 4.0167 10.2861 4.0167C10.7357 4.0167 11.1001 4.38118 11.1001 4.83077C11.1001 5.28036 10.7357 5.64483 10.2861 5.64483ZM15.7182 5.64483C15.2686 5.64483 14.9041 5.28036 14.9041 4.83077C14.9041 4.38118 15.2686 4.0167 15.7182 4.0167C16.1678 4.0167 16.5322 4.38118 16.5322 4.83077C16.5322 5.28036 16.1678 5.64483 15.7182 5.64483Z" fill="#101D2C"/>
</g>
<defs>
<clipPath id="clip0_342_727">
<rect width="26" height="26" fill="white"/>
</clipPath>
</defs>
</svg>
