<svg width="14" height="14" viewBox="0 0 14 14" fill="none" xmlns="http://www.w3.org/2000/svg">
<g clip-path="url(#clip0_342_462)">
<path d="M14 10.465V12.9792C14 13.1542 13.895 13.3117 13.7375 13.3817C13.6792 13.405 13.6208 13.4167 13.5625 13.4167C13.4517 13.4167 13.3467 13.3758 13.265 13.3L7 7.48417L0.735 13.3C0.606667 13.4167 0.42 13.4517 0.2625 13.3817C0.105 13.3117 0 13.1542 0 12.9792V10.465L7 3.96667L14 10.465Z" fill="white"/>
<path d="M14 7.14582V10.465L7 3.96665L0 10.465V7.14582C0 7.02332 0.0525 6.90665 0.14 6.82498L6.7025 0.699983C6.87167 0.5419 7.12775 0.5419 7.2975 0.699983L13.86 6.82498C13.9475 6.90665 14 7.02332 14 7.14582Z" fill="white"/>
<path d="M7 3.96667L0 10.465V12.9792C0 13.1542 0.105 13.3117 0.2625 13.3817C0.31675 13.4056 0.375083 13.4173 0.432833 13.4173C0.541917 13.4173 0.651 13.3758 0.735 13.2994L7 7.48417V3.96667Z" fill="white"/>
<path d="M7 0.581543C6.89383 0.581543 6.78708 0.62121 6.7025 0.69996L0.14 6.82496C0.0525 6.90663 0 7.02329 0 7.14579V10.465L7 3.96663V0.581543Z" fill="white"/>
</g>
<defs>
<clipPath id="clip0_342_462">
<rect width="14" height="14" fill="white"/>
</clipPath>
</defs>
</svg>
