<svg width="68" height="48" viewBox="0 0 68 48" fill="none" xmlns="http://www.w3.org/2000/svg">
<path d="M11.4072 31.5753L11.4638 30.7044L5.67877e-05 33.8459L1.14775 34.3245L1.14782 34.3243L11.4072 31.5753Z" fill="#FCEE0A"/>
<path d="M66.2989 33.2035L68.0001 12.644L67.3046 12.0317L65.6035 32.5912L9.92595 47.5099L11.0844 48L11.0844 47.9998L66.2989 33.2035Z" fill="#FCEE0A"/>
<path d="M11.6271 26.9504L67.3046 12.0317L65.6035 32.5912L9.92595 47.5099L11.6271 26.9504Z" fill="black"/>
<path d="M51.1937 20.1287L52.8592 0L1.66542 13.7173L5.67877e-05 33.8459L51.1937 20.1287Z" fill="black"/>
<path d="M51.4931 16.2774L67.3046 12.0317L61.9738 10.6613L56.8708 12.0332L54.4027 14.4323L55.1436 5.06416L52.8592 0L51.4931 16.2774Z" fill="#D9D9D9"/>
<path d="M51.4931 16.2774L67.3046 12.0317L61.9738 10.6613L56.8708 12.0332L54.4027 14.4323L55.1436 5.06416L52.8592 0L51.4931 16.2774Z" fill="url(#paint0_linear_679_1375)"/>
<path d="M40.1243 14.6253L37.2371 9.24849L36.0498 8.48414L40.0168 7.42119L41.8178 10.4813L44.0985 6.32751L48.0655 5.26455L43.4034 13.7466L42.9704 18.5616L39.6913 19.4402L40.1243 14.6253Z" fill="white"/>
<path d="M25.0649 23.3593L24.4218 22.4246L26.9048 12.0416L26.2388 11.113L34.6315 8.86419L35.4809 9.74366L35.3053 11.6604L29.7102 13.1596L27.4268 22.7265L25.0649 23.3593ZM32.1505 21.4608L31.324 20.5752L31.5341 17.9603L29.264 18.5686L29.5365 15.5433L31.8066 14.9351L31.9761 12.9953L35.2552 12.1167L34.5124 20.8279L32.1505 21.4608Z" fill="white"/>
<path d="M18.2103 14.3712L17.3838 13.4856L20.6629 12.6069L21.4894 13.4925L20.7872 21.5286L24.9147 20.4227L25.7412 21.3083L25.5656 23.2251L18.159 25.2097L17.3324 24.324L18.2103 14.3712Z" fill="white"/>
<path d="M6.58163 28.3119L5.75512 27.4263L6.63296 17.4734L5.80645 16.5878L15.9648 13.8659L16.8142 14.7454L16.6386 16.6621L9.73642 18.5116L9.53981 20.9014L13.1399 19.9368L13.3094 17.997L16.5885 17.1184L16.2663 20.9688L15.2293 22.3291L9.26732 23.9266L8.9435 27.679L6.58163 28.3119Z" fill="white"/>
<path d="M51.7354 32.4957L50.872 31.5706L51.5772 23.6461L55.0026 22.7282L54.8951 23.8621L62.1052 21.9302L61.827 25.1144L54.6168 27.0463L54.4809 28.6504L61.6911 26.7185L61.514 28.7448L60.4307 30.1658L51.7354 32.4957ZM62.2411 20.3261L51.6055 23.1759L51.789 21.1736L50.9256 20.2484L61.5373 17.4051L62.4246 18.3238L62.2411 20.3261Z" fill="url(#paint1_linear_679_1375)"/>
<path d="M45.2566 25.3397L50.1193 24.0368L43.7767 31.5187L48.5675 30.235L49.4309 31.1601L49.2953 33.1496L39.6179 35.7427L38.7545 34.8175L38.914 32.8216L45.2566 25.3397ZM38.8081 23.4954L49.4198 20.652L50.3071 21.5707L50.1236 23.573L39.488 26.4228L39.6715 24.4205L38.8081 23.4954Z" fill="url(#paint2_linear_679_1375)"/>
<path d="M38.0296 26.8136L30.8195 28.7455L30.6141 31.242L34.3749 30.2343L34.5519 28.208L37.9774 27.2902L37.2013 36.3902L34.7341 37.0513L33.8707 36.1261L34.0902 33.3945L30.3294 34.4022L29.9911 38.3221L27.5239 38.9832L26.6605 38.0581L27.5775 27.661L26.7141 26.7359L37.3258 23.8925L38.2131 24.8112L38.0296 26.8136Z" fill="url(#paint3_linear_679_1375)"/>
<path d="M25.2556 27.1267L26.119 28.0518L25.7902 31.8149L24.7484 33.1992L24.7373 33.2535L25.5879 34.1307L25.202 38.4488L24.1251 39.8939L15.4298 42.2238L14.5664 41.2986L15.2716 33.3741L18.6971 32.4563L18.5976 33.7165L22.3584 32.7088L22.5101 30.972L15.3 32.9039L15.477 30.8776L14.62 29.9765L25.2556 27.1267ZM22.0107 36.7854L22.1385 35.055L18.3777 36.0627L18.2259 37.7995L22.0107 36.7854Z" fill="url(#paint4_linear_679_1375)"/>
<defs>
<linearGradient id="paint0_linear_679_1375" x1="49.2484" y1="-13.2531" x2="34.3773" y2="8.51283" gradientUnits="userSpaceOnUse">
<stop stop-color="#FFFD3E"/>
<stop offset="1" stop-color="#F5AA07"/>
</linearGradient>
<linearGradient id="paint1_linear_679_1375" x1="19.2461" y1="24.1079" x2="31.4562" y2="44.1536" gradientUnits="userSpaceOnUse">
<stop stop-color="#FFFD3E"/>
<stop offset="1" stop-color="#F5B607"/>
</linearGradient>
<linearGradient id="paint2_linear_679_1375" x1="19.2461" y1="24.1079" x2="31.4562" y2="44.1536" gradientUnits="userSpaceOnUse">
<stop stop-color="#FFFD3E"/>
<stop offset="1" stop-color="#F5B607"/>
</linearGradient>
<linearGradient id="paint3_linear_679_1375" x1="19.2461" y1="24.1079" x2="31.4562" y2="44.1536" gradientUnits="userSpaceOnUse">
<stop stop-color="#FFFD3E"/>
<stop offset="1" stop-color="#F5B607"/>
</linearGradient>
<linearGradient id="paint4_linear_679_1375" x1="19.2461" y1="24.1079" x2="31.4562" y2="44.1536" gradientUnits="userSpaceOnUse">
<stop stop-color="#FFFD3E"/>
<stop offset="1" stop-color="#F5B607"/>
</linearGradient>
</defs>
</svg>
