<svg width="42" height="42" viewBox="0 0 42 42" fill="none" xmlns="http://www.w3.org/2000/svg">
<path d="M35.0762 16.1035C34.6037 17.2442 33.5424 17.953 32.3065 17.953H27.2677L23.0491 38.8131C23.0477 38.8193 23.0464 38.8256 23.045 38.8319C22.6431 40.5577 22.0099 41.4406 21.1631 41.4559C21.1558 41.4559 21.1485 41.4561 21.1413 41.4561C19.8872 41.4561 19.3548 39.4939 19.1791 38.8465C19.1754 38.8327 19.1721 38.8187 19.1692 38.8047L14.9522 17.953H9.91339C8.67751 17.953 7.61619 17.2442 7.14369 16.1035C6.67119 14.9628 6.92056 13.7114 7.79444 12.8376L18.9911 1.64088C19.5536 1.07839 20.3061 0.768555 21.1099 0.768555C21.9137 0.768555 22.6662 1.0783 23.2287 1.64088L34.4255 12.8376C35.2993 13.7114 35.5487 14.9628 35.0762 16.1035Z" fill="white"/>
</svg>
