<svg width="32" height="32" viewBox="0 0 32 32" fill="none" xmlns="http://www.w3.org/2000/svg">
<g clip-path="url(#clip0_946_352)">
<mask id="mask0_946_352" style="mask-type:luminance" maskUnits="userSpaceOnUse" x="0" y="0" width="32" height="32">
<path d="M32 0H0V32H32V0Z" fill="white"/>
</mask>
<g mask="url(#mask0_946_352)">
<path fill-rule="evenodd" clip-rule="evenodd" d="M32 16C32 24.8365 24.8365 32 16 32C7.16344 32 0 24.8365 0 16C0 7.16344 7.16344 0 16 0C24.8365 0 32 7.16344 32 16Z" fill="#627EEA"/>
<path d="M16.498 4V12.87L23.9951 16.22L16.498 4Z" fill="white" fill-opacity="0.602"/>
<path d="M16.498 4L9 16.22L16.498 12.87V4Z" fill="white"/>
<path d="M16.498 21.9682V27.9952L24.0001 17.6162L16.498 21.9682Z" fill="white" fill-opacity="0.602"/>
<path d="M16.498 27.9952V21.9672L9 17.6162L16.498 27.9952Z" fill="white"/>
<path d="M16.498 20.5731L23.9951 16.2201L16.498 12.8721V20.5731Z" fill="white" fill-opacity="0.2"/>
<path d="M9 16.2201L16.498 20.5731V12.8721L9 16.2201Z" fill="white" fill-opacity="0.602"/>
</g>
</g>
<defs>
<clipPath id="clip0_946_352">
<rect width="32" height="32" fill="white"/>
</clipPath>
</defs>
</svg>
