<svg width="42" height="42" viewBox="0 0 42 42" fill="none" xmlns="http://www.w3.org/2000/svg">
<g clip-path="url(#clip0_131_1106)">
<path d="M31.8052 20.9655L21.9614 8.66065C21.4927 8.07666 20.5073 8.07666 20.0387 8.66065L10.1948 20.9655C9.77061 21.4967 9.85716 22.2705 10.3871 22.6959C10.9206 23.1237 11.6933 23.0324 12.1175 22.5036L21 11.3992L29.8826 22.5036C30.3109 23.0353 31.0838 23.1186 31.613 22.6959C32.143 22.2705 32.2294 21.4967 31.8052 20.9655Z" fill="#EC622B" fill-opacity="0.4"/>
<path d="M31.8051 28.9261L21.9613 16.6213C21.4926 16.0373 20.5072 16.0373 20.0387 16.6213L10.1948 28.9261C9.55207 29.7308 10.1262 30.9256 11.1561 30.9256H14.8476V40.7695C14.8476 41.4497 15.3979 42 16.0781 42H25.922C26.6021 42 27.1524 41.4497 27.1524 40.7695V30.9256H30.8439C31.8738 30.9256 32.4479 29.7308 31.8051 28.9261ZM10.3871 14.4732C10.9206 14.8998 11.6933 14.8109 12.1175 14.281L21 3.17656L29.8826 14.281C30.3109 14.8126 31.0838 14.8959 31.6129 14.4732C32.1429 14.0478 32.2294 13.274 31.8052 12.7428L21.9613 0.437991C21.4927 -0.145997 20.5073 -0.145997 20.0388 0.437991L10.1949 12.7428C9.7706 13.274 9.85714 14.0479 10.3871 14.4732Z" fill="#EC622B"/>
</g>
<defs>
<clipPath id="clip0_131_1106">
<rect width="42" height="42" fill="white"/>
</clipPath>
</defs>
</svg>
