<svg width="40" height="40" viewBox="0 0 40 40" fill="none" xmlns="http://www.w3.org/2000/svg">
<path d="M34.0625 0C32.7445 0 31.5269 0.437734 30.5469 1.17516V1.17188C30.5469 0.524687 30.0222 0 29.375 0H10.625C9.97781 0 9.45312 0.524687 9.45312 1.17188V1.17508C8.47313 0.437734 7.25555 0 5.9375 0C2.69867 0 0 2.61984 0 5.85938C0 9.11422 2.86445 11.1686 5.39164 12.9813C7.48031 14.4793 9.45312 15.8943 9.45312 17.5781C9.45312 21.7035 12.5143 25.1274 16.4844 25.6978V28.2812H10.625C10.0873 28.2812 9.61852 28.6473 9.48812 29.1689L7.14437 38.5439C7.0568 38.894 7.13547 39.2649 7.35758 39.5493C7.57969 39.8337 7.92039 40 8.28125 40H31.7188C32.0796 40 32.4203 39.8337 32.6424 39.5493C32.8645 39.2648 32.9432 38.894 32.8556 38.5439L30.5119 29.1689C30.3815 28.6473 29.9127 28.2812 29.375 28.2812H23.5156V25.6978C27.4857 25.1274 30.5469 21.7035 30.5469 17.5781C30.5469 15.8943 32.5197 14.4793 34.6084 12.9813C37.1355 11.1686 40 9.11422 40 5.85938C40 2.62055 37.302 0 34.0625 0ZM6.75766 11.0767C4.48773 9.44867 2.34375 7.91094 2.34375 5.85938C2.34375 3.95367 3.98945 2.34375 5.9375 2.34375C7.87602 2.34375 9.45312 3.92086 9.45312 5.85992C9.45297 6.50609 8.92734 7.03164 8.28125 7.03164C7.63508 7.03156 7.10938 6.50578 7.10938 5.85938C7.10938 5.21219 6.58469 4.68758 5.9375 4.68758C5.29031 4.68758 4.76562 5.21234 4.76562 5.85953C4.76562 7.79789 6.34258 9.37508 8.28086 9.37531H8.28125C8.69203 9.37531 9.08633 9.30375 9.45312 9.17359V13.1647C8.63703 12.4249 7.69141 11.7465 6.75766 11.0767ZM30.2178 37.6562H9.78219L11.54 30.625H28.46L30.2178 37.6562ZM22.3438 23.4375C21.6966 23.4375 21.1719 23.9622 21.1719 24.6094V28.2812H18.8281V24.6094C18.8281 23.9622 18.3034 23.4375 17.6562 23.4375C14.4254 23.4375 11.7969 20.809 11.7969 17.5781V2.34375H28.2031V17.5781C28.2031 20.809 25.5746 23.4375 22.3438 23.4375ZM33.2423 11.0767C32.3086 11.7465 31.363 12.4249 30.5469 13.1648V9.17375C30.9137 9.30383 31.308 9.37531 31.7188 9.37531H31.7191C33.6574 9.37516 35.2344 7.79797 35.2344 5.85938C35.2344 5.21219 34.7097 4.68758 34.0625 4.68758C33.4153 4.68758 32.8906 5.21234 32.8906 5.85953C32.8906 6.5057 32.3649 7.03148 31.7188 7.03156C31.0727 7.03172 30.547 6.50609 30.5469 5.85938C30.5469 3.92086 32.124 2.34375 34.0625 2.34375C36.0105 2.34375 37.6562 3.95367 37.6562 5.85938C37.6562 7.91094 35.5123 9.44867 33.2423 11.0767Z" fill="#4DA534"/>
<path d="M14.1406 34.1406C14.1406 34.7878 14.6653 35.3125 15.3125 35.3125H24.6875C25.3347 35.3125 25.8594 34.7878 25.8594 34.1406C25.8594 33.4934 25.3347 32.9688 24.6875 32.9688H15.3125C14.6653 32.9688 14.1406 33.4934 14.1406 34.1406Z" fill="#4DA534"/>
<path d="M24.6267 10.2824L22.156 9.92344L21.051 7.68453C20.8535 7.28445 20.4462 7.03125 20.0001 7.03125C19.554 7.03125 19.1467 7.28445 18.9492 7.68453L17.8442 9.92344L15.3735 10.2824C14.9321 10.3466 14.5653 10.6558 14.4275 11.08C14.2896 11.5042 14.4046 11.9699 14.7241 12.2813L16.512 14.0241L16.0899 16.4848C16.0145 16.9245 16.1952 17.3688 16.556 17.631C16.9169 17.8931 17.3953 17.9278 17.7903 17.7202L20.0001 16.5584L22.21 17.7202C22.6082 17.9295 23.0863 17.8911 23.4442 17.631C23.8051 17.3688 23.9858 16.9245 23.9104 16.4848L23.4883 14.0241L25.2762 12.2813C25.5957 11.97 25.7107 11.5042 25.5728 11.08C25.4349 10.6558 25.0682 10.3466 24.6267 10.2824ZM21.4112 12.7757C21.135 13.0449 21.0089 13.4328 21.0742 13.813L21.199 14.5406L20.5456 14.197C20.2042 14.0176 19.7964 14.0176 19.4549 14.197L18.8014 14.5406L18.9263 13.813C18.9915 13.4328 18.8655 13.0449 18.5892 12.7757L18.0605 12.2604L18.7912 12.1542C19.1729 12.0988 19.5028 11.8591 19.6735 11.5132L20.0003 10.8511L20.3271 11.5132C20.4979 11.8591 20.8278 12.0988 21.2095 12.1542L21.9402 12.2604L21.4112 12.7757Z" fill="#4DA534"/>
</svg>
