<svg width="40" height="40" viewBox="0 0 40 40" fill="none" xmlns="http://www.w3.org/2000/svg">
<rect width="40" height="40" rx="20" fill="#F04E34"/>
<path d="M13.4824 15.0264V25H11.5137V17.2959L9.14844 18.0479V16.4961L13.2705 15.0264H13.4824ZM23.4287 22.2725C23.4287 22.8968 23.2829 23.4232 22.9912 23.8516C22.6995 24.2754 22.2985 24.5967 21.7881 24.8154C21.2822 25.0296 20.708 25.1367 20.0654 25.1367C19.4229 25.1367 18.8464 25.0296 18.3359 24.8154C17.8255 24.5967 17.4222 24.2754 17.126 23.8516C16.8298 23.4232 16.6816 22.8968 16.6816 22.2725C16.6816 21.8532 16.766 21.4749 16.9346 21.1377C17.1032 20.7959 17.3379 20.5042 17.6387 20.2627C17.944 20.0166 18.3018 19.8298 18.7119 19.7021C19.1221 19.57 19.5687 19.5039 20.0518 19.5039C20.6989 19.5039 21.2777 19.6178 21.7881 19.8457C22.2985 20.0736 22.6995 20.3949 22.9912 20.8096C23.2829 21.2243 23.4287 21.7119 23.4287 22.2725ZM21.4463 22.1426C21.4463 21.8372 21.387 21.5752 21.2686 21.3564C21.1546 21.1331 20.9928 20.9622 20.7832 20.8438C20.5736 20.7253 20.3298 20.666 20.0518 20.666C19.7738 20.666 19.5299 20.7253 19.3203 20.8438C19.1107 20.9622 18.9466 21.1331 18.8281 21.3564C18.7142 21.5752 18.6572 21.8372 18.6572 22.1426C18.6572 22.4434 18.7142 22.7031 18.8281 22.9219C18.9466 23.1406 19.1107 23.3092 19.3203 23.4277C19.5345 23.5417 19.7829 23.5986 20.0654 23.5986C20.348 23.5986 20.5918 23.5417 20.7969 23.4277C21.0065 23.3092 21.166 23.1406 21.2754 22.9219C21.3893 22.7031 21.4463 22.4434 21.4463 22.1426ZM23.2168 17.6855C23.2168 18.1914 23.0824 18.6403 22.8135 19.0322C22.5446 19.4196 22.1709 19.7227 21.6924 19.9414C21.2184 20.1602 20.6761 20.2695 20.0654 20.2695C19.4502 20.2695 18.9033 20.1602 18.4248 19.9414C17.9463 19.7227 17.5726 19.4196 17.3037 19.0322C17.0348 18.6403 16.9004 18.1914 16.9004 17.6855C16.9004 17.084 17.0348 16.5781 17.3037 16.168C17.5771 15.7533 17.9508 15.4388 18.4248 15.2246C18.9033 15.0104 19.4456 14.9033 20.0518 14.9033C20.667 14.9033 21.2116 15.0104 21.6855 15.2246C22.1641 15.4388 22.5378 15.7533 22.8066 16.168C23.0801 16.5781 23.2168 17.084 23.2168 17.6855ZM21.248 17.7744C21.248 17.5055 21.2002 17.2731 21.1045 17.0771C21.0088 16.8766 20.8721 16.7217 20.6943 16.6123C20.5212 16.5029 20.307 16.4482 20.0518 16.4482C19.8057 16.4482 19.5938 16.5007 19.416 16.6055C19.2428 16.7103 19.1084 16.863 19.0127 17.0635C18.9215 17.2594 18.876 17.4964 18.876 17.7744C18.876 18.0433 18.9215 18.2803 19.0127 18.4854C19.1084 18.6859 19.2451 18.8431 19.4229 18.957C19.6006 19.071 19.8148 19.1279 20.0654 19.1279C20.3161 19.1279 20.528 19.071 20.7012 18.957C20.8789 18.8431 21.0133 18.6859 21.1045 18.4854C21.2002 18.2803 21.248 18.0433 21.248 17.7744ZM31.2832 19.4561V21.1719H24.4609V19.4561H31.2832ZM28.8086 16.7559V24.002H26.9424V16.7559H28.8086Z" fill="white"/>
</svg>
