<svg width="100" height="48" viewBox="0 0 100 48" fill="none" xmlns="http://www.w3.org/2000/svg">
<path fill-rule="evenodd" clip-rule="evenodd" d="M96.4458 21.4293H92.5881L91.0451 32.9304H86.4157L87.9587 21.4293H84.1009L84.8731 17.4634H97.218L96.4458 21.4293ZM77.9282 21.4293L77.5425 23.0159H82.1717L81.3995 26.9818H76.7711L76.3852 28.9647H82.1719L81.3997 32.9306H71.37L73.6847 17.4636H83.7144L82.9422 21.4295H77.9284L77.9282 21.4293ZM68.2836 24.9988C68.2836 24.9988 70.5982 25.6764 70.5982 28.172C70.5982 30.6676 68.0949 32.9318 65.5831 32.9318H56.7103L59.0249 17.4648H65.969C67.2014 17.4648 71.37 17.1358 71.37 20.638C71.37 24.1402 68.2838 24.9978 68.2838 24.9978L68.2836 24.9988ZM62.111 28.9645H64.4258C65.7985 28.9645 66.4888 26.9816 64.4258 26.9816H62.4969L62.111 28.9645ZM64.8117 21.4293H63.2687L62.8828 23.4124H64.8117C66.4553 23.4113 66.9202 21.4293 64.8117 21.4293Z" fill="black"/>
<path fill-rule="evenodd" clip-rule="evenodd" d="M97.218 20.2385H93.3597L91.8165 31.7396H87.1873L88.7303 20.2385H84.8725L85.6447 16.2726H97.9902L97.218 20.2385ZM78.7004 20.2385L78.3145 21.8251H82.9439L82.1717 25.7911H77.5427L77.1568 27.7739H82.9435L82.1713 31.7398H72.1417L74.4563 16.2728H84.4866L83.7144 20.2387H78.7L78.7004 20.2385ZM69.0558 23.8078C69.0558 23.8078 71.3704 24.4856 71.3704 26.981C71.3704 29.4764 68.8671 31.7409 66.3553 31.7409H57.4819L59.796 16.2726H66.74C67.9722 16.2726 72.1411 15.9436 72.1411 19.4458C72.1411 22.948 69.0554 23.8078 69.0554 23.8078H69.0558ZM62.8828 27.7737H65.1974C66.5703 27.7737 67.2606 25.7909 65.1974 25.7909H63.2687L62.8828 27.7737ZM65.5833 20.2385H64.0401L63.6544 22.2216H65.5833C67.2269 22.2216 67.6918 20.2385 65.5833 20.2385Z" fill="url(#paint0_linear_1901_8258)"/>
<path fill-rule="evenodd" clip-rule="evenodd" d="M30.6741 7.93305C41.4348 7.93305 50.1573 16.9022 50.1573 27.9665C50.1573 39.0308 41.4348 48 30.6741 48C19.9134 48 11.1909 39.0308 11.1909 27.9667C11.1909 16.9026 19.9134 7.93305 30.6741 7.93305Z" fill="#145F50"/>
<path fill-rule="evenodd" clip-rule="evenodd" d="M29.5058 7.93305C39.6212 7.93305 47.8208 16.3724 47.8208 26.7832C47.8208 37.194 39.6204 45.6331 29.5058 45.6331C19.3912 45.6331 11.1908 37.1938 11.1908 26.7832C11.1908 16.3726 19.3904 7.93305 29.5058 7.93305Z" fill="#196946"/>
<path fill-rule="evenodd" clip-rule="evenodd" d="M28.5515 9.13326C38.1399 9.13326 45.9128 17.125 45.9128 26.9834C45.9128 36.8419 38.1399 44.8334 28.5515 44.8334C18.9632 44.8334 11.1903 36.8417 11.1903 26.9834C11.1903 17.1252 18.963 9.13326 28.5515 9.13326Z" fill="#237841"/>
<path opacity="0.55" fill-rule="evenodd" clip-rule="evenodd" d="M38.0936 7.03311C38.7361 7.74179 39.3327 8.49187 39.8798 9.27866L37.2511 9.62571C36.9852 9.29332 36.7118 8.96495 36.4217 8.64643C34.7046 6.74754 32.6312 5.21535 30.3229 4.13961C28.0146 3.06387 25.5178 2.46622 22.9789 2.38168C20.44 2.29714 17.91 2.7274 15.5371 3.64726C13.1643 4.56712 10.9962 5.95808 9.16005 7.73865C1.38855 15.2361 0.993742 27.7982 8.27836 35.797C9.99547 37.696 12.069 39.2283 14.3774 40.3041C16.6858 41.3799 19.1826 41.9776 21.7216 42.0621C24.2607 42.1466 26.7908 41.7163 29.1637 40.7963C31.5367 39.8764 33.7048 38.4853 35.541 36.7045C36.8777 35.4141 38.0272 33.9378 38.9551 32.3199L41.2824 32.88C40.1886 34.9405 38.7797 36.8121 37.1081 38.4251C35.0538 40.4174 32.6282 41.9738 29.9733 43.0031C27.3184 44.0324 24.4876 44.5139 21.647 44.4194C18.8063 44.3248 16.0127 43.6561 13.4301 42.4525C10.8474 41.2489 8.52757 39.5345 6.60645 37.4099C-1.54442 28.4608 -1.10209 14.4062 7.59288 6.01787C9.64717 4.0257 12.0728 2.46943 14.7276 1.44022C17.3824 0.411017 20.213 -0.0704137 23.0536 0.024136C25.8941 0.118686 28.6875 0.787314 31.2701 1.99085C33.8527 3.19438 36.1725 4.90861 38.0936 7.03311Z" fill="#2DA041"/>
<path opacity="0.65" fill-rule="evenodd" clip-rule="evenodd" d="M21.7968 45.2238C20.8465 45.2218 19.8972 45.1564 18.9553 45.028L20.5227 42.7969C20.9442 42.825 21.3684 42.8443 21.7968 42.8443C32.5565 42.8443 41.2788 33.8776 41.2788 22.8165C41.2788 11.7554 32.5565 2.78862 21.7968 2.78862C11.0371 2.78862 2.31462 11.7554 2.31462 22.8165C2.31459 24.715 2.57746 26.6041 3.09553 28.4285L1.08702 29.8042C0.366108 27.5471 -0.000704954 25.1891 1.01709e-06 22.8165C1.01709e-06 10.4411 9.75883 0.408903 21.7968 0.408903C33.8348 0.408903 43.5937 10.4411 43.5937 22.8165C43.5937 35.1918 33.8348 45.2238 21.7968 45.2238Z" fill="#2DA041"/>
<path opacity="0.65" fill-rule="evenodd" clip-rule="evenodd" d="M50.3937 29.6457C48.8565 38.4721 43.2261 41.2579 39.1172 41.2579C31.4216 41.2579 28.2563 33.9438 30.669 24.2545C32.8359 15.5524 36.9852 13.4717 41.9726 13.4717C47.4077 13.4717 52.4422 17.8839 50.3937 29.6457ZM40.7218 21.7661C39.3952 21.7661 38.2759 22.5682 37.757 25.9505C37.2358 29.3467 37.2075 32.5488 39.9617 32.5488C41.4554 32.5488 42.6527 31.4677 43.0267 28.0426C43.5251 23.4778 42.8038 21.7661 40.7218 21.7661ZM21.2188 30.9465L27.3915 33.7227L26.6193 39.6715L9.64453 36.8953L10.0302 34.9125L20.0607 24.2045C20.0607 24.2045 22.6589 19.2803 21.218 18.6521C19.7772 18.0239 18.9034 21.4293 18.9034 21.4293L11.9592 20.6352C11.9592 20.6352 14.702 17.6702 20.4464 14.2887C26.1908 10.9072 29.3196 19.0486 29.3196 19.0486C29.3196 19.0486 28.9165 24.0896 26.2334 26.9804C23.5503 29.8713 21.218 30.9465 21.218 30.9465H21.2188Z" fill="#005556"/>
<path fill-rule="evenodd" clip-rule="evenodd" d="M52.0809 26.1875C50.2086 34.6281 44.3391 37.292 40.1217 37.292C32.2247 37.292 29.2208 30.2976 32.0204 21.0318C34.535 12.7102 38.8622 10.7203 43.9796 10.7203C49.5568 10.7203 54.5757 14.9396 52.0809 26.1875ZM42.4185 18.6521C41.0569 18.6521 39.8819 19.4193 39.2365 22.6536C38.5882 25.9015 38.4522 28.9635 41.2784 28.9635C42.8114 28.9635 44.076 27.9298 44.5741 24.6543C45.2384 20.2895 44.5555 18.6521 42.4189 18.6521H42.4185ZM21.2181 30.1534H28.9337L27.7764 36.8953H10.0303L10.8025 30.1534C10.8025 30.1534 13.3074 28.2836 16.2035 26.1875C19.0997 24.0914 20.8484 21.8597 21.6046 20.6352C22.3607 19.4107 22.4546 17.859 21.2187 17.859C19.5252 17.859 19.2897 20.6352 19.2897 20.6352H11.9592C11.9592 20.6352 12.6878 16.2477 15.0456 13.4962C17.4034 10.7448 23.2834 9.8173 27.3907 11.5134C29.9778 12.5816 31.8334 17.3644 28.548 23.0145C26.0976 27.2289 21.2181 30.1534 21.2181 30.1534Z" fill="url(#paint1_linear_1901_8258)"/>
<defs>
<linearGradient id="paint0_linear_1901_8258" x1="77.7367" y1="31.7384" x2="77.7367" y2="16.2678" gradientUnits="userSpaceOnUse">
<stop stop-color="#DCDCDC"/>
<stop offset="1" stop-color="white"/>
</linearGradient>
<linearGradient id="paint1_linear_1901_8258" x1="31.383" y1="37.293" x2="31.383" y2="10.657" gradientUnits="userSpaceOnUse">
<stop stop-color="#DEDEDE"/>
<stop offset="1" stop-color="#FCFCFC"/>
</linearGradient>
</defs>
</svg>
