<svg width="24" height="24" viewBox="0 0 24 24" fill="none" xmlns="http://www.w3.org/2000/svg">
<path d="M14.4996 23.9999C15.3002 23.9999 15.9984 23.3125 15.9984 22.5243V19.0781H16.9992C17.5998 19.0781 18 18.6839 18 18.0928V8.25H6V18.0929C6 18.6841 6.40032 19.0782 7.00079 19.0782H8.00166V22.5244C8.00166 23.3126 8.6997 24 9.5005 24C10.301 24 10.9992 23.3126 10.9992 22.5244V19.0782H13.0008V22.5244C13.0008 23.3125 13.6989 23.9999 14.4996 23.9999Z" fill="#101D2C"/>
<path d="M21.0001 18C21.8014 18 22.5 17.3192 22.5 16.5383V9.71106C22.5 8.9344 21.8014 8.25 21.0001 8.25C20.1987 8.25 19.5 8.9344 19.5 9.71106V16.5383C19.5 17.3191 20.1986 18 21.0001 18Z" fill="#101D2C"/>
<path d="M3.74992 18C4.5513 18 5.25 17.3192 5.25 16.5383V9.71106C5.25 8.9344 4.55138 8.25 3.74992 8.25C2.94862 8.25 2.25 8.9344 2.25 9.71106V16.5383C2.25 17.3191 2.94862 18 3.74992 18Z" fill="#101D2C"/>
<path d="M16.799 0.146753C16.5989 -0.0489175 16.301 -0.0489175 16.1009 0.146753L14.7586 1.44679L14.6967 1.50689C13.9008 1.11959 13.0084 0.926172 12.0147 0.924309C12.0098 0.924309 12.005 0.924153 12.0001 0.924153H12C11.9949 0.924153 11.9903 0.924309 11.9853 0.924309C10.9916 0.926172 10.0992 1.11959 9.30337 1.50689L9.24129 1.44679L7.89907 0.146753C7.69883 -0.0489175 7.40111 -0.0489175 7.20103 0.146753C7.00079 0.341336 7.00079 0.630105 7.20103 0.824532L8.49946 2.08653C8.08109 2.35798 7.70171 2.69015 7.37178 3.07008C6.58194 3.97987 6.07815 5.16391 6.00887 6.44679C6.00823 6.46014 6.00687 6.47334 6.00623 6.4867C6.002 6.57405 6 6.66187 6 6.75H18C18 6.66187 17.9978 6.57405 17.9938 6.4867C17.9931 6.47334 17.9918 6.46014 17.991 6.44679C17.9219 5.16391 17.4179 3.97979 16.6281 3.07016C16.2983 2.69023 15.9188 2.35806 15.5004 2.08661L16.799 0.82461C16.9992 0.630105 16.9992 0.341336 16.799 0.146753ZM9.49858 5.05194C9.08452 5.05194 8.74884 4.72575 8.74884 4.32338C8.74884 3.92101 9.08452 3.59482 9.49858 3.59482C9.91264 3.59482 10.2483 3.92101 10.2483 4.32338C10.2483 4.72575 9.91264 5.05194 9.49858 5.05194ZM14.5014 5.05194C14.0874 5.05194 13.7517 4.72575 13.7517 4.32338C13.7517 3.92101 14.0874 3.59482 14.5014 3.59482C14.9155 3.59482 15.2512 3.92101 15.2512 4.32338C15.2512 4.72575 14.9155 5.05194 14.5014 5.05194Z" fill="#101D2C"/>
</svg>
