<svg width="24" height="24" viewBox="0 0 24 24" fill="none" xmlns="http://www.w3.org/2000/svg">
<path d="M16.4529 0C15.0933 0.0919223 13.5042 0.942593 12.5782 2.05033C11.7335 3.05525 11.0385 4.54782 11.3095 5.99832C12.795 6.0435 14.3299 5.17258 15.2192 4.04614C16.0512 2.9976 16.6808 1.51438 16.4529 0Z" fill="white"/>
<path d="M21.064 7.73315C19.8504 6.16186 18.145 5.25 16.5344 5.25C14.4081 5.25 13.5087 6.30109 12.0315 6.30109C10.5083 6.30109 9.35104 5.25306 7.51223 5.25306C5.70602 5.25306 3.78276 6.39289 2.56331 8.34208C0.848973 11.0869 1.14235 16.2475 3.92056 20.6431C4.91479 22.2159 6.2424 23.9845 7.97897 23.9998C9.5244 24.0151 9.96002 22.9763 12.0537 22.9656C14.1473 22.9533 14.5444 24.0136 16.0869 23.9968C17.8249 23.983 19.2252 22.0231 20.2194 20.4503C20.9321 19.3227 21.1973 18.7551 21.75 17.4821C17.7301 15.9017 17.0856 9.99904 21.064 7.73315Z" fill="white"/>
</svg>
