<svg width="20" height="20" viewBox="0 0 20 20" fill="none" xmlns="http://www.w3.org/2000/svg">
<g clip-path="url(#clip0_787_5133)">
<path d="M13.045 10.493H11.5841V13.1794H13.045V10.493Z" fill="#FECF05"/>
<path d="M8.65921 8.1748C8.65385 8.1748 8.64846 8.17465 8.64307 8.17414C7.58764 8.08187 6.59846 7.44601 5.85756 6.38379C5.06495 5.24762 4.6285 3.74105 4.6285 2.14179C4.6285 2.01101 4.73471 1.90472 4.8653 1.90472H7.10963C7.20565 1.90472 7.28565 1.97843 7.29358 2.07414C7.31663 2.35156 7.34546 2.62976 7.37921 2.90101C7.38573 2.95367 7.3694 3.0064 7.33436 3.04621C7.29936 3.08586 7.24893 3.10855 7.196 3.10855H6.12612C6.06721 3.10855 6.01159 3.13433 5.97346 3.17929C5.93553 3.22426 5.91913 3.28347 5.92874 3.34152C6.09292 4.3314 6.43518 5.2725 6.84413 5.85875C7.30299 6.51672 7.80315 6.95527 8.29065 7.12738C8.33788 7.14402 8.37639 7.1791 8.39721 7.22461C8.46053 7.36308 8.52573 7.44914 8.59479 7.54011C8.65776 7.62308 8.72284 7.70875 8.78991 7.84074C8.80092 7.86219 8.81202 7.88379 8.82311 7.90523C8.85405 7.96508 8.84999 8.03691 8.81256 8.09297C8.77811 8.14441 8.72042 8.1748 8.65921 8.1748Z" fill="#F8B816"/>
<path d="M15.9693 8.17486C15.9081 8.17486 15.8504 8.14447 15.8159 8.09303C15.7785 8.03697 15.7745 7.96502 15.8055 7.90514C15.8166 7.88373 15.8276 7.86221 15.8386 7.84068C15.9056 7.709 15.9708 7.62314 16.0337 7.54018C16.1029 7.4492 16.168 7.36314 16.2314 7.22467C16.2522 7.17916 16.2906 7.14404 16.3378 7.12744C16.8253 6.95537 17.3255 6.51678 17.7844 5.85881C18.1934 5.27244 18.5357 4.33143 18.6998 3.34166C18.7094 3.28354 18.6932 3.22432 18.6551 3.17936C18.617 3.13447 18.5613 3.10861 18.5025 3.10861H17.4325C17.3796 3.10861 17.3291 3.08592 17.2941 3.04627C17.2591 3.00646 17.2427 2.95373 17.2493 2.90107C17.283 2.6299 17.3119 2.35162 17.335 2.0742C17.3428 1.9785 17.4229 1.90479 17.5189 1.90479H19.7632C19.8938 1.90479 20 2.01111 20 2.14186C20 3.74123 19.5636 5.24775 18.7709 6.38385C18.0301 7.44607 17.0409 8.08193 15.9855 8.1742C15.98 8.17471 15.9747 8.17486 15.9693 8.17486Z" fill="#F8B816"/>
<path d="M17.5801 0.569211C17.5266 0.514563 17.4533 0.483704 17.3767 0.483704H7.25184C7.17536 0.483704 7.10211 0.514524 7.04852 0.569211C6.99485 0.624094 6.96555 0.698118 6.96723 0.77468C7.02465 3.49031 7.58723 6.02956 8.55153 7.9246C9.2036 9.20601 9.9993 10.1114 10.8702 10.586H13.7585C14.6293 10.1114 15.425 9.20601 16.0771 7.9246C17.0414 6.02956 17.604 3.49031 17.6614 0.77468C17.6631 0.698118 17.6338 0.624133 17.5801 0.569211Z" fill="#FECF05"/>
<path opacity="0.1" d="M11.7719 10.586C10.9004 10.1118 10.1041 9.20675 9.45161 7.9246C8.48735 6.02956 7.92477 3.49031 7.86731 0.77468C7.86563 0.698118 7.89497 0.624133 7.9486 0.569211C8.00219 0.514563 8.07547 0.483704 8.15192 0.483704H7.25184C7.17536 0.483704 7.10211 0.514524 7.04852 0.569211C6.99485 0.624094 6.96555 0.698118 6.96723 0.77468C7.02465 3.49031 7.58723 6.02956 8.55153 7.9246C9.2036 9.20601 9.9993 10.1114 10.8702 10.586H11.7719Z" fill="black"/>
<path d="M14.1129 14.401V13.3483C14.1129 13.2045 13.9965 13.0881 13.8529 13.0881H10.7758C10.6322 13.0881 10.5157 13.2045 10.5157 13.3483V14.401H14.1129Z" fill="#F8B816"/>
<path d="M15.2767 17.8906V14.5209C15.2767 14.4102 15.1862 14.3196 15.0755 14.3196H9.55322C9.44256 14.3196 9.35201 14.4102 9.35201 14.5209V17.8906H15.2767Z" fill="#A67C52"/>
<path d="M16.4404 18.6425C16.4404 18.7533 16.3499 18.8439 16.2392 18.8439H8.38928C8.27862 18.8439 8.18807 18.7533 8.18807 18.6425V18.0118C8.18807 17.9011 8.27862 17.8105 8.38928 17.8105H16.2392C16.3499 17.8105 16.4404 17.9011 16.4404 18.0118V18.6425H16.4404Z" fill="#8C6239"/>
<path d="M14.1923 16.7987C14.1923 16.8652 14.1379 16.9195 14.0716 16.9195H10.5571C10.4907 16.9195 10.4364 16.8652 10.4364 16.7987V15.4397C10.4364 15.3732 10.4907 15.3189 10.5571 15.3189H14.0716C14.138 15.3189 14.1923 15.3732 14.1923 15.4397V16.7987Z" fill="#FECF05"/>
<path d="M10.6935 10.493V11.6139C10.6935 11.724 10.7835 11.8141 10.8936 11.8141H13.7345C13.8445 11.8141 13.9345 11.724 13.9345 11.6139V10.493H10.6935Z" fill="#F8B816"/>
<path d="M14.7549 5.31592C14.7549 6.66459 13.6621 7.75807 12.3142 7.75807C10.9663 7.75807 9.87345 6.66463 9.87345 5.31592C9.87345 3.96706 10.9663 2.87366 12.3142 2.87366C13.6621 2.87362 14.7549 3.96706 14.7549 5.31592Z" fill="#F8B816"/>
<path d="M12.3142 8.05104C10.8068 8.05104 9.58048 6.82409 9.58048 5.31592C9.58048 3.80772 10.8068 2.58069 12.3142 2.58069C13.8215 2.58069 15.0479 3.80772 15.0479 5.31592C15.0479 6.82409 13.8215 8.05104 12.3142 8.05104ZM12.3142 3.16663C11.1299 3.16663 10.1664 4.13081 10.1664 5.31592C10.1664 6.50096 11.1299 7.4651 12.3142 7.4651C13.4985 7.4651 14.4619 6.50096 14.4619 5.31592C14.4619 4.13081 13.4985 3.16663 12.3142 3.16663Z" fill="#A67C52"/>
<path d="M12.7184 4.94956H11.9098C11.8221 4.94956 11.7508 4.87815 11.7508 4.79038V4.69515C11.7508 4.60737 11.8221 4.53597 11.9098 4.53597H12.8373C12.9991 4.53597 13.1303 4.40483 13.1303 4.243C13.1303 4.08116 12.9991 3.95003 12.8373 3.95003H12.6071V3.71948C12.6071 3.55765 12.4759 3.42651 12.3141 3.42651C12.1523 3.42651 12.0211 3.55765 12.0211 3.71948V3.95003H11.9098C11.499 3.95003 11.1649 4.28429 11.1649 4.69515V4.79038C11.1649 5.20128 11.4991 5.5355 11.9098 5.5355H12.7184C12.8061 5.5355 12.8774 5.6069 12.8774 5.69464V5.78991C12.8774 5.87765 12.8061 5.94901 12.7184 5.94901H11.6005C11.4387 5.94901 11.3076 6.08015 11.3076 6.24198C11.3076 6.40382 11.4387 6.53495 11.6005 6.53495H12.0211V6.78944C12.0211 6.95128 12.1523 7.08241 12.3141 7.08241C12.4759 7.08241 12.6071 6.95128 12.6071 6.78944V6.53495H12.7184C13.1292 6.53495 13.4633 6.20069 13.4633 5.78991V5.69464C13.4633 5.28382 13.1291 4.94956 12.7184 4.94956Z" fill="#A67C52"/>
<path d="M10.0733 12.5027L10.8531 10.1012C10.1715 9.1345 9.21029 8.37954 8.08744 7.95341L5.97119 9.49188L3.85494 7.95337C2.74193 8.37591 1.78791 9.12169 1.1074 10.0763L1.9108 12.5504L0.0132217 13.9299C0.085878 15.0624 0.473417 16.1092 1.0899 16.983H3.63986L4.39389 19.3052C4.89639 19.4426 5.4251 19.5163 5.97115 19.5163C6.52381 19.5163 7.05885 19.4408 7.56682 19.3002L8.35033 16.8874H10.9189C11.5102 16.0138 11.8755 14.975 11.9334 13.8549L10.0733 12.5027Z" fill="#E9EAEC"/>
<path d="M10.3664 12.7157L11.9343 13.8556C11.9397 13.7516 11.9425 13.6468 11.9425 13.5415C11.9425 12.2603 11.5393 11.0735 10.8533 10.1007L10.1851 12.1584L7.92566 12.8282L6.26418 11.6203V9.27886L8.08758 7.95327C7.42973 7.70367 6.71648 7.56671 5.97121 7.56671C5.22594 7.56671 4.51273 7.7037 3.85488 7.95327L5.67824 9.27886V11.6203L4.00633 12.8358L1.81527 12.2562L1.10711 10.0753C0.410078 11.0528 0 12.2493 0 13.5415C0 13.6722 0.0046875 13.8016 0.0129297 13.9301L1.57074 12.7976L3.84613 13.3996L4.49531 15.3988L3.32559 16.983H1.08973C1.87809 18.1006 3.04016 18.9352 4.39395 19.3053L3.76633 17.3725L5.01914 15.6757H6.91516L8.23195 17.2521L7.56684 19.3004C8.95113 18.9171 10.1336 18.048 10.9189 16.8875H8.69078L7.44719 15.3987L8.1002 13.3877L10.3664 12.7157Z" fill="#0059AD"/>
<path d="M16.5723 12.4029C16.5224 12.4029 16.4774 12.3728 16.4583 12.3267C16.2004 11.7036 16.0104 11.5134 15.3881 11.2552C15.342 11.2361 15.3119 11.191 15.3119 11.1411C15.3119 11.0911 15.342 11.046 15.3881 11.0269C16.0105 10.7688 16.2004 10.5785 16.4583 9.95544C16.4774 9.90923 16.5224 9.87915 16.5723 9.87915C16.6222 9.87915 16.6672 9.90927 16.6863 9.95544C16.9441 10.5785 17.1341 10.7687 17.7565 11.0269C17.8026 11.046 17.8327 11.0911 17.8327 11.1411C17.8327 11.191 17.8026 11.2361 17.7565 11.2552C17.1342 11.5134 16.9442 11.7036 16.6863 12.3267C16.6672 12.3728 16.6222 12.4029 16.5723 12.4029Z" fill="#F7931E"/>
<path d="M2.72935 4.20168C2.68899 4.20168 2.65267 4.17734 2.63716 4.14C2.42868 3.63625 2.27509 3.48238 1.77185 3.27371C1.73454 3.25824 1.71021 3.2218 1.71021 3.18145C1.71021 3.14102 1.73454 3.10457 1.77185 3.08914C2.27505 2.88043 2.42868 2.72664 2.63712 2.22281C2.65259 2.18543 2.68896 2.16113 2.72931 2.16113C2.76966 2.16113 2.80606 2.18543 2.82149 2.22281C3.02993 2.72664 3.1836 2.88043 3.68677 3.08914C3.72407 3.10461 3.74841 3.14102 3.74841 3.18145C3.74841 3.2218 3.72407 3.25828 3.68677 3.27371C3.18356 3.48242 3.02993 3.63625 2.82149 4.14004C2.8061 4.17734 2.7697 4.20168 2.72935 4.20168Z" fill="#F7931E"/>
<path opacity="0.1" d="M0.995156 13.5415C0.995156 10.4093 3.40383 7.84054 6.46879 7.58749C6.30469 7.57394 6.13879 7.56671 5.97121 7.56671C2.6734 7.56671 0 10.2416 0 13.5415C0 16.8412 2.6734 19.5164 5.97121 19.5164C6.13879 19.5164 6.30469 19.5091 6.46879 19.4956C3.40383 19.2425 0.995156 16.6736 0.995156 13.5415Z" fill="black"/>
</g>
<defs>
<clipPath id="clip0_787_5133">
<rect width="20" height="20" fill="white"/>
</clipPath>
</defs>
</svg>
