<svg width="20" height="20" viewBox="0 0 20 20" fill="none" xmlns="http://www.w3.org/2000/svg">
<g clip-path="url(#clip0_787_5234)">
<path d="M11.7207 6.91143C11.6317 6.82112 11.5689 6.70444 11.544 6.57397C11.2607 5.08365 11.723 3.55393 12.7808 2.48213C13.9025 1.34522 15.555 0.889436 17.0936 1.29252C17.207 1.32225 17.3077 1.3819 17.3874 1.46268C17.4765 1.55291 17.5393 1.66967 17.5641 1.80014C17.8474 3.29041 17.3851 4.81998 16.3274 5.8919C15.2057 7.02865 13.553 7.48447 12.0144 7.08154C11.9011 7.05182 11.8003 6.99217 11.7207 6.91143Z" fill="#89C947"/>
<path d="M17.5381 3.65756H15.4238L17.4807 1.58322C17.4543 1.53943 17.4231 1.49889 17.3874 1.46279C17.3077 1.38201 17.207 1.32236 17.0936 1.29264C17.0534 1.28213 17.0132 1.27252 16.9729 1.26318L13.9384 4.32334V2.98428C13.9384 2.82248 13.8073 2.69131 13.6455 2.69131C13.4837 2.69131 13.3525 2.82248 13.3525 2.98428V4.91424L10.8701 7.41768C10.7562 7.53256 10.757 7.71807 10.8719 7.83197C10.929 7.88861 11.0036 7.91689 11.0782 7.91689C11.1536 7.91689 11.2289 7.88799 11.2862 7.83021L13.8293 5.26557C13.8461 5.25205 13.8612 5.23674 13.8747 5.2199L14.845 4.24131C14.8564 4.24264 14.8679 4.24354 14.8796 4.24354H17.3684C17.4378 4.05232 17.4944 3.85654 17.5381 3.65756Z" fill="#4B7D32"/>
<path d="M8.14544 7.15277C8.0563 7.24304 7.94118 7.30668 7.81243 7.33191C6.34173 7.61894 4.83227 7.15047 3.7747 6.07851C2.65282 4.9418 2.20302 3.26711 2.60079 1.70801C2.63017 1.59305 2.68895 1.49101 2.76876 1.41027C2.85782 1.32 2.97302 1.25633 3.10177 1.23121C4.57231 0.9441 6.08161 1.41262 7.13934 2.48445C8.26114 3.62125 8.71095 5.29601 8.31333 6.85511C8.28392 6.97004 8.22505 7.07203 8.14544 7.15277Z" fill="#89C947"/>
<path d="M9.09686 7.56612L5.84608 4.27581C5.84612 4.27417 5.84631 4.27257 5.84631 4.27089V1.57011C5.65619 1.48097 5.46049 1.40519 5.26037 1.34386V3.683L2.90905 1.30304C2.85752 1.33234 2.81022 1.36827 2.76877 1.41031C2.68897 1.49105 2.63022 1.59308 2.6008 1.70804C2.5928 1.73933 2.58577 1.77073 2.57846 1.80214L6.2551 5.52351H3.30944C3.44858 5.71945 3.60373 5.9053 3.77471 6.07855C3.78506 6.08902 3.79573 6.09905 3.80616 6.10945H6.83401L8.68006 7.97792C8.73737 8.03593 8.81291 8.06499 8.8885 8.06499C8.96287 8.06499 9.03729 8.03683 9.0944 7.98042C9.20944 7.86675 9.21057 7.68124 9.09686 7.56612Z" fill="#4B7D32"/>
<g opacity="0.1">
<path d="M4.44919 1.17607C4.447 1.17579 4.44484 1.17564 4.44264 1.17535C4.44176 1.17607 4.44093 1.17679 4.44009 1.17751C4.44312 1.17708 4.44616 1.17646 4.44919 1.17607Z" fill="black"/>
<path d="M4.36319 5.92831C3.24131 4.79159 2.79151 3.1169 3.18928 1.5578C3.2187 1.44284 3.27745 1.34081 3.35725 1.26007C3.38795 1.22893 3.42198 1.20124 3.45838 1.17694C3.33944 1.1903 3.22049 1.20823 3.10178 1.23139C2.97307 1.25651 2.85784 1.32018 2.76877 1.41046C2.68897 1.4912 2.63022 1.59323 2.60081 1.70819C2.20303 3.26729 2.65284 4.94198 3.77471 6.0787C4.74495 7.0621 6.09549 7.53714 7.44748 7.38733C7.00225 7.33776 6.5676 7.221 6.15764 7.04194C5.49088 6.82304 4.87424 6.44628 4.36319 5.92831Z" fill="black"/>
</g>
<path d="M10.6075 6.07531V2.80856C10.6075 2.46914 10.3349 2.19293 10 2.19293C9.66508 2.19293 9.39254 2.4691 9.39254 2.80856V6.07531L6.40524 10.1523C6.77676 10.3281 7.1207 10.5536 7.42863 10.8207L10 7.31149L12.5713 10.8207C12.8793 10.5536 13.2232 10.328 13.5948 10.1523L10.6075 6.07531Z" fill="#8C6239"/>
<path d="M4.50273 18.8516C6.98953 18.8516 9.00547 16.8087 9.00547 14.2887C9.00547 11.7687 6.98953 9.72583 4.50273 9.72583C2.01594 9.72583 0 11.7687 0 14.2887C0 16.8087 2.01594 18.8516 4.50273 18.8516Z" fill="#EE3835"/>
<g opacity="0.1">
<path d="M1.02613 14.2888C1.02613 11.9445 2.77066 10.0135 5.01578 9.75542C4.84738 9.73604 4.67625 9.72577 4.5027 9.72577C2.01598 9.72573 0 11.7687 0 14.2888C0 16.8088 2.01598 18.8518 4.5027 18.8518C4.67621 18.8518 4.84738 18.8415 5.01578 18.8221C2.7707 18.564 1.02613 16.633 1.02613 14.2888Z" fill="black"/>
</g>
<path d="M15.4973 18.8516C17.9841 18.8516 20 16.8087 20 14.2887C20 11.7687 17.9841 9.72583 15.4973 9.72583C13.0105 9.72583 10.9945 11.7687 10.9945 14.2887C10.9945 16.8087 13.0105 18.8516 15.4973 18.8516Z" fill="#EE3835"/>
<g opacity="0.1">
<path d="M12.0207 14.2888C12.0207 11.9445 13.7652 10.0135 16.0104 9.75542C15.842 9.73604 15.6708 9.72577 15.4973 9.72577C13.0105 9.72577 10.9945 11.7687 10.9945 14.2888C10.9945 16.8088 13.0105 18.8518 15.4973 18.8518C15.6708 18.8518 15.8419 18.8415 16.0104 18.8221C13.7652 18.564 12.0207 16.633 12.0207 14.2888Z" fill="black"/>
</g>
</g>
<defs>
<clipPath id="clip0_787_5234">
<rect width="20" height="20" fill="white"/>
</clipPath>
</defs>
</svg>
