<svg width="20" height="20" viewBox="0 0 20 20" fill="none" xmlns="http://www.w3.org/2000/svg">
<g clip-path="url(#clip0_787_5159)">
<path d="M6.92299 15.8828C5.67654 15.8828 4.50099 15.3982 3.61295 14.5182C2.72556 13.639 2.22947 12.4687 2.21599 11.223C2.21541 11.1692 2.23634 11.1175 2.27416 11.0793C2.31197 11.0411 2.36341 11.0196 2.41716 11.0196H3.04517C3.15529 11.0196 3.24498 11.1081 3.24634 11.2183C3.27138 13.2217 4.92068 14.8515 6.92295 14.8515C6.96091 14.8515 6.99924 14.8509 7.03775 14.8497C7.0399 14.8496 7.04201 14.8496 7.04416 14.8496C7.09634 14.8496 7.14658 14.8699 7.18416 14.9062C7.2233 14.9442 7.24533 14.9963 7.24533 15.0508V15.6799C7.24533 15.7888 7.15861 15.878 7.0497 15.881C7.00685 15.8822 6.96455 15.8828 6.92299 15.8828Z" fill="#89C947"/>
<path d="M15.773 7.70615C15.6862 7.70615 15.6093 7.6506 15.582 7.5683C15.3388 6.83478 14.8759 6.20474 14.2431 5.74627C13.6089 5.28674 12.8647 5.04392 12.091 5.04392C12.053 5.04392 12.0147 5.04455 11.9762 5.04576C11.9741 5.04584 11.972 5.04588 11.9698 5.04588C11.9176 5.04588 11.8674 5.0256 11.8298 4.98924C11.7907 4.95131 11.7686 4.89916 11.7686 4.8447V4.21556C11.7686 4.10662 11.8554 4.01744 11.9643 4.01443C12.0071 4.01326 12.0495 4.01263 12.0911 4.01263C13.1698 4.01263 14.2239 4.38713 15.0591 5.06717C15.808 5.67681 16.3637 6.52326 16.624 7.45064C16.6411 7.51127 16.6287 7.57638 16.5907 7.62654C16.5526 7.67674 16.4933 7.70619 16.4303 7.70619L15.773 7.70615Z" fill="#C0272D"/>
<path d="M4.83125 9.85309C7.49948 9.85309 9.6625 7.69584 9.6625 5.03473C9.6625 2.37362 7.49948 0.21637 4.83125 0.21637C2.16302 0.21637 0 2.37362 0 5.03473C0 7.69584 2.16302 9.85309 4.83125 9.85309Z" fill="#F8B816"/>
<g opacity="0.1">
<path d="M0.583516 5.0346C0.583516 2.47124 2.5907 0.375579 5.12301 0.22511C5.02641 0.219368 4.92922 0.216125 4.83121 0.216125C2.16301 0.216086 0 2.37351 0 5.0346C0 7.69581 2.16301 9.85304 4.83121 9.85304C4.92922 9.85304 5.02641 9.8498 5.12301 9.84406C2.59066 9.69359 0.583516 7.59808 0.583516 5.0346Z" fill="black"/>
</g>
<path d="M4.8312 8.67577C6.84747 8.67577 8.48198 7.04563 8.48198 5.03475C8.48198 3.02388 6.84747 1.39374 4.8312 1.39374C2.81493 1.39374 1.18042 3.02388 1.18042 5.03475C1.18042 7.04563 2.81493 8.67577 4.8312 8.67577Z" fill="#F8B816"/>
<g opacity="0.1">
<path d="M1.8712 5.03467C1.8712 3.13998 3.32233 1.58342 5.17659 1.40982C5.06284 1.39924 4.94772 1.39349 4.83116 1.39349C2.81491 1.39349 1.18042 3.02377 1.18042 5.03467C1.18042 7.04556 2.81491 8.67576 4.83116 8.67576C4.94769 8.67576 5.06284 8.67006 5.17659 8.65939C3.32237 8.48584 1.8712 6.92939 1.8712 5.03467Z" fill="black"/>
</g>
<path d="M4.83116 8.96873C2.65659 8.96873 0.887451 7.20392 0.887451 5.03467C0.887451 2.86537 2.65659 1.10052 4.83116 1.10052C7.00577 1.10052 8.77491 2.86537 8.77491 5.03467C8.77491 7.20392 7.00577 8.96873 4.83116 8.96873ZM4.83116 1.68646C2.97972 1.68646 1.47339 3.18845 1.47339 5.03467C1.47339 6.88084 2.97972 8.38279 4.83116 8.38279C6.68265 8.38279 8.18898 6.88084 8.18898 5.03467C8.18898 3.18845 6.68265 1.68646 4.83116 1.68646Z" fill="#FECF05"/>
<path d="M5.43601 4.63251H4.90234H4.61781H4.22641C4.01523 4.63251 3.84344 4.46149 3.84344 4.2513V4.10927C3.84344 3.89915 4.01519 3.72821 4.22641 3.72821H5.6139C5.77574 3.72821 5.90687 3.59708 5.90687 3.43524C5.90687 3.27341 5.77574 3.14228 5.6139 3.14228H5.12422V2.65454C5.12422 2.49271 4.99308 2.36157 4.83125 2.36157C4.66941 2.36157 4.53828 2.49271 4.53828 2.65454V3.14228H4.22644C3.69219 3.14228 3.25754 3.57606 3.25754 4.10927V4.2513C3.25754 4.78458 3.69219 5.21845 4.22644 5.21845H4.61785H4.90238H5.43605C5.64723 5.21845 5.81902 5.38946 5.81902 5.59966V5.74157C5.81902 5.95177 5.64726 6.12278 5.43605 6.12278H3.76391C3.60207 6.12278 3.47094 6.25392 3.47094 6.41575C3.47094 6.57759 3.60207 6.70872 3.76391 6.70872H4.53824V7.23181C4.53824 7.39364 4.66937 7.52478 4.83121 7.52478C4.99305 7.52478 5.12418 7.39364 5.12418 7.23181V6.70872H5.43598C5.97023 6.70872 6.40488 6.27489 6.40488 5.74157V5.59966C6.40492 5.06634 5.97027 4.63251 5.43601 4.63251Z" fill="#FECF05"/>
<path d="M11.9531 17.3051L10.9228 18.2481C11.5622 18.8786 12.36 19.3487 13.2513 19.5935L13.5533 18.2295C12.946 18.0508 12.3997 17.7299 11.9531 17.3051Z" fill="#F7931E"/>
<path d="M13.5533 10.676L13.2513 9.31201C12.36 9.55682 11.5622 10.0269 10.9228 10.6574L11.9531 11.6005C12.3996 11.1756 12.946 10.8547 13.5533 10.676Z" fill="#F7931E"/>
<path d="M10.7292 14.4527C10.7292 14.1345 10.7672 13.8252 10.8385 13.5288L9.50558 13.1082C9.39394 13.5376 9.33441 13.9882 9.33441 14.4527C9.33441 14.9171 9.3939 15.3676 9.50558 15.7972L10.8385 15.3765C10.7672 15.0802 10.7292 14.7709 10.7292 14.4527Z" fill="#F7931E"/>
<path d="M15.7814 18.2294L16.0834 19.5933C16.9746 19.3485 17.7725 18.8784 18.4119 18.248L17.3816 17.3049C16.935 17.7298 16.3886 18.0506 15.7814 18.2294Z" fill="#F7931E"/>
<path d="M19.8291 13.1082L18.4962 13.5288C18.5675 13.8252 18.6055 14.1345 18.6055 14.4527C18.6055 14.7709 18.5675 15.0801 18.4962 15.3765L19.8291 15.7971C19.9408 15.3676 20.0003 14.9171 20.0003 14.4527C20.0003 13.9882 19.9408 13.5376 19.8291 13.1082Z" fill="#F7931E"/>
<path d="M17.3816 11.6005L18.4119 10.6574C17.7725 10.0269 16.9746 9.55678 16.0833 9.31201L15.7814 10.6759C16.3886 10.8547 16.935 11.1756 17.3816 11.6005Z" fill="#F7931E"/>
<path d="M14.6672 18.3894C16.8423 18.3894 18.6055 16.6268 18.6055 14.4526C18.6055 12.2785 16.8423 10.5159 14.6672 10.5159C12.4922 10.5159 10.729 12.2785 10.729 14.4526C10.729 16.6268 12.4922 18.3894 14.6672 18.3894Z" fill="white"/>
<path d="M14.6671 10.5158C15.054 10.5158 15.4279 10.5718 15.7811 10.6758L16.0831 9.31191C15.6321 9.18801 15.1574 9.12152 14.6671 9.12152C14.1767 9.12152 13.702 9.18801 13.251 9.31191L13.553 10.6759C13.9063 10.5718 14.2801 10.5158 14.6671 10.5158Z" fill="#D0D5D5"/>
<path d="M11.9529 11.6004L10.9226 10.6573C10.2488 11.3217 9.75089 12.164 9.5055 13.1081L10.8384 13.5288C11.0186 12.7798 11.4128 12.1142 11.9529 11.6004Z" fill="#D0D5D5"/>
<path d="M18.4959 13.5288L19.8288 13.1081C19.5834 12.164 19.0856 11.3218 18.4117 10.6573L17.3815 11.6004C17.9216 12.1142 18.3157 12.7798 18.4959 13.5288Z" fill="#D0D5D5"/>
<path d="M17.3815 17.305L18.4118 18.248C19.0856 17.5836 19.5835 16.7413 19.8289 15.7972L18.496 15.3765C18.3158 16.1255 17.9216 16.7911 17.3815 17.305Z" fill="#D0D5D5"/>
<path d="M10.8384 15.3765L9.5055 15.7972C9.75089 16.7414 10.2488 17.5836 10.9226 18.2481L11.9529 17.305C11.4128 16.7911 11.0186 16.1255 10.8384 15.3765Z" fill="#D0D5D5"/>
<path d="M14.6672 18.3895C14.2803 18.3895 13.9064 18.3334 13.5532 18.2294L13.2512 19.5935C13.7022 19.7173 14.1769 19.7838 14.6672 19.7838C15.1576 19.7838 15.6323 19.7173 16.0833 19.5934L15.7813 18.2294C15.428 18.3334 15.0542 18.3895 14.6672 18.3895Z" fill="#D0D5D5"/>
<path d="M14.6672 18.3894C16.8423 18.3894 18.6055 16.6268 18.6055 14.4526C18.6055 12.2785 16.8423 10.5159 14.6672 10.5159C12.4922 10.5159 10.729 12.2785 10.729 14.4526C10.729 16.6268 12.4922 18.3894 14.6672 18.3894Z" fill="white"/>
<path d="M14.674 18.3894C16.8463 18.3894 18.6073 16.6268 18.6073 14.4526C18.6073 12.2785 16.8463 10.5159 14.674 10.5159C12.5018 10.5159 10.7408 12.2785 10.7408 14.4526C10.7408 16.6268 12.5018 18.3894 14.674 18.3894Z" fill="white"/>
<path d="M14.6738 18.6823C12.3435 18.6823 10.4476 16.7849 10.4476 14.4527C10.4476 12.1203 12.3435 10.2228 14.6738 10.2228C17.0041 10.2228 18.9 12.1203 18.9 14.4527C18.9 16.7849 17.0041 18.6823 14.6738 18.6823ZM14.6738 10.8087C12.6665 10.8087 11.0335 12.4434 11.0335 14.4526C11.0335 16.4618 12.6665 18.0964 14.6738 18.0964C16.681 18.0964 18.314 16.4618 18.314 14.4526C18.314 12.4434 16.681 10.8087 14.6738 10.8087Z" fill="#E9EAEC"/>
<path d="M14.8387 17.8539C14.6795 17.8539 14.5463 17.7292 14.5376 17.5682C14.5287 17.4017 14.6564 17.2596 14.8229 17.2507C14.8601 17.2487 14.8971 17.246 14.9339 17.2427C15.1002 17.2273 15.2468 17.3496 15.2621 17.5156C15.2773 17.6815 15.1551 17.8284 14.9892 17.8437C14.9448 17.8478 14.9001 17.8511 14.8552 17.8534C14.8497 17.8538 14.8442 17.8539 14.8387 17.8539ZM13.8266 17.7411C13.7993 17.7411 13.7716 17.7373 13.7441 17.7295C13.7008 17.7172 13.6574 17.704 13.6149 17.6901C13.4565 17.6382 13.3702 17.4677 13.4221 17.3093C13.474 17.1509 13.6444 17.0645 13.8029 17.1165C13.8379 17.1279 13.8732 17.1387 13.9088 17.1488C14.0691 17.1943 14.1623 17.3612 14.1168 17.5214C14.0791 17.6544 13.9582 17.7411 13.8266 17.7411ZM15.9469 17.5856C15.8319 17.5856 15.7221 17.5196 15.6717 17.4081C15.603 17.2562 15.6705 17.0773 15.8223 17.0087C15.856 16.9934 15.8895 16.9776 15.9225 16.9611C16.0716 16.8866 16.2529 16.9472 16.3274 17.0962C16.4018 17.2453 16.3413 17.4266 16.1922 17.5011C16.1522 17.5211 16.1118 17.5402 16.0709 17.5587C16.0307 17.577 15.9884 17.5856 15.9469 17.5856ZM12.8059 17.2325C12.7425 17.2325 12.6786 17.2125 12.6241 17.1714C12.5883 17.1443 12.553 17.1165 12.5182 17.088C12.3893 16.9823 12.3705 16.7921 12.4763 16.6632C12.5819 16.5343 12.7721 16.5155 12.901 16.6213C12.9296 16.6447 12.9587 16.6676 12.9882 16.6899C13.1211 16.7904 13.1474 16.9797 13.0469 17.1127C12.9876 17.1912 12.8973 17.2325 12.8059 17.2325ZM16.8815 16.9339C16.8051 16.9339 16.7287 16.9051 16.6699 16.8473C16.551 16.7304 16.5495 16.5393 16.6664 16.4205C16.6924 16.394 16.718 16.3671 16.743 16.3397C16.8553 16.2164 17.0463 16.2076 17.1694 16.32C17.2926 16.4322 17.3014 16.6231 17.189 16.7463C17.1589 16.7794 17.1281 16.8119 17.0967 16.8438C17.0376 16.9038 16.9596 16.9339 16.8815 16.9339ZM12.0382 16.3903C11.9373 16.3903 11.8386 16.3397 11.7815 16.2476C11.7578 16.2095 11.7349 16.1709 11.7128 16.1319C11.6305 15.9869 11.6814 15.8027 11.8263 15.7205C11.9714 15.6382 12.1555 15.6891 12.2378 15.834C12.256 15.8662 12.2749 15.898 12.2943 15.9293C12.3822 16.0709 12.3387 16.257 12.197 16.3449C12.1475 16.3756 12.0925 16.3903 12.0382 16.3903ZM17.5195 15.9894C17.4794 15.9894 17.4387 15.9814 17.3996 15.9644C17.2467 15.8981 17.1764 15.7203 17.2428 15.5674C17.2575 15.5335 17.2716 15.4991 17.2849 15.4645C17.3452 15.3091 17.5199 15.2319 17.6754 15.2921C17.8308 15.3523 17.908 15.5271 17.8478 15.6825C17.8316 15.7247 17.8145 15.7663 17.7965 15.8075C17.7472 15.9214 17.6362 15.9894 17.5195 15.9894ZM11.6251 15.3279C11.4827 15.3279 11.356 15.2266 11.3288 15.0816C11.3206 15.0377 11.3132 14.9929 11.3067 14.9485C11.2826 14.7835 11.3969 14.6303 11.5617 14.6062C11.727 14.5826 11.8799 14.6964 11.904 14.8613C11.9094 14.898 11.9154 14.9344 11.9222 14.9706C11.9528 15.1344 11.8448 15.2921 11.681 15.3227C11.6622 15.3262 11.6435 15.3279 11.6251 15.3279ZM17.7726 14.8773C17.7686 14.8773 17.7646 14.8772 17.7605 14.8771C17.5939 14.8705 17.4642 14.7301 17.4708 14.5636C17.4723 14.5268 17.473 14.4898 17.473 14.4527V14.4457C17.473 14.279 17.6081 14.1439 17.7748 14.1439C17.9415 14.1439 18.0767 14.279 18.0767 14.4457V14.4527C18.0767 14.4978 18.0758 14.5427 18.074 14.5874C18.0676 14.7499 17.9338 14.8773 17.7726 14.8773ZM11.6245 14.1881C11.6064 14.1881 11.588 14.1864 11.5696 14.183C11.4057 14.1529 11.2972 13.9956 11.3274 13.8316C11.3356 13.787 11.3447 13.7423 11.3546 13.699C11.3914 13.5365 11.5533 13.4347 11.7157 13.4715C11.8783 13.5084 11.9801 13.6701 11.9432 13.8327C11.9351 13.8684 11.9277 13.9045 11.921 13.9408C11.8943 14.0862 11.7673 14.1881 11.6245 14.1881ZM17.6063 13.7428C17.481 13.7428 17.364 13.6642 17.3209 13.5391C17.3088 13.5041 17.2961 13.4693 17.2827 13.435C17.2223 13.2797 17.2992 13.1047 17.4545 13.0443C17.61 12.9839 17.7848 13.0608 17.8452 13.2161C17.8615 13.2579 17.877 13.3001 17.8916 13.3427C17.9459 13.5003 17.8621 13.6721 17.7044 13.7263C17.6719 13.7375 17.6389 13.7428 17.6063 13.7428ZM12.034 13.1243C11.9798 13.1243 11.925 13.1098 11.8756 13.0792C11.7338 12.9916 11.6899 12.8056 11.7776 12.6638C11.8012 12.6256 11.8255 12.5879 11.8505 12.5507C11.9437 12.4124 12.1312 12.3757 12.2694 12.4688C12.4077 12.5618 12.4444 12.7493 12.3514 12.8877C12.3307 12.9184 12.3105 12.9496 12.291 12.9812C12.234 13.0736 12.1351 13.1243 12.034 13.1243ZM17.0433 12.752C16.9574 12.752 16.8722 12.7155 16.8125 12.6447C16.7887 12.6165 16.7644 12.5889 16.7395 12.5618C16.627 12.4388 16.6354 12.2479 16.7583 12.1353C16.8813 12.0227 17.0722 12.0311 17.1848 12.1541C17.2153 12.1875 17.2453 12.2217 17.2739 12.2556C17.3814 12.3831 17.3652 12.5735 17.2378 12.6809C17.1811 12.7287 17.112 12.752 17.0433 12.752ZM12.8012 12.2804C12.7099 12.2804 12.6198 12.2393 12.5605 12.161C12.4598 12.0282 12.4857 11.8389 12.6185 11.7382C12.6541 11.7111 12.6903 11.6848 12.727 11.6591C12.8635 11.5634 13.0517 11.5966 13.1473 11.7332C13.2429 11.8697 13.2098 12.0579 13.0732 12.1535C13.0428 12.1748 13.0129 12.1966 12.9833 12.219C12.9288 12.2604 12.8647 12.2804 12.8012 12.2804ZM16.1605 12.0303C16.1114 12.0303 16.0616 12.0183 16.0155 11.993C15.9832 11.9752 15.9506 11.9582 15.9175 11.9417C15.7682 11.8675 15.7073 11.6864 15.7815 11.5372C15.8556 11.3879 16.0367 11.327 16.186 11.4011C16.2266 11.4213 16.267 11.4424 16.3061 11.4638C16.4522 11.5441 16.5055 11.7276 16.4254 11.8737C16.3705 11.9737 16.2671 12.0303 16.1605 12.0303ZM13.8198 11.7699C13.6885 11.7699 13.5677 11.6836 13.5298 11.5511C13.4839 11.3908 13.5766 11.2238 13.7369 11.1779C13.7805 11.1654 13.8244 11.1538 13.8676 11.1433C14.0295 11.1041 14.1927 11.2035 14.232 11.3656C14.2712 11.5275 14.1717 11.6907 14.0098 11.73C13.9739 11.7386 13.9383 11.7481 13.903 11.7582C13.8753 11.7662 13.8473 11.7699 13.8198 11.7699ZM15.0773 11.6768C15.0642 11.6768 15.0512 11.6759 15.0379 11.6742C15.0014 11.6695 14.9646 11.6654 14.9276 11.662C14.7616 11.647 14.6392 11.5003 14.6542 11.3343C14.6692 11.1683 14.8157 11.0459 14.9819 11.0609C15.0268 11.0649 15.0714 11.0698 15.1158 11.0756C15.2811 11.0971 15.3977 11.2486 15.3762 11.4138C15.3564 11.5659 15.2266 11.6768 15.0773 11.6768Z" fill="#D0D5D5"/>
<path d="M15.4026 16.1867H14.9667V15.4056C14.9667 15.2437 14.8356 15.1126 14.6738 15.1126C14.5119 15.1126 14.3808 15.2437 14.3808 15.4056V16.1867H13.9445C13.7827 16.1867 13.6515 16.3179 13.6515 16.4797C13.6515 16.6416 13.7827 16.7727 13.9445 16.7727H15.4026C15.5644 16.7727 15.6956 16.6416 15.6956 16.4797C15.6956 16.3179 15.5644 16.1867 15.4026 16.1867Z" fill="#005289"/>
<path d="M14.6778 12.2779C14.7019 12.2779 14.726 12.2871 14.7443 12.3054L16.5273 14.0867C16.7291 14.2927 16.8398 14.5636 16.8398 14.8502C16.8398 15.4519 16.3492 15.9415 15.7464 15.9415C15.4666 15.9415 15.2003 15.8359 14.9964 15.6439L14.6738 15.3398L14.3509 15.6439C14.1471 15.8359 13.8806 15.9415 13.6012 15.9415C12.9981 15.9415 12.5077 15.4519 12.5077 14.8502C12.5077 14.5323 12.6464 14.2312 12.8883 14.0229L14.6114 12.3054C14.6297 12.287 14.6539 12.2779 14.6778 12.2779Z" fill="#0059AD"/>
<g opacity="0.1">
<path d="M13.1368 15.1575C13.1368 14.8396 13.2755 14.5385 13.5173 14.3303L15.1462 12.7068L14.7443 12.3054C14.726 12.287 14.7019 12.2778 14.6778 12.2778C14.6539 12.2778 14.6297 12.287 14.6114 12.3053L12.8883 14.0228C12.6464 14.2311 12.5077 14.5322 12.5077 14.8501C12.5077 15.4044 12.9239 15.8632 13.4609 15.9321C13.2609 15.7343 13.1368 15.4601 13.1368 15.1575Z" fill="black"/>
</g>
<path d="M6.79225 13.6106C6.85901 13.6089 6.89104 13.6357 6.93538 13.6806C6.98678 13.7326 7.03542 13.7887 7.07842 13.8479L7.9455 15.0427C8.01053 15.1322 8.07428 15.2397 8.08717 15.2814C8.10007 15.3232 8.0105 15.4953 7.9455 15.5848L7.07842 16.7795C7.0326 16.8426 6.95585 16.921 6.89694 16.9765C6.86034 17.011 6.80823 17.023 6.7601 17.0084C6.70225 16.9909 6.62268 16.9664 6.56311 16.947L6.32202 16.8687C6.24424 16.8433 6.15237 16.8062 6.08749 16.7747C6.05171 16.7573 6.02479 16.726 6.01253 16.6882L6.01249 16.688C6.00022 16.6502 6.00358 16.6092 6.02229 16.5741C6.05624 16.5105 6.10874 16.4264 6.15686 16.3601L6.79819 15.4765C6.86323 15.387 6.86323 15.2404 6.79819 15.1509L6.15686 14.2673C6.1137 14.2079 6.07393 14.1457 6.03792 14.0817C6.00995 14.032 5.99366 13.9804 6.01784 13.9254C6.04487 13.8639 6.10788 13.842 6.16549 13.8176C6.21913 13.795 6.27366 13.7748 6.32893 13.7565C6.39741 13.734 6.74577 13.6118 6.79225 13.6106Z" fill="#60A041"/>
<path d="M12.2216 6.28486C12.2111 6.28497 12.177 6.28017 12.1458 6.27263C12.1145 6.26517 12.0005 6.13708 11.9355 6.04747L11.0684 4.85283C11.0034 4.76322 10.9396 4.65579 10.9267 4.614C10.9139 4.57228 11.0034 4.40021 11.0684 4.31056L11.9355 3.11599C11.9848 3.04802 12.0509 2.96978 12.1018 2.91775C12.1271 2.89189 12.1634 2.8806 12.1988 2.88771C12.2659 2.90115 12.38 2.9254 12.4508 2.94841L12.6919 3.02689C12.7696 3.05216 12.8615 3.08931 12.9264 3.12076C12.9622 3.13814 12.9891 3.16947 13.0014 3.20732L13.0014 3.20744C13.0137 3.24521 13.0103 3.2863 12.9916 3.32134C12.9576 3.38497 12.9051 3.46911 12.8571 3.53533L12.2157 4.41892C12.1507 4.50849 12.1507 4.65501 12.2157 4.74462L12.8571 5.62818C12.9051 5.69435 12.9576 5.77853 12.9916 5.84212C13.0103 5.8772 13.0137 5.91826 13.0014 5.95607L13.0014 5.95615C12.9891 5.994 12.9622 6.02529 12.9264 6.04267C12.8616 6.07415 12.7696 6.11134 12.6919 6.13661L12.4508 6.21505C12.3456 6.24927 12.2713 6.28439 12.2216 6.28486Z" fill="#EE3835"/>
</g>
<defs>
<clipPath id="clip0_787_5159">
<rect width="20" height="20" fill="white"/>
</clipPath>
</defs>
</svg>
