<svg width="20" height="20" viewBox="0 0 20 20" fill="none" xmlns="http://www.w3.org/2000/svg">
<g clip-path="url(#clip0_787_5284)">
<g clip-path="url(#clip1_787_5284)">
<path d="M14.668 19.5682C14.668 19.6933 14.5656 19.7957 14.4405 19.7957H6.14995C6.02483 19.7957 5.92245 19.6933 5.92245 19.5682V7.96251C5.92245 7.83739 6.02483 7.73505 6.14995 7.73505H14.4405C14.5656 7.73505 14.668 7.83739 14.668 7.96251V19.5682Z" fill="#D0D5D5"/>
<path d="M7.02779 18.8857C6.92037 18.8857 6.83248 18.7978 6.83248 18.6903V8.84027C6.83248 8.73285 6.92037 8.64496 7.02779 8.64496H13.5626C13.6701 8.64496 13.758 8.73285 13.758 8.84027V18.6903C13.758 18.7977 13.6701 18.8856 13.5626 18.8856H7.02779V18.8857Z" fill="#6ECAD5"/>
<path d="M7.55506 8.64496L6.83248 9.36492V10.192L8.38514 8.64496H7.55506Z" fill="#0CB8C0"/>
<path d="M8.90264 8.64496L6.83248 10.7072V11.5343L9.73287 8.64496H8.90264Z" fill="#0CB8C0"/>
<path d="M10.2508 8.64496L6.83248 12.0495V12.8765L11.0812 8.64496H10.2508Z" fill="#0CB8C0"/>
<path d="M11.5987 8.64496L6.83248 13.3916V14.2186L12.4291 8.64496H11.5987Z" fill="#0CB8C0"/>
<path d="M13.7095 8.71325C13.6736 8.67188 13.6213 8.64508 13.5626 8.64508H12.9475L6.83247 14.7337V15.5577C6.84107 15.5509 6.84947 15.5436 6.85743 15.5357L13.7095 8.71325Z" fill="#0CB8C0"/>
<path d="M13.7386 9.20002L6.83248 16.0762V16.903L13.758 10.0076V9.18268C13.7513 9.18815 13.7448 9.19385 13.7386 9.20002Z" fill="#0CB8C0"/>
<path d="M6.83248 18.2454L13.758 11.3488V10.522L6.83248 17.4185V18.2454Z" fill="#0CB8C0"/>
<path d="M7.0278 18.8857H7.53948L13.758 12.6908V11.8637L6.84347 18.7519C6.86952 18.8292 6.94202 18.8857 7.0278 18.8857Z" fill="#0CB8C0"/>
<path d="M8.88678 18.8857L13.758 14.0337V13.2067L8.05651 18.8857H8.88678Z" fill="#0CB8C0"/>
<path d="M10.2344 18.8856L13.758 15.3759V14.5488L9.40417 18.8856H10.2344Z" fill="#0CB8C0"/>
<path d="M11.5824 18.8857L13.758 16.7179V15.8907L10.7524 18.8857H11.5824Z" fill="#0CB8C0"/>
<path d="M12.9304 18.8856L13.758 18.0606V17.2332L12.1005 18.8856H12.9304Z" fill="#0CB8C0"/>
<path d="M8.7427 15.9196C8.7427 16.0303 8.65215 16.1208 8.54148 16.1208H0.201211C0.0905469 16.1208 0 16.0303 0 15.9196V4.2653C0 4.15463 0.0905469 4.06409 0.201211 4.06409H8.54148C8.65215 4.06409 8.7427 4.15463 8.7427 4.2653V15.9196Z" fill="#E9EAEC"/>
<path opacity="0.1" d="M0.693945 15.9196V4.2653C0.693945 4.15463 0.784492 4.06409 0.895156 4.06409H0.201211C0.0905469 4.06409 0 4.15463 0 4.2653V15.9196C0 16.0303 0.0905469 16.1208 0.201211 16.1208H0.895156C0.784492 16.1208 0.693945 16.0303 0.693945 15.9196Z" fill="black"/>
<path d="M4.37691 8.01239C4.34136 8.01239 4.30753 7.99735 4.28374 7.9711L3.21265 6.78907C3.16933 6.74133 3.1696 6.6686 3.21324 6.6211L4.28433 5.45473C4.30804 5.42891 4.34167 5.41418 4.37695 5.41418C4.41218 5.41418 4.44578 5.42891 4.46957 5.45473L5.54062 6.6211C5.58421 6.6686 5.58445 6.74126 5.54117 6.78907L4.47007 7.9711C4.44624 7.99735 4.41246 8.01239 4.37691 8.01239Z" fill="#EE3835"/>
<path d="M4.37691 11.428C4.34136 11.428 4.30753 11.413 4.28374 11.3868L3.21265 10.2048C3.16933 10.1571 3.1696 10.0843 3.21324 10.0367L4.28433 8.8705C4.30804 8.84464 4.34167 8.82983 4.37695 8.82983C4.41218 8.82983 4.44578 8.84464 4.46957 8.8705L5.54062 10.0367C5.58421 10.0843 5.58445 10.157 5.54117 10.2048L4.47007 11.3868C4.44624 11.413 4.41246 11.428 4.37691 11.428Z" fill="#EE3835"/>
<path d="M4.37691 14.7161C4.34136 14.7161 4.30753 14.701 4.28374 14.6748L3.21265 13.4928C3.16933 13.445 3.1696 13.3724 3.21324 13.3249L4.28433 12.1584C4.30804 12.1326 4.34167 12.1179 4.37695 12.1179C4.41218 12.1179 4.44578 12.1326 4.46957 12.1584L5.54062 13.3249C5.58421 13.3724 5.58445 13.445 5.54117 13.4928L4.47007 14.6748C4.44624 14.7011 4.41246 14.7161 4.37691 14.7161Z" fill="#EE3835"/>
<path d="M1.89813 5.20919C1.89813 4.85712 1.61325 4.57068 1.26309 4.57068H0.847778C0.685981 4.57068 0.55481 4.70181 0.55481 4.86365C0.55481 5.02548 0.685981 5.15662 0.847778 5.15662H1.26309C1.29016 5.15662 1.31219 5.18021 1.31219 5.20919C1.31219 5.2381 1.29016 5.26166 1.26309 5.26166H1.06704C0.905239 5.26166 0.774067 5.39279 0.774067 5.55462C0.774067 5.71646 0.905239 5.84759 1.06704 5.84759H1.26309C1.29016 5.84759 1.31219 5.87115 1.31219 5.90005C1.31219 5.929 1.29016 5.95255 1.26309 5.95255H0.847778C0.685981 5.95255 0.55481 6.08369 0.55481 6.24552C0.55481 6.40736 0.685981 6.53849 0.847778 6.53849H1.26309C1.61325 6.53849 1.89813 6.25208 1.89813 5.90005C1.89813 5.77275 1.86047 5.65431 1.79633 5.55462C1.86043 5.4549 1.89813 5.33646 1.89813 5.20919Z" fill="#005289"/>
<path d="M15.4136 12.0596C15.4136 12.1703 15.323 12.2608 15.2123 12.2608H6.87215C6.76148 12.2608 6.67094 12.1703 6.67094 12.0596V0.405496C6.67094 0.294792 6.76148 0.204285 6.87215 0.204285H15.2123C15.323 0.204285 15.4136 0.294792 15.4136 0.405496V12.0596Z" fill="#D0D5D5"/>
<path opacity="0.1" d="M7.37406 12.0596V0.405496C7.37406 0.294792 7.46461 0.204285 7.57527 0.204285H6.87215C6.76148 0.204285 6.67094 0.294792 6.67094 0.405496V12.0596C6.67094 12.1703 6.76148 12.2608 6.87215 12.2608H7.57527C7.46461 12.2608 7.37406 12.1703 7.37406 12.0596Z" fill="black"/>
<path d="M11.8994 8.48394H11.3441V7.52968C11.3441 7.36296 11.2089 7.22784 11.0423 7.22784C10.8756 7.22784 10.7404 7.36296 10.7404 7.52968V8.48394H10.1849C10.0182 8.48394 9.88309 8.61906 9.88309 8.78577C9.88309 8.95249 10.0182 9.08757 10.1849 9.08757H11.8994C12.0661 9.08757 12.2013 8.95249 12.2013 8.78577C12.2013 8.61906 12.0661 8.48394 11.8994 8.48394Z" fill="#005289"/>
<path d="M9.05513 2.60338L8.46306 0.965337C8.37005 0.70811 8.16994 0.68811 8.11083 0.68811C8.05173 0.68811 7.85162 0.70811 7.75861 0.965376L7.1665 2.60338C7.10982 2.76014 7.19099 2.93315 7.34775 2.98987C7.38165 3.00209 7.41626 3.00788 7.45033 3.00788C7.57384 3.00788 7.68978 2.93147 7.73419 2.80858L7.799 2.62932H8.42267L8.48748 2.80858C8.54412 2.96538 8.71716 3.04643 8.87392 2.98987C9.03068 2.93315 9.11181 2.7601 9.05513 2.60338ZM8.0172 2.02565L8.11087 1.76655L8.20451 2.02565H8.0172Z" fill="#005289"/>
<path d="M13.3514 16.7774C13.13 16.7774 12.9489 16.5963 12.9489 16.3749V10.1288C12.9489 9.90747 13.13 9.72638 13.3514 9.72638H19.5975C19.8189 9.72638 20 9.90747 20 10.1288L19.9999 16.3749C19.9999 16.5963 19.8188 16.7774 19.5975 16.7774H13.3514Z" fill="#EE3835"/>
<path d="M18.5601 11.857C18.9228 11.857 19.2167 11.5631 19.2167 11.2004C19.2167 10.8378 18.9228 10.5439 18.5601 10.5439C18.1975 10.5439 17.9036 10.8378 17.9036 11.2004C17.9036 11.5631 18.1975 11.857 18.5601 11.857Z" fill="white"/>
<path d="M16.4746 13.9159C16.8372 13.9159 17.1311 13.622 17.1311 13.2594C17.1311 12.8968 16.8372 12.6028 16.4746 12.6028C16.112 12.6028 15.8181 12.8968 15.8181 13.2594C15.8181 13.622 16.112 13.9159 16.4746 13.9159Z" fill="white"/>
<path d="M14.3893 11.8572C14.7519 11.8572 15.0458 11.5632 15.0458 11.2007C15.0458 10.8381 14.7519 10.5441 14.3893 10.5441C14.0267 10.5441 13.7328 10.8381 13.7328 11.2007C13.7328 11.5632 14.0267 11.8572 14.3893 11.8572Z" fill="white"/>
<path d="M18.5601 15.9597C18.9228 15.9597 19.2167 15.6657 19.2167 15.3031C19.2167 14.9405 18.9228 14.6465 18.5601 14.6465C18.1975 14.6465 17.9036 14.9405 17.9036 15.3031C17.9036 15.6657 18.1975 15.9597 18.5601 15.9597Z" fill="white"/>
<path d="M14.3891 15.9597C14.7517 15.9597 15.0456 15.6657 15.0456 15.3031C15.0456 14.9405 14.7517 14.6465 14.3891 14.6465C14.0265 14.6465 13.7325 14.9405 13.7325 15.3031C13.7325 15.6657 14.0265 15.9597 14.3891 15.9597Z" fill="white"/>
<path d="M12.3387 5.44756C12.3739 5.32603 12.3933 5.19775 12.3933 5.06498C12.3933 4.30521 11.7747 3.68939 11.0117 3.68939C10.2486 3.68939 9.63005 4.30521 9.63005 5.06498C9.63005 5.19775 9.64919 5.32603 9.68454 5.44756C9.00165 5.53068 8.47263 6.10974 8.47263 6.81232C8.47263 7.57201 9.0911 8.18791 9.85403 8.18791C10.3389 8.18791 10.765 7.93912 11.0117 7.56283C11.2582 7.93912 11.6844 8.18791 12.1691 8.18791C12.9322 8.18791 13.5508 7.57201 13.5508 6.81232C13.5507 6.10974 13.0217 5.53068 12.3387 5.44756Z" fill="#0059AD"/>
</g>
</g>
<defs>
<clipPath id="clip0_787_5284">
<rect width="20" height="20" fill="white"/>
</clipPath>
<clipPath id="clip1_787_5284">
<rect width="20" height="20" fill="white"/>
</clipPath>
</defs>
</svg>
