<svg width="20" height="20" viewBox="0 0 20 20" fill="none" xmlns="http://www.w3.org/2000/svg">
<g clip-path="url(#clip0_787_5200)">
<g clip-path="url(#clip1_787_5200)">
<path d="M12.2345 18.1569L11.8665 16.134C11.2684 16.281 10.6434 16.3594 10 16.3594C9.40122 16.3594 8.81829 16.2917 8.25821 16.1639L7.8054 18.1569H12.2345Z" fill="#F7931E"/>
<path opacity="0.1" d="M8.5904 18.1568L9.01282 16.2974C8.75723 16.2651 8.50551 16.2203 8.25821 16.1639L7.8054 18.1568H8.5904Z" fill="black"/>
<path d="M13.5804 18.9844C13.5806 18.9809 13.5814 18.9775 13.5814 18.9739V18.3144C13.5814 18.2038 13.4909 18.1132 13.3803 18.1132H6.6197C6.50904 18.1132 6.41853 18.2038 6.41853 18.3144V18.9739C6.41853 18.9775 6.41939 18.9809 6.41959 18.9844H13.5804Z" fill="#C0272D"/>
<path opacity="0.1" d="M7.14392 18.9844C7.14373 18.9809 7.14287 18.9775 7.14287 18.9739V18.3144C7.14287 18.2038 7.23338 18.1132 7.34404 18.1132H6.6197C6.50904 18.1132 6.41853 18.2038 6.41853 18.3144V18.9739C6.41853 18.9775 6.41939 18.9809 6.41959 18.9844H7.14392Z" fill="black"/>
<path d="M10 16.5938C14.436 16.5938 18.032 12.9977 18.032 8.56176C18.032 4.12579 14.436 0.529724 10 0.529724C5.56403 0.529724 1.96797 4.12579 1.96797 8.56176C1.96797 12.9977 5.56403 16.5938 10 16.5938Z" fill="#EE3835"/>
<path d="M10.3819 15.7999C10.3662 15.6341 10.4881 15.4868 10.6539 15.4712C10.8201 15.4555 10.967 15.5774 10.9827 15.7432C10.9984 15.9094 10.8765 16.0567 10.7107 16.0719C10.701 16.0728 10.6913 16.0736 10.6817 16.0736C10.528 16.0736 10.3964 15.9561 10.3819 15.7999ZM9.03822 16.0454C8.87287 16.0241 8.75576 15.8732 8.77705 15.7078C8.79798 15.5424 8.94927 15.4253 9.1147 15.4466C9.28005 15.4676 9.39681 15.6189 9.37591 15.7839C9.35619 15.9364 9.22662 16.0479 9.07689 16.0479C9.064 16.0478 9.05111 16.047 9.03822 16.0454ZM11.9678 15.5392C11.9159 15.381 12.0024 15.2104 12.161 15.1585C12.3195 15.107 12.4897 15.1935 12.5417 15.3521C12.5931 15.5102 12.5066 15.6808 12.3485 15.7324C12.3175 15.7428 12.2857 15.7476 12.2548 15.7476C12.1276 15.7476 12.0092 15.6667 11.9678 15.5392ZM7.41165 15.6494C7.25513 15.5923 7.17466 15.4189 7.23216 15.2623C7.28931 15.1058 7.46275 15.0253 7.61931 15.0828C7.77583 15.14 7.8563 15.3134 7.79876 15.4696C7.75408 15.5923 7.63861 15.6679 7.51548 15.6679C7.48087 15.668 7.44591 15.6619 7.41165 15.6494ZM13.4567 14.9344C13.3714 14.7915 13.4177 14.606 13.5606 14.5203C13.7038 14.4346 13.8893 14.4812 13.9746 14.6245C14.0603 14.7673 14.0141 14.9528 13.8708 15.0381C13.8221 15.0675 13.769 15.0812 13.7163 15.0812C13.6137 15.0812 13.5135 15.0289 13.4567 14.9344ZM5.91388 14.9037C5.7738 14.8132 5.73357 14.6265 5.82412 14.4865C5.91427 14.3464 6.10099 14.3062 6.24146 14.3963C6.3815 14.4868 6.42173 14.6735 6.33119 14.8136C6.27361 14.9033 6.17622 14.952 6.07724 14.952C6.0213 14.952 5.96458 14.9364 5.91388 14.9037ZM14.7751 14.0153C14.66 13.8945 14.6644 13.7034 14.7851 13.5883C14.9059 13.4732 15.097 13.478 15.2121 13.5987C15.3268 13.7195 15.3224 13.9106 15.2016 14.0253C15.1433 14.0812 15.0685 14.1086 14.9936 14.1086C14.9139 14.1086 14.8342 14.0772 14.7751 14.0153ZM4.61732 13.8474C4.50021 13.7283 4.50181 13.5372 4.62095 13.4205C4.73966 13.3037 4.93083 13.3054 5.0479 13.4241C5.16458 13.5432 5.16298 13.734 5.04388 13.8511C4.98513 13.9086 4.90865 13.9376 4.83263 13.9376C4.75451 13.9376 4.67646 13.9074 4.61732 13.8474ZM15.8595 12.8285C15.7208 12.736 15.6833 12.5484 15.7759 12.41C15.8684 12.2716 16.056 12.2341 16.1943 12.3267C16.3332 12.4192 16.3706 12.6064 16.2781 12.7452C16.2197 12.8321 16.124 12.8792 16.0265 12.8792C15.969 12.8792 15.9111 12.8631 15.8595 12.8285ZM3.58392 12.5323C3.49619 12.3907 3.53966 12.2044 3.68126 12.1166C3.82294 12.0289 4.00888 12.0724 4.09701 12.214C4.18474 12.3556 4.14126 12.542 3.99962 12.6297C3.9497 12.6603 3.89497 12.6752 3.84068 12.6752C3.73962 12.6752 3.64103 12.6245 3.58392 12.5323ZM16.6572 11.433C16.5014 11.373 16.4237 11.1983 16.4833 11.043C16.5433 10.8873 16.7175 10.8096 16.8733 10.8692C17.029 10.9291 17.1067 11.1034 17.0471 11.2591C17.0008 11.379 16.8865 11.453 16.765 11.453C16.7292 11.453 16.6926 11.4462 16.6572 11.433ZM2.86599 11.0209C2.81165 10.8632 2.8958 10.6913 3.05314 10.637C3.21087 10.5831 3.38271 10.6667 3.43704 10.8245C3.49095 10.9818 3.40724 11.1537 3.24951 11.208C3.21732 11.2193 3.18388 11.2245 3.15126 11.2245C3.02619 11.2245 2.90908 11.146 2.86599 11.0209ZM17.1264 9.89491C16.9614 9.87155 16.8471 9.71831 16.8704 9.55327C16.8942 9.38827 17.0471 9.27405 17.2121 9.29733C17.377 9.32108 17.4918 9.47401 17.4681 9.63901C17.4463 9.78948 17.3172 9.89815 17.1694 9.89815C17.1553 9.89815 17.1409 9.8969 17.1264 9.89491ZM2.50142 9.38827C2.4833 9.22249 2.60283 9.07358 2.76861 9.05549C2.934 9.03737 3.08333 9.1569 3.10142 9.32268C3.11955 9.48807 3.00001 9.63741 2.83423 9.65549C2.82294 9.65667 2.81212 9.6571 2.80083 9.6571C2.64908 9.6571 2.51833 9.5428 2.50142 9.38827ZM16.9187 8.01487C16.9054 7.84866 17.0298 7.70335 17.196 7.6901C17.3622 7.67682 17.5075 7.80116 17.5208 7.96741C17.5208 7.96741 17.5208 7.96741 17.5203 7.96741C17.5336 8.13362 17.4097 8.27885 17.2435 8.29174C17.2354 8.29253 17.2274 8.29296 17.2193 8.29296C17.0631 8.29292 16.9312 8.173 16.9187 8.01487ZM2.76861 8.04944C2.60322 8.03049 2.48369 7.8812 2.50224 7.71585C2.52076 7.55007 2.67005 7.43092 2.83583 7.44944C3.00122 7.46753 3.12076 7.61725 3.1022 7.7826C3.08494 7.93717 2.95415 8.051 2.80283 8.051C2.79158 8.051 2.78029 8.05065 2.76861 8.04944ZM16.6298 6.50335C16.5803 6.34397 16.6697 6.17503 16.829 6.12589C16.9879 6.07639 17.1574 6.16534 17.2065 6.32471C17.2556 6.48405 17.1666 6.65307 17.0072 6.70214C16.9775 6.71143 16.9477 6.71585 16.9179 6.71585C16.7892 6.71585 16.67 6.63296 16.6298 6.50335ZM3.05837 6.46753C2.90103 6.4128 2.81771 6.24057 2.87244 6.08323C2.92755 5.92589 3.09939 5.84257 3.25673 5.89768C3.41447 5.95245 3.4974 6.12428 3.44267 6.28202V6.28159C3.39923 6.40635 3.28251 6.4844 3.15775 6.4844C3.12474 6.48444 3.09134 6.47921 3.05837 6.46753ZM16.0136 5.0937C15.9299 4.94924 15.9795 4.76448 16.1239 4.6812C16.2684 4.59788 16.4527 4.64698 16.536 4.79143C16.6197 4.93592 16.5702 5.12065 16.4258 5.20393C16.3783 5.23132 16.3264 5.2446 16.2753 5.2446C16.171 5.24421 16.0692 5.19026 16.0136 5.0937ZM3.69177 4.98987C3.55013 4.90174 3.50705 4.71546 3.59517 4.57417C3.68372 4.43249 3.86962 4.38944 4.01126 4.47757C4.15247 4.56612 4.19556 4.75202 4.10744 4.89362C4.05029 4.98542 3.95173 5.03569 3.85111 5.03569C3.79642 5.03573 3.74122 5.02085 3.69177 4.98987ZM15.1006 3.85507C14.9875 3.73229 14.9952 3.54159 15.1175 3.4285C15.2399 3.31538 15.431 3.32264 15.5441 3.44499C15.5441 3.44499 15.5441 3.44499 15.5441 3.44542C15.6572 3.56776 15.6495 3.7585 15.5272 3.87155C15.4692 3.92549 15.3956 3.95167 15.3224 3.95167C15.2411 3.95167 15.1602 3.91905 15.1006 3.85507ZM4.63462 3.68807C4.51591 3.571 4.5147 3.37983 4.63181 3.26112C4.74892 3.14241 4.9397 3.1412 5.05841 3.25831C5.17708 3.37538 5.17829 3.56655 5.06119 3.68526C5.00244 3.74518 4.92439 3.77499 4.8463 3.77499C4.76982 3.77499 4.69337 3.746 4.63462 3.68807ZM13.9376 2.8462C13.8004 2.75163 13.7658 2.56335 13.8608 2.42651C13.9554 2.28889 14.1433 2.25471 14.2805 2.34925C14.4177 2.44425 14.4523 2.63217 14.3574 2.76936C14.299 2.85389 14.2049 2.89975 14.1087 2.89975C14.0499 2.89971 13.9899 2.88245 13.9376 2.8462ZM5.83943 2.62487C5.7497 2.48444 5.79033 2.29772 5.93079 2.20757C6.0708 2.11784 6.25755 2.15846 6.34771 2.29893C6.43783 2.43893 6.39681 2.62569 6.25673 2.71585C6.20603 2.74803 6.1497 2.76374 6.09376 2.76374C5.99439 2.76374 5.89701 2.71464 5.83943 2.62487ZM12.5819 2.11745C12.427 2.0555 12.3522 1.87964 12.4141 1.7251C12.4761 1.57014 12.6519 1.4953 12.8069 1.55729C12.9614 1.61928 13.0363 1.7951 12.9743 1.95007C12.9272 2.06792 12.8137 2.13921 12.6942 2.13921C12.6567 2.13921 12.6185 2.13237 12.5819 2.11745ZM7.24951 1.85303C7.19279 1.69608 7.27404 1.52307 7.4306 1.46675C7.58755 1.40999 7.76056 1.49085 7.81732 1.64784C7.87365 1.80436 7.79275 1.97741 7.63583 2.03413C7.60205 2.04659 7.56744 2.05225 7.53365 2.05225C7.41005 2.05225 7.29415 1.97581 7.24951 1.85303Z" fill="white"/>
<path d="M9.99999 14.9879C13.5491 14.9879 16.4262 12.1108 16.4262 8.56173C16.4262 5.01265 13.5491 2.13556 9.99999 2.13556C6.45092 2.13556 3.57382 5.01265 3.57382 8.56173C3.57382 12.1108 6.45092 14.9879 9.99999 14.9879Z" fill="#B52D5A"/>
<path d="M9.99998 9.77424C10.6696 9.77424 11.2125 9.23139 11.2125 8.56174C11.2125 7.8921 10.6696 7.34924 9.99998 7.34924C9.33034 7.34924 8.78748 7.8921 8.78748 8.56174C8.78748 9.23139 9.33034 9.77424 9.99998 9.77424Z" fill="white"/>
<path d="M10 10.0671C9.16993 10.0671 8.49461 9.39176 8.49461 8.56164C8.49461 7.73153 9.16993 7.05621 10 7.05621C10.8302 7.05621 11.5055 7.73153 11.5055 8.56164C11.5055 9.39176 10.8302 10.0671 10 10.0671ZM10 7.64215C9.49305 7.64215 9.08055 8.05465 9.08055 8.56164C9.08055 9.06867 9.49305 9.48117 10 9.48117C10.507 9.48117 10.9195 9.06867 10.9195 8.56164C10.9195 8.05461 10.507 7.64215 10 7.64215Z" fill="black"/>
<path d="M8.87157 2.23438L9.99997 8.18305L11.1284 2.23438C10.762 2.1695 10.3851 2.13544 9.99997 2.13544C9.61493 2.13544 9.2379 2.1695 8.87157 2.23438Z" fill="#0481BF"/>
<path d="M13.6757 3.29034L10.2679 8.29398L15.2713 4.88601C14.8375 4.26491 14.2968 3.72425 13.6757 3.29034Z" fill="#60A041"/>
<path d="M16.3273 9.6902C16.3922 9.3238 16.4262 8.94673 16.4262 8.56161C16.4262 8.17665 16.3922 7.79969 16.3273 7.43329L10.3787 8.56176L16.3273 9.6902Z" fill="#60A041"/>
<path d="M15.2712 12.2375L10.2677 8.82953L13.6755 13.833C14.2966 13.3992 14.8373 12.8586 15.2712 12.2375Z" fill="#FECF05"/>
<path d="M10 14.9877C10.3849 14.9877 10.7619 14.9538 11.1283 14.8889L9.99994 8.94043L8.8715 14.8889C9.23787 14.9538 9.6149 14.9877 10 14.9877Z" fill="#FECF05"/>
<path d="M6.32425 13.833L9.73218 8.82953L4.72874 12.2374C5.16261 12.8584 5.70335 13.3991 6.32425 13.833Z" fill="#FED0A5"/>
<path d="M3.67273 7.43329C3.60785 7.79966 3.57382 8.17665 3.57382 8.56169C3.57382 8.94665 3.60785 9.32376 3.67273 9.69012L9.62132 8.56173L3.67273 7.43329Z" fill="#FED0A5"/>
<path d="M4.72873 4.88601L9.73217 8.29398L6.32435 3.29034C5.7033 3.72425 5.16256 4.26484 4.72873 4.88601Z" fill="#0481BF"/>
<path d="M9.99998 12.5824C12.2206 12.5824 14.0207 10.7823 14.0207 8.56172C14.0207 6.34115 12.2206 4.54102 9.99998 4.54102C7.77941 4.54102 5.97928 6.34115 5.97928 8.56172C5.97928 10.7823 7.77941 12.5824 9.99998 12.5824Z" fill="white"/>
<path d="M9.99998 11.5028C11.6243 11.5028 12.941 10.186 12.941 8.56174C12.941 6.93746 11.6243 5.62073 9.99998 5.62073C8.3757 5.62073 7.05897 6.93746 7.05897 8.56174C7.05897 10.186 8.3757 11.5028 9.99998 11.5028Z" fill="#EE3835"/>
<path opacity="0.1" d="M7.74653 8.56163C7.74653 7.05366 8.88165 5.81167 10.3438 5.64135C10.2309 5.62819 10.1164 5.62073 10 5.62073C8.37586 5.62073 7.05907 6.93733 7.05907 8.56163C7.05907 10.1859 8.37586 11.5026 10 11.5026C10.1164 11.5026 10.2309 11.4951 10.3438 11.4819C8.88161 11.3116 7.74653 10.0695 7.74653 8.56163Z" fill="black"/>
<path d="M10.647 9.22557C10.6235 9.22557 10.6 9.22147 10.5775 9.21307L9.99996 8.99729L9.42239 9.21307C9.39993 9.22147 9.37641 9.22557 9.35305 9.22557C9.31184 9.22557 9.27114 9.2128 9.23688 9.18807C9.18328 9.14928 9.15274 9.08624 9.15575 9.0203L9.1834 8.40698L8.79868 7.92706C8.75735 7.87541 8.74477 7.80655 8.76532 7.74377C8.78575 7.681 8.83657 7.63264 8.90059 7.61506L9.49524 7.45194L9.83512 6.93952C9.87168 6.8844 9.9336 6.8512 9.99996 6.8512C10.0663 6.8512 10.1282 6.8844 10.1647 6.93952L10.5047 7.45182L11.0993 7.61506C11.1634 7.63264 11.2141 7.681 11.2347 7.74377C11.2552 7.80655 11.2426 7.87541 11.2013 7.92706L10.8166 8.40698L10.8442 9.0203C10.8472 9.08624 10.8167 9.14932 10.7631 9.18807C10.7287 9.2128 10.688 9.22557 10.647 9.22557Z" fill="#FECF05"/>
<path d="M10.8062 10.565H9.19362C9.03178 10.565 8.90065 10.4339 8.90065 10.272C8.90065 10.1102 9.03178 9.97906 9.19362 9.97906H10.8062C10.9681 9.97906 11.0992 10.1102 11.0992 10.272C11.0992 10.4338 10.968 10.565 10.8062 10.565Z" fill="#FECF05"/>
<path d="M11.4267 1.87727C11.4267 1.98793 11.3535 2.1318 11.2641 2.19695L10.1626 2.99918C10.0732 3.06437 9.92685 3.06437 9.8374 2.99918L8.73595 2.19691C8.6465 2.13176 8.57333 1.98789 8.57333 1.87723V0.201211C8.57333 0.0905469 8.66388 0 8.77454 0H11.2255C11.3361 0 11.4267 0.0905469 11.4267 0.201211V1.87727Z" fill="#F8B816"/>
<path opacity="0.1" d="M10.5397 2.69738L9.43826 1.89516C9.34884 1.83 9.27568 1.68613 9.27568 1.57547V0H8.77454C8.66388 0 8.57333 0.0905469 8.57333 0.201211V1.87723C8.57333 1.98789 8.6465 2.13176 8.73595 2.19691L9.8374 2.99914C9.92685 3.06434 10.0732 3.06434 10.1626 2.99914L10.5602 2.70953C10.5533 2.70559 10.5461 2.70199 10.5397 2.69738Z" fill="black"/>
<path d="M15.6997 19.7989C15.6997 19.9095 15.6092 20.0001 15.4985 20.0001H4.5015C4.39083 20.0001 4.30032 19.9095 4.30032 19.7989V19.1394C4.30032 19.0287 4.39083 18.9382 4.5015 18.9382H15.4985C15.6092 18.9382 15.6997 19.0287 15.6997 19.1394L15.6997 19.7989Z" fill="#EE3835"/>
<path opacity="0.1" d="M5.29177 19.7989V19.1394C5.29177 19.0287 5.38232 18.9382 5.49298 18.9382H4.5015C4.39083 18.9382 4.30032 19.0287 4.30032 19.1394V19.7989C4.30032 19.9095 4.39083 20.0001 4.5015 20.0001H5.49298C5.38232 20.0001 5.29177 19.9095 5.29177 19.7989Z" fill="black"/>
</g>
</g>
<defs>
<clipPath id="clip0_787_5200">
<rect width="20" height="20" fill="white"/>
</clipPath>
<clipPath id="clip1_787_5200">
<rect width="20" height="20" fill="white"/>
</clipPath>
</defs>
</svg>
