<svg width="20" height="20" viewBox="0 0 20 20" fill="none" xmlns="http://www.w3.org/2000/svg">
<g clip-path="url(#clip0_787_5252)">
<path d="M4.3654 6.97388H3.75403C3.64321 6.97388 3.55254 7.06442 3.55254 7.17505V9.26763C3.55254 9.37825 3.64321 9.4688 3.75403 9.4688H4.3654V6.97388Z" fill="#0059AD"/>
<path d="M16.2459 5.4447H15.5565V7.93966H16.2459C16.3568 7.93966 16.4474 7.84912 16.4474 7.73845V5.64591C16.4475 5.53521 16.3568 5.4447 16.2459 5.4447Z" fill="#0059AD"/>
<path d="M4.36537 3.79474H3.75401C3.64318 3.79474 3.55252 3.88529 3.55252 3.99595V6.08849C3.55252 6.19915 3.64318 6.28966 3.75401 6.28966H4.36537V3.79474Z" fill="#0059AD"/>
<path d="M4.28417 19.3964C4.28417 19.7284 4.55616 20 4.88863 20H15.0566C15.389 20 15.661 19.7284 15.661 19.3964V17.1867H4.28417V19.3964Z" fill="#005289"/>
<path d="M15.0566 0H4.88865C4.55619 0 4.28419 0.271641 4.28419 0.603633V2.66824H15.661V0.603633C15.661 0.271641 15.389 0 15.0566 0Z" fill="#005289"/>
<path d="M15.6613 2.6684H4.28439V17.1868H15.6613V2.6684Z" fill="#E9EAEC"/>
<g opacity="0.1">
<path d="M5.0838 0.603633C5.0838 0.271641 5.3558 0 5.68826 0H4.88865C4.55619 0 4.28419 0.271641 4.28419 0.603633V2.66824H5.0838V0.603633Z" fill="black"/>
<path d="M5.08378 19.3964V17.1867H4.28417V19.3964C4.28417 19.7284 4.55616 20 4.88863 20H5.68823C5.35577 20 5.08378 19.7284 5.08378 19.3964Z" fill="black"/>
</g>
<path opacity="0.1" d="M5.084 2.6684H4.28439V17.1868H5.084V2.6684Z" fill="black"/>
<path d="M7.81122 7.03823C7.79102 7.03823 7.77095 7.03057 7.75544 7.01522L6.26036 5.52573C6.09126 5.35362 5.99833 5.12702 5.99833 4.88745C5.99833 4.38409 6.4097 3.97479 6.91528 3.97479C7.14977 3.97479 7.37313 4.06311 7.54411 4.2237L7.81466 4.47796L8.08552 4.2237C8.25634 4.06311 8.47966 3.97479 8.71415 3.97479C9.21977 3.97479 9.63122 4.38413 9.63122 4.88745C9.63122 5.15315 9.51481 5.40503 9.312 5.57909L7.86708 7.01526C7.85169 7.03053 7.83149 7.03823 7.81122 7.03823Z" fill="#EE3835"/>
<path d="M12.3134 11.5098C12.2654 11.5098 12.2194 11.4896 12.1872 11.4539L10.7354 9.85232C10.6767 9.7876 10.6771 9.68908 10.7362 9.62467L12.188 8.04424C12.2202 8.009 12.2658 7.9892 12.3135 7.9892C12.3613 7.9892 12.4068 8.009 12.4389 8.04424L13.8908 9.62467C13.9499 9.689 13.9502 9.78756 13.8915 9.85232L12.4398 11.4539C12.4073 11.4896 12.3615 11.5098 12.3134 11.5098Z" fill="#EE3835"/>
<path d="M14.3259 15.7868C14.3259 15.8975 14.2352 15.988 14.1244 15.988H5.82075C5.70996 15.988 5.6193 15.8975 5.6193 15.7868V12.8127C5.6193 12.702 5.70996 12.6115 5.82075 12.6115H14.1244C14.2352 12.6115 14.3259 12.702 14.3259 12.8127V15.7868Z" fill="#FECF05"/>
<path d="M10.865 13.1468C10.3969 13.1468 10.016 13.5265 10.016 13.9933V15.219C10.016 15.3808 10.1471 15.5119 10.309 15.5119C10.4708 15.5119 10.6019 15.3808 10.6019 15.219V14.8002H11.1283V15.219C11.1283 15.3808 11.2594 15.5119 11.4212 15.5119C11.5831 15.5119 11.7142 15.3808 11.7142 15.219V13.9933C11.7142 13.5265 11.3332 13.1468 10.865 13.1468ZM11.1282 14.2143H10.6019V13.9933C10.6019 13.8496 10.7199 13.7327 10.865 13.7327C11.0101 13.7327 11.1282 13.8496 11.1282 13.9933V14.2143H11.1282Z" fill="#068F8F"/>
<path d="M9.60135 14.9259H8.78967V13.4397C8.78967 13.2779 8.65854 13.1467 8.4967 13.1467C8.33487 13.1467 8.20374 13.2779 8.20374 13.4397V15.2189C8.20374 15.3808 8.33487 15.5119 8.4967 15.5119H9.60135C9.76319 15.5119 9.89432 15.3808 9.89432 15.2189C9.89432 15.0571 9.76319 14.9259 9.60135 14.9259Z" fill="#068F8F"/>
<path d="M7.17819 13.1469H6.62209C6.46026 13.1469 6.32912 13.278 6.32912 13.4398V14.5469V15.219C6.32912 15.3809 6.46026 15.512 6.62209 15.512C6.78393 15.512 6.91506 15.3809 6.91506 15.219V14.8399H7.17819C7.64639 14.8399 8.02733 14.4601 8.02733 13.9933C8.02733 13.5265 7.64639 13.1469 7.17819 13.1469ZM7.17819 14.2539H6.91506V13.7327H7.17819C7.32334 13.7327 7.44139 13.8496 7.44139 13.9933C7.44139 14.137 7.3233 14.2539 7.17819 14.2539Z" fill="#068F8F"/>
<path d="M13.4702 13.1863C13.3303 13.1051 13.1509 13.1529 13.0698 13.2927L12.692 13.9439L12.3143 13.2928C12.2332 13.1528 12.0539 13.1051 11.9139 13.1863C11.774 13.2675 11.7263 13.4468 11.8075 13.5867L12.399 14.6065V15.2461C12.399 15.4079 12.5302 15.539 12.692 15.539C12.8538 15.539 12.985 15.4079 12.985 15.2461V14.6066L13.5766 13.5868C13.6578 13.4468 13.6102 13.2675 13.4702 13.1863Z" fill="#068F8F"/>
<path d="M11.3744 18.8851C11.3744 18.9958 11.2838 19.0863 11.173 19.0863H8.65895C8.54813 19.0863 8.4575 18.9958 8.4575 18.8851V18.2201C8.4575 18.1094 8.54813 18.0189 8.65895 18.0189H11.173C11.2838 18.0189 11.3744 18.1094 11.3744 18.2201V18.8851Z" fill="#0481BF"/>
<path opacity="0.1" d="M8.84086 18.8851V18.2201C8.84086 18.1094 8.93149 18.0189 9.04231 18.0189H8.65895C8.54813 18.0189 8.4575 18.1094 8.4575 18.2201V18.8851C8.4575 18.9958 8.54813 19.0863 8.65895 19.0863H9.04231C8.93149 19.0863 8.84086 18.9958 8.84086 18.8851Z" fill="black"/>
<path d="M11.0918 1.59521H7.66005C7.49821 1.59521 7.36708 1.46408 7.36708 1.30225C7.36708 1.14041 7.49821 1.00928 7.66005 1.00928H11.0918C11.2536 1.00928 11.3847 1.14041 11.3847 1.30225C11.3847 1.46408 11.2536 1.59521 11.0918 1.59521Z" fill="#0059AD"/>
<path d="M12.1785 1.60416C12.3454 1.60416 12.4807 1.46902 12.4807 1.30232C12.4807 1.13562 12.3454 1.00049 12.1785 1.00049C12.0116 1.00049 11.8763 1.13562 11.8763 1.30232C11.8763 1.46902 12.0116 1.60416 12.1785 1.60416Z" fill="#0059AD"/>
<path d="M13.8678 5.10176L12.3725 3.61676C12.3572 3.60145 12.337 3.59375 12.3169 3.59375C12.2966 3.59375 12.2765 3.60141 12.2611 3.61672L10.8162 5.04871C10.6132 5.22211 10.497 5.4732 10.497 5.73828C10.497 6.23988 10.9083 6.64809 11.4139 6.64809C11.6386 6.64809 11.8526 6.56645 12.0204 6.41879V6.95027C12.0204 7.11211 12.1516 7.24324 12.3134 7.24324C12.4752 7.24324 12.6064 7.11211 12.6064 6.95027V6.41898C12.7743 6.56648 12.9881 6.64805 13.2129 6.64805C13.7184 6.64805 14.1298 6.23984 14.1298 5.73824C14.1298 5.49926 14.0369 5.27344 13.8678 5.10176Z" fill="#0059AD"/>
<path d="M8.66418 9.11823C8.68953 9.03123 8.70312 8.93959 8.70312 8.84471C8.70312 8.30135 8.26066 7.86096 7.71484 7.86096C7.16895 7.86096 6.72645 8.30131 6.72645 8.84471C6.72645 8.93959 6.74016 9.03123 6.76543 9.11823C6.27688 9.17776 5.89844 9.59182 5.89844 10.0943C5.89844 10.6377 6.3409 11.0783 6.88684 11.0783C7.08406 11.0783 7.2677 11.0205 7.42188 10.9213V11.3632C7.42188 11.525 7.55301 11.6562 7.71484 11.6562C7.87668 11.6562 8.00781 11.525 8.00781 11.3632V10.9214C8.16199 11.0205 8.34555 11.0783 8.54281 11.0783C9.08867 11.0783 9.53125 10.6378 9.53125 10.0944C9.53125 9.59182 9.15277 9.17776 8.66418 9.11823Z" fill="#0059AD"/>
</g>
<defs>
<clipPath id="clip0_787_5252">
<rect width="20" height="20" fill="white"/>
</clipPath>
</defs>
</svg>
