<svg width="20" height="20" viewBox="0 0 20 20" fill="none" xmlns="http://www.w3.org/2000/svg">
<path fill-rule="evenodd" clip-rule="evenodd" d="M18.3334 9.99984C18.3334 11.1498 17.4001 12.0832 16.2501 12.0832H12.0834V16.2498C12.0834 17.3998 11.1501 18.3332 10.0001 18.3332C8.85008 18.3332 7.91674 17.3998 7.91674 16.2498V12.0832H3.75009C2.60009 12.0832 1.66675 11.1498 1.66675 9.99984C1.66675 8.84984 2.60009 7.91651 3.75009 7.91651H7.91674V3.74984C7.91674 2.59984 8.85008 1.6665 10.0001 1.6665C11.1501 1.6665 12.0834 2.59984 12.0834 3.74984V7.91651H16.2501C17.4001 7.91651 18.3334 8.84984 18.3334 9.99984Z" fill="#054146"/>
</svg>
