<svg width="40" height="40" viewBox="0 0 40 40" fill="none" xmlns="http://www.w3.org/2000/svg">
<path d="M33.8275 19.2758L20.7994 1.60451C20.4024 1.06607 19.5974 1.06607 19.2005 1.60451L6.17236 19.2758C5.68892 19.9315 6.15712 20.8583 6.97173 20.8583H33.0281C33.8429 20.8583 34.311 19.9315 33.8275 19.2758Z" fill="#054146"/>
<path d="M34.7941 18.5634L21.7659 0.892109C21.3541 0.333437 20.694 0 20 0C19.306 0 18.6458 0.333437 18.2341 0.892109L5.20571 18.5634C4.71165 19.2335 4.63798 20.1115 5.01337 20.8547C5.38876 21.5979 6.13931 22.0594 6.97181 22.0594H11.2737V37.341C11.2737 38.8073 12.4666 40 13.9327 40H26.0674C27.5334 40 28.7263 38.8072 28.7263 37.341V28.4891C28.7263 27.023 27.5334 25.8302 26.0674 25.8302H18.6391C17.9759 25.8302 17.4382 26.3677 17.4382 27.031C17.4382 27.6942 17.9758 28.2319 18.6391 28.2319H26.0674C26.2093 28.2319 26.3247 28.3473 26.3247 28.4892V37.3411C26.3247 37.483 26.2093 37.5984 26.0674 37.5984H13.9327C13.7907 37.5984 13.6753 37.483 13.6753 37.3411V22.0594H33.0282C33.8608 22.0594 34.6112 21.5977 34.9866 20.8546C35.362 20.1115 35.2882 19.2336 34.7941 18.5634ZM7.38282 19.6577L20 2.54391L32.6171 19.6577H7.38282Z" fill="white"/>
</svg>
