<svg width="18" height="18" viewBox="0 0 18 18" fill="none" xmlns="http://www.w3.org/2000/svg">
<path d="M9 0C4.04795 0 0 4.032 0 9.01029C0 13.9886 4.04795 18 9 18C13.9521 18 18 13.968 18 9.01029C18 4.05257 13.9521 0 9 0ZM9 17.1771C4.5 17.1771 0.821918 13.5154 0.821918 8.98971C0.821918 4.464 4.5 0.822857 9 0.822857C13.5 0.822857 17.1781 4.48457 17.1781 9.01029C17.1781 13.536 13.5 17.1771 9 17.1771Z" fill="#838588"/>
<path d="M16 9.55224C16 9.30597 15.8079 9.10448 15.5732 9.10448H9.85366V4.44776C9.85366 4.20149 9.66159 4 9.42683 4C9.19207 4 9 4.20149 9 4.44776V9.55224C9 9.79851 9.19207 10 9.42683 10H15.5732C15.8079 10 16 9.79851 16 9.55224Z" fill="#838588"/>
<path d="M9.5 2C9.775 2 10 1.78049 10 1.5122V1.4878C10 1.21951 9.775 1 9.5 1C9.225 1 9 1.21951 9 1.4878V1.5122C9 1.78049 9.225 2 9.5 2Z" fill="#838588"/>
<path d="M9.5 16C9.225 16 9 16.2195 9 16.4878V16.5122C9 16.7805 9.225 17 9.5 17C9.775 17 10 16.7805 10 16.5122V16.4878C10 16.2195 9.775 16 9.5 16Z" fill="#838588"/>
<path d="M1.5122 9H1.4878C1.21951 9 1 9.225 1 9.5C1 9.775 1.21951 10 1.4878 10H1.5122C1.78049 10 2 9.775 2 9.5C2 9.225 1.78049 9 1.5122 9Z" fill="#838588"/>
<path d="M16.5122 9H16.4878C16.2195 9 16 9.225 16 9.5C16 9.775 16.2195 10 16.4878 10H16.5122C16.7805 10 17 9.775 17 9.5C17 9.225 16.7805 9 16.5122 9Z" fill="#838588"/>
<path d="M5.92235 2.24535C5.7731 2.00191 5.47459 1.92888 5.25071 2.07494C5.00195 2.221 4.92733 2.51313 5.07658 2.73222L5.10146 2.75656C5.20096 2.90263 5.35021 3 5.52434 3C5.59897 3 5.69847 2.97566 5.7731 2.92697C5.99698 2.80525 6.0716 2.51313 5.92235 2.24535Z" fill="#838588"/>
<path d="M12.9223 15.2453C12.7731 15.0019 12.4746 14.9289 12.2507 15.0749C12.002 15.221 11.9273 15.5131 12.0766 15.7322L12.1015 15.7566C12.201 15.9026 12.3502 16 12.5243 16C12.599 16 12.6985 15.9757 12.7731 15.927C12.997 15.8053 13.0716 15.4888 12.9223 15.2453Z" fill="#838588"/>
<path d="M2.26846 12.0749C2.00093 12.221 1.92796 12.5131 2.07389 12.7566C2.17117 12.9026 2.3171 13 2.48735 13C2.56031 13 2.6576 12.9757 2.73056 12.927L2.75488 12.9026C2.99809 12.7566 3.07105 12.4644 2.92513 12.2453C2.80352 12.0019 2.51167 11.9289 2.26846 12.0749Z" fill="#838588"/>
<path d="M15.2685 5.06983C15.0009 5.2167 14.928 5.51044 15.0739 5.75522C15.1712 5.90209 15.3171 6 15.4873 6C15.5603 6 15.6576 5.97552 15.7306 5.92657L15.7549 5.90209C15.9981 5.75522 16.0711 5.46148 15.9251 5.24118C15.7792 5.02088 15.4873 4.92297 15.2685 5.06983Z" fill="#838588"/>
<path d="M12.2462 2.92657C12.3195 2.97552 12.4172 3 12.4905 3C12.6616 3 12.8326 2.90209 12.9059 2.75522L12.9303 2.73074C13.0769 2.48596 12.9792 2.19223 12.7593 2.06983C12.515 1.92297 12.2218 2.02088 12.0996 2.24118L12.0752 2.26566C11.9286 2.51044 12.0019 2.80418 12.2462 2.92657Z" fill="#838588"/>
<path d="M5.75377 15.0698C5.50946 14.923 5.21629 15.0209 5.09413 15.2412L5.0697 15.2657C4.92311 15.5104 5.02084 15.8042 5.24072 15.9266C5.31401 15.9755 5.41174 16 5.48503 16C5.65605 16 5.82706 15.9021 5.90036 15.7552L5.92479 15.7307C6.07137 15.486 5.99808 15.1922 5.75377 15.0698Z" fill="#838588"/>
<path d="M2.75377 5.07494C2.48503 4.92888 2.19186 5.00191 2.0697 5.24535C1.92311 5.48878 2.02084 5.78091 2.24072 5.90263L2.26515 5.92697C2.33844 5.97566 2.43617 6 2.50946 6C2.68048 6 2.8515 5.90263 2.92479 5.75656C3.07137 5.48878 2.99808 5.19666 2.75377 5.07494Z" fill="#838588"/>
<path d="M15.7579 12.0749C15.4877 11.9289 15.1929 12.0019 15.0701 12.2453C14.9227 12.4888 15.021 12.7809 15.2421 12.9026L15.2666 12.927C15.3403 12.9757 15.4386 13 15.5123 13C15.6842 13 15.8562 12.9026 15.9299 12.7566C16.0773 12.5131 15.979 12.221 15.7579 12.0749Z" fill="#838588"/>
</svg>
