<svg width="24" height="24" viewBox="0 0 24 24" fill="none" xmlns="http://www.w3.org/2000/svg">
<g clip-path="url(#clip0_1901_8621)">
<path d="M14.5072 24.0029C15.3097 24.0029 16.0095 23.3032 16.0095 22.5007V18.9923H17.0126C17.6145 18.9923 18.0156 18.591 18.0156 17.9892V7.96875H5.98828V17.9893C5.98828 18.5912 6.38951 18.9924 6.99135 18.9924H7.99451V22.5008C7.99451 23.3032 8.69414 24.003 9.49676 24.003C10.2991 24.003 10.9988 23.3032 10.9988 22.5008V18.9924H13.0051V22.5008C13.005 23.3032 13.7048 24.0029 14.5072 24.0029Z" fill="white"/>
<path d="M20.5218 17.9893C21.3242 17.9893 22.0239 17.2896 22.0239 16.4871V9.47036C22.0239 8.67214 21.3242 7.96875 20.5218 7.96875C19.7192 7.96875 19.0195 8.67214 19.0195 9.47036V16.4871C19.0195 17.2895 19.7192 17.9893 20.5218 17.9893Z" fill="white"/>
<path d="M3.48256 17.9893C4.28509 17.9893 4.9848 17.2896 4.9848 16.4871V9.47036C4.9848 8.67214 4.28518 7.96875 3.48256 7.96875C2.6801 7.96875 1.98047 8.67214 1.98047 9.47036V16.4871C1.98047 17.2895 2.6801 17.9893 3.48256 17.9893Z" fill="white"/>
<path d="M16.8119 0.151362C16.6113 -0.050454 16.3128 -0.050454 16.1122 0.151362L14.7669 1.49224L14.7048 1.55422C13.9071 1.15476 13.0127 0.955262 12.0167 0.95334C12.0118 0.95334 12.007 0.95318 12.0021 0.95318H12.0019C11.9969 0.95318 11.9922 0.95334 11.9872 0.95334C10.9912 0.955262 10.0968 1.15476 9.29918 1.55422L9.23696 1.49224L7.89168 0.151362C7.69098 -0.050454 7.39258 -0.050454 7.19205 0.151362C6.99135 0.352057 6.99135 0.649895 7.19205 0.85043L8.49344 2.15206C8.07411 2.43204 7.69387 2.77465 7.36319 3.16651C6.57155 4.10487 6.06661 5.3261 5.99717 6.64927C5.99653 6.66305 5.99517 6.67666 5.99453 6.69044C5.99028 6.78054 5.98828 6.87111 5.98828 6.96201H18.0156C18.0156 6.87111 18.0135 6.78054 18.0094 6.69044C18.0087 6.67666 18.0074 6.66305 18.0066 6.64927C17.9373 5.3261 17.4322 4.10479 16.6406 3.16659C16.31 2.77473 15.9296 2.43212 15.5103 2.15214L16.8119 0.85051C17.0126 0.649895 17.0126 0.352057 16.8119 0.151362ZM9.49483 5.21062C9.07983 5.21062 8.74339 4.87418 8.74339 4.45917C8.74339 4.04417 9.07983 3.70773 9.49483 3.70773C9.90984 3.70773 10.2463 4.04417 10.2463 4.45917C10.2463 4.87418 9.90984 5.21062 9.49483 5.21062ZM14.5091 5.21062C14.0941 5.21062 13.7576 4.87418 13.7576 4.45917C13.7576 4.04417 14.0941 3.70773 14.5091 3.70773C14.9241 3.70773 15.2605 4.04417 15.2605 4.45917C15.2605 4.87418 14.9241 5.21062 14.5091 5.21062Z" fill="white"/>
</g>
<defs>
<clipPath id="clip0_1901_8621">
<rect width="24" height="24" fill="white"/>
</clipPath>
</defs>
</svg>
