<svg width="20" height="20" viewBox="0 0 20 20" fill="none" xmlns="http://www.w3.org/2000/svg">
<g clip-path="url(#clip0_428_4534)">
<path d="M10.7898 6.17527C10.5804 5.96582 10.2963 5.84814 10.0001 5.84814C9.70383 5.84814 9.41974 5.96582 9.21027 6.17527L5.02425 10.3613C4.32749 11.058 4.82113 12.2493 5.80628 12.2493H8.12574C8.12574 12.2585 8.12503 12.2676 8.12503 12.2767C8.12503 12.774 8.32258 13.2509 8.67421 13.6025C9.02584 13.9541 9.50275 14.1517 10 14.1517C10.4973 14.1517 10.9742 13.9541 11.3259 13.6025C11.6775 13.2509 11.875 12.774 11.875 12.2767C11.875 12.2675 11.8745 12.2584 11.8743 12.2493H14.1938C15.1791 12.2493 15.6726 11.0579 14.9758 10.3613L10.7898 6.17527Z" fill="#5AA960"/>
<path d="M10 0C4.47734 0 0 4.47734 0 10C0 15.5227 4.47734 20 10 20C15.5227 20 20 15.5227 20 10C20 4.47734 15.5227 0 10 0ZM10 18.75C5.16758 18.75 1.25 14.8324 1.25 10C1.25 5.16758 5.16758 1.25 10 1.25C14.8324 1.25 18.75 5.16758 18.75 10C18.75 14.8324 14.8324 18.75 10 18.75Z" fill="#5AA960"/>
</g>
<defs>
<clipPath id="clip0_428_4534">
<rect width="20" height="20" fill="white"/>
</clipPath>
</defs>
</svg>
