<svg width="110" height="40" viewBox="0 0 110 40" fill="none" xmlns="http://www.w3.org/2000/svg">
<g clip-path="url(#clip0_428_666)">
<path d="M0 0H39.9115V40H0V0Z" fill="#010204"/>
<path d="M2.92041 2.96289H36.9912V37.037H2.92041V2.96289Z" fill="white"/>
<mask id="mask0_428_666" style="mask-type:luminance" maskUnits="userSpaceOnUse" x="6" y="4" width="28" height="26">
<path d="M6.32739 4.44434H33.584V29.1357H6.32739V4.44434Z" fill="white"/>
</mask>
<g mask="url(#mask0_428_666)">
<path d="M17.5075 4.88225H20.4239V7.46447H17.5075V4.88176V4.88225ZM17.5075 8.75534H20.4239V16.6418H17.5075V8.75534ZM33.584 10.0813H27.7857V12.3845H30.7367V12.8032C29.6605 14.7223 26.5007 14.862 25.4937 12.8032C24.9033 11.6516 24.7991 10.2561 25.3895 8.99978C26.2924 6.87139 29.6605 6.62694 30.7367 8.75534H33.584C32.9591 5.022 28.3761 4.11435 25.5628 5.23139C22.438 6.34744 21.2922 10.2561 22.438 13.1869C23.3063 15.4902 25.5978 16.8161 28.0285 16.781C30.7021 16.8156 33.4453 15.0714 33.584 12.3845V10.0813ZM13.1318 8.75534C13.0977 7.5341 12.1598 7.22003 12.1598 7.22003C11.7086 7.08028 11.2224 7.08028 10.7712 7.2546C10.5714 7.3414 10.3934 7.47271 10.2504 7.63879C9.93791 7.95287 9.93791 8.54596 10.2849 8.82497C10.447 8.98793 10.667 9.12768 10.9445 9.24373C11.2224 9.36028 11.5237 9.47633 11.8473 9.59287C12.3102 9.73262 12.7848 9.89509 13.271 10.0818C13.7572 10.2442 14.2089 10.4536 14.6256 10.7094C15.0263 10.9728 15.369 11.3175 15.6321 11.7218C16.188 12.6289 16.1188 14.1292 15.528 15.0363C15.2043 15.5711 14.718 15.9899 14.0697 16.2926C12.8198 16.8857 10.667 16.9553 9.31295 16.3973C9.31295 16.3973 6.63888 15.6995 6.67393 12.3845H9.52127V12.6635C9.52127 14.3035 10.9445 14.4082 11.3611 14.4082C11.8936 14.4082 12.3102 14.3035 12.6115 14.0941C13.0977 13.7455 13.1668 12.9425 12.7502 12.5588C12.5881 12.3958 12.3569 12.2566 12.0557 12.14C11.732 12.024 11.3728 11.8961 10.9795 11.7563C10.5104 11.6382 10.0469 11.4985 9.59039 11.3376C9.15087 11.1746 8.73375 10.9652 8.34047 10.7094C7.47216 10.1514 7.02096 9.34842 7.05552 8.23188C7.05552 7.48768 7.24047 6.85904 7.61136 6.34744C8.00463 5.83583 8.52543 5.44028 9.17375 5.16126C10.3545 4.67238 12.2294 4.63781 13.4448 5.1267C14.0464 5.33559 14.5448 5.66151 14.938 6.10349C14.938 6.10349 15.8059 6.87089 15.8755 8.75534H13.1318Z" fill="#020000"/>
<path d="M32.7916 19.1216H27.4731L30.8982 28.6416H32.7916V19.1216Z" fill="#FF0000"/>
<path d="M12.4933 25.5907L9.90394 19.1216H7.11938V28.6416H9.4581V23.1897L11.5462 28.6416H13.4395L15.5281 23.1897V28.6416H17.8668V19.1216H15.0827L12.4933 25.5907Z" fill="#020000"/>
<path fill-rule="evenodd" clip-rule="evenodd" d="M25.8865 19.1216L29.3388 28.6416H26.8886L26.2204 26.7487H21.7936L21.1531 28.6416H18.7029L22.1552 19.1216H25.8865ZM25.5243 24.771L24.2715 21.1838H23.7424L22.4896 24.7715L25.5243 24.771Z" fill="#020000"/>
</g>
<path d="M9.74086 34.6874H9.2478L10.6739 30.7467H11.1592L12.5853 34.6874H12.0927L10.9319 31.3704H10.9017L9.74086 34.6874ZM9.92289 33.1482H11.9107V33.5714H9.92289V33.1482ZM13.5933 34.6874L12.5317 30.7467H13.0092L13.8211 33.9566H13.859L14.686 30.7467H15.2165L16.044 33.9566H16.0819L16.8933 30.7467H17.3713L16.3092 34.6874H15.824L14.9663 31.5472H14.9362L14.079 34.6879H13.5938L13.5933 34.6874ZM17.8142 34.6874H17.3211L18.7472 30.7467H19.2325L20.6586 34.6874H20.1655L19.0052 31.3704H18.9745L17.8142 34.6874ZM17.9962 33.1482H19.9835V33.5714H17.9962V33.1482ZM21.2636 34.6874V30.7467H22.5763C22.8795 30.7467 23.1287 30.7995 23.3234 30.9047C23.5181 31.0084 23.6622 31.1516 23.7556 31.3339C23.8491 31.5161 23.8958 31.723 23.8958 31.9556C23.8958 32.1877 23.8491 32.3936 23.7556 32.5729C23.6622 32.7526 23.5186 32.8939 23.3254 32.9961C23.1317 33.0978 22.8844 33.1482 22.5836 33.1482H21.5216V32.7171H22.5685C22.7759 32.7171 22.9428 32.6864 23.0694 32.6247C23.1969 32.5635 23.2894 32.4766 23.3463 32.363C23.4042 32.2494 23.4334 32.1131 23.4334 31.9556C23.4334 31.7976 23.4042 31.6593 23.3458 31.5418C23.2856 31.4218 23.1876 31.3256 23.0674 31.2687C22.9394 31.203 22.7705 31.1699 22.5612 31.1699H21.7338V34.6874H21.2636ZM23.0917 32.9176L24.0477 34.6874H23.5016L22.5607 32.9176H23.0917ZM25.8782 34.6874H24.6799V30.7467H25.9313C26.308 30.7467 26.6307 30.8257 26.8984 30.9837C27.1666 31.1403 27.372 31.3655 27.5151 31.6588C27.6577 31.9516 27.7293 32.3018 27.7293 32.7097C27.7293 33.12 27.6572 33.4736 27.5132 33.7699C27.3765 34.0567 27.1568 34.2943 26.8833 34.4509C26.6078 34.6089 26.273 34.6874 25.8782 34.6874ZM25.1501 34.2642H25.8481C26.1693 34.2642 26.4351 34.2015 26.6463 34.0756C26.8575 33.9501 27.0147 33.7709 27.1184 33.5388C27.2221 33.3067 27.2742 33.0301 27.2742 32.7092C27.2742 32.3916 27.2231 32.1176 27.1204 31.8879C27.0261 31.6665 26.8655 31.4808 26.6614 31.3571C26.4579 31.2326 26.2044 31.1704 25.9011 31.1704H25.1501V34.2642ZM30.6423 31.7319C30.6335 31.6396 30.6039 31.5507 30.5558 31.4719C30.5077 31.3931 30.4424 31.3266 30.3649 31.2776C30.2033 31.1704 30.0047 31.1166 29.7696 31.1166C29.5978 31.1166 29.4474 31.1447 29.3184 31.201C29.2001 31.2502 29.0968 31.3305 29.0191 31.4336C28.9485 31.5312 28.9111 31.6494 28.9125 31.7704C28.9125 31.8756 28.9368 31.9664 28.9865 32.042C29.0371 32.1161 29.1018 32.1783 29.1802 32.2287C29.2581 32.2771 29.3408 32.3176 29.4265 32.3497C29.5126 32.3808 29.592 32.4055 29.6635 32.4247L30.0578 32.5324C30.1595 32.5595 30.2719 32.5966 30.3955 32.644C30.5206 32.6919 30.6404 32.7566 30.7543 32.8385C30.8691 32.919 30.9636 33.0232 31.0385 33.1501C31.113 33.2771 31.1505 33.4331 31.1505 33.6178C31.1528 33.8225 31.0954 34.0234 30.9855 34.1951C30.8769 34.3669 30.7178 34.5032 30.5075 34.605C30.2992 34.7062 30.0451 34.7566 29.7472 34.7566C29.4688 34.7566 29.2279 34.7111 29.0244 34.6203C28.8343 34.539 28.6692 34.4073 28.5465 34.239C28.4301 34.0723 28.3625 33.8756 28.3513 33.6716H28.8366C28.8492 33.8203 28.8989 33.9432 28.9845 34.041C29.0721 34.1373 29.1821 34.2089 29.3145 34.2563C29.4489 34.3027 29.5929 34.3255 29.7472 34.3255C29.9268 34.3255 30.0879 34.2963 30.2305 34.2376C30.3736 34.1768 30.4866 34.0939 30.5703 33.9872C30.6536 33.8798 30.6978 33.7465 30.6954 33.6099C30.6954 33.479 30.6594 33.3729 30.5873 33.2904C30.5081 33.2033 30.4109 33.135 30.3026 33.0904C30.1787 33.037 30.0513 32.9921 29.9215 32.9561L29.4435 32.8173C29.1403 32.7284 28.8998 32.6025 28.7232 32.438C28.546 32.2741 28.4574 32.0593 28.4574 31.7936C28.4574 31.5729 28.5163 31.3808 28.6341 31.2163C28.7528 31.0509 28.912 30.9225 29.1116 30.8316C29.3126 30.7393 29.537 30.6934 29.7852 30.6934C30.0354 30.6934 30.2578 30.7388 30.4525 30.8297C30.6472 30.9195 30.8015 31.0425 30.9149 31.199C31.0302 31.3556 31.0911 31.5334 31.0974 31.7324L30.6423 31.7319Z" fill="#020001"/>
<path d="M47.7381 14.3638V12.7381L50.7981 10.1692C51.0011 9.99837 51.1748 9.83837 51.3189 9.68973C51.4659 9.53763 51.5783 9.38208 51.6557 9.22208C51.7355 9.06208 51.7759 8.88479 51.7759 8.68973C51.7759 8.47541 51.7302 8.29269 51.6397 8.14109C51.5529 7.99072 51.4249 7.86924 51.2712 7.79146C51.1024 7.70482 50.9152 7.66158 50.7261 7.66553C50.5207 7.66553 50.3391 7.70751 50.1814 7.79146C50.0266 7.87541 49.9064 7.99887 49.8208 8.16134C49.7356 8.3243 49.6928 8.52183 49.6928 8.75442H47.5774C47.5774 8.16924 47.7069 7.66553 47.9659 7.24282C48.2253 6.8201 48.5908 6.49467 49.0639 6.26702C49.5365 6.03986 50.0904 5.92578 50.7261 5.92578C51.3832 5.92578 51.9521 6.03294 52.433 6.24677C52.9163 6.45813 53.2887 6.7564 53.5505 7.14109C53.8148 7.52628 53.9472 7.97714 53.9472 8.49418C53.9454 8.82284 53.8785 9.14778 53.7506 9.44973C53.6201 9.7643 53.3851 10.1124 53.0458 10.4942C52.7066 10.8764 52.2247 11.3317 51.5997 11.8601L50.8302 12.5105V12.5589H54.0353V14.3638H47.7381ZM58.6042 14.5915C57.859 14.5885 57.2156 14.4137 56.6734 14.067C56.1312 13.7203 55.7131 13.2201 55.4196 12.5673C55.1256 11.9139 54.9801 11.1312 54.9825 10.2181C54.9854 9.30208 55.1324 8.5243 55.4235 7.88479C55.717 7.24529 56.1336 6.75887 56.6734 6.42553C57.2156 6.0922 57.859 5.92578 58.6042 5.92578C59.3494 5.92578 59.9928 6.09368 60.5351 6.42949C61.0773 6.76282 61.4954 7.24924 61.7889 7.88874C62.0828 8.52825 62.2284 9.30455 62.2255 10.2181C62.2255 11.1366 62.079 11.9223 61.785 12.5752C61.491 13.2285 61.0734 13.7283 60.5312 14.0754C59.9914 14.4191 59.3494 14.5915 58.6042 14.5915ZM58.6042 12.7544C58.9887 12.7544 59.3036 12.551 59.5494 12.1445C59.7982 11.7352 59.9208 11.0927 59.9184 10.2181C59.9184 9.64627 59.8619 9.17862 59.75 8.81566C59.6375 8.45269 59.4828 8.18405 59.2851 8.01072C59.0989 7.839 58.8558 7.74469 58.6042 7.74652C58.2197 7.74652 57.9058 7.94405 57.6629 8.3401C57.4195 8.73566 57.2954 9.36183 57.2901 10.2181C57.2876 10.8008 57.3421 11.2799 57.4546 11.6566C57.5665 12.0305 57.7213 12.307 57.9189 12.4863C58.1194 12.6645 58.3477 12.7544 58.6042 12.7544ZM63.2714 14.3638V12.7381L66.332 10.1692C66.5349 9.99837 66.7082 9.83837 66.8528 9.68973C66.9998 9.53763 67.1117 9.38208 67.1891 9.22208C67.2705 9.05692 67.3117 8.87438 67.3093 8.68973C67.3093 8.47541 67.264 8.29269 67.173 8.14109C67.0864 7.99062 66.9583 7.86909 66.8046 7.79146C66.6359 7.70488 66.4489 7.66164 66.2599 7.66553C66.054 7.66553 65.8725 7.70751 65.7148 7.79146C65.5605 7.87483 65.4349 8.00383 65.3546 8.16134C65.269 8.3243 65.2261 8.52183 65.2261 8.75442H63.1108C63.1108 8.16924 63.2403 7.66553 63.4997 7.24282C63.7586 6.8201 64.1247 6.49467 64.5973 6.26702C65.0699 6.03986 65.6243 5.92578 66.2599 5.92578C66.9165 5.92578 67.4855 6.03294 67.9664 6.24677C68.4497 6.45813 68.8225 6.7564 69.0839 7.14109C69.3482 7.52628 69.4806 7.97714 69.4806 8.49418C69.4806 8.81418 69.4154 9.13269 69.2844 9.44973C69.1535 9.7643 68.9184 10.1124 68.5792 10.4942C68.2399 10.8764 67.7581 11.3317 67.1331 11.8601L66.3641 12.5105V12.5589H69.5687V14.3638H63.2714ZM70.308 13.0631V11.307L73.609 6.03986H75.1792V8.3806H74.2821L72.5032 11.2423V11.307H77.3748V13.0631H70.308ZM74.2977 14.3638V12.5268L74.3459 11.7623V6.03986H76.4291V14.3638H74.2977ZM80.5405 14.3638V6.03936H84.0979C84.7229 6.03936 85.2476 6.12479 85.672 6.29566C86.0993 6.46652 86.4211 6.70751 86.6377 7.01911C86.8567 7.33072 86.9662 7.69813 86.9662 8.12035C86.9662 8.42652 86.8995 8.70603 86.7657 8.95788C86.6348 9.20973 86.4508 9.42109 86.2128 9.59195C85.9618 9.76564 85.6781 9.88469 85.3795 9.94158V10.0231C85.7172 10.0323 86.0475 10.1257 86.3413 10.2952C86.6269 10.4579 86.8648 10.6948 87.0305 10.9816C87.2013 11.272 87.2865 11.6137 87.2865 12.0063C87.2865 12.4616 87.1692 12.8665 86.9341 13.2216C86.7019 13.5766 86.3705 13.8557 85.9407 14.0586C85.5104 14.2621 84.9979 14.3638 84.4021 14.3638H80.5405ZM82.7677 12.5589H83.8093C84.1831 12.5589 84.4635 12.4887 84.6509 12.3475C84.8378 12.2043 84.9312 11.9929 84.9312 11.7134C84.9312 11.5184 84.8869 11.3529 84.7988 11.2176C84.7065 11.0788 84.5753 10.9713 84.4221 10.909C84.262 10.8384 84.0682 10.8033 83.8414 10.8033H82.7677V12.5589ZM82.7677 9.40479H83.6813C83.876 9.40479 84.0483 9.37368 84.1977 9.31146C84.3476 9.24924 84.4635 9.15986 84.5467 9.04331C84.6319 8.9243 84.6747 8.77911 84.6747 8.60874C84.6747 8.35097 84.5837 8.15442 84.4021 8.01911C84.2206 7.88084 83.9909 7.81171 83.7134 7.81171H82.7677V9.40479ZM88.0759 14.3638V6.03936H93.9887V7.8606H90.3032V9.29121H93.6845V11.112H90.3032V12.5431H93.9726V14.3638H88.0759ZM99.5159 8.64084C99.495 8.36973 99.3948 8.15837 99.2156 8.00677C99.0394 7.85516 98.7713 7.77961 98.4106 7.77961C98.1809 7.77961 97.9925 7.80776 97.8455 7.86455C97.7014 7.91887 97.5943 7.99294 97.5252 8.08825C97.456 8.1821 97.4181 8.29596 97.4172 8.41319C97.4118 8.51344 97.4289 8.6043 97.4693 8.68578C97.5116 8.7643 97.5788 8.8359 97.6693 8.90109C97.7603 8.96331 97.8762 9.0201 98.0178 9.07195C98.1594 9.12331 98.3279 9.16924 98.5225 9.21023L99.1957 9.3564C99.6498 9.45368 100.038 9.58257 100.361 9.74257C100.685 9.90208 100.949 10.0907 101.155 10.3075C101.36 10.5213 101.511 10.7623 101.607 11.031C101.708 11.3122 101.76 11.6092 101.76 11.9085C101.757 12.4562 101.622 12.9194 101.355 13.2986C101.088 13.6784 100.706 13.9668 100.209 14.1643C99.715 14.3623 99.1207 14.4611 98.4267 14.4611C97.7136 14.4611 97.0911 14.3544 96.5596 14.1401C96.031 13.9263 95.6197 13.5969 95.3257 13.1524C95.0347 12.7055 94.8877 12.1337 94.8852 11.4374H97.0005C97.0137 11.6922 97.0765 11.906 97.1884 12.0794C97.3009 12.2527 97.4586 12.3841 97.6615 12.4739C97.8669 12.5628 98.1113 12.6078 98.3945 12.6078C98.6321 12.6078 98.8311 12.5781 98.9913 12.5189C99.1514 12.4586 99.2731 12.3762 99.3558 12.2705C99.4386 12.1648 99.4814 12.0443 99.4843 11.909C99.4832 11.7864 99.4391 11.6682 99.3597 11.5757C99.2823 11.4779 99.1543 11.3915 98.9752 11.3154C98.7966 11.2364 98.5547 11.1638 98.2505 11.0957L97.4328 10.9169C96.7066 10.7574 96.1337 10.4902 95.7146 10.1164C95.298 9.73961 95.0906 9.22603 95.0936 8.57566C95.0906 8.04726 95.2298 7.58553 95.5102 7.18998C95.793 6.79146 96.1843 6.48134 96.6837 6.25911C97.186 6.03689 97.7613 5.92578 98.4106 5.92578C99.073 5.92578 99.6459 6.03837 100.129 6.26306C100.613 6.48825 100.985 6.80529 101.247 7.21418C101.511 7.6206 101.645 8.09615 101.647 8.64134H99.5159V8.64084ZM102.382 7.8606V6.03936H109.513V7.8606H107.046V14.3638H104.85V7.8601H102.382V7.8606ZM51.2639 19.1327C51.2454 18.8991 51.1588 18.7164 51.0045 18.5855C50.8526 18.4547 50.6209 18.3895 50.3099 18.3895C50.1113 18.3895 49.9493 18.4142 49.8222 18.4631C49.6981 18.51 49.6056 18.5742 49.5458 18.6557C49.486 18.7369 49.4533 18.8353 49.4523 18.9366C49.4469 19.0175 49.4625 19.0984 49.4976 19.1712C49.5341 19.2394 49.592 19.3011 49.6704 19.3574C49.7487 19.4112 49.849 19.4601 49.9712 19.5045C50.0933 19.549 50.2384 19.5885 50.4063 19.6241L50.9874 19.75C51.3793 19.8339 51.7146 19.9455 51.993 20.0833C52.2719 20.2216 52.5002 20.3841 52.6778 20.5707C52.855 20.7554 52.9855 20.9638 53.0682 21.1949C53.1534 21.427 53.1972 21.6789 53.1996 21.9529C53.1972 22.425 53.0809 22.825 52.8506 23.152C52.6199 23.4794 52.2904 23.7287 51.8621 23.8991C51.4357 24.07 50.9227 24.1554 50.3236 24.1554C49.7083 24.1554 49.1715 24.0631 48.7125 23.8784C48.2564 23.6937 47.9016 23.4092 47.648 23.026C47.3969 22.6403 47.2698 22.147 47.2679 21.546H49.0931C49.1043 21.7658 49.1588 21.9505 49.2552 22.1001C49.352 22.2497 49.4883 22.3628 49.6636 22.4403C49.8407 22.5174 50.0515 22.5559 50.2958 22.5559C50.5012 22.5559 50.6725 22.5302 50.8108 22.4789C50.9495 22.4275 51.0541 22.3559 51.1257 22.265C51.1972 22.1737 51.2337 22.0695 51.2362 21.9524C51.2353 21.8468 51.1973 21.7449 51.1291 21.665C51.0624 21.5811 50.9514 21.506 50.7971 21.4408C50.6428 21.3727 50.434 21.31 50.1717 21.2512L49.4664 21.0971C48.8395 20.9589 48.345 20.7287 47.9834 20.4058C47.6237 20.0808 47.4451 19.6379 47.4475 19.0769C47.4451 18.6206 47.5648 18.2226 47.8072 17.8808C48.0515 17.5371 48.3888 17.2695 48.8201 17.0774C49.2532 16.8858 49.7497 16.79 50.3099 16.79C50.8813 16.79 51.3759 16.8873 51.793 17.0813C52.2101 17.2749 52.5313 17.5485 52.7572 17.9016C52.9855 18.2522 53.1008 18.6631 53.1028 19.1327H51.2639ZM53.9307 24.071V16.8887H56.9868C57.512 16.8887 57.972 16.9939 58.3657 17.2048C58.7496 17.4052 59.0688 17.7129 59.2856 18.0917C59.5042 18.4729 59.6137 18.9184 59.6137 19.428C59.6137 19.9426 59.5008 20.388 59.2749 20.7643C59.0508 21.1414 58.7227 21.4438 58.3312 21.6339C57.9282 21.8374 57.457 21.9391 56.9177 21.9391H55.0925V20.4241H56.5303C56.7561 20.4241 56.9489 20.3845 57.1075 20.305C57.2691 20.2231 57.3923 20.1075 57.4774 19.9574C57.5651 19.8078 57.6089 19.6315 57.6089 19.428C57.6089 19.2221 57.5651 19.0468 57.4774 18.9021C57.3913 18.7538 57.2621 18.6361 57.1075 18.5653C56.9489 18.4858 56.7561 18.4458 56.5303 18.4458H55.8528V24.0715L53.9307 24.071ZM67.1774 20.4799C67.1774 21.2794 67.0241 21.9539 66.7179 22.5036C66.4113 23.0507 65.9976 23.4655 65.4768 23.748C64.956 24.0295 64.3753 24.1692 63.7343 24.1692C63.0894 24.1692 62.5063 24.028 61.9855 23.7445C61.4667 23.4596 61.0544 23.0433 60.7478 22.4962C60.4436 21.947 60.2912 21.2744 60.2912 20.4799C60.2912 19.6799 60.4436 19.0068 60.7478 18.4596C61.0544 17.91 61.4667 17.4952 61.9855 17.2142C62.5063 16.9312 63.0894 16.79 63.7343 16.79C64.3753 16.79 64.956 16.9312 65.4768 17.2147C65.9976 17.4952 66.4113 17.91 66.7179 18.4591C67.0241 19.0068 67.1774 19.6799 67.1774 20.4799ZM65.2003 20.4799C65.2003 20.0492 65.1439 19.6873 65.0309 19.3924C64.92 19.0957 64.7555 18.871 64.5364 18.7189C64.3198 18.5648 64.0526 18.4878 63.7343 18.4878C63.4165 18.4878 63.1478 18.5648 62.9288 18.7189C62.7122 18.871 62.5477 19.0957 62.4347 19.3924C62.3243 19.6868 62.2688 20.0492 62.2688 20.4799C62.2688 20.9095 62.3243 21.2734 62.4347 21.5702C62.5477 21.865 62.7122 22.0892 62.9288 22.2438C63.1478 22.3959 63.4165 22.472 63.7343 22.472C64.0526 22.472 64.3198 22.3959 64.5364 22.2438C64.7555 22.0892 64.92 21.865 65.0309 21.5702C65.1439 21.2739 65.2003 20.91 65.2003 20.4799ZM68.0666 24.071V16.8887H71.1228C71.648 16.8887 72.1079 16.9855 72.5017 17.1801C72.8959 17.3737 73.2026 17.6532 73.4216 18.0181C73.6402 18.3826 73.7497 18.8201 73.7497 19.3297C73.7497 19.8443 73.6367 20.2779 73.4109 20.631C73.1875 20.9841 72.8731 21.2507 72.4671 21.431C72.0641 21.6107 71.593 21.7006 71.0537 21.7006H69.2285V20.1855H70.6663C70.8921 20.1855 71.0848 20.1574 71.2435 20.1016C71.4051 20.0428 71.5282 19.9505 71.6134 19.8245C71.701 19.6981 71.7448 19.5332 71.7448 19.3297C71.7448 19.1238 71.701 18.9569 71.6134 18.828C71.5242 18.6939 71.3943 18.593 71.2435 18.5406C71.0848 18.4774 70.8921 18.4458 70.6663 18.4458H69.9887V24.0715L68.0666 24.071ZM72.215 20.7742L73.9848 24.071H71.8972L70.1683 20.7742H72.215ZM74.3756 18.4591V16.8887H80.5288V18.4601H78.3993V24.0715H76.505V18.4596L74.3756 18.4591ZM81.2521 24.071V16.8887H84.3218C84.8611 16.8887 85.3138 16.9623 85.6803 17.1095C86.0492 17.2571 86.3267 17.465 86.5136 17.7337C86.7024 18.0028 86.7968 18.3199 86.7968 18.6843C86.7968 18.9485 86.7394 19.1895 86.624 19.4068C86.5111 19.6241 86.352 19.8068 86.147 19.9539C85.9305 20.1037 85.6857 20.2064 85.4282 20.2557V20.3258C85.7195 20.3338 86.0043 20.4146 86.2575 20.5608C86.5067 20.7036 86.7048 20.9011 86.8523 21.1534C86.9998 21.4038 87.0733 21.6981 87.0733 22.0374C87.0733 22.43 86.972 22.7796 86.7691 23.0863C86.5686 23.3924 86.2828 23.6329 85.912 23.8087C85.5411 23.9841 85.0986 24.0715 84.5847 24.0715L81.2521 24.071ZM83.1741 22.5139H84.0731C84.3953 22.5139 84.6377 22.4532 84.7988 22.3312C84.9599 22.2078 85.0407 22.025 85.0407 21.7845C85.0407 21.6161 85.0028 21.4734 84.9268 21.3564C84.8473 21.2364 84.734 21.1435 84.6017 21.0897C84.4635 21.029 84.2965 20.9989 84.1004 20.9989H83.1741V22.5139ZM83.1741 19.7924H83.9621C84.1305 19.7924 84.279 19.7653 84.408 19.7115C84.5374 19.6576 84.6377 19.5806 84.7088 19.4799C84.7828 19.3771 84.8198 19.2522 84.8198 19.1045C84.8198 18.8823 84.7414 18.7129 84.5847 18.5959C84.4279 18.4774 84.2298 18.4176 83.9899 18.4176H83.1741V19.7924ZM94.6127 20.4799C94.6127 21.2794 94.4594 21.9539 94.1532 22.5036C93.8466 23.0507 93.4328 23.4655 92.912 23.748C92.3913 24.0295 91.8106 24.1692 91.1696 24.1692C90.5247 24.1692 89.9416 24.028 89.4208 23.7445C88.9019 23.4596 88.4897 23.0433 88.183 22.4962C87.8788 21.947 87.727 21.2744 87.727 20.4799C87.727 19.6799 87.8788 19.0068 88.183 18.4596C88.4897 17.91 88.9019 17.4952 89.4208 17.2142C89.9416 16.9312 90.5247 16.79 91.1696 16.79C91.8106 16.79 92.3913 16.9312 92.912 17.2147C93.4328 17.4952 93.8466 17.91 94.1532 18.4591C94.4594 19.0068 94.6127 19.6799 94.6127 20.4799ZM92.6356 20.4799C92.6356 20.0492 92.5791 19.6873 92.4662 19.3924C92.3557 19.0957 92.1907 18.871 91.9717 18.7189C91.7551 18.5648 91.4879 18.4878 91.1696 18.4878C90.8517 18.4878 90.5831 18.5648 90.3645 18.7189C90.1479 18.871 89.9829 19.0957 89.87 19.3924C89.7595 19.6868 89.704 20.0492 89.704 20.4799C89.704 20.9095 89.7595 21.2734 89.87 21.5702C89.9829 21.865 90.1479 22.0892 90.3645 22.2438C90.5831 22.3959 90.8517 22.472 91.1696 22.472C91.4879 22.472 91.7551 22.3959 91.9717 22.2438C92.1907 22.0892 92.3557 21.865 92.4662 21.5702C92.5791 21.2739 92.6356 20.91 92.6356 20.4799ZM102.36 20.4799C102.36 21.2794 102.207 21.9539 101.901 22.5036C101.594 23.0507 101.181 23.4655 100.66 23.748C100.139 24.0295 99.5583 24.1692 98.9173 24.1692C98.2724 24.1692 97.6893 24.028 97.1685 23.7445C96.6496 23.4596 96.2374 23.0433 95.9307 22.4962C95.6265 21.947 95.4747 21.2744 95.4747 20.4799C95.4747 19.6799 95.6265 19.0068 95.9307 18.4596C96.2374 17.91 96.6496 17.4952 97.1685 17.2142C97.6893 16.9312 98.2724 16.79 98.9173 16.79C99.5583 16.79 100.139 16.9312 100.66 17.2147C101.181 17.4952 101.594 17.91 101.901 18.4591C102.207 19.0068 102.36 19.6799 102.36 20.4799ZM100.383 20.4799C100.383 20.0492 100.327 19.6873 100.214 19.3924C100.103 19.0957 99.9384 18.871 99.7194 18.7189C99.5028 18.5648 99.2356 18.4878 98.9173 18.4878C98.5994 18.4878 98.3308 18.5648 98.1122 18.7189C97.8956 18.871 97.7306 19.0957 97.6177 19.3924C97.5072 19.6868 97.4517 20.0492 97.4517 20.4799C97.4517 20.9095 97.5072 21.2734 97.6177 21.5702C97.7306 21.865 97.8956 22.0892 98.1122 22.2438C98.3308 22.3959 98.5994 22.472 98.9173 22.472C99.2356 22.472 99.5028 22.3959 99.7194 22.2438C99.9384 22.0892 100.103 21.865 100.214 21.5702C100.327 21.2739 100.383 20.91 100.383 20.4799ZM103.25 24.071V16.8887H105.172V19.7924H105.269L107.398 16.8887H109.638L107.246 20.0873L109.693 24.0715H107.398L105.808 21.3781L105.172 22.2196V24.0715L103.25 24.071ZM49.2863 33.9475H47.2124L49.5492 26.7648H52.1765L54.5133 33.9475H52.4393L50.8906 28.7426H50.8351L49.2863 33.9475ZM48.8994 31.1139H52.7986V32.5727H48.8994V31.1139ZM61.3206 26.7648V33.9475H59.7169L57.1586 30.1737H57.1173V33.9475H55.1952V26.7653H56.8267L59.3436 30.5253H59.3986V26.7653L61.3206 26.7648ZM64.954 33.9475H62.2298V26.7653H64.9263C65.6544 26.7653 66.2838 26.909 66.8138 27.1964C67.3371 27.4729 67.766 27.9031 68.0443 28.431C68.3348 28.9668 68.4799 29.6082 68.4799 30.3569C68.4799 31.105 68.3358 31.748 68.0477 32.2858C67.7694 32.8113 67.3435 33.241 66.824 33.5203C66.2964 33.8058 65.6729 33.9475 64.954 33.9475ZM64.1519 32.2922H64.8849C65.2349 32.2922 65.5332 32.2349 65.78 32.1203C66.0287 32.0058 66.2181 31.8083 66.3471 31.5278C66.4785 31.2473 66.5442 30.8561 66.5442 30.3564C66.5442 29.8557 66.477 29.4655 66.3436 29.1845C66.2122 28.9041 66.0185 28.7065 65.763 28.592C65.5094 28.4774 65.1984 28.4201 64.8294 28.4201H64.1519V32.2922ZM77.918 29.4581H75.9682C75.9569 29.3043 75.9195 29.1536 75.8577 29.0127C75.802 28.882 75.7195 28.7648 75.6158 28.669C75.5097 28.5682 75.3836 28.4917 75.2459 28.4448C75.0869 28.3888 74.9196 28.3615 74.7513 28.3643C74.4286 28.3643 74.1556 28.4433 73.9322 28.6023C73.7107 28.7613 73.5428 28.9895 73.4274 29.2863C73.3145 29.5836 73.2581 29.9401 73.2581 30.3564C73.2581 30.7959 73.3155 31.1643 73.4309 31.4611C73.5486 31.7554 73.718 31.9776 73.939 32.1278C74.1605 32.2744 74.4267 32.3485 74.7377 32.3485C74.9149 32.3485 75.074 32.3263 75.2147 32.2818C75.3554 32.2349 75.4775 32.1683 75.5812 32.0818C75.6849 31.9954 75.7691 31.8912 75.8333 31.7697C75.9005 31.6458 75.9453 31.5065 75.9682 31.3524L77.918 31.3663C77.8901 31.6891 77.8045 32.004 77.6654 32.2957C77.5119 32.6206 77.3024 32.9152 77.0467 33.1653C76.782 33.4295 76.4534 33.6423 76.0616 33.8038C75.6698 33.9653 75.2147 34.0458 74.6963 34.0458C74.0461 34.0458 73.463 33.9045 72.9471 33.6211C72.4331 33.3386 72.0262 32.9223 71.7268 32.3727C71.4294 31.8236 71.281 31.151 71.281 30.3564C71.281 29.5564 71.4328 28.8833 71.737 28.3362C72.0413 27.7865 72.4516 27.3717 72.9675 27.0907C73.4839 26.8078 74.0602 26.6665 74.6963 26.6665C75.1432 26.6665 75.5544 26.7287 75.9302 26.8522C76.2909 26.9678 76.6264 27.1524 76.9187 27.3959C77.2049 27.6351 77.4382 27.9328 77.6036 28.2695C77.7763 28.6152 77.881 29.0117 77.918 29.4581ZM80.4105 33.9475H78.3361L80.6728 26.7648H83.3002L85.637 33.9475H83.563L82.0143 28.7426H81.9588L80.4105 33.9475ZM80.0231 31.1139H83.9227V32.5727H80.0231V31.1139ZM89.8598 29.0092C89.8413 28.7757 89.7547 28.5929 89.6004 28.4621C89.4485 28.3312 89.2168 28.266 88.9058 28.266C88.7072 28.266 88.5451 28.2907 88.4181 28.3396C88.2935 28.3865 88.2015 28.4507 88.1417 28.5322C88.0819 28.6134 88.0492 28.7118 88.0482 28.8132C88.0427 28.894 88.0581 28.9749 88.093 29.0478C88.13 29.1159 88.1879 29.1776 88.2663 29.2339C88.3446 29.2878 88.4449 29.3366 88.5666 29.3811C88.6887 29.4255 88.8343 29.465 89.0022 29.5006L89.5833 29.6265C89.9747 29.7105 90.31 29.8221 90.5889 29.9599C90.8678 30.0981 91.0961 30.2606 91.2737 30.4473C91.4509 30.632 91.5813 30.8403 91.6641 31.0715C91.7493 31.3036 91.7931 31.5554 91.7955 31.829C91.7931 32.3016 91.6767 32.7016 91.4465 33.029C91.2158 33.3559 90.8863 33.6053 90.4575 33.7757C90.0311 33.9465 89.5186 34.032 88.9194 34.032C88.3042 34.032 87.7669 33.9396 87.3084 33.7549C86.8523 33.5702 86.4975 33.2858 86.2439 32.9026C85.9928 32.5169 85.8657 32.0236 85.8638 31.4226H87.689C87.7002 31.6423 87.7542 31.827 87.8511 31.9766C87.9479 32.1263 88.0842 32.2394 88.259 32.3169C88.4366 32.3939 88.6474 32.4324 88.8917 32.4324C89.0971 32.4324 89.2684 32.4068 89.4067 32.3554C89.5449 32.3041 89.65 32.2324 89.7216 32.1416C89.7926 32.0502 89.8296 31.946 89.832 31.829C89.8312 31.7233 89.7932 31.6214 89.725 31.5416C89.6578 31.4576 89.5473 31.3826 89.393 31.3174C89.2387 31.2492 89.0299 31.1865 88.7671 31.1278L88.0623 30.9737C87.4354 30.8354 86.9409 30.6053 86.5793 30.2823C86.2196 29.9574 86.0409 29.5144 86.0434 28.9534C86.0409 28.4971 86.1607 28.0991 86.4026 27.7574C86.6469 27.4137 86.9847 27.146 87.4155 26.9539C87.8491 26.7623 88.3456 26.6665 88.9058 26.6665C89.4772 26.6665 89.9713 26.7638 90.3884 26.9579C90.8055 27.1515 91.1272 27.425 91.3531 27.7781C91.5813 28.1287 91.6962 28.5396 91.6986 29.0092H89.8598ZM94.4486 26.7648V33.9475H92.5266V26.7653L94.4486 26.7648ZM101.485 26.7648V33.9475H99.881L97.3232 30.1737H97.2814V33.9475H95.3593V26.7653H96.9913L99.5077 30.5253H99.5632V26.7653L101.485 26.7648ZM109.252 30.3564C109.252 31.1559 109.1 31.8305 108.793 32.3801C108.486 32.9273 108.073 33.3421 107.552 33.6245C107.031 33.906 106.45 34.0458 105.81 34.0458C105.164 34.0458 104.581 33.9045 104.061 33.6211C103.542 33.3362 103.129 32.9199 102.823 32.3727C102.519 31.8236 102.367 31.151 102.367 30.3564C102.367 29.5564 102.519 28.8833 102.823 28.3362C103.129 27.7865 103.542 27.3717 104.061 27.0907C104.581 26.8078 105.164 26.6665 105.81 26.6665C106.45 26.6665 107.031 26.8078 107.552 27.0912C108.073 27.3717 108.486 27.7865 108.793 28.3357C109.1 28.8833 109.252 29.5564 109.252 30.3564ZM107.275 30.3564C107.275 29.9258 107.219 29.5638 107.106 29.269C106.995 28.9722 106.83 28.7475 106.611 28.5954C106.395 28.4413 106.128 28.3643 105.81 28.3643C105.491 28.3643 105.223 28.4413 105.004 28.5954C104.788 28.7475 104.623 28.9722 104.51 29.269C104.399 29.5633 104.344 29.9258 104.344 30.3564C104.344 30.786 104.399 31.15 104.51 31.4468C104.623 31.7416 104.788 31.9658 105.004 32.1203C105.223 32.2724 105.491 32.3485 105.81 32.3485C106.128 32.3485 106.395 32.2724 106.611 32.1203C106.83 31.9658 106.995 31.7416 107.106 31.4468C107.219 31.1505 107.275 30.7865 107.275 30.3564Z" fill="#020000"/>
</g>
<defs>
<clipPath id="clip0_428_666">
<rect width="110" height="40" fill="white"/>
</clipPath>
</defs>
</svg>
