<svg width="50" height="40" viewBox="0 0 50 40" fill="none" xmlns="http://www.w3.org/2000/svg">
<g clip-path="url(#clip0_1901_8281)">
<path d="M48.9806 38.9653V39.0667H49.074C49.0946 39.0667 49.1123 39.0618 49.125 39.0539C49.1368 39.0461 49.1437 39.0322 49.1437 39.0155C49.1437 38.9987 49.1368 38.986 49.125 38.9781C49.1123 38.9692 49.0946 38.9653 49.074 38.9653H48.9806ZM49.0749 38.8944C49.1231 38.8944 49.1604 38.9052 49.187 38.9269C49.2135 38.9486 49.2263 38.9781 49.2263 39.0155C49.2263 39.0471 49.2164 39.0726 49.1948 39.0933C49.1742 39.1131 49.1447 39.1258 49.1054 39.1308L49.2292 39.2736H49.1329L49.0179 39.1317H48.9806V39.2736H48.9V38.8944H49.0749ZM49.0503 39.4046C49.0946 39.4046 49.1358 39.3957 49.1732 39.3789C49.2115 39.3622 49.2449 39.3396 49.2734 39.311C49.3019 39.2824 49.3245 39.2489 49.3412 39.2096C49.357 39.1711 49.3658 39.1297 49.3658 39.0854C49.3658 39.0411 49.357 38.9998 49.3412 38.9614C49.3245 38.9229 49.3019 38.8884 49.2734 38.8599C49.2449 38.8313 49.2115 38.8087 49.1732 38.7919C49.1358 38.7762 49.0946 38.7683 49.0503 38.7683C49.0062 38.7683 48.9639 38.7762 48.9255 38.7919C48.8862 38.8087 48.8518 38.8313 48.8233 38.8599C48.7948 38.8884 48.7722 38.9229 48.7565 38.9614C48.7398 38.9998 48.732 39.0411 48.732 39.0854C48.732 39.1297 48.7398 39.1711 48.7565 39.2096C48.7722 39.2489 48.7948 39.2824 48.8233 39.311C48.8518 39.3396 48.8862 39.3622 48.9255 39.3789C48.9639 39.3957 49.0062 39.4046 49.0503 39.4046ZM49.0503 38.6767C49.1083 38.6767 49.1614 38.6876 49.2125 38.7092C49.2626 38.7299 49.3058 38.7594 49.3442 38.7969C49.3815 38.8333 49.411 38.8766 49.4327 38.9269C49.4542 38.9761 49.465 39.0293 49.465 39.0854C49.465 39.1416 49.4542 39.1947 49.4327 39.244C49.411 39.2932 49.3815 39.3366 49.3442 39.3741C49.3058 39.4105 49.2626 39.44 49.2125 39.4617C49.1614 39.4834 49.1083 39.4942 49.0503 39.4942C48.9914 39.4942 48.9373 39.4834 48.8862 39.4617C48.8352 39.44 48.7909 39.4105 48.7536 39.3741C48.7162 39.3366 48.6868 39.2932 48.6652 39.244C48.6435 39.1947 48.6327 39.1416 48.6327 39.0854C48.6327 39.0293 48.6435 38.9761 48.6652 38.9269C48.6868 38.8766 48.7162 38.8333 48.7536 38.7969C48.7909 38.7594 48.8352 38.7299 48.8862 38.7092C48.9373 38.6876 48.9914 38.6767 49.0503 38.6767ZM10.7633 37.2161C10.7633 36.4931 11.236 35.8992 12.0083 35.8992C12.7463 35.8992 13.2446 36.4675 13.2446 37.2161C13.2446 37.9646 12.7463 38.5329 12.0083 38.5329C11.236 38.5329 10.7633 37.939 10.7633 37.2161ZM14.0858 37.2161V35.1596H13.1935V35.6589C12.9105 35.2886 12.481 35.0561 11.8973 35.0561C10.7465 35.0561 9.8444 35.9603 9.8444 37.2161C9.8444 38.4728 10.7465 39.376 11.8973 39.376C12.481 39.376 12.9105 39.1436 13.1935 38.7732V39.2726H14.0858V37.2161ZM44.239 37.2161C44.239 36.4931 44.7117 35.8992 45.4842 35.8992C46.2231 35.8992 46.7203 36.4675 46.7203 37.2161C46.7203 37.9646 46.2231 38.5329 45.4842 38.5329C44.7117 38.5329 44.239 37.939 44.239 37.2161ZM47.5625 37.2161V33.5078H46.6693V35.6589C46.3862 35.2886 45.9568 35.0561 45.3731 35.0561C44.2223 35.0561 43.3202 35.9603 43.3202 37.2161C43.3202 38.4728 44.2223 39.376 45.3731 39.376C45.9568 39.376 46.3862 39.1436 46.6693 38.7732V39.2726H47.5625V37.2161ZM25.1618 35.8569C25.7367 35.8569 26.1062 36.2183 26.2005 36.8546H24.071C24.1663 36.2607 24.526 35.8569 25.1618 35.8569ZM25.1795 35.0561C23.9767 35.0561 23.1355 35.9337 23.1355 37.2161C23.1355 38.5241 24.0111 39.376 25.2395 39.376C25.8576 39.376 26.4236 39.2214 26.9218 38.7998L26.4845 38.1369C26.1406 38.4118 25.7023 38.5674 25.2905 38.5674C24.7157 38.5674 24.1919 38.3004 24.0632 37.5598H27.1105C27.1193 37.4485 27.1282 37.3363 27.1282 37.2161C27.1193 35.9337 26.3293 35.0561 25.1795 35.0561ZM35.9538 37.2161C35.9538 36.4931 36.4265 35.8992 37.199 35.8992C37.937 35.8992 38.4352 36.4675 38.4352 37.2161C38.4352 37.9646 37.937 38.5329 37.199 38.5329C36.4265 38.5329 35.9538 37.939 35.9538 37.2161ZM39.2764 37.2161V35.1596H38.3841V35.6589C38.1001 35.2886 37.6717 35.0561 37.0879 35.0561C35.9372 35.0561 35.035 35.9603 35.035 37.2161C35.035 38.4728 35.9372 39.376 37.0879 39.376C37.6717 39.376 38.1001 39.1436 38.3841 38.7732V39.2726H39.2764V37.2161ZM30.9146 37.2161C30.9146 38.4639 31.7813 39.376 33.104 39.376C33.7222 39.376 34.1339 39.2381 34.58 38.8855L34.1516 38.1626C33.8165 38.4039 33.4647 38.5329 33.0775 38.5329C32.365 38.5241 31.8413 38.0079 31.8413 37.2161C31.8413 36.4242 32.365 35.9081 33.0775 35.8992C33.4647 35.8992 33.8165 36.0283 34.1516 36.2696L34.58 35.5466C34.1339 35.194 33.7222 35.0561 33.104 35.0561C31.7813 35.0561 30.9146 35.9682 30.9146 37.2161ZM42.4191 35.0561C41.9042 35.0561 41.569 35.2974 41.3371 35.6589V35.1596H40.4527V39.2726H41.346V36.9669C41.346 36.2863 41.6378 35.9081 42.2215 35.9081C42.4023 35.9081 42.591 35.9337 42.7797 36.0115L43.0549 35.1684C42.8573 35.0906 42.5999 35.0561 42.4191 35.0561ZM18.4991 35.4865C18.0697 35.2029 17.4781 35.0561 16.8255 35.0561C15.7858 35.0561 15.1167 35.5555 15.1167 36.3729C15.1167 37.0437 15.6148 37.4574 16.5327 37.5864L16.9543 37.6465C17.4437 37.7154 17.6746 37.8444 17.6746 38.0769C17.6746 38.395 17.3483 38.5763 16.7391 38.5763C16.121 38.5763 15.6748 38.3782 15.3741 38.1458L14.9535 38.8422C15.4429 39.2036 16.061 39.376 16.7302 39.376C17.9153 39.376 18.6023 38.8166 18.6023 38.0336C18.6023 37.3106 18.0618 36.9324 17.1685 36.8034L16.7479 36.7423C16.3617 36.6911 16.0522 36.6142 16.0522 36.3385C16.0522 36.0371 16.344 35.8569 16.8334 35.8569C17.3572 35.8569 17.8643 36.0548 18.1129 36.2094L18.4991 35.4865ZM30.0125 35.0561C29.4975 35.0561 29.1624 35.2974 28.9315 35.6589V35.1596H28.047V39.2726H28.9393V36.9669C28.9393 36.2863 29.2312 35.9081 29.8149 35.9081C29.9957 35.9081 30.1844 35.9337 30.3731 36.0115L30.6483 35.1684C30.4507 35.0906 30.1933 35.0561 30.0125 35.0561ZM22.3975 35.1596H20.9382V33.9116H20.036V35.1596H19.2037V35.977H20.036V37.8533C20.036 38.8077 20.4055 39.376 21.461 39.376C21.8482 39.376 22.2943 39.2559 22.5773 39.0579L22.3198 38.2916C22.0535 38.4462 21.7617 38.5241 21.5298 38.5241C21.0836 38.5241 20.9382 38.2483 20.9382 37.8356V35.977H22.3975V35.1596ZM9.05534 39.2726V36.6911C9.05534 35.719 8.43721 35.065 7.44071 35.0561C6.91696 35.0472 6.37646 35.2108 5.99813 35.7879C5.71511 35.3319 5.26896 35.0561 4.642 35.0561C4.20371 35.0561 3.77526 35.1851 3.44016 35.6667V35.1596H2.54688V39.2726H3.44801V36.9925C3.44801 36.2784 3.84306 35.8992 4.45332 35.8992C5.04589 35.8992 5.34561 36.2863 5.34561 36.9836V39.2726H6.24774V36.9925C6.24774 36.2784 6.65946 35.8992 7.25209 35.8992C7.86134 35.8992 8.15321 36.2863 8.15321 36.9836V39.2726H9.05534Z" fill="#231F20"/>
<path d="M49.5286 25.593V24.9922H49.3724L49.1916 25.4049L49.0118 24.9922H48.8545V25.593H48.9656V25.1399L49.1346 25.5309H49.2496L49.4186 25.1389V25.593H49.5286ZM48.5371 25.593V25.0946H48.7376V24.9932H48.2266V25.0946H48.4271V25.593H48.5371Z" fill="#F79410"/>
<path d="M31.7579 28.1796H18.2344V3.82031H31.7579V28.1796Z" fill="#FF5F00"/>
<path d="M19.1038 15.9959C19.1038 11.0544 21.4121 6.6528 25.0069 3.81622C22.3781 1.74196 19.0605 0.503906 15.455 0.503906C6.91919 0.503906 0 7.43974 0 15.9959C0 24.5519 6.91919 31.4877 15.455 31.4877C19.0605 31.4877 22.3781 30.2497 25.0069 28.1754C21.4121 25.3389 19.1038 20.9372 19.1038 15.9959Z" fill="#EB001B"/>
<path d="M50.0001 15.9959C50.0001 24.5519 43.0808 31.4877 34.5451 31.4877C30.9395 31.4877 27.6219 30.2497 24.9922 28.1754C28.5879 25.3389 30.8963 20.9372 30.8963 15.9959C30.8963 11.0544 28.5879 6.6528 24.9922 3.81622C27.6219 1.74196 30.9395 0.503906 34.5451 0.503906C43.0808 0.503906 50.0001 7.43974 50.0001 15.9959Z" fill="#F79E1B"/>
</g>
<defs>
<clipPath id="clip0_1901_8281">
<rect width="50" height="40" fill="white"/>
</clipPath>
</defs>
</svg>
