<svg width="118" height="40" viewBox="0 0 118 40" fill="none" xmlns="http://www.w3.org/2000/svg">
<path fill-rule="evenodd" clip-rule="evenodd" d="M114.853 40H3.14667C1.40892 40 0 38.5672 0 36.8V3.2C0 1.4328 1.40892 0 3.14667 0H114.853C116.591 0 118 1.4328 118 3.2V36.8C118 38.5672 116.591 40 114.853 40Z" fill="#FF333A"/>
<path d="M14.1229 23.1623L13.5801 20.6879H10.6907L10.1692 23.1623H7.30176L10.6907 8.42627H13.6887L17.165 23.1623H14.1229ZM13.1459 18.4119C12.8415 16.9983 12.5378 15.6063 12.3207 14.1703C12.2334 13.5295 12.1468 12.8671 12.0815 12.2263C11.951 14.3031 11.5387 16.3575 11.1257 18.4127H13.1459V18.4119Z" fill="white"/>
<path d="M24.1247 11.7624C23.5378 11.2544 22.8644 10.8128 22.0613 10.8128C21.214 10.8128 20.6272 11.3872 20.6272 12.2488C20.6272 14.7896 24.9719 14.7456 24.9719 18.8544C24.9719 21.3952 23.4725 23.4056 20.8443 23.4056C19.9538 23.4056 19.0845 23.1624 18.3458 22.6544V19.8704C18.9972 20.312 19.6714 20.6656 20.4746 20.6656C21.4524 20.6656 22.169 20.0472 22.169 19.0304C22.169 18.7656 22.1258 18.5224 22.0172 18.2792C21.7568 17.7272 20.9528 17.2408 20.4746 16.9096C18.8454 15.7608 17.8022 14.7 17.8022 12.5576C17.8022 10.2376 19.1278 8.20557 21.5822 8.20557C22.56 8.20557 23.2767 8.42637 24.1239 8.91277L24.1247 11.7624Z" fill="white"/>
<path d="M31.6923 23.1623L29.02 15.6727V23.1623H26.1526V8.42627H29.02V15.0103L31.4311 8.42627H34.3638L31.6915 15.2311L34.6895 23.1623H31.6923Z" fill="white"/>
<path d="M44.3498 14.9654C44.3719 15.3406 44.3719 15.7166 44.3719 16.0918C44.3719 17.1302 44.3286 18.191 44.1115 19.207C43.6332 21.4822 42.1778 23.4046 39.7234 23.4046C35.8129 23.4046 34.5747 19.1182 34.5747 15.8486C34.5747 12.4686 35.6611 8.20459 39.7234 8.20459C41.9395 8.20459 43.3728 9.61819 43.9817 11.695L41.2008 12.7998C41.0702 11.9382 40.8319 10.767 39.7455 10.767C37.7906 10.767 37.638 14.4126 37.638 15.8046C37.638 17.263 37.7033 20.7534 39.7667 20.7534C41.3306 20.7534 41.5045 18.7654 41.5265 17.5718H39.7014V14.9646H44.3498V14.9654Z" fill="white"/>
<path d="M51.403 23.1623L50.8602 20.6879H47.9707L47.4492 23.1623H44.5818L47.9707 8.42627H50.9687L54.445 23.1623H51.403ZM50.4251 18.4119C50.1207 16.9983 49.8171 15.6063 49.5999 14.1703C49.5126 13.5295 49.4261 12.8671 49.3608 12.2263C49.2302 14.3031 48.818 16.3575 48.405 18.4127H50.4251V18.4119Z" fill="white"/>
<path d="M65.445 23.1623L64.7283 12.5575C64.663 13.7063 64.4892 14.8327 64.2941 15.9599L63.0118 23.1623H60.8178L59.471 16.4903C59.3192 15.7615 59.1666 15.0319 59.1021 14.2807L58.9282 12.5575L58.472 23.1623H55.4087L56.6689 8.42627H60.4489L61.8609 17.1311L63.0118 8.42627H66.8791L68.3777 23.1623H65.445Z" fill="white"/>
<path d="M72.6266 8.42627C73.3873 8.42627 74.6688 8.47027 75.6678 9.46467C76.4498 10.2383 76.8628 11.4527 76.8628 12.6463C76.8628 13.3751 76.7109 14.1047 76.1894 14.7455C75.9502 15.0327 75.5813 15.3863 75.0377 15.6071C75.9715 15.9607 76.4277 16.6231 76.6016 16.9103C77.0146 17.6175 77.1011 18.4351 77.1011 18.9871C77.1011 20.0919 76.8187 21.0863 76.0147 21.9031C74.9071 23.0295 73.451 23.1623 72.6038 23.1623H69.5625V8.42627H72.6266ZM72.4307 14.4799C72.887 14.4575 73.4085 14.2591 73.6909 13.9719C74.1039 13.5519 74.1472 12.9335 74.1472 12.6023C74.1472 12.2487 74.1039 11.6967 73.6909 11.2767C73.4518 11.0335 73.0608 10.8351 72.4307 10.8351V14.4799ZM72.4307 20.6439C72.887 20.6439 73.4085 20.4895 73.7342 20.1799C74.0386 19.8927 74.277 19.3847 74.277 18.7439C74.277 18.0367 74.0378 17.5063 73.7122 17.1975C73.3645 16.8879 72.8429 16.7335 72.4307 16.7335V20.6439Z" fill="white"/>
<path d="M78.488 23.1623V8.42627H81.3554V20.4007H84.3534V23.1623H78.488Z" fill="white"/>
<path d="M85.5342 23.1623V8.42627H91.291V11.1655H88.4016V14.3471H90.9433V17.1311H88.4016V20.4447H91.3343V23.1623H85.5342Z" fill="white"/>
<path d="M98.1271 23.1623L95.5854 16.3799V23.1623H92.718V8.42627H95.8246C96.8889 8.42627 98.0618 8.51507 98.9744 9.13347C100.126 9.90707 100.691 11.3431 100.691 12.7127C100.691 14.3919 100.04 15.5847 98.6275 16.4687L101.147 23.1631H98.1271V23.1623ZM95.5854 14.7671C95.7372 14.7895 95.9111 14.7895 96.0637 14.7895C97.3019 14.7895 97.91 13.9279 97.91 12.7351C97.91 11.5423 97.3885 10.7247 96.129 10.7247H95.5862L95.5854 14.7671Z" fill="white"/>
<path d="M108.107 11.7624C107.52 11.2544 106.847 10.8128 106.043 10.8128C105.196 10.8128 104.609 11.3872 104.609 12.2488C104.609 14.7896 108.954 14.7456 108.954 18.8544C108.954 21.3952 107.455 23.4056 104.826 23.4056C103.936 23.4056 103.067 23.1624 102.328 22.6544V19.8704C102.979 20.312 103.654 20.6656 104.457 20.6656C105.435 20.6656 106.151 20.0472 106.151 19.0304C106.151 18.7656 106.108 18.5224 105.999 18.2792C105.739 17.7272 104.935 17.2408 104.457 16.9096C102.828 15.7608 101.784 14.7 101.784 12.5576C101.784 10.2376 103.11 8.20557 105.564 8.20557C106.542 8.20557 107.259 8.42637 108.106 8.91277L108.107 11.7624Z" fill="white"/>
<path d="M111.173 12.3236C112.215 12.3236 113.06 11.4647 113.06 10.4052C113.06 9.34571 112.215 8.48682 111.173 8.48682C110.131 8.48682 109.287 9.34571 109.287 10.4052C109.287 11.4647 110.131 12.3236 111.173 12.3236Z" fill="white"/>
<path d="M7.12866 29.286C7.12866 27.3092 8.5722 25.9756 10.4303 25.9756C11.6945 25.9756 12.4874 26.6372 12.95 27.4052L12.0154 27.9044C11.7134 27.3668 11.0998 26.9732 10.4303 26.9732C9.18501 26.9732 8.26068 27.9324 8.26068 29.286C8.26068 30.6196 9.18501 31.598 10.4303 31.598C11.1005 31.598 11.7134 31.1956 12.0154 30.6676L12.9586 31.1476C12.478 31.9148 11.6945 32.5964 10.4303 32.5964C8.5722 32.5956 7.12866 31.2524 7.12866 29.286Z" fill="white"/>
<path d="M13.8972 32.4806V26.0806H18.2089V27.0686H15.0009V28.7198H18.1429V29.7078H15.0009V31.4926H18.2089V32.4806H13.8972Z" fill="white"/>
<path d="M22.9949 32.4806L21.608 30.0918H20.5043V32.4806H19.4006V26.0806H22.165C23.4103 26.0806 24.2308 26.8966 24.2308 28.0854C24.2308 29.2182 23.4944 29.8414 22.7306 29.9662L24.278 32.4798H22.9949V32.4806ZM23.0988 28.0766C23.0988 27.4622 22.6456 27.0694 22.0234 27.0694H20.5043V29.103H22.0234C22.6456 29.103 23.0988 28.7006 23.0988 28.0766Z" fill="white"/>
<path d="M26.8001 32.4807V27.0695H24.8948V26.0815H29.8107V27.0695H27.9046V32.4807H26.8001Z" fill="white"/>
<path d="M30.9922 32.4806V26.0806H32.0959V32.4806H30.9922Z" fill="white"/>
<path d="M33.4939 32.4806V26.0806H37.8056V27.0686H34.5976V28.7198H37.7395V29.7078H34.5976V32.4806H33.4939Z" fill="white"/>
<path d="M39.054 32.4806V26.0806H40.1576V32.4806H39.054Z" fill="white"/>
<path d="M41.2825 29.2865C41.2825 27.3097 42.726 25.9761 44.5849 25.9761C45.8491 25.9761 46.6412 26.6377 47.1038 27.4057L46.1692 27.9041C45.8672 27.3665 45.2536 26.9729 44.5841 26.9729C43.3388 26.9729 42.4137 27.9321 42.4137 29.2857C42.4137 30.6193 43.338 31.5977 44.5841 31.5977C45.2536 31.5977 45.8672 31.1953 46.1692 30.6673L47.1125 31.1473C46.6318 31.9145 45.8483 32.5961 44.5841 32.5961C42.7252 32.5961 41.2825 31.2529 41.2825 29.2865Z" fill="white"/>
<path d="M52.6073 32.4806L52.1456 31.243H49.2585L48.7967 32.4806H47.542L50.0145 26.0806H51.3919L53.8636 32.4806H52.6073ZM50.7012 27.2038L49.5692 30.255H51.8333L50.7012 27.2038Z" fill="white"/>
<path d="M55.4883 32.4807V27.0695H53.583V26.0815H58.4989V27.0695H56.5928V32.4807H55.4883Z" fill="white"/>
<path d="M59.4915 32.4806V26.0806H63.8032V27.0686H60.5959V28.7198H63.7371V29.7078H60.5959V31.4926H63.8032V32.4806H59.4915Z" fill="white"/>
<path d="M67.2144 29.2865C67.2144 27.3769 68.5438 25.9761 70.431 25.9761C72.3088 25.9761 73.6485 27.3769 73.6485 29.2865C73.6485 31.1961 72.3088 32.5969 70.431 32.5969C68.5438 32.5961 67.2144 31.1953 67.2144 29.2865ZM72.5165 29.2865C72.5165 27.9625 71.6952 26.9737 70.431 26.9737C69.1574 26.9737 68.3464 27.9617 68.3464 29.2865C68.3464 30.6009 69.1574 31.5985 70.431 31.5985C71.6952 31.5985 72.5165 30.6009 72.5165 29.2865Z" fill="white"/>
<path d="M74.7664 32.4806V26.0806H79.0773V27.0686H75.8701V28.7198H79.0112V29.7078H75.8701V32.4806H74.7664Z" fill="white"/>
<path d="M84.1292 32.4807V27.0695H82.2231V26.0815H87.139V27.0695H85.2329V32.4807H84.1292Z" fill="white"/>
<path d="M91.9156 32.4806L90.5287 30.0918H89.425V32.4806H88.3213V26.0806H91.0856C92.3309 26.0806 93.1522 26.8966 93.1522 28.0854C93.1522 29.2182 92.4159 29.8414 91.652 29.9662L93.1994 32.4798H91.9156V32.4806ZM92.0194 28.0766C92.0194 27.4622 91.5663 27.0694 90.944 27.0694H89.425V29.103H90.944C91.5663 29.103 92.0194 28.7006 92.0194 28.0766Z" fill="white"/>
<path d="M94.127 29.9479V26.0815H95.2495V29.9191C95.2495 30.9359 95.8065 31.5983 96.8535 31.5983C97.9006 31.5983 98.4576 30.9359 98.4576 29.9191V26.0815H99.5801V29.9479C99.5801 31.5311 98.6841 32.5959 96.8535 32.5959C95.0324 32.5959 94.127 31.5311 94.127 29.9479Z" fill="white"/>
<path d="M100.386 31.5791L101.009 30.7063C101.433 31.1767 102.122 31.5983 102.999 31.5983C103.905 31.5983 104.254 31.1479 104.254 30.7151C104.254 29.3719 100.593 30.2071 100.593 27.8559C100.593 26.7903 101.499 25.9751 102.887 25.9751C103.858 25.9751 104.66 26.3015 105.236 26.8767L104.612 27.7111C104.112 27.2031 103.443 26.9727 102.783 26.9727C102.141 26.9727 101.725 27.2991 101.725 27.7695C101.725 28.9687 105.386 28.2303 105.386 30.6095C105.386 31.6751 104.641 32.5959 102.952 32.5959C101.792 32.5959 100.952 32.1735 100.386 31.5791Z" fill="white"/>
<path d="M107.861 32.4807V27.0695H105.955V26.0815H110.871V27.0695H108.965V32.4807H107.861Z" fill="white"/>
</svg>
