<svg width="182" height="56" viewBox="0 0 182 56" fill="none" xmlns="http://www.w3.org/2000/svg">
<g clip-path="url(#clip0_428_435)">
<path opacity="0.25" fill-rule="evenodd" clip-rule="evenodd" d="M180.583 52.9694V48.7765C180.614 48.3603 180.505 47.9457 180.274 47.5989C180.151 47.4619 179.998 47.3555 179.827 47.2881C179.656 47.2207 179.472 47.1942 179.29 47.2107C179.044 47.1898 178.798 47.2281 178.57 47.3225C178.342 47.4168 178.141 47.5645 177.981 47.7532C177.657 48.3011 177.513 48.9372 177.567 49.5721V52.9694H176.156V46.15H177.261L177.459 47.0438H177.531C177.736 46.7148 178.032 46.4533 178.384 46.2917C178.766 46.1116 179.185 46.0209 179.608 46.0265C181.2 46.0265 181.996 46.8588 181.996 48.5234V52.9705H180.58L180.583 52.9694ZM173.786 45.1387C173.679 45.1498 173.571 45.1368 173.47 45.1009C173.368 45.0649 173.276 45.0067 173.2 44.9306C173.123 44.8545 173.065 44.7624 173.028 44.6608C172.992 44.5592 172.978 44.4507 172.988 44.3432C172.981 44.2347 172.996 44.1259 173.031 44.0231C173.067 43.9204 173.123 43.826 173.195 43.7453C173.274 43.672 173.368 43.6156 173.469 43.5796C173.571 43.5435 173.679 43.5286 173.786 43.5356C173.892 43.5292 173.998 43.5445 174.097 43.5805C174.197 43.6166 174.288 43.6727 174.365 43.7453C174.438 43.826 174.494 43.9204 174.529 44.0231C174.565 44.1259 174.58 44.2347 174.572 44.3432C174.578 44.4493 174.563 44.5554 174.527 44.6555C174.492 44.7555 174.437 44.8474 174.365 44.9257C174.289 44.9993 174.197 45.0562 174.098 45.0928C173.998 45.1295 173.892 45.1451 173.786 45.1387ZM168.372 52.9694L167.514 49.7851C167.411 49.448 167.223 48.6649 166.95 47.4358H166.896C166.663 48.5456 166.479 49.3325 166.344 49.7966L165.462 52.9694H163.901L162.043 46.15H163.483L164.33 49.5106C164.521 50.3411 164.657 51.0522 164.738 51.6441H164.773C164.814 51.3439 164.875 50.9997 164.957 50.6114C165.038 50.223 165.108 49.933 165.166 49.7412L166.175 46.1528H167.723L168.701 49.7412C168.762 49.9425 168.837 50.2508 168.927 50.6663C169.001 50.9849 169.055 51.3083 169.086 51.6342H169.134C169.234 50.9199 169.375 50.2118 169.554 49.5133L170.412 46.1528H171.829L169.957 52.9694H168.372H168.372ZM154.594 56C153.345 56.0279 152.117 55.6815 151.065 55.0049C150.013 54.3284 149.186 53.3523 148.688 52.2014C148.191 51.0505 148.047 49.7768 148.273 48.5429C148.5 47.3091 149.087 46.171 149.96 45.2739C150.833 44.3768 151.953 43.7613 153.176 43.5061C154.398 43.2509 155.669 43.3674 156.826 43.8409C157.983 44.3144 158.973 45.1233 159.67 46.1644C160.367 47.2055 160.739 48.4316 160.739 49.6863C160.758 51.3421 160.121 52.9374 158.968 54.1214C157.816 55.3054 156.242 55.9812 154.594 56ZM154.594 44.3827C153.545 44.3589 152.512 44.6497 151.628 45.218C150.744 45.7863 150.049 46.6063 149.631 47.5733C149.213 48.5403 149.091 49.6105 149.282 50.6473C149.472 51.6841 149.965 52.6405 150.699 53.3943C151.433 54.1481 152.373 54.6653 153.401 54.8797C154.428 55.0942 155.496 54.9962 156.468 54.5983C157.44 54.2004 158.272 53.5206 158.857 52.6457C159.443 51.7708 159.756 50.7405 159.756 49.6863C159.771 48.2955 159.236 46.9556 158.268 45.961C157.3 44.9665 155.978 44.3988 154.594 44.3827ZM152.166 52.1568L153.838 50.4296C154.185 50.0784 154.513 49.7095 154.822 49.3245C154.966 49.1369 155.085 48.9306 155.174 48.7112C155.249 48.5147 155.286 48.3059 155.284 48.0957C155.291 47.9654 155.271 47.835 155.226 47.7126C155.18 47.5903 155.11 47.4787 155.02 47.3848C154.922 47.2949 154.806 47.2256 154.681 47.181C154.556 47.1364 154.423 47.1174 154.29 47.1251C154.043 47.1248 153.798 47.1727 153.569 47.2662C153.278 47.3971 153.007 47.569 152.764 47.7768L152.201 47.0702C152.51 46.7891 152.866 46.564 153.252 46.4048C153.599 46.2729 153.968 46.2064 154.339 46.2088C154.866 46.1824 155.383 46.3556 155.789 46.6941C155.971 46.8576 156.114 47.0595 156.209 47.2852C156.303 47.511 156.347 47.755 156.336 47.9997C156.337 48.2927 156.284 48.5835 156.178 48.8567C156.056 49.1565 155.894 49.4379 155.695 49.6928C155.361 50.1063 154.999 50.4955 154.61 50.8573L153.483 51.9784V52.024H156.562V52.9694H152.166V52.1568ZM145.292 53.0902C143.955 53.0902 143.287 52.3668 143.287 50.9199V47.2475H142.381V46.6063L143.353 46.0759L143.833 44.6331H144.704V46.15H146.594V47.2481H144.704V50.8979C144.692 51.0375 144.709 51.1779 144.752 51.3109C144.796 51.4438 144.866 51.5665 144.958 51.6715C145.048 51.7559 145.153 51.8215 145.268 51.8644C145.383 51.9073 145.505 51.9266 145.628 51.9213C145.979 51.9208 146.327 51.8652 146.66 51.7566V52.8481C146.467 52.929 146.265 52.9879 146.059 53.0238C145.806 53.0702 145.549 53.0925 145.292 53.0902ZM137.824 51.4102C138.004 51.5932 138.221 51.7354 138.46 51.8273C138.699 51.9193 138.955 51.9588 139.21 51.9433C139.578 51.9457 139.944 51.9074 140.303 51.8291C140.679 51.7403 141.044 51.6131 141.393 51.4497V52.6274C141.062 52.7914 140.711 52.9115 140.349 52.9848C139.951 53.0587 139.547 53.0939 139.142 53.0896C138.696 53.1149 138.25 53.0453 137.833 52.8854C137.415 52.7255 137.036 52.4789 136.72 52.1618C136.107 51.458 135.793 50.5402 135.846 49.6061C135.792 48.6611 136.079 47.7283 136.656 46.9796C136.931 46.6613 137.274 46.4098 137.66 46.2443C138.045 46.0787 138.463 46.0033 138.882 46.0238C139.267 46.0041 139.651 46.0671 140.009 46.2086C140.367 46.35 140.691 46.5667 140.959 46.844C141.495 47.4682 141.769 48.2774 141.722 49.1005V49.8834H137.298C137.281 50.4407 137.468 50.985 137.824 51.4124V51.4102ZM140.338 48.8358C140.364 48.3754 140.223 47.9213 139.942 47.5566C139.809 47.4105 139.645 47.2957 139.462 47.2206C139.28 47.1454 139.083 47.1117 138.886 47.1218C138.685 47.1133 138.485 47.1481 138.3 47.2238C138.114 47.2996 137.946 47.4146 137.808 47.561C137.511 47.921 137.341 48.37 137.325 48.8375H140.338V48.8358ZM132.137 53.0902C131.76 53.1076 131.384 53.0315 131.043 52.8688C130.702 52.706 130.405 52.4616 130.18 52.1568H130.084L129.826 52.9645H128.77V43.3753H130.18V45.6565C130.18 45.8252 130.172 46.0759 130.156 46.4086C130.14 46.7413 130.128 46.9531 130.12 47.0438H130.18C130.393 46.7146 130.687 46.4472 131.035 46.2687C131.383 46.0901 131.771 46.0066 132.161 46.0265C132.534 46.0099 132.906 46.0856 133.243 46.2469C133.581 46.4081 133.874 46.6501 134.096 46.9516C134.602 47.7184 134.845 48.6295 134.789 49.5474C134.844 50.4707 134.598 51.3868 134.088 52.1568C133.863 52.4605 133.568 52.7043 133.228 52.867C132.888 53.0297 132.513 53.1063 132.137 53.0902ZM131.795 47.208C131.564 47.1867 131.331 47.2225 131.117 47.3123C130.903 47.402 130.715 47.543 130.567 47.723C130.272 48.2464 130.137 48.8461 130.18 49.4463V49.5452C130.132 50.1709 130.264 50.7973 130.563 51.3487C130.708 51.5413 130.9 51.6936 131.12 51.7912C131.339 51.8888 131.581 51.9285 131.82 51.9065C132.047 51.9166 132.272 51.8652 132.472 51.7578C132.672 51.6504 132.84 51.4909 132.957 51.296C133.247 50.7558 133.381 50.1451 133.344 49.5325C133.344 47.9847 132.827 47.2107 131.795 47.2107V47.208ZM116.106 56C115.799 56.0008 115.492 55.9656 115.193 55.8951V54.7515C115.432 54.8037 115.675 54.8286 115.919 54.8256C116.6 54.8256 117.078 54.4208 117.354 53.6112L117.6 52.9699L114.935 46.1506H116.472L117.822 50.0162C118.013 50.5178 118.15 51.0387 118.23 51.5699H118.278C118.327 51.2915 118.393 51.0164 118.476 50.7464C118.572 50.4236 119.081 48.8915 120.001 46.15H121.525L118.686 53.8758C118.17 55.2941 117.31 56.0031 116.106 56.0027V56ZM113.054 52.0169H113.006C112.756 52.3733 112.426 52.665 112.042 52.8678C111.647 53.0315 111.221 53.1082 110.794 53.0929C110.516 53.1095 110.238 53.0701 109.976 52.9769C109.713 52.8838 109.472 52.7388 109.267 52.5505C109.076 52.3453 108.929 52.1031 108.835 51.8387C108.741 51.5743 108.702 51.2934 108.72 51.0132C108.702 50.7047 108.762 50.3965 108.896 50.1179C109.029 49.8393 109.231 49.5994 109.482 49.4211C110.186 49.0099 110.991 48.8068 111.805 48.8353L112.953 48.7985V48.4378C112.98 48.086 112.873 47.737 112.655 47.4605C112.533 47.3444 112.388 47.2556 112.229 47.1998C112.07 47.1439 111.901 47.1224 111.734 47.1366C111.402 47.1355 111.071 47.1875 110.756 47.2909C110.448 47.392 110.147 47.5136 109.855 47.6549L109.4 46.6189C109.773 46.4214 110.17 46.2738 110.582 46.1797C110.979 46.0828 111.385 46.0322 111.794 46.0287C112.479 45.9781 113.159 46.1797 113.707 46.5958C113.937 46.8279 114.114 47.1075 114.225 47.4153C114.337 47.7231 114.38 48.0517 114.352 48.3779V52.9694H113.343L113.054 52.0169ZM112.934 49.711L112.081 49.7478C111.577 49.7315 111.077 49.8495 110.632 50.0898C110.482 50.1923 110.362 50.3323 110.282 50.496C110.203 50.6597 110.167 50.8414 110.179 51.0231C110.171 51.1528 110.19 51.2828 110.236 51.4045C110.281 51.5261 110.352 51.6368 110.443 51.7292C110.665 51.9115 110.949 52.0009 111.235 51.979C111.688 52.001 112.131 51.8433 112.469 51.5398C112.629 51.3782 112.753 51.1845 112.833 50.9714C112.913 50.7584 112.948 50.5307 112.934 50.3034V49.7137V49.711ZM106.093 43.3753H107.506V52.9694H106.095V43.3753H106.093ZM102.027 53.0929C101.65 53.1103 101.274 53.0342 100.933 52.8715C100.592 52.7087 100.296 52.4643 100.071 52.1596H99.9864C100.042 52.735 100.071 53.0843 100.071 53.2077V56.0005H98.6599V46.15H99.7994C99.8311 46.2774 99.8971 46.5816 99.9973 47.0625H100.073C100.28 46.7276 100.574 46.4549 100.922 46.2726C101.271 46.0904 101.661 46.0054 102.053 46.0265C102.427 46.0099 102.798 46.0856 103.136 46.2469C103.473 46.4081 103.766 46.6501 103.989 46.9516C104.494 47.7183 104.738 48.6294 104.682 49.5474C104.736 50.4715 104.488 51.388 103.975 52.1568C103.75 52.4602 103.456 52.7038 103.116 52.8665C102.777 53.0292 102.403 53.106 102.027 53.0902V53.0929ZM102.84 47.7998C102.716 47.6089 102.544 47.4541 102.341 47.3507C102.138 47.2474 101.912 47.1991 101.685 47.2107C101.455 47.1909 101.224 47.2264 101.01 47.3144C100.797 47.4023 100.607 47.5401 100.457 47.7164C100.161 48.1997 100.025 48.7655 100.071 49.3316V49.5474C100.022 50.173 100.155 50.7995 100.453 51.3509C100.598 51.5431 100.789 51.6951 101.008 51.7927C101.228 51.8903 101.468 51.9302 101.707 51.9087C101.933 51.9163 102.157 51.8632 102.355 51.7548C102.553 51.6464 102.719 51.4866 102.836 51.2921C103.13 50.7559 103.268 50.1468 103.232 49.5353C103.271 48.9308 103.135 48.3282 102.84 47.7998ZM90.4622 56C89.2136 56.0278 87.985 55.6813 86.9332 55.0047C85.8814 54.328 85.0541 53.352 84.557 52.201C84.0598 51.05 83.9153 49.7764 84.1418 48.5426C84.3684 47.3088 84.9558 46.1707 85.829 45.2737C86.7022 44.3766 87.8216 43.7612 89.0445 43.5061C90.2674 43.2509 91.5382 43.3675 92.6948 43.8409C93.8515 44.3144 94.8414 45.1233 95.5384 46.1644C96.2354 47.2055 96.6079 48.4316 96.6082 49.6863C96.6264 51.3421 95.9892 52.9375 94.8366 54.1215C93.6841 55.3055 92.1106 55.9812 90.4622 56ZM90.4622 44.3827C89.4131 44.3592 88.3807 44.6502 87.4968 45.2186C86.613 45.787 85.9178 46.6071 85.5 47.5741C85.0822 48.5411 84.9607 49.6113 85.151 50.648C85.3413 51.6848 85.8348 52.641 86.5686 53.3947C87.3023 54.1485 88.2429 54.6655 89.2704 54.8798C90.298 55.0942 91.3658 54.9961 92.3376 54.5982C93.3094 54.2003 94.1411 53.5205 94.7266 52.6456C95.3121 51.7707 95.6249 50.7405 95.6249 49.6863C95.6402 48.2953 95.105 46.9552 94.1368 45.9607C93.1687 44.9661 91.8469 44.3985 90.4622 44.3827ZM88.4313 52.1568L90.1037 50.4296C90.4502 50.0784 90.7786 49.7095 91.0875 49.3245C91.2319 49.1369 91.3504 48.9306 91.44 48.7112C91.5143 48.5147 91.5513 48.3059 91.5493 48.0957C91.5563 47.9654 91.5365 47.835 91.4911 47.7126C91.4457 47.5903 91.3756 47.4787 91.2853 47.3848C91.1871 47.2949 91.0719 47.2256 90.9466 47.181C90.8213 47.1364 90.6884 47.1174 90.5557 47.1251C90.3086 47.1248 90.0637 47.1727 89.8348 47.2662C89.5437 47.3971 89.2726 47.569 89.0297 47.7768L88.4663 47.0702C88.7759 46.7891 89.1317 46.564 89.5178 46.4048C89.8649 46.2729 90.2332 46.2064 90.6043 46.2088C91.1313 46.1824 91.6489 46.3556 92.0549 46.6941C92.2364 46.8576 92.3796 47.0595 92.4741 47.2852C92.5686 47.511 92.6121 47.755 92.6014 47.9997C92.6029 48.2927 92.5495 48.5835 92.444 48.8567C92.3219 49.1565 92.1592 49.4379 91.9603 49.6928C91.6266 50.1063 91.2641 50.4955 90.8754 50.8573L89.749 51.9784V52.024H92.8277V52.9694H88.4313V52.1568ZM81.0228 53.0902C79.6867 53.0902 79.0185 52.3668 79.0181 50.9199V47.2475H78.1119V46.6063L79.0842 46.0759L79.5646 44.6331H80.4348V46.15H82.3253V47.2481H80.4348V50.8979C80.4231 51.0375 80.4396 51.178 80.4835 51.311C80.5274 51.4439 80.5976 51.5666 80.69 51.6715C80.7792 51.7559 80.8844 51.8215 80.9993 51.8644C81.1142 51.9073 81.2365 51.9267 81.359 51.9213C81.7095 51.9208 82.0579 51.8653 82.3914 51.7566V52.8481C82.1981 52.929 81.9965 52.9879 81.7902 53.0238C81.5371 53.0702 81.2801 53.0925 81.0228 53.0902ZM73.5554 51.4102C73.7352 51.5931 73.952 51.7353 74.191 51.8273C74.4301 51.9192 74.6859 51.9588 74.9414 51.9433C75.3088 51.9456 75.6754 51.9073 76.0345 51.8291C76.4095 51.7402 76.7745 51.6131 77.1238 51.4497V52.6274C76.7925 52.7914 76.4414 52.9115 76.0793 52.9848C75.6828 53.0587 75.2802 53.094 74.8769 53.0902C74.431 53.1156 73.9847 53.0462 73.5673 52.8863C73.15 52.7264 72.771 52.4797 72.4552 52.1623C71.8414 51.4585 71.5274 50.5408 71.5807 49.6067C71.5265 48.6617 71.8142 47.7288 72.3907 46.9801C72.6656 46.6619 73.0088 46.4105 73.3945 46.2449C73.7802 46.0793 74.1983 46.0039 74.6173 46.0243C75.0017 46.0047 75.3858 46.0677 75.7439 46.2091C76.1021 46.3506 76.4261 46.5672 76.6942 46.8445C77.2312 47.4684 77.5056 48.2776 77.4594 49.101V49.8839H73.0356C73.0164 50.4402 73.2014 50.9841 73.5554 51.4124V51.4102ZM76.0695 48.8358C76.095 48.3754 75.9543 47.9212 75.6732 47.5566C75.5399 47.4104 75.3761 47.2956 75.1934 47.2205C75.0108 47.1453 74.8139 47.1116 74.6168 47.1218C74.4164 47.1133 74.2165 47.1481 74.0306 47.2238C73.8448 47.2996 73.6773 47.4146 73.5395 47.561C73.2422 47.921 73.0723 48.37 73.0564 48.8375H76.0695V48.8358ZM67.868 53.0902C67.4907 53.1076 67.1149 53.0315 66.7737 52.8688C66.4326 52.706 66.1364 52.4616 65.9114 52.1568H65.8152L65.5572 52.9645H64.5007V43.3753H65.9136V45.6565C65.9136 45.8252 65.9055 46.0759 65.8895 46.4086C65.8735 46.7413 65.8615 46.9531 65.8534 47.0438H65.9136C66.1258 46.7146 66.4206 46.4472 66.7682 46.2687C67.1159 46.0901 67.5043 46.0066 67.8942 46.0265C68.2675 46.0099 68.6392 46.0856 68.9766 46.2469C69.314 46.4081 69.6069 46.6501 69.8296 46.9516C70.335 47.7183 70.5784 48.6294 70.5231 49.5474C70.577 50.471 70.3297 51.3871 69.8186 52.1568C69.594 52.4605 69.2988 52.7044 68.9588 52.8671C68.6188 53.0298 68.2443 53.1064 67.868 53.0902ZM67.5259 47.2107C67.295 47.1894 67.0624 47.2253 66.8484 47.315C66.6344 47.4048 66.4456 47.5458 66.2983 47.7257C66.0031 48.2493 65.8685 48.8489 65.9114 49.4491V49.5479C65.8626 50.1736 65.9955 50.8001 66.294 51.3514C66.4388 51.5436 66.6299 51.6957 66.8493 51.7932C67.0687 51.8908 67.3093 51.9307 67.5483 51.9092C67.775 51.9194 68.0002 51.868 68.2003 51.7606C68.4004 51.6532 68.568 51.4937 68.6856 51.2987C68.9754 50.7585 69.1094 50.1478 69.0726 49.5353C69.0737 47.9856 68.5581 47.2107 67.5259 47.2107ZM174.485 52.9694H173.075V46.15H174.485V52.9694Z" fill="white"/>
<path fill-rule="evenodd" clip-rule="evenodd" d="M145.06 9.15052H142.794C142.642 9.14051 142.489 9.16327 142.347 9.21727C142.205 9.27127 142.075 9.35526 141.968 9.46359C141.861 9.57192 141.778 9.70209 141.725 9.84534C141.671 9.9886 141.649 10.1416 141.66 10.2941V19.4446C141.66 28 138.112 30.8824 134.86 30.8824C133.989 30.8824 133.727 28.7165 133.727 29.7388V10.2941C133.753 10.1386 133.742 9.979 133.694 9.82869C133.646 9.67838 133.564 9.54164 133.453 9.42983C133.342 9.31802 133.206 9.23435 133.057 9.18578C132.908 9.1372 132.749 9.12511 132.594 9.15052H122.394C122.242 9.161 122.09 9.13856 121.947 9.08471C121.805 9.03087 121.675 8.94689 121.568 8.83844C121.46 8.73 121.377 8.59963 121.325 8.45617C121.272 8.3127 121.25 8.15949 121.261 8.00691C121.261 5.45397 124.679 1.14416 130.327 1.14416H152.993C154.096 1.14416 154.126 1.49773 154.126 2.28777C154.126 6.46416 150.034 9.15052 145.06 9.15052ZM112.195 8.00691H104.262C102.719 8.00691 101.995 8.6844 101.995 10.2947C101.995 11.9049 102.736 12.5824 104.262 12.5824H113.328C114.1 12.5824 114.461 12.8877 114.461 13.726C114.461 17.1333 111.724 19.4452 107.662 19.4452H104.262C102.938 19.4452 101.995 19.9668 101.995 21.7329C101.995 23.4991 102.761 24.0207 104.262 24.0207H118.995C119.879 24.0207 120.128 24.2584 120.128 25.1643C120.128 27.0859 118.398 30.8835 111.062 30.8835H95.1953C94.0476 30.8835 94.0623 28.8197 94.0623 29.7398V8.00636C94.0623 3.51867 98.1396 1.14362 101.995 1.14362H118.993C120.4 1.14362 120.126 1.87052 120.126 2.28722C120.128 5.13828 118.386 8.00691 112.195 8.00691ZM84.9962 30.8824H64.5969V1.14362H83.8627C87.97 1.14362 90.6623 4.24777 90.6623 6.86275V13.7255C90.6623 14.9482 89.5293 16.0133 89.5293 16.0133C89.8818 16.2803 90.1676 16.626 90.3642 17.023C90.5609 17.42 90.6629 17.8576 90.6623 18.301V26.3074C90.6623 28.7857 88.5739 30.8824 84.9962 30.8824ZM83.0751 9.33334C83.0751 8.89651 82.9024 8.47758 82.5949 8.16869C82.2874 7.85981 81.8703 7.68628 81.4355 7.68628H74.3304C73.8955 7.68628 73.4785 7.85981 73.171 8.16869C72.8635 8.47758 72.6907 8.89651 72.6907 9.33334V10.9804C72.6907 11.4172 72.8635 11.8362 73.171 12.145C73.4785 12.4539 73.8955 12.6275 74.3304 12.6275H81.4355C81.8703 12.6275 82.2874 12.4539 82.5949 12.145C82.9024 11.8362 83.0751 11.4172 83.0751 10.9804V9.33334ZM83.0751 20.8628C83.0751 20.4259 82.9024 20.007 82.5949 19.6981C82.2874 19.3892 81.8703 19.2157 81.4355 19.2157H74.3304C73.8955 19.2157 73.4785 19.3892 73.171 19.6981C72.8635 20.007 72.6907 20.4259 72.6907 20.8628V22.5098C72.6907 22.9466 72.8635 23.3656 73.171 23.6745C73.4785 23.9833 73.8955 24.1569 74.3304 24.1569H81.4355C81.8703 24.1569 82.2874 23.9833 82.5949 23.6745C82.9024 23.3656 83.0751 22.9466 83.0751 22.5098V20.8628Z" fill="white"/>
<path fill-rule="evenodd" clip-rule="evenodd" d="M39.6645 37.7451L18.1305 32.026C18.1305 32.026 30.6656 27.6294 33.9984 20.5882C38.2686 11.5662 36.0431 0 23.7988 0C-2.9514 0 10.1996 13.7255 10.1996 13.7255L16.9975 12.5819C17.1662 12.0463 17.4602 11.5591 17.8548 11.161C18.2494 10.763 18.7332 10.4657 19.2657 10.2941C21.1786 9.58478 24.9323 14.8691 24.9323 14.8691L10.1996 33.1701L28.3318 41.1765L39.6645 37.7451Z" fill="#BE2424"/>
<path fill-rule="evenodd" clip-rule="evenodd" d="M22.6658 46.8956L0 38.8887V32.026C0 32.026 7.90416 27.7343 12.4662 24.0196C17.0282 20.305 20.1572 18.4251 20.3988 13.7255C20.5775 10.2546 16.6719 8.06238 13.5992 9.15054C11.4338 9.91752 10.1997 13.7255 10.1997 13.7255L2.26653 9.15054C2.26653 9.15054 5.642 0.175715 16.9976 1.14364C28.3532 2.11156 33.893 8.76403 29.4654 20.5883C26.1861 29.3473 11.3326 33.1701 11.3326 33.1701L27.1989 38.8893L22.6658 46.8956Z" fill="#FF4949"/>
<path fill-rule="evenodd" clip-rule="evenodd" d="M48.7312 3.43138C48.7312 3.43138 46.9052 0.254202 35.1314 1.14361C23.3577 2.03303 20.3987 16.0133 20.3987 16.0133L27.1983 18.301H36.265C36.265 18.301 34.1887 22.8941 28.3319 30.8824C22.4751 38.8706 19.2657 42.3201 19.2657 42.3201V50.327L26.0653 54.902L54.3972 32.026L44.1981 29.7388L48.7312 3.43138Z" fill="#01444A"/>
<path fill-rule="evenodd" clip-rule="evenodd" d="M37.398 18.3005H27.1988C27.1988 18.3005 29.2692 7.14551 40.798 3.43139C50.8381 0.196566 57.3786 8.2699 53.2642 17.1569C50.4735 23.184 48.0124 27.451 45.3311 30.8824C42.6497 34.3137 37.398 40.0329 37.398 40.0329L54.3955 32.0265V40.0329L26.0653 54.902V45.7515C26.0653 45.7515 34.944 35.0977 40.798 26.3074C46.6521 17.517 46.9357 8.26002 41.931 11.4383C38.2544 13.7727 37.398 18.3005 37.398 18.3005Z" fill="#0B848F"/>
</g>
<defs>
<clipPath id="clip0_428_435">
<rect width="182" height="56" fill="white"/>
</clipPath>
</defs>
</svg>
