<svg width="16" height="16" viewBox="0 0 16 16" fill="none" xmlns="http://www.w3.org/2000/svg">
<g clip-path="url(#clip0_428_538)">
<path d="M14.125 6.91413L8.00625 13.0454L1.875 6.89851C1.45312 6.46413 0.75625 6.45788 0.325 6.87976C-0.109376 7.30163 -0.115627 7.99851 0.306249 8.42976C0.3125 8.43601 0.318749 8.44226 0.321874 8.44538L7.23125 15.3735C7.65938 15.8016 8.35313 15.8048 8.78438 15.3766C8.78438 15.3766 8.78438 15.3766 8.7875 15.3735L15.6813 8.46413C16.1094 8.03601 16.1094 7.33913 15.6781 6.91101C15.2469 6.48288 14.5531 6.48288 14.125 6.91413Z" fill="white"/>
<path d="M1.09679 4.2766L14.903 4.2766C15.5093 4.28597 16.0093 3.80472 16.0187 3.19847C16.028 2.59222 15.5468 2.09222 14.9405 2.08285L14.903 2.08285L1.09679 2.08285C0.49054 2.07347 -0.0094603 2.55472 -0.018835 3.16097C-0.0282096 3.76722 0.453039 4.26722 1.05929 4.2766C1.07179 4.2766 1.08429 4.2766 1.09679 4.2766Z" fill="white"/>
</g>
<defs>
<clipPath id="clip0_428_538">
<rect width="16" height="16" fill="white" transform="translate(16 16) rotate(-180)"/>
</clipPath>
</defs>
</svg>
