<svg width="26" height="26" viewBox="0 0 26 26" fill="none" xmlns="http://www.w3.org/2000/svg">
<path d="M17.8729 0C16.4867 0.0958744 14.8666 0.983119 13.9225 2.13849C13.0613 3.18661 12.3528 4.74335 12.629 6.25621C14.1435 6.30334 15.7084 5.39497 16.6151 4.2201C17.4634 3.12648 18.1052 1.57949 17.8729 0Z" fill="#101D2C"/>
<path d="M23.3537 8.71841C22.0228 7.04955 20.1525 6.08105 18.3861 6.08105C16.0543 6.08105 15.0679 7.19742 13.4478 7.19742C11.7773 7.19742 10.5082 6.0843 8.49155 6.0843C6.51069 6.0843 4.40145 7.29492 3.06408 9.36516C1.18397 12.2804 1.50572 17.7615 4.55257 22.4301C5.64294 24.1006 7.09893 25.9791 9.00342 25.9953C10.6983 26.0116 11.176 24.9082 13.4721 24.8968C15.7683 24.8838 16.2038 26.0099 17.8954 25.9921C19.8015 25.9774 21.3371 23.8958 22.4275 22.2253C23.2091 21.0277 23.5 20.4248 24.1061 19.0729C19.6975 17.3942 18.9906 11.125 23.3537 8.71841Z" fill="#101D2C"/>
</svg>
