<svg width="14" height="14" viewBox="0 0 14 14" fill="none" xmlns="http://www.w3.org/2000/svg">
<g clip-path="url(#clip0_26_464)">
<path d="M14 3.53499V1.02083C14 0.845825 13.895 0.688326 13.7375 0.618326C13.6792 0.594993 13.6208 0.583325 13.5625 0.583325C13.4517 0.583325 13.3467 0.62416 13.265 0.699993L7 6.51583L0.735 0.699993C0.606667 0.583326 0.42 0.548326 0.2625 0.618326C0.105 0.688326 0 0.845825 0 1.02083V3.53499L7 10.0333L14 3.53499Z" fill="#101D2C"/>
<path d="M14 6.85418V3.53502L7 10.0333L0 3.53502V6.85418C0 6.97668 0.0525 7.09335 0.14 7.17502L6.7025 13.3C6.87167 13.4581 7.12775 13.4581 7.2975 13.3L13.86 7.17502C13.9475 7.09335 14 6.97668 14 6.85418Z" fill="#101D2C"/>
<path d="M7 10.0333L0 3.53499V1.02083C0 0.845825 0.105 0.688326 0.2625 0.618326C0.31675 0.594409 0.375083 0.582742 0.432833 0.582742C0.541917 0.582742 0.651 0.624159 0.735 0.700576L7 6.51583V10.0333Z" fill="#101D2C"/>
<path d="M7 13.4185C6.89383 13.4185 6.78708 13.3788 6.7025 13.3L0.14 7.17504C0.0525 7.09337 0 6.97671 0 6.85421V3.53504L7 10.0334V13.4185Z" fill="#101D2C"/>
</g>
<defs>
<clipPath id="clip0_26_464">
<rect width="14" height="14" fill="white" transform="matrix(1 0 0 -1 0 14)"/>
</clipPath>
</defs>
</svg>
