<svg width="16" height="28" viewBox="0 0 16 28" fill="none" xmlns="http://www.w3.org/2000/svg">
<path d="M0.0968885 8.12339C0.293907 8.59897 0.758028 8.90909 1.27272 8.90909H6.36363V26.7273C6.36363 27.4302 6.93347 28 7.63636 28C8.33924 28 8.90908 27.4302 8.90908 26.7273V8.90909H14C14.5148 8.90909 14.9789 8.59897 15.1758 8.12339C15.3728 7.64782 15.2639 7.10038 14.8999 6.73638L8.53626 0.37274C8.28782 0.124218 7.96209 0 7.63636 0C7.31062 0 6.98489 0.124218 6.73637 0.372826L0.372732 6.73646C0.00881672 7.10046 -0.100129 7.64782 0.0968885 8.12339ZM7.63636 3.07262L10.9274 6.36364H4.34542L7.63636 3.07262Z" fill="#101D2C"/>
</svg>
