<svg width="40" height="40" viewBox="0 0 40 40" fill="none" xmlns="http://www.w3.org/2000/svg">
<path d="M19.971 16.4706C23.2146 16.4706 25.8533 13.8318 25.8533 10.5882C25.5576 2.7952 14.3831 2.79732 14.0886 10.5883C14.0886 13.8318 16.7274 16.4706 19.971 16.4706ZM19.971 7.05881C21.9171 7.05881 23.5004 8.64211 23.5004 10.5882C23.323 15.2641 16.6183 15.2627 16.4416 10.5881C16.4416 8.64211 18.0248 7.05881 19.971 7.05881Z" fill="#4DA534"/>
<path d="M31.7938 3.52941V0H8.20633V3.52941H2.32397V13.4285L5.36609 16.4706H8.2708C8.73229 20.7675 11.6681 24.2337 16.4416 25.4471V30.5882C16.4416 31.8856 15.3861 32.9412 14.0887 32.9412H11.0087L8.65574 37.6471H5.85339V40H34.0887V37.6471H31.2863L28.9334 32.9412H25.8534C24.556 32.9412 23.5004 31.8856 23.5004 30.5882V25.3521C27.5589 24.0882 30.6839 20.6864 31.552 16.4706H34.634L37.6761 13.4285V3.52941H31.7938ZM4.67692 12.4539V5.88235H8.20633V14.1176H6.34068L4.67692 12.4539ZM27.4792 35.2941L28.6557 37.6471H11.2863L12.4628 35.2941H27.4792ZM21.7806 32.9412H18.1615C18.5633 32.2485 18.7946 31.4451 18.7946 30.5882V25.8344C19.5689 25.8963 20.3557 25.9032 21.1475 25.8264V30.5882C21.1475 31.4451 21.3788 32.2485 21.7806 32.9412ZM29.4408 14.0886C29.3157 26.0718 10.9975 26.8265 10.5593 15.2651V2.35294H29.4408V14.0886ZM35.3232 12.4539L33.6594 14.1176H31.7934C31.7934 14.1057 31.7938 5.8909 31.7938 5.88235H35.3232V12.4539Z" fill="#4DA534"/>
</svg>
